M48
; DRILL file {KiCad (6.0.1)} date Wed May  4 14:42:44 2022
; FORMAT={-:-/ absolute / inch / decimal}
; #@! TF.CreationDate,2022-05-04T14:42:44-07:00
; #@! TF.GenerationSoftware,Kicad,Pcbnew,(6.0.1)
; #@! TF.FileFunction,Plated,1,2,PTH
FMAT,2
INCH
; #@! TA.AperFunction,Plated,PTH,ViaDrill
T1C0.0150
%
G90
G05
T1
X1.16Y-2.61
X1.1885Y-2.72
X1.27Y-2.67
X1.32Y-2.59
X1.34Y-2.67
X1.45Y-3.12
X1.48Y-2.4
X1.57Y-3.43
X1.6Y-3.24
X1.67Y-2.91
X1.83Y-2.55
X1.86Y-3.04
X1.9Y-2.7
X1.9Y-2.76
X1.9Y-2.82
X1.92Y-3.18
X1.97Y-2.79
X1.99Y-2.55
X2.06Y-2.29
X2.11Y-2.35
X2.2529Y-2.9
X2.6Y-2.28
X2.6Y-2.51
X2.83Y-2.96
X2.88Y-2.28
X2.88Y-2.51
X2.97Y-2.97
X3.16Y-3.2
X3.27Y-1.83
X3.38Y-3.26
X3.385Y-2.685
X3.49Y-1.73
X3.58Y-2.73
X3.68Y-2.57
X3.8Y-2.86
X3.82Y-2.72
X3.87Y-1.58
X3.9Y-2.79
X3.99Y-2.42
X4.02Y-2.05
X4.29Y-2.12
X4.38Y-1.84
T0
M30
