%TF.GenerationSoftware,KiCad,Pcbnew,(6.0.4)*%
%TF.CreationDate,2022-06-03T16:22:06-07:00*%
%TF.ProjectId,Foxy_Pride,466f7879-5f50-4726-9964-652e6b696361,rev?*%
%TF.SameCoordinates,Original*%
%TF.FileFunction,Legend,Bot*%
%TF.FilePolarity,Positive*%
%FSLAX46Y46*%
G04 Gerber Fmt 4.6, Leading zero omitted, Abs format (unit mm)*
G04 Created by KiCad (PCBNEW (6.0.4)) date 2022-06-03 16:22:06*
%MOMM*%
%LPD*%
G01*
G04 APERTURE LIST*
%ADD10C,0.150000*%
%ADD11C,0.228600*%
%ADD12C,0.177800*%
%ADD13C,0.120000*%
%ADD14C,0.010000*%
%ADD15C,0.314000*%
G04 APERTURE END LIST*
D10*
X98052301Y-80750224D02*
X97887344Y-80845462D01*
X97828675Y-80934320D01*
X97793815Y-81064418D01*
X97847814Y-81253185D01*
X98014481Y-81541860D01*
X98150958Y-81683007D01*
X98281056Y-81717867D01*
X98387344Y-81711487D01*
X98552301Y-81616249D01*
X98610970Y-81527391D01*
X98645830Y-81397293D01*
X98591831Y-81208526D01*
X98425164Y-80919851D01*
X98288687Y-80778704D01*
X98158589Y-80743844D01*
X98052301Y-80750224D01*
X97809993Y-82044821D02*
X97309993Y-81178795D01*
X97315122Y-82330535D01*
X96815122Y-81464509D01*
X87926976Y-87441557D02*
X87762019Y-87536795D01*
X87703350Y-87625653D01*
X87668490Y-87755751D01*
X87722489Y-87944518D01*
X87889156Y-88233193D01*
X88025633Y-88374341D01*
X88155731Y-88409200D01*
X88262019Y-88402821D01*
X88426976Y-88307582D01*
X88485645Y-88218724D01*
X88520505Y-88088626D01*
X88466506Y-87899860D01*
X88299839Y-87611185D01*
X88163362Y-87470037D01*
X88033264Y-87435177D01*
X87926976Y-87441557D01*
X87134089Y-88449188D02*
X87422764Y-88282521D01*
X87684669Y-88736154D02*
X87184669Y-87870128D01*
X86772276Y-88108224D01*
X86391781Y-88877760D02*
X86680456Y-88711093D01*
X86942361Y-89164725D02*
X86442361Y-88298700D01*
X86029968Y-88536795D01*
D11*
X91040857Y-79139142D02*
X91548857Y-79139142D01*
X91548857Y-79937428D02*
X91548857Y-78413428D01*
X90823142Y-78413428D01*
X90024857Y-79937428D02*
X90170000Y-79864857D01*
X90242571Y-79792285D01*
X90315142Y-79647142D01*
X90315142Y-79211714D01*
X90242571Y-79066571D01*
X90170000Y-78994000D01*
X90024857Y-78921428D01*
X89807142Y-78921428D01*
X89662000Y-78994000D01*
X89589428Y-79066571D01*
X89516857Y-79211714D01*
X89516857Y-79647142D01*
X89589428Y-79792285D01*
X89662000Y-79864857D01*
X89807142Y-79937428D01*
X90024857Y-79937428D01*
X89008857Y-79937428D02*
X88210571Y-78921428D01*
X89008857Y-78921428D02*
X88210571Y-79937428D01*
X87775142Y-78921428D02*
X87412285Y-79937428D01*
X87049428Y-78921428D02*
X87412285Y-79937428D01*
X87557428Y-80300285D01*
X87630000Y-80372857D01*
X87775142Y-80445428D01*
X85307714Y-79937428D02*
X85307714Y-78413428D01*
X84727142Y-78413428D01*
X84582000Y-78486000D01*
X84509428Y-78558571D01*
X84436857Y-78703714D01*
X84436857Y-78921428D01*
X84509428Y-79066571D01*
X84582000Y-79139142D01*
X84727142Y-79211714D01*
X85307714Y-79211714D01*
X83783714Y-79937428D02*
X83783714Y-78921428D01*
X83783714Y-79211714D02*
X83711142Y-79066571D01*
X83638571Y-78994000D01*
X83493428Y-78921428D01*
X83348285Y-78921428D01*
X82840285Y-79937428D02*
X82840285Y-78921428D01*
X82840285Y-78413428D02*
X82912857Y-78486000D01*
X82840285Y-78558571D01*
X82767714Y-78486000D01*
X82840285Y-78413428D01*
X82840285Y-78558571D01*
X81461428Y-79937428D02*
X81461428Y-78413428D01*
X81461428Y-79864857D02*
X81606571Y-79937428D01*
X81896857Y-79937428D01*
X82042000Y-79864857D01*
X82114571Y-79792285D01*
X82187142Y-79647142D01*
X82187142Y-79211714D01*
X82114571Y-79066571D01*
X82042000Y-78994000D01*
X81896857Y-78921428D01*
X81606571Y-78921428D01*
X81461428Y-78994000D01*
X80155142Y-79864857D02*
X80300285Y-79937428D01*
X80590571Y-79937428D01*
X80735714Y-79864857D01*
X80808285Y-79719714D01*
X80808285Y-79139142D01*
X80735714Y-78994000D01*
X80590571Y-78921428D01*
X80300285Y-78921428D01*
X80155142Y-78994000D01*
X80082571Y-79139142D01*
X80082571Y-79284285D01*
X80808285Y-79429428D01*
D12*
X85937271Y-84577161D02*
X86003795Y-84516685D01*
X86136842Y-84456209D01*
X86269890Y-84456209D01*
X86402938Y-84516685D01*
X86469461Y-84577161D01*
X86535985Y-84698114D01*
X86535985Y-84819066D01*
X86469461Y-84940019D01*
X86402938Y-85000495D01*
X86269890Y-85060971D01*
X86136842Y-85060971D01*
X86003795Y-85000495D01*
X85937271Y-84940019D01*
X85937271Y-84456209D02*
X85937271Y-84940019D01*
X85870747Y-85000495D01*
X85804223Y-85000495D01*
X85671176Y-84940019D01*
X85604652Y-84819066D01*
X85604652Y-84516685D01*
X85737700Y-84335257D01*
X85937271Y-84214304D01*
X86203366Y-84153828D01*
X86469461Y-84214304D01*
X86669033Y-84335257D01*
X86802080Y-84516685D01*
X86868604Y-84758590D01*
X86802080Y-85000495D01*
X86669033Y-85181923D01*
X86469461Y-85302876D01*
X86203366Y-85363352D01*
X85937271Y-85302876D01*
X85737700Y-85181923D01*
X85072461Y-84819066D02*
X84407223Y-84819066D01*
X85205509Y-85181923D02*
X84739842Y-83911923D01*
X84274176Y-85181923D01*
X83608938Y-85181923D02*
X83741985Y-85121447D01*
X83808509Y-85000495D01*
X83808509Y-83911923D01*
X83076747Y-84335257D02*
X83076747Y-85605257D01*
X83076747Y-84395733D02*
X82943700Y-84335257D01*
X82677604Y-84335257D01*
X82544557Y-84395733D01*
X82478033Y-84456209D01*
X82411509Y-84577161D01*
X82411509Y-84940019D01*
X82478033Y-85060971D01*
X82544557Y-85121447D01*
X82677604Y-85181923D01*
X82943700Y-85181923D01*
X83076747Y-85121447D01*
X81280604Y-85121447D02*
X81413652Y-85181923D01*
X81679747Y-85181923D01*
X81812795Y-85121447D01*
X81879319Y-85000495D01*
X81879319Y-84516685D01*
X81812795Y-84395733D01*
X81679747Y-84335257D01*
X81413652Y-84335257D01*
X81280604Y-84395733D01*
X81214080Y-84516685D01*
X81214080Y-84637638D01*
X81879319Y-84758590D01*
X80615366Y-84335257D02*
X80615366Y-85181923D01*
X80615366Y-84456209D02*
X80548842Y-84395733D01*
X80415795Y-84335257D01*
X80216223Y-84335257D01*
X80083176Y-84395733D01*
X80016652Y-84516685D01*
X80016652Y-85181923D01*
X78752700Y-84335257D02*
X78752700Y-85363352D01*
X78819223Y-85484304D01*
X78885747Y-85544780D01*
X79018795Y-85605257D01*
X79218366Y-85605257D01*
X79351414Y-85544780D01*
X78752700Y-85121447D02*
X78885747Y-85181923D01*
X79151842Y-85181923D01*
X79284890Y-85121447D01*
X79351414Y-85060971D01*
X79417938Y-84940019D01*
X79417938Y-84577161D01*
X79351414Y-84456209D01*
X79284890Y-84395733D01*
X79151842Y-84335257D01*
X78885747Y-84335257D01*
X78752700Y-84395733D01*
X77887890Y-85181923D02*
X78020938Y-85121447D01*
X78087461Y-85000495D01*
X78087461Y-83911923D01*
X77156128Y-85181923D02*
X77289176Y-85121447D01*
X77355700Y-85060971D01*
X77422223Y-84940019D01*
X77422223Y-84577161D01*
X77355700Y-84456209D01*
X77289176Y-84395733D01*
X77156128Y-84335257D01*
X76956557Y-84335257D01*
X76823509Y-84395733D01*
X76756985Y-84456209D01*
X76690461Y-84577161D01*
X76690461Y-84940019D01*
X76756985Y-85060971D01*
X76823509Y-85121447D01*
X76956557Y-85181923D01*
X77156128Y-85181923D01*
X76224795Y-84335257D02*
X75958700Y-85181923D01*
X75692604Y-84577161D01*
X75426509Y-85181923D01*
X75160414Y-84335257D01*
X74628223Y-85181923D02*
X74628223Y-83911923D01*
X73962985Y-84335257D02*
X73962985Y-85181923D01*
X73962985Y-84456209D02*
X73896461Y-84395733D01*
X73763414Y-84335257D01*
X73563842Y-84335257D01*
X73430795Y-84395733D01*
X73364271Y-84516685D01*
X73364271Y-85181923D01*
X72100319Y-85181923D02*
X72100319Y-83911923D01*
X72100319Y-85121447D02*
X72233366Y-85181923D01*
X72499461Y-85181923D01*
X72632509Y-85121447D01*
X72699033Y-85060971D01*
X72765557Y-84940019D01*
X72765557Y-84577161D01*
X72699033Y-84456209D01*
X72632509Y-84395733D01*
X72499461Y-84335257D01*
X72233366Y-84335257D01*
X72100319Y-84395733D01*
D10*
%TO.C,R2*%
X95670666Y-42616380D02*
X96004000Y-42140190D01*
X96242095Y-42616380D02*
X96242095Y-41616380D01*
X95861142Y-41616380D01*
X95765904Y-41664000D01*
X95718285Y-41711619D01*
X95670666Y-41806857D01*
X95670666Y-41949714D01*
X95718285Y-42044952D01*
X95765904Y-42092571D01*
X95861142Y-42140190D01*
X96242095Y-42140190D01*
X95289714Y-41711619D02*
X95242095Y-41664000D01*
X95146857Y-41616380D01*
X94908761Y-41616380D01*
X94813523Y-41664000D01*
X94765904Y-41711619D01*
X94718285Y-41806857D01*
X94718285Y-41902095D01*
X94765904Y-42044952D01*
X95337333Y-42616380D01*
X94718285Y-42616380D01*
%TO.C,R6*%
X98972666Y-62936380D02*
X99306000Y-62460190D01*
X99544095Y-62936380D02*
X99544095Y-61936380D01*
X99163142Y-61936380D01*
X99067904Y-61984000D01*
X99020285Y-62031619D01*
X98972666Y-62126857D01*
X98972666Y-62269714D01*
X99020285Y-62364952D01*
X99067904Y-62412571D01*
X99163142Y-62460190D01*
X99544095Y-62460190D01*
X98115523Y-61936380D02*
X98306000Y-61936380D01*
X98401238Y-61984000D01*
X98448857Y-62031619D01*
X98544095Y-62174476D01*
X98591714Y-62364952D01*
X98591714Y-62745904D01*
X98544095Y-62841142D01*
X98496476Y-62888761D01*
X98401238Y-62936380D01*
X98210761Y-62936380D01*
X98115523Y-62888761D01*
X98067904Y-62841142D01*
X98020285Y-62745904D01*
X98020285Y-62507809D01*
X98067904Y-62412571D01*
X98115523Y-62364952D01*
X98210761Y-62317333D01*
X98401238Y-62317333D01*
X98496476Y-62364952D01*
X98544095Y-62412571D01*
X98591714Y-62507809D01*
%TO.C,C4*%
X42508466Y-82830942D02*
X42556085Y-82878561D01*
X42698942Y-82926180D01*
X42794180Y-82926180D01*
X42937038Y-82878561D01*
X43032276Y-82783323D01*
X43079895Y-82688085D01*
X43127514Y-82497609D01*
X43127514Y-82354752D01*
X43079895Y-82164276D01*
X43032276Y-82069038D01*
X42937038Y-81973800D01*
X42794180Y-81926180D01*
X42698942Y-81926180D01*
X42556085Y-81973800D01*
X42508466Y-82021419D01*
X41651323Y-82259514D02*
X41651323Y-82926180D01*
X41889419Y-81878561D02*
X42127514Y-82592847D01*
X41508466Y-82592847D01*
%TO.C,R3*%
X107608666Y-54808380D02*
X107942000Y-54332190D01*
X108180095Y-54808380D02*
X108180095Y-53808380D01*
X107799142Y-53808380D01*
X107703904Y-53856000D01*
X107656285Y-53903619D01*
X107608666Y-53998857D01*
X107608666Y-54141714D01*
X107656285Y-54236952D01*
X107703904Y-54284571D01*
X107799142Y-54332190D01*
X108180095Y-54332190D01*
X107275333Y-53808380D02*
X106656285Y-53808380D01*
X106989619Y-54189333D01*
X106846761Y-54189333D01*
X106751523Y-54236952D01*
X106703904Y-54284571D01*
X106656285Y-54379809D01*
X106656285Y-54617904D01*
X106703904Y-54713142D01*
X106751523Y-54760761D01*
X106846761Y-54808380D01*
X107132476Y-54808380D01*
X107227714Y-54760761D01*
X107275333Y-54713142D01*
%TO.C,U2*%
X42925896Y-66254374D02*
X42925896Y-67063898D01*
X42878277Y-67159136D01*
X42830658Y-67206755D01*
X42735420Y-67254374D01*
X42544944Y-67254374D01*
X42449706Y-67206755D01*
X42402087Y-67159136D01*
X42354468Y-67063898D01*
X42354468Y-66254374D01*
X41925896Y-66349613D02*
X41878277Y-66301994D01*
X41783039Y-66254374D01*
X41544944Y-66254374D01*
X41449706Y-66301994D01*
X41402087Y-66349613D01*
X41354468Y-66444851D01*
X41354468Y-66540089D01*
X41402087Y-66682946D01*
X41973515Y-67254374D01*
X41354468Y-67254374D01*
%TO.C,R5*%
X88050666Y-46426380D02*
X88384000Y-45950190D01*
X88622095Y-46426380D02*
X88622095Y-45426380D01*
X88241142Y-45426380D01*
X88145904Y-45474000D01*
X88098285Y-45521619D01*
X88050666Y-45616857D01*
X88050666Y-45759714D01*
X88098285Y-45854952D01*
X88145904Y-45902571D01*
X88241142Y-45950190D01*
X88622095Y-45950190D01*
X87145904Y-45426380D02*
X87622095Y-45426380D01*
X87669714Y-45902571D01*
X87622095Y-45854952D01*
X87526857Y-45807333D01*
X87288761Y-45807333D01*
X87193523Y-45854952D01*
X87145904Y-45902571D01*
X87098285Y-45997809D01*
X87098285Y-46235904D01*
X87145904Y-46331142D01*
X87193523Y-46378761D01*
X87288761Y-46426380D01*
X87526857Y-46426380D01*
X87622095Y-46378761D01*
X87669714Y-46331142D01*
%TO.C,S1*%
X93566277Y-82444550D02*
X93476569Y-82565497D01*
X93281532Y-82702063D01*
X93176205Y-82717682D01*
X93109884Y-82705988D01*
X93016251Y-82655287D01*
X92961625Y-82577272D01*
X92946005Y-82471945D01*
X92957700Y-82405624D01*
X93008401Y-82311991D01*
X93137117Y-82163731D01*
X93187818Y-82070097D01*
X93199512Y-82003777D01*
X93183893Y-81898449D01*
X93129267Y-81820435D01*
X93035633Y-81769733D01*
X92969313Y-81758039D01*
X92863985Y-81773658D01*
X92668949Y-81910224D01*
X92579240Y-82031171D01*
X92345359Y-83357579D02*
X92813446Y-83029821D01*
X92579402Y-83193700D02*
X92005826Y-82374548D01*
X92165780Y-82436943D01*
X92298420Y-82460331D01*
X92403748Y-82444712D01*
%TO.C,R4*%
X99226666Y-52776380D02*
X99560000Y-52300190D01*
X99798095Y-52776380D02*
X99798095Y-51776380D01*
X99417142Y-51776380D01*
X99321904Y-51824000D01*
X99274285Y-51871619D01*
X99226666Y-51966857D01*
X99226666Y-52109714D01*
X99274285Y-52204952D01*
X99321904Y-52252571D01*
X99417142Y-52300190D01*
X99798095Y-52300190D01*
X98369523Y-52109714D02*
X98369523Y-52776380D01*
X98607619Y-51728761D02*
X98845714Y-52443047D01*
X98226666Y-52443047D01*
%TO.C,R12*%
X66111380Y-80052942D02*
X65635190Y-79719609D01*
X66111380Y-79481514D02*
X65111380Y-79481514D01*
X65111380Y-79862466D01*
X65159000Y-79957704D01*
X65206619Y-80005323D01*
X65301857Y-80052942D01*
X65444714Y-80052942D01*
X65539952Y-80005323D01*
X65587571Y-79957704D01*
X65635190Y-79862466D01*
X65635190Y-79481514D01*
X66111380Y-81005323D02*
X66111380Y-80433895D01*
X66111380Y-80719609D02*
X65111380Y-80719609D01*
X65254238Y-80624371D01*
X65349476Y-80529133D01*
X65397095Y-80433895D01*
X65206619Y-81386276D02*
X65159000Y-81433895D01*
X65111380Y-81529133D01*
X65111380Y-81767228D01*
X65159000Y-81862466D01*
X65206619Y-81910085D01*
X65301857Y-81957704D01*
X65397095Y-81957704D01*
X65539952Y-81910085D01*
X66111380Y-81338657D01*
X66111380Y-81957704D01*
%TO.C,U1*%
X49783896Y-80732380D02*
X49783896Y-81541904D01*
X49736277Y-81637142D01*
X49688658Y-81684761D01*
X49593420Y-81732380D01*
X49402944Y-81732380D01*
X49307706Y-81684761D01*
X49260087Y-81637142D01*
X49212468Y-81541904D01*
X49212468Y-80732380D01*
X48212468Y-81732380D02*
X48783896Y-81732380D01*
X48498182Y-81732380D02*
X48498182Y-80732380D01*
X48593420Y-80875238D01*
X48688658Y-80970476D01*
X48783896Y-81018095D01*
%TO.C,R7*%
X32932666Y-59380380D02*
X33266000Y-58904190D01*
X33504095Y-59380380D02*
X33504095Y-58380380D01*
X33123142Y-58380380D01*
X33027904Y-58428000D01*
X32980285Y-58475619D01*
X32932666Y-58570857D01*
X32932666Y-58713714D01*
X32980285Y-58808952D01*
X33027904Y-58856571D01*
X33123142Y-58904190D01*
X33504095Y-58904190D01*
X32599333Y-58380380D02*
X31932666Y-58380380D01*
X32361238Y-59380380D01*
%TO.C,C3*%
X53579166Y-70927142D02*
X53626785Y-70974761D01*
X53769642Y-71022380D01*
X53864880Y-71022380D01*
X54007738Y-70974761D01*
X54102976Y-70879523D01*
X54150595Y-70784285D01*
X54198214Y-70593809D01*
X54198214Y-70450952D01*
X54150595Y-70260476D01*
X54102976Y-70165238D01*
X54007738Y-70070000D01*
X53864880Y-70022380D01*
X53769642Y-70022380D01*
X53626785Y-70070000D01*
X53579166Y-70117619D01*
X53245833Y-70022380D02*
X52626785Y-70022380D01*
X52960119Y-70403333D01*
X52817261Y-70403333D01*
X52722023Y-70450952D01*
X52674404Y-70498571D01*
X52626785Y-70593809D01*
X52626785Y-70831904D01*
X52674404Y-70927142D01*
X52722023Y-70974761D01*
X52817261Y-71022380D01*
X53102976Y-71022380D01*
X53198214Y-70974761D01*
X53245833Y-70927142D01*
%TO.C,R11*%
X62275980Y-80281542D02*
X61799790Y-79948209D01*
X62275980Y-79710114D02*
X61275980Y-79710114D01*
X61275980Y-80091066D01*
X61323600Y-80186304D01*
X61371219Y-80233923D01*
X61466457Y-80281542D01*
X61609314Y-80281542D01*
X61704552Y-80233923D01*
X61752171Y-80186304D01*
X61799790Y-80091066D01*
X61799790Y-79710114D01*
X62275980Y-81233923D02*
X62275980Y-80662495D01*
X62275980Y-80948209D02*
X61275980Y-80948209D01*
X61418838Y-80852971D01*
X61514076Y-80757733D01*
X61561695Y-80662495D01*
X62275980Y-82186304D02*
X62275980Y-81614876D01*
X62275980Y-81900590D02*
X61275980Y-81900590D01*
X61418838Y-81805352D01*
X61514076Y-81710114D01*
X61561695Y-81614876D01*
%TO.C,BT1*%
X81649624Y-66482261D02*
X81523959Y-66565232D01*
X81490288Y-66623553D01*
X81468941Y-66727870D01*
X81505915Y-66865860D01*
X81576561Y-66945528D01*
X81634882Y-66979200D01*
X81739200Y-67000547D01*
X82107171Y-66901949D01*
X81848352Y-65936023D01*
X81526377Y-66022296D01*
X81446709Y-66092942D01*
X81413037Y-66151263D01*
X81391690Y-66255581D01*
X81416339Y-66347574D01*
X81486985Y-66427242D01*
X81545306Y-66460914D01*
X81649624Y-66482261D01*
X81971599Y-66395988D01*
X81020416Y-66157868D02*
X80468458Y-66305765D01*
X81003256Y-67197742D02*
X80744437Y-66231816D01*
X79899341Y-67493535D02*
X80451298Y-67345639D01*
X80175320Y-67419587D02*
X79916501Y-66453661D01*
X80045468Y-66567001D01*
X80162110Y-66634345D01*
X80266428Y-66655692D01*
%TO.C,C2*%
X53760666Y-83923142D02*
X53808285Y-83970761D01*
X53951142Y-84018380D01*
X54046380Y-84018380D01*
X54189238Y-83970761D01*
X54284476Y-83875523D01*
X54332095Y-83780285D01*
X54379714Y-83589809D01*
X54379714Y-83446952D01*
X54332095Y-83256476D01*
X54284476Y-83161238D01*
X54189238Y-83066000D01*
X54046380Y-83018380D01*
X53951142Y-83018380D01*
X53808285Y-83066000D01*
X53760666Y-83113619D01*
X53379714Y-83113619D02*
X53332095Y-83066000D01*
X53236857Y-83018380D01*
X52998761Y-83018380D01*
X52903523Y-83066000D01*
X52855904Y-83113619D01*
X52808285Y-83208857D01*
X52808285Y-83304095D01*
X52855904Y-83446952D01*
X53427333Y-84018380D01*
X52808285Y-84018380D01*
%TO.C,R9*%
X49188666Y-55062380D02*
X49522000Y-54586190D01*
X49760095Y-55062380D02*
X49760095Y-54062380D01*
X49379142Y-54062380D01*
X49283904Y-54110000D01*
X49236285Y-54157619D01*
X49188666Y-54252857D01*
X49188666Y-54395714D01*
X49236285Y-54490952D01*
X49283904Y-54538571D01*
X49379142Y-54586190D01*
X49760095Y-54586190D01*
X48712476Y-55062380D02*
X48522000Y-55062380D01*
X48426761Y-55014761D01*
X48379142Y-54967142D01*
X48283904Y-54824285D01*
X48236285Y-54633809D01*
X48236285Y-54252857D01*
X48283904Y-54157619D01*
X48331523Y-54110000D01*
X48426761Y-54062380D01*
X48617238Y-54062380D01*
X48712476Y-54110000D01*
X48760095Y-54157619D01*
X48807714Y-54252857D01*
X48807714Y-54490952D01*
X48760095Y-54586190D01*
X48712476Y-54633809D01*
X48617238Y-54681428D01*
X48426761Y-54681428D01*
X48331523Y-54633809D01*
X48283904Y-54586190D01*
X48236285Y-54490952D01*
%TO.C,R10*%
X35186857Y-86050380D02*
X35520190Y-85574190D01*
X35758285Y-86050380D02*
X35758285Y-85050380D01*
X35377333Y-85050380D01*
X35282095Y-85098000D01*
X35234476Y-85145619D01*
X35186857Y-85240857D01*
X35186857Y-85383714D01*
X35234476Y-85478952D01*
X35282095Y-85526571D01*
X35377333Y-85574190D01*
X35758285Y-85574190D01*
X34234476Y-86050380D02*
X34805904Y-86050380D01*
X34520190Y-86050380D02*
X34520190Y-85050380D01*
X34615428Y-85193238D01*
X34710666Y-85288476D01*
X34805904Y-85336095D01*
X33615428Y-85050380D02*
X33520190Y-85050380D01*
X33424952Y-85098000D01*
X33377333Y-85145619D01*
X33329714Y-85240857D01*
X33282095Y-85431333D01*
X33282095Y-85669428D01*
X33329714Y-85859904D01*
X33377333Y-85955142D01*
X33424952Y-86002761D01*
X33520190Y-86050380D01*
X33615428Y-86050380D01*
X33710666Y-86002761D01*
X33758285Y-85955142D01*
X33805904Y-85859904D01*
X33853523Y-85669428D01*
X33853523Y-85431333D01*
X33805904Y-85240857D01*
X33758285Y-85145619D01*
X33710666Y-85098000D01*
X33615428Y-85050380D01*
%TO.C,R8*%
X34456666Y-73604380D02*
X34790000Y-73128190D01*
X35028095Y-73604380D02*
X35028095Y-72604380D01*
X34647142Y-72604380D01*
X34551904Y-72652000D01*
X34504285Y-72699619D01*
X34456666Y-72794857D01*
X34456666Y-72937714D01*
X34504285Y-73032952D01*
X34551904Y-73080571D01*
X34647142Y-73128190D01*
X35028095Y-73128190D01*
X33885238Y-73032952D02*
X33980476Y-72985333D01*
X34028095Y-72937714D01*
X34075714Y-72842476D01*
X34075714Y-72794857D01*
X34028095Y-72699619D01*
X33980476Y-72652000D01*
X33885238Y-72604380D01*
X33694761Y-72604380D01*
X33599523Y-72652000D01*
X33551904Y-72699619D01*
X33504285Y-72794857D01*
X33504285Y-72842476D01*
X33551904Y-72937714D01*
X33599523Y-72985333D01*
X33694761Y-73032952D01*
X33885238Y-73032952D01*
X33980476Y-73080571D01*
X34028095Y-73128190D01*
X34075714Y-73223428D01*
X34075714Y-73413904D01*
X34028095Y-73509142D01*
X33980476Y-73556761D01*
X33885238Y-73604380D01*
X33694761Y-73604380D01*
X33599523Y-73556761D01*
X33551904Y-73509142D01*
X33504285Y-73413904D01*
X33504285Y-73223428D01*
X33551904Y-73128190D01*
X33599523Y-73080571D01*
X33694761Y-73032952D01*
%TO.C,C1*%
X69724542Y-80224333D02*
X69772161Y-80176714D01*
X69819780Y-80033857D01*
X69819780Y-79938619D01*
X69772161Y-79795761D01*
X69676923Y-79700523D01*
X69581685Y-79652904D01*
X69391209Y-79605285D01*
X69248352Y-79605285D01*
X69057876Y-79652904D01*
X68962638Y-79700523D01*
X68867400Y-79795761D01*
X68819780Y-79938619D01*
X68819780Y-80033857D01*
X68867400Y-80176714D01*
X68915019Y-80224333D01*
X69819780Y-81176714D02*
X69819780Y-80605285D01*
X69819780Y-80891000D02*
X68819780Y-80891000D01*
X68962638Y-80795761D01*
X69057876Y-80700523D01*
X69105495Y-80605285D01*
%TO.C,R1*%
X108624666Y-41346380D02*
X108958000Y-40870190D01*
X109196095Y-41346380D02*
X109196095Y-40346380D01*
X108815142Y-40346380D01*
X108719904Y-40394000D01*
X108672285Y-40441619D01*
X108624666Y-40536857D01*
X108624666Y-40679714D01*
X108672285Y-40774952D01*
X108719904Y-40822571D01*
X108815142Y-40870190D01*
X109196095Y-40870190D01*
X107672285Y-41346380D02*
X108243714Y-41346380D01*
X107958000Y-41346380D02*
X107958000Y-40346380D01*
X108053238Y-40489238D01*
X108148476Y-40584476D01*
X108243714Y-40632095D01*
D13*
%TO.C,R2*%
X96231064Y-45360000D02*
X94776936Y-45360000D01*
X96231064Y-43540000D02*
X94776936Y-43540000D01*
%TO.C,R6*%
X100041064Y-65934000D02*
X98586936Y-65934000D01*
X100041064Y-64114000D02*
X98586936Y-64114000D01*
%TO.C,C4*%
X43145064Y-81174000D02*
X41690936Y-81174000D01*
X43145064Y-79354000D02*
X41690936Y-79354000D01*
%TO.C,R3*%
X108423064Y-57806000D02*
X106968936Y-57806000D01*
X108423064Y-55986000D02*
X106968936Y-55986000D01*
%TO.C,*%
G36*
X79714256Y-73645917D02*
G01*
X79712274Y-73811660D01*
X79707936Y-73933335D01*
X79700398Y-74020691D01*
X79688816Y-74083478D01*
X79672347Y-74131448D01*
X79650145Y-74174350D01*
X79643214Y-74185621D01*
X79566413Y-74274595D01*
X79475520Y-74340988D01*
X79449253Y-74353001D01*
X79305727Y-74390349D01*
X79145211Y-74397707D01*
X78992358Y-74375725D01*
X78871825Y-74325054D01*
X78838164Y-74301711D01*
X78768905Y-74245192D01*
X78717352Y-74182620D01*
X78680934Y-74104427D01*
X78657082Y-74001046D01*
X78643227Y-73862910D01*
X78636797Y-73680450D01*
X78635225Y-73444100D01*
X78635250Y-73424036D01*
X79000350Y-73424036D01*
X79000652Y-73600122D01*
X79002299Y-73769922D01*
X79006090Y-73892451D01*
X79012812Y-73976718D01*
X79023249Y-74031734D01*
X79038188Y-74066509D01*
X79058413Y-74090054D01*
X79101996Y-74120583D01*
X79201843Y-74139390D01*
X79303845Y-74097595D01*
X79318643Y-74085113D01*
X79337114Y-74058352D01*
X79350521Y-74014776D01*
X79359957Y-73945051D01*
X79366511Y-73839837D01*
X79371274Y-73689799D01*
X79375338Y-73485599D01*
X79376749Y-73374513D01*
X79376325Y-73177114D01*
X79371948Y-73014751D01*
X79363946Y-72896888D01*
X79352648Y-72832991D01*
X79341028Y-72807970D01*
X79272719Y-72740935D01*
X79179729Y-72722933D01*
X79079494Y-72758706D01*
X79000350Y-72810563D01*
X79000350Y-73424036D01*
X78635250Y-73424036D01*
X78635371Y-73328971D01*
X78636858Y-73145499D01*
X78640724Y-73009636D01*
X78647905Y-72910856D01*
X78659340Y-72838635D01*
X78675968Y-72782449D01*
X78698725Y-72731773D01*
X78723384Y-72686950D01*
X78816379Y-72573367D01*
X78938881Y-72503996D01*
X79105141Y-72469642D01*
X79199171Y-72464748D01*
X79384357Y-72489273D01*
X79533953Y-72560554D01*
X79642023Y-72676305D01*
X79651692Y-72692119D01*
X79674104Y-72734254D01*
X79690466Y-72781055D01*
X79701728Y-72842325D01*
X79708837Y-72927871D01*
X79712740Y-73047500D01*
X79714387Y-73211015D01*
X79714642Y-73374513D01*
X79714725Y-73428225D01*
X79714256Y-73645917D01*
G37*
D14*
X79714256Y-73645917D02*
X79712274Y-73811660D01*
X79707936Y-73933335D01*
X79700398Y-74020691D01*
X79688816Y-74083478D01*
X79672347Y-74131448D01*
X79650145Y-74174350D01*
X79643214Y-74185621D01*
X79566413Y-74274595D01*
X79475520Y-74340988D01*
X79449253Y-74353001D01*
X79305727Y-74390349D01*
X79145211Y-74397707D01*
X78992358Y-74375725D01*
X78871825Y-74325054D01*
X78838164Y-74301711D01*
X78768905Y-74245192D01*
X78717352Y-74182620D01*
X78680934Y-74104427D01*
X78657082Y-74001046D01*
X78643227Y-73862910D01*
X78636797Y-73680450D01*
X78635225Y-73444100D01*
X78635250Y-73424036D01*
X79000350Y-73424036D01*
X79000652Y-73600122D01*
X79002299Y-73769922D01*
X79006090Y-73892451D01*
X79012812Y-73976718D01*
X79023249Y-74031734D01*
X79038188Y-74066509D01*
X79058413Y-74090054D01*
X79101996Y-74120583D01*
X79201843Y-74139390D01*
X79303845Y-74097595D01*
X79318643Y-74085113D01*
X79337114Y-74058352D01*
X79350521Y-74014776D01*
X79359957Y-73945051D01*
X79366511Y-73839837D01*
X79371274Y-73689799D01*
X79375338Y-73485599D01*
X79376749Y-73374513D01*
X79376325Y-73177114D01*
X79371948Y-73014751D01*
X79363946Y-72896888D01*
X79352648Y-72832991D01*
X79341028Y-72807970D01*
X79272719Y-72740935D01*
X79179729Y-72722933D01*
X79079494Y-72758706D01*
X79000350Y-72810563D01*
X79000350Y-73424036D01*
X78635250Y-73424036D01*
X78635371Y-73328971D01*
X78636858Y-73145499D01*
X78640724Y-73009636D01*
X78647905Y-72910856D01*
X78659340Y-72838635D01*
X78675968Y-72782449D01*
X78698725Y-72731773D01*
X78723384Y-72686950D01*
X78816379Y-72573367D01*
X78938881Y-72503996D01*
X79105141Y-72469642D01*
X79199171Y-72464748D01*
X79384357Y-72489273D01*
X79533953Y-72560554D01*
X79642023Y-72676305D01*
X79651692Y-72692119D01*
X79674104Y-72734254D01*
X79690466Y-72781055D01*
X79701728Y-72842325D01*
X79708837Y-72927871D01*
X79712740Y-73047500D01*
X79714387Y-73211015D01*
X79714642Y-73374513D01*
X79714725Y-73428225D01*
X79714256Y-73645917D01*
G36*
X84563665Y-76301600D02*
G01*
X84451628Y-76298261D01*
X84315975Y-76277075D01*
X84216937Y-76229940D01*
X84149186Y-76149502D01*
X84107391Y-76028410D01*
X84086222Y-75859310D01*
X84080617Y-75645055D01*
X84334837Y-75645055D01*
X84334839Y-75646756D01*
X84336950Y-75799325D01*
X84342266Y-75929844D01*
X84349990Y-76024499D01*
X84359325Y-76069474D01*
X84397376Y-76098590D01*
X84469964Y-76122934D01*
X84556600Y-76138644D01*
X84556600Y-75648622D01*
X84556544Y-75564061D01*
X84555556Y-75401507D01*
X84552430Y-75289316D01*
X84546008Y-75218209D01*
X84535131Y-75178907D01*
X84518637Y-75162130D01*
X84495368Y-75158600D01*
X84453736Y-75161820D01*
X84403063Y-75183989D01*
X84368705Y-75234704D01*
X84347794Y-75322659D01*
X84337460Y-75456546D01*
X84334837Y-75645055D01*
X84080617Y-75645055D01*
X84080350Y-75634849D01*
X84082254Y-75506179D01*
X84096060Y-75318588D01*
X84124780Y-75182177D01*
X84170254Y-75089760D01*
X84234325Y-75034155D01*
X84242504Y-75030539D01*
X84314435Y-75014945D01*
X84425230Y-75003987D01*
X84554513Y-74999850D01*
X84810600Y-74999850D01*
X84810600Y-76301600D01*
X84563665Y-76301600D01*
G37*
X84563665Y-76301600D02*
X84451628Y-76298261D01*
X84315975Y-76277075D01*
X84216937Y-76229940D01*
X84149186Y-76149502D01*
X84107391Y-76028410D01*
X84086222Y-75859310D01*
X84080617Y-75645055D01*
X84334837Y-75645055D01*
X84334839Y-75646756D01*
X84336950Y-75799325D01*
X84342266Y-75929844D01*
X84349990Y-76024499D01*
X84359325Y-76069474D01*
X84397376Y-76098590D01*
X84469964Y-76122934D01*
X84556600Y-76138644D01*
X84556600Y-75648622D01*
X84556544Y-75564061D01*
X84555556Y-75401507D01*
X84552430Y-75289316D01*
X84546008Y-75218209D01*
X84535131Y-75178907D01*
X84518637Y-75162130D01*
X84495368Y-75158600D01*
X84453736Y-75161820D01*
X84403063Y-75183989D01*
X84368705Y-75234704D01*
X84347794Y-75322659D01*
X84337460Y-75456546D01*
X84334837Y-75645055D01*
X84080617Y-75645055D01*
X84080350Y-75634849D01*
X84082254Y-75506179D01*
X84096060Y-75318588D01*
X84124780Y-75182177D01*
X84170254Y-75089760D01*
X84234325Y-75034155D01*
X84242504Y-75030539D01*
X84314435Y-75014945D01*
X84425230Y-75003987D01*
X84554513Y-74999850D01*
X84810600Y-74999850D01*
X84810600Y-76301600D01*
X84563665Y-76301600D01*
G36*
X87339550Y-75552874D02*
G01*
X87458385Y-75566570D01*
X87616051Y-75591058D01*
X87969725Y-75648347D01*
X87636350Y-75700754D01*
X87528555Y-75717732D01*
X87408190Y-75736782D01*
X87323134Y-75750357D01*
X87287100Y-75756276D01*
X87254630Y-75753332D01*
X87171487Y-75742279D01*
X87050968Y-75724858D01*
X86906100Y-75702894D01*
X86540975Y-75646395D01*
X86901676Y-75590083D01*
X86991637Y-75576240D01*
X87128616Y-75557740D01*
X87237108Y-75549941D01*
X87339550Y-75552874D01*
G37*
X87339550Y-75552874D02*
X87458385Y-75566570D01*
X87616051Y-75591058D01*
X87969725Y-75648347D01*
X87636350Y-75700754D01*
X87528555Y-75717732D01*
X87408190Y-75736782D01*
X87323134Y-75750357D01*
X87287100Y-75756276D01*
X87254630Y-75753332D01*
X87171487Y-75742279D01*
X87050968Y-75724858D01*
X86906100Y-75702894D01*
X86540975Y-75646395D01*
X86901676Y-75590083D01*
X86991637Y-75576240D01*
X87128616Y-75557740D01*
X87237108Y-75549941D01*
X87339550Y-75552874D01*
G36*
X85128100Y-74995017D02*
G01*
X85181814Y-75004120D01*
X85215816Y-75013940D01*
X85218443Y-75031864D01*
X85221833Y-75101867D01*
X85224514Y-75211891D01*
X85226066Y-75348248D01*
X85228038Y-75450795D01*
X85234121Y-75559987D01*
X85243151Y-75629260D01*
X85254025Y-75646824D01*
X85264842Y-75629862D01*
X85298547Y-75562365D01*
X85345648Y-75458709D01*
X85399498Y-75333225D01*
X85400626Y-75330527D01*
X85468840Y-75174799D01*
X85523431Y-75071085D01*
X85570783Y-75011287D01*
X85617286Y-74987304D01*
X85669326Y-74991036D01*
X85678817Y-74993924D01*
X85697413Y-75005747D01*
X85711018Y-75031241D01*
X85720408Y-75078709D01*
X85726360Y-75156457D01*
X85729650Y-75272789D01*
X85731055Y-75436011D01*
X85731350Y-75654428D01*
X85731350Y-76301600D01*
X85509100Y-76301600D01*
X85508121Y-75928537D01*
X85507141Y-75555475D01*
X85355770Y-75920600D01*
X85324885Y-75994642D01*
X85268126Y-76125308D01*
X85225296Y-76210914D01*
X85190154Y-76261306D01*
X85156460Y-76286330D01*
X85117974Y-76295834D01*
X85031549Y-76305943D01*
X85048725Y-74983975D01*
X85128100Y-74995017D01*
G37*
X85128100Y-74995017D02*
X85181814Y-75004120D01*
X85215816Y-75013940D01*
X85218443Y-75031864D01*
X85221833Y-75101867D01*
X85224514Y-75211891D01*
X85226066Y-75348248D01*
X85228038Y-75450795D01*
X85234121Y-75559987D01*
X85243151Y-75629260D01*
X85254025Y-75646824D01*
X85264842Y-75629862D01*
X85298547Y-75562365D01*
X85345648Y-75458709D01*
X85399498Y-75333225D01*
X85400626Y-75330527D01*
X85468840Y-75174799D01*
X85523431Y-75071085D01*
X85570783Y-75011287D01*
X85617286Y-74987304D01*
X85669326Y-74991036D01*
X85678817Y-74993924D01*
X85697413Y-75005747D01*
X85711018Y-75031241D01*
X85720408Y-75078709D01*
X85726360Y-75156457D01*
X85729650Y-75272789D01*
X85731055Y-75436011D01*
X85731350Y-75654428D01*
X85731350Y-76301600D01*
X85509100Y-76301600D01*
X85508121Y-75928537D01*
X85507141Y-75555475D01*
X85355770Y-75920600D01*
X85324885Y-75994642D01*
X85268126Y-76125308D01*
X85225296Y-76210914D01*
X85190154Y-76261306D01*
X85156460Y-76286330D01*
X85117974Y-76295834D01*
X85031549Y-76305943D01*
X85048725Y-74983975D01*
X85128100Y-74995017D01*
G36*
X87869672Y-74050652D02*
G01*
X87896844Y-74190590D01*
X87914465Y-74284846D01*
X87920911Y-74325162D01*
X87918873Y-74334267D01*
X87872744Y-74357226D01*
X87765490Y-74364850D01*
X87680894Y-74362757D01*
X87627386Y-74348095D01*
X87595330Y-74308286D01*
X87574628Y-74230750D01*
X87555179Y-74102912D01*
X87533890Y-73952100D01*
X87199061Y-73952100D01*
X87177302Y-74102912D01*
X87170700Y-74147082D01*
X87154091Y-74247776D01*
X87140525Y-74317225D01*
X87136894Y-74330307D01*
X87114492Y-74361535D01*
X87064050Y-74372908D01*
X86968179Y-74369723D01*
X86912256Y-74364442D01*
X86839795Y-74351841D01*
X86811875Y-74337973D01*
X86812334Y-74334677D01*
X86821595Y-74285095D01*
X86841540Y-74183242D01*
X86870581Y-74037080D01*
X86907132Y-73854569D01*
X86946637Y-73658412D01*
X87256952Y-73658412D01*
X87260823Y-73697202D01*
X87291102Y-73723625D01*
X87366475Y-73729850D01*
X87396983Y-73729858D01*
X87438364Y-73725955D01*
X87463189Y-73708615D01*
X87472794Y-73667980D01*
X87468512Y-73594192D01*
X87451680Y-73477394D01*
X87423630Y-73307727D01*
X87369660Y-72983725D01*
X87314107Y-73285350D01*
X87300994Y-73358313D01*
X87278865Y-73490698D01*
X87263265Y-73596730D01*
X87256952Y-73658412D01*
X86946637Y-73658412D01*
X86949606Y-73643672D01*
X86996414Y-73412350D01*
X87179930Y-72507475D01*
X87556975Y-72507475D01*
X87738348Y-73396475D01*
X87747081Y-73439317D01*
X87793167Y-73666758D01*
X87793412Y-73667980D01*
X87834572Y-73873289D01*
X87869672Y-74050652D01*
G37*
X87869672Y-74050652D02*
X87896844Y-74190590D01*
X87914465Y-74284846D01*
X87920911Y-74325162D01*
X87918873Y-74334267D01*
X87872744Y-74357226D01*
X87765490Y-74364850D01*
X87680894Y-74362757D01*
X87627386Y-74348095D01*
X87595330Y-74308286D01*
X87574628Y-74230750D01*
X87555179Y-74102912D01*
X87533890Y-73952100D01*
X87199061Y-73952100D01*
X87177302Y-74102912D01*
X87170700Y-74147082D01*
X87154091Y-74247776D01*
X87140525Y-74317225D01*
X87136894Y-74330307D01*
X87114492Y-74361535D01*
X87064050Y-74372908D01*
X86968179Y-74369723D01*
X86912256Y-74364442D01*
X86839795Y-74351841D01*
X86811875Y-74337973D01*
X86812334Y-74334677D01*
X86821595Y-74285095D01*
X86841540Y-74183242D01*
X86870581Y-74037080D01*
X86907132Y-73854569D01*
X86946637Y-73658412D01*
X87256952Y-73658412D01*
X87260823Y-73697202D01*
X87291102Y-73723625D01*
X87366475Y-73729850D01*
X87396983Y-73729858D01*
X87438364Y-73725955D01*
X87463189Y-73708615D01*
X87472794Y-73667980D01*
X87468512Y-73594192D01*
X87451680Y-73477394D01*
X87423630Y-73307727D01*
X87369660Y-72983725D01*
X87314107Y-73285350D01*
X87300994Y-73358313D01*
X87278865Y-73490698D01*
X87263265Y-73596730D01*
X87256952Y-73658412D01*
X86946637Y-73658412D01*
X86949606Y-73643672D01*
X86996414Y-73412350D01*
X87179930Y-72507475D01*
X87556975Y-72507475D01*
X87738348Y-73396475D01*
X87747081Y-73439317D01*
X87793167Y-73666758D01*
X87793412Y-73667980D01*
X87834572Y-73873289D01*
X87869672Y-74050652D01*
G36*
X78408455Y-72594787D02*
G01*
X78401218Y-72642813D01*
X78385764Y-72748539D01*
X78364003Y-72899107D01*
X78337322Y-73084878D01*
X78307109Y-73296213D01*
X78274751Y-73523475D01*
X78157450Y-74348975D01*
X78015338Y-74365534D01*
X77973276Y-74370380D01*
X77899696Y-74378507D01*
X77868378Y-74381409D01*
X77868323Y-74381371D01*
X77861401Y-74349646D01*
X77845645Y-74265313D01*
X77822795Y-74138064D01*
X77794592Y-73977590D01*
X77762777Y-73793582D01*
X77734520Y-73630881D01*
X77697919Y-73428661D01*
X77669980Y-73287002D01*
X77650400Y-73204520D01*
X77638875Y-73179831D01*
X77635100Y-73211551D01*
X77635100Y-73211563D01*
X77630033Y-73251661D01*
X77616289Y-73341399D01*
X77596020Y-73467860D01*
X77571380Y-73618127D01*
X77544521Y-73779284D01*
X77517596Y-73938415D01*
X77492757Y-74082604D01*
X77472157Y-74198933D01*
X77457950Y-74274487D01*
X77456110Y-74283125D01*
X77435296Y-74332882D01*
X77389661Y-74357936D01*
X77299873Y-74369966D01*
X77258365Y-74372195D01*
X77187056Y-74369255D01*
X77158850Y-74357078D01*
X77158822Y-74356372D01*
X77153701Y-74315225D01*
X77140581Y-74220226D01*
X77120648Y-74079688D01*
X77095090Y-73901925D01*
X77065095Y-73695250D01*
X77031850Y-73467976D01*
X77029978Y-73455216D01*
X76996752Y-73226746D01*
X76966873Y-73017518D01*
X76941541Y-72836245D01*
X76921959Y-72691641D01*
X76909328Y-72592418D01*
X76904850Y-72547289D01*
X76913233Y-72516340D01*
X76954391Y-72496786D01*
X77043572Y-72491600D01*
X77182293Y-72491600D01*
X77218197Y-72777350D01*
X77220014Y-72791815D01*
X77242752Y-72972777D01*
X77267827Y-73172333D01*
X77290134Y-73349858D01*
X77298888Y-73416990D01*
X77315007Y-73527655D01*
X77328202Y-73601955D01*
X77336248Y-73626535D01*
X77340702Y-73610981D01*
X77354507Y-73542265D01*
X77375117Y-73428648D01*
X77400607Y-73280850D01*
X77429053Y-73109589D01*
X77437717Y-73056400D01*
X77470199Y-72857089D01*
X77495371Y-72710611D01*
X77516235Y-72609046D01*
X77535793Y-72544478D01*
X77557050Y-72508985D01*
X77583006Y-72494651D01*
X77616664Y-72493556D01*
X77661027Y-72497781D01*
X77776810Y-72507475D01*
X77870972Y-73078975D01*
X77890454Y-73197204D01*
X77919291Y-73366722D01*
X77942184Y-73481764D01*
X77961133Y-73541113D01*
X77978135Y-73543553D01*
X77995190Y-73487870D01*
X78014296Y-73372845D01*
X78037451Y-73197265D01*
X78066654Y-72959912D01*
X78123994Y-72491600D01*
X78274426Y-72491600D01*
X78424858Y-72491599D01*
X78408455Y-72594787D01*
G37*
X78408455Y-72594787D02*
X78401218Y-72642813D01*
X78385764Y-72748539D01*
X78364003Y-72899107D01*
X78337322Y-73084878D01*
X78307109Y-73296213D01*
X78274751Y-73523475D01*
X78157450Y-74348975D01*
X78015338Y-74365534D01*
X77973276Y-74370380D01*
X77899696Y-74378507D01*
X77868378Y-74381409D01*
X77868323Y-74381371D01*
X77861401Y-74349646D01*
X77845645Y-74265313D01*
X77822795Y-74138064D01*
X77794592Y-73977590D01*
X77762777Y-73793582D01*
X77734520Y-73630881D01*
X77697919Y-73428661D01*
X77669980Y-73287002D01*
X77650400Y-73204520D01*
X77638875Y-73179831D01*
X77635100Y-73211551D01*
X77635100Y-73211563D01*
X77630033Y-73251661D01*
X77616289Y-73341399D01*
X77596020Y-73467860D01*
X77571380Y-73618127D01*
X77544521Y-73779284D01*
X77517596Y-73938415D01*
X77492757Y-74082604D01*
X77472157Y-74198933D01*
X77457950Y-74274487D01*
X77456110Y-74283125D01*
X77435296Y-74332882D01*
X77389661Y-74357936D01*
X77299873Y-74369966D01*
X77258365Y-74372195D01*
X77187056Y-74369255D01*
X77158850Y-74357078D01*
X77158822Y-74356372D01*
X77153701Y-74315225D01*
X77140581Y-74220226D01*
X77120648Y-74079688D01*
X77095090Y-73901925D01*
X77065095Y-73695250D01*
X77031850Y-73467976D01*
X77029978Y-73455216D01*
X76996752Y-73226746D01*
X76966873Y-73017518D01*
X76941541Y-72836245D01*
X76921959Y-72691641D01*
X76909328Y-72592418D01*
X76904850Y-72547289D01*
X76913233Y-72516340D01*
X76954391Y-72496786D01*
X77043572Y-72491600D01*
X77182293Y-72491600D01*
X77218197Y-72777350D01*
X77220014Y-72791815D01*
X77242752Y-72972777D01*
X77267827Y-73172333D01*
X77290134Y-73349858D01*
X77298888Y-73416990D01*
X77315007Y-73527655D01*
X77328202Y-73601955D01*
X77336248Y-73626535D01*
X77340702Y-73610981D01*
X77354507Y-73542265D01*
X77375117Y-73428648D01*
X77400607Y-73280850D01*
X77429053Y-73109589D01*
X77437717Y-73056400D01*
X77470199Y-72857089D01*
X77495371Y-72710611D01*
X77516235Y-72609046D01*
X77535793Y-72544478D01*
X77557050Y-72508985D01*
X77583006Y-72494651D01*
X77616664Y-72493556D01*
X77661027Y-72497781D01*
X77776810Y-72507475D01*
X77870972Y-73078975D01*
X77890454Y-73197204D01*
X77919291Y-73366722D01*
X77942184Y-73481764D01*
X77961133Y-73541113D01*
X77978135Y-73543553D01*
X77995190Y-73487870D01*
X78014296Y-73372845D01*
X78037451Y-73197265D01*
X78066654Y-72959912D01*
X78123994Y-72491600D01*
X78274426Y-72491600D01*
X78424858Y-72491599D01*
X78408455Y-72594787D01*
G36*
X92218268Y-71712632D02*
G01*
X92269282Y-71775041D01*
X92329818Y-71860119D01*
X92391664Y-71956171D01*
X92446610Y-72051501D01*
X92486444Y-72134412D01*
X92513369Y-72206414D01*
X92532657Y-72274716D01*
X92530868Y-72301100D01*
X92528010Y-72300852D01*
X92485019Y-72269513D01*
X92425670Y-72195725D01*
X92358334Y-72093860D01*
X92291386Y-71978290D01*
X92233198Y-71863385D01*
X92192146Y-71763518D01*
X92176600Y-71693060D01*
X92184986Y-71684588D01*
X92218268Y-71712632D01*
G37*
X92218268Y-71712632D02*
X92269282Y-71775041D01*
X92329818Y-71860119D01*
X92391664Y-71956171D01*
X92446610Y-72051501D01*
X92486444Y-72134412D01*
X92513369Y-72206414D01*
X92532657Y-72274716D01*
X92530868Y-72301100D01*
X92528010Y-72300852D01*
X92485019Y-72269513D01*
X92425670Y-72195725D01*
X92358334Y-72093860D01*
X92291386Y-71978290D01*
X92233198Y-71863385D01*
X92192146Y-71763518D01*
X92176600Y-71693060D01*
X92184986Y-71684588D01*
X92218268Y-71712632D01*
G36*
X77647531Y-75553603D02*
G01*
X77768353Y-75566906D01*
X77928788Y-75591046D01*
X78285975Y-75647240D01*
X77952600Y-75700893D01*
X77818899Y-75722688D01*
X77705204Y-75740354D01*
X77620542Y-75749548D01*
X77546626Y-75750304D01*
X77465168Y-75742655D01*
X77357881Y-75726636D01*
X77206475Y-75702280D01*
X76857225Y-75646822D01*
X77214413Y-75590837D01*
X77293187Y-75578647D01*
X77432903Y-75559480D01*
X77543366Y-75551130D01*
X77647531Y-75553603D01*
G37*
X77647531Y-75553603D02*
X77768353Y-75566906D01*
X77928788Y-75591046D01*
X78285975Y-75647240D01*
X77952600Y-75700893D01*
X77818899Y-75722688D01*
X77705204Y-75740354D01*
X77620542Y-75749548D01*
X77546626Y-75750304D01*
X77465168Y-75742655D01*
X77357881Y-75726636D01*
X77206475Y-75702280D01*
X76857225Y-75646822D01*
X77214413Y-75590837D01*
X77293187Y-75578647D01*
X77432903Y-75559480D01*
X77543366Y-75551130D01*
X77647531Y-75553603D01*
G36*
X80460850Y-76301600D02*
G01*
X80238600Y-76301600D01*
X80238600Y-74999850D01*
X80460850Y-74999850D01*
X80460850Y-76301600D01*
G37*
X80460850Y-76301600D02*
X80238600Y-76301600D01*
X80238600Y-74999850D01*
X80460850Y-74999850D01*
X80460850Y-76301600D01*
G36*
X91769664Y-71597854D02*
G01*
X91740501Y-71633504D01*
X91679960Y-71684411D01*
X91596908Y-71743448D01*
X91500208Y-71803491D01*
X91398725Y-71857412D01*
X91282789Y-71911035D01*
X91204425Y-71940759D01*
X91177716Y-71938589D01*
X91200778Y-71904230D01*
X91271725Y-71837382D01*
X91310857Y-71804687D01*
X91510689Y-71677328D01*
X91732100Y-71589422D01*
X91758584Y-71584588D01*
X91769664Y-71597854D01*
G37*
X91769664Y-71597854D02*
X91740501Y-71633504D01*
X91679960Y-71684411D01*
X91596908Y-71743448D01*
X91500208Y-71803491D01*
X91398725Y-71857412D01*
X91282789Y-71911035D01*
X91204425Y-71940759D01*
X91177716Y-71938589D01*
X91200778Y-71904230D01*
X91271725Y-71837382D01*
X91310857Y-71804687D01*
X91510689Y-71677328D01*
X91732100Y-71589422D01*
X91758584Y-71584588D01*
X91769664Y-71597854D01*
G36*
X85501163Y-74372163D02*
G01*
X85451735Y-74377586D01*
X85382100Y-74376801D01*
X85356446Y-74373542D01*
X85278913Y-74367279D01*
X85264811Y-74365009D01*
X85246314Y-74349356D01*
X85234258Y-74310248D01*
X85227305Y-74237675D01*
X85224116Y-74121628D01*
X85223350Y-73952100D01*
X85223350Y-73539350D01*
X85072538Y-73538652D01*
X84988205Y-73533454D01*
X84824203Y-73492183D01*
X84693798Y-73415045D01*
X84609754Y-73308391D01*
X84572866Y-73183933D01*
X84558313Y-73025170D01*
X84558674Y-73019168D01*
X84889975Y-73019168D01*
X84894663Y-73125164D01*
X84913492Y-73196479D01*
X84951606Y-73240284D01*
X85024933Y-73271823D01*
X85118294Y-73285350D01*
X85223350Y-73285350D01*
X85223350Y-72710972D01*
X85104288Y-72731982D01*
X85007610Y-72756813D01*
X84935433Y-72805650D01*
X84899634Y-72888530D01*
X84889975Y-73019168D01*
X84558674Y-73019168D01*
X84568006Y-72864070D01*
X84602315Y-72729400D01*
X84614193Y-72702762D01*
X84669923Y-72616372D01*
X84747776Y-72556002D01*
X84857886Y-72517722D01*
X85010387Y-72497603D01*
X85215413Y-72491718D01*
X85572600Y-72491600D01*
X85572600Y-74360433D01*
X85501163Y-74372163D01*
G37*
X85501163Y-74372163D02*
X85451735Y-74377586D01*
X85382100Y-74376801D01*
X85356446Y-74373542D01*
X85278913Y-74367279D01*
X85264811Y-74365009D01*
X85246314Y-74349356D01*
X85234258Y-74310248D01*
X85227305Y-74237675D01*
X85224116Y-74121628D01*
X85223350Y-73952100D01*
X85223350Y-73539350D01*
X85072538Y-73538652D01*
X84988205Y-73533454D01*
X84824203Y-73492183D01*
X84693798Y-73415045D01*
X84609754Y-73308391D01*
X84572866Y-73183933D01*
X84558313Y-73025170D01*
X84558674Y-73019168D01*
X84889975Y-73019168D01*
X84894663Y-73125164D01*
X84913492Y-73196479D01*
X84951606Y-73240284D01*
X85024933Y-73271823D01*
X85118294Y-73285350D01*
X85223350Y-73285350D01*
X85223350Y-72710972D01*
X85104288Y-72731982D01*
X85007610Y-72756813D01*
X84935433Y-72805650D01*
X84899634Y-72888530D01*
X84889975Y-73019168D01*
X84558674Y-73019168D01*
X84568006Y-72864070D01*
X84602315Y-72729400D01*
X84614193Y-72702762D01*
X84669923Y-72616372D01*
X84747776Y-72556002D01*
X84857886Y-72517722D01*
X85010387Y-72497603D01*
X85215413Y-72491718D01*
X85572600Y-72491600D01*
X85572600Y-74360433D01*
X85501163Y-74372163D01*
G36*
X82207100Y-75079225D02*
G01*
X82201890Y-75125982D01*
X82171125Y-75152669D01*
X82095975Y-75158600D01*
X81984850Y-75158600D01*
X81984850Y-76301600D01*
X81865788Y-76301620D01*
X81746725Y-76301641D01*
X81746725Y-75174475D01*
X81643538Y-75164525D01*
X81597945Y-75157993D01*
X81551683Y-75132710D01*
X81540350Y-75077213D01*
X81540782Y-75055245D01*
X81548254Y-75028301D01*
X81573970Y-75011915D01*
X81629245Y-75003462D01*
X81725392Y-75000315D01*
X81873725Y-74999850D01*
X82207100Y-74999850D01*
X82207100Y-75079225D01*
G37*
X82207100Y-75079225D02*
X82201890Y-75125982D01*
X82171125Y-75152669D01*
X82095975Y-75158600D01*
X81984850Y-75158600D01*
X81984850Y-76301600D01*
X81865788Y-76301620D01*
X81746725Y-76301641D01*
X81746725Y-75174475D01*
X81643538Y-75164525D01*
X81597945Y-75157993D01*
X81551683Y-75132710D01*
X81540350Y-75077213D01*
X81540782Y-75055245D01*
X81548254Y-75028301D01*
X81573970Y-75011915D01*
X81629245Y-75003462D01*
X81725392Y-75000315D01*
X81873725Y-74999850D01*
X82207100Y-74999850D01*
X82207100Y-75079225D01*
G36*
X92492203Y-70711962D02*
G01*
X92467657Y-70776352D01*
X92432117Y-70863670D01*
X92399539Y-70926616D01*
X92357202Y-70988037D01*
X92292383Y-71070775D01*
X92259806Y-71110203D01*
X92210532Y-71162665D01*
X92186055Y-71178137D01*
X92183644Y-71144712D01*
X92206977Y-71069902D01*
X92250899Y-70970817D01*
X92307829Y-70862851D01*
X92370189Y-70761397D01*
X92430400Y-70681850D01*
X92557845Y-70538975D01*
X92492203Y-70711962D01*
G37*
X92492203Y-70711962D02*
X92467657Y-70776352D01*
X92432117Y-70863670D01*
X92399539Y-70926616D01*
X92357202Y-70988037D01*
X92292383Y-71070775D01*
X92259806Y-71110203D01*
X92210532Y-71162665D01*
X92186055Y-71178137D01*
X92183644Y-71144712D01*
X92206977Y-71069902D01*
X92250899Y-70970817D01*
X92307829Y-70862851D01*
X92370189Y-70761397D01*
X92430400Y-70681850D01*
X92557845Y-70538975D01*
X92492203Y-70711962D01*
G36*
X92747878Y-71390246D02*
G01*
X92861709Y-71397662D01*
X92963608Y-71410516D01*
X93033596Y-71423156D01*
X93055549Y-71432734D01*
X93046347Y-71437462D01*
X92990114Y-71453978D01*
X92903298Y-71473347D01*
X92900604Y-71473873D01*
X92792968Y-71485444D01*
X92661102Y-71487104D01*
X92526882Y-71479989D01*
X92412183Y-71465238D01*
X92338881Y-71443989D01*
X92330163Y-71436277D01*
X92350165Y-71419830D01*
X92414942Y-71405852D01*
X92511490Y-71395494D01*
X92626803Y-71389908D01*
X92747878Y-71390246D01*
G37*
X92747878Y-71390246D02*
X92861709Y-71397662D01*
X92963608Y-71410516D01*
X93033596Y-71423156D01*
X93055549Y-71432734D01*
X93046347Y-71437462D01*
X92990114Y-71453978D01*
X92903298Y-71473347D01*
X92900604Y-71473873D01*
X92792968Y-71485444D01*
X92661102Y-71487104D01*
X92526882Y-71479989D01*
X92412183Y-71465238D01*
X92338881Y-71443989D01*
X92330163Y-71436277D01*
X92350165Y-71419830D01*
X92414942Y-71405852D01*
X92511490Y-71395494D01*
X92626803Y-71389908D01*
X92747878Y-71390246D01*
G36*
X91890850Y-71692641D02*
G01*
X91889683Y-71708648D01*
X91864612Y-71798058D01*
X91813822Y-71914597D01*
X91746549Y-72038894D01*
X91672031Y-72151577D01*
X91625313Y-72211273D01*
X91572598Y-72265407D01*
X91550976Y-72264383D01*
X91561043Y-72208663D01*
X91603395Y-72098704D01*
X91617636Y-72067773D01*
X91665417Y-71979547D01*
X91723724Y-71885464D01*
X91783989Y-71797628D01*
X91837644Y-71728143D01*
X91876121Y-71689113D01*
X91890850Y-71692641D01*
G37*
X91890850Y-71692641D02*
X91889683Y-71708648D01*
X91864612Y-71798058D01*
X91813822Y-71914597D01*
X91746549Y-72038894D01*
X91672031Y-72151577D01*
X91625313Y-72211273D01*
X91572598Y-72265407D01*
X91550976Y-72264383D01*
X91561043Y-72208663D01*
X91603395Y-72098704D01*
X91617636Y-72067773D01*
X91665417Y-71979547D01*
X91723724Y-71885464D01*
X91783989Y-71797628D01*
X91837644Y-71728143D01*
X91876121Y-71689113D01*
X91890850Y-71692641D01*
G36*
X92053202Y-70507225D02*
G01*
X92071014Y-70590711D01*
X92082913Y-70739148D01*
X92079919Y-70901634D01*
X92061605Y-71050492D01*
X92037325Y-71173975D01*
X92002580Y-70999350D01*
X91993581Y-70943727D01*
X91983899Y-70803676D01*
X91990951Y-70681850D01*
X91996676Y-70645420D01*
X92010825Y-70545705D01*
X92018687Y-70475475D01*
X92021095Y-70455837D01*
X92032143Y-70451766D01*
X92053202Y-70507225D01*
G37*
X92053202Y-70507225D02*
X92071014Y-70590711D01*
X92082913Y-70739148D01*
X92079919Y-70901634D01*
X92061605Y-71050492D01*
X92037325Y-71173975D01*
X92002580Y-70999350D01*
X91993581Y-70943727D01*
X91983899Y-70803676D01*
X91990951Y-70681850D01*
X91996676Y-70645420D01*
X92010825Y-70545705D01*
X92018687Y-70475475D01*
X92021095Y-70455837D01*
X92032143Y-70451766D01*
X92053202Y-70507225D01*
G36*
X93243254Y-72109422D02*
G01*
X93325045Y-72151229D01*
X93341758Y-72160602D01*
X93433516Y-72210562D01*
X93562867Y-72279588D01*
X93715031Y-72359830D01*
X93875225Y-72443437D01*
X93980363Y-72497703D01*
X94140343Y-72580881D01*
X94272458Y-72654895D01*
X94379451Y-72726348D01*
X94464063Y-72801841D01*
X94529035Y-72887977D01*
X94577108Y-72991357D01*
X94611024Y-73118584D01*
X94633524Y-73276259D01*
X94647351Y-73470985D01*
X94655244Y-73709364D01*
X94659946Y-73997997D01*
X94664197Y-74343487D01*
X94664496Y-74366300D01*
X94668482Y-74700545D01*
X94670407Y-74978087D01*
X94669508Y-75205310D01*
X94665025Y-75388601D01*
X94656196Y-75534347D01*
X94642261Y-75648933D01*
X94622456Y-75738746D01*
X94596022Y-75810172D01*
X94562197Y-75869596D01*
X94520219Y-75923405D01*
X94469327Y-75977986D01*
X94438725Y-76003527D01*
X94352627Y-76063868D01*
X94224371Y-76147441D01*
X94061809Y-76249608D01*
X93872792Y-76365729D01*
X93665172Y-76491166D01*
X93446800Y-76621280D01*
X93225528Y-76751433D01*
X93009209Y-76876985D01*
X92805692Y-76993298D01*
X92622831Y-77095733D01*
X92468476Y-77179652D01*
X92350480Y-77240416D01*
X92276693Y-77273386D01*
X92253675Y-77281429D01*
X92173721Y-77304976D01*
X92096398Y-77317220D01*
X92015370Y-77315775D01*
X91924302Y-77298255D01*
X91816857Y-77262276D01*
X91686702Y-77205452D01*
X91527499Y-77125397D01*
X91332913Y-77019725D01*
X91096610Y-76886052D01*
X90812252Y-76721992D01*
X90750773Y-76686342D01*
X90484758Y-76532026D01*
X90267062Y-76405389D01*
X90092220Y-76302939D01*
X89954765Y-76221187D01*
X89849235Y-76156644D01*
X89770163Y-76105818D01*
X89712086Y-76065221D01*
X89669537Y-76031362D01*
X89637052Y-76000750D01*
X89609167Y-75969897D01*
X89580417Y-75935312D01*
X89542605Y-75887424D01*
X89507706Y-75834744D01*
X89479545Y-75776266D01*
X89457479Y-75705579D01*
X89440868Y-75616273D01*
X89429069Y-75501937D01*
X89421443Y-75356161D01*
X89417346Y-75172533D01*
X89416137Y-74944645D01*
X89417176Y-74666085D01*
X89419820Y-74330443D01*
X89420811Y-74219151D01*
X89423619Y-73927944D01*
X89426512Y-73691477D01*
X89429875Y-73503195D01*
X89434093Y-73356542D01*
X89439553Y-73244962D01*
X89446637Y-73161901D01*
X89455733Y-73100802D01*
X89467224Y-73055110D01*
X89481496Y-73018269D01*
X89498935Y-72983725D01*
X89512339Y-72960107D01*
X89583139Y-72856713D01*
X89657505Y-72771959D01*
X89719648Y-72722964D01*
X89821441Y-72655134D01*
X89951507Y-72575469D01*
X90100644Y-72488897D01*
X90259652Y-72400345D01*
X90419328Y-72314744D01*
X90570471Y-72237020D01*
X90703878Y-72172101D01*
X90810349Y-72124917D01*
X90880682Y-72100395D01*
X90905675Y-72103464D01*
X90904134Y-72108189D01*
X90866113Y-72147747D01*
X90782368Y-72214191D01*
X90659887Y-72302599D01*
X90505656Y-72408044D01*
X90326659Y-72525603D01*
X90129884Y-72650350D01*
X90017142Y-72719912D01*
X89908007Y-72788620D01*
X89819918Y-72851145D01*
X89750641Y-72914454D01*
X89697941Y-72985515D01*
X89659585Y-73071293D01*
X89633336Y-73178757D01*
X89616961Y-73314872D01*
X89608225Y-73486606D01*
X89604892Y-73700927D01*
X89604729Y-73964800D01*
X89605501Y-74285192D01*
X89606131Y-74496085D01*
X89607792Y-74749215D01*
X89610291Y-74980090D01*
X89613492Y-75180459D01*
X89617257Y-75342075D01*
X89621450Y-75456689D01*
X89625934Y-75516051D01*
X89644801Y-75635378D01*
X89778954Y-75511720D01*
X89837088Y-75461175D01*
X89917693Y-75400318D01*
X89974357Y-75368622D01*
X89997945Y-75354016D01*
X90035344Y-75299627D01*
X90077051Y-75199409D01*
X90126959Y-75045108D01*
X90229210Y-74761700D01*
X90370160Y-74493531D01*
X90549023Y-74255649D01*
X90570418Y-74229921D01*
X90661539Y-74089240D01*
X90726760Y-73939523D01*
X90762447Y-73841083D01*
X90800363Y-73779731D01*
X90842126Y-73761600D01*
X90898726Y-73756823D01*
X90973271Y-73728757D01*
X91001850Y-73682715D01*
X91007479Y-73658270D01*
X91045411Y-73606223D01*
X91063900Y-73594272D01*
X91095513Y-73603530D01*
X91128638Y-73665835D01*
X91131308Y-73672175D01*
X91163820Y-73735343D01*
X91188265Y-73760969D01*
X91201946Y-73751355D01*
X91242033Y-73698295D01*
X91295658Y-73612145D01*
X91354035Y-73508136D01*
X91408378Y-73401497D01*
X91449900Y-73307459D01*
X91474227Y-73251764D01*
X91521243Y-73188178D01*
X91582125Y-73164473D01*
X91628450Y-73164586D01*
X91668065Y-73193647D01*
X91700454Y-73269788D01*
X91708308Y-73292645D01*
X91733912Y-73354302D01*
X91749901Y-73373382D01*
X91759031Y-73341386D01*
X91778449Y-73259435D01*
X91805497Y-73139811D01*
X91837528Y-72994786D01*
X91871895Y-72836634D01*
X91905949Y-72677624D01*
X91937044Y-72530030D01*
X91962533Y-72406124D01*
X91979767Y-72318177D01*
X91986100Y-72278461D01*
X91995124Y-72276089D01*
X92033725Y-72301099D01*
X92058654Y-72329381D01*
X92081818Y-72392300D01*
X92091699Y-72452849D01*
X92123088Y-72565407D01*
X92171593Y-72713128D01*
X92232701Y-72883851D01*
X92301895Y-73065413D01*
X92374660Y-73245649D01*
X92446483Y-73412398D01*
X92512848Y-73553496D01*
X92523389Y-73574423D01*
X92630804Y-73774586D01*
X92752325Y-73981475D01*
X92882350Y-74187302D01*
X93015277Y-74384279D01*
X93145504Y-74564617D01*
X93267427Y-74720529D01*
X93375446Y-74844226D01*
X93463957Y-74927921D01*
X93527359Y-74963825D01*
X93538796Y-74967647D01*
X93600582Y-75005399D01*
X93687856Y-75073029D01*
X93785580Y-75159162D01*
X93814651Y-75185947D01*
X93931973Y-75287975D01*
X94058346Y-75390363D01*
X94182399Y-75484677D01*
X94292763Y-75562484D01*
X94378068Y-75615353D01*
X94426945Y-75634850D01*
X94435322Y-75627667D01*
X94447751Y-75575683D01*
X94456549Y-75470558D01*
X94461951Y-75308861D01*
X94464188Y-75087162D01*
X94464915Y-74956002D01*
X94467555Y-74706005D01*
X94471652Y-74432905D01*
X94476814Y-74161716D01*
X94482644Y-73917453D01*
X94484640Y-73839783D01*
X94488507Y-73600572D01*
X94486269Y-73412909D01*
X94476562Y-73267577D01*
X94458020Y-73155360D01*
X94429279Y-73067042D01*
X94388975Y-72993407D01*
X94335743Y-72925238D01*
X94282098Y-72875384D01*
X94181917Y-72798182D01*
X94054958Y-72710084D01*
X93916392Y-72622056D01*
X93780696Y-72538087D01*
X93620576Y-72434580D01*
X93472766Y-72334606D01*
X93345611Y-72244130D01*
X93247453Y-72169120D01*
X93186636Y-72115542D01*
X93171504Y-72089362D01*
X93186049Y-72088714D01*
X93243254Y-72109422D01*
G37*
X93243254Y-72109422D02*
X93325045Y-72151229D01*
X93341758Y-72160602D01*
X93433516Y-72210562D01*
X93562867Y-72279588D01*
X93715031Y-72359830D01*
X93875225Y-72443437D01*
X93980363Y-72497703D01*
X94140343Y-72580881D01*
X94272458Y-72654895D01*
X94379451Y-72726348D01*
X94464063Y-72801841D01*
X94529035Y-72887977D01*
X94577108Y-72991357D01*
X94611024Y-73118584D01*
X94633524Y-73276259D01*
X94647351Y-73470985D01*
X94655244Y-73709364D01*
X94659946Y-73997997D01*
X94664197Y-74343487D01*
X94664496Y-74366300D01*
X94668482Y-74700545D01*
X94670407Y-74978087D01*
X94669508Y-75205310D01*
X94665025Y-75388601D01*
X94656196Y-75534347D01*
X94642261Y-75648933D01*
X94622456Y-75738746D01*
X94596022Y-75810172D01*
X94562197Y-75869596D01*
X94520219Y-75923405D01*
X94469327Y-75977986D01*
X94438725Y-76003527D01*
X94352627Y-76063868D01*
X94224371Y-76147441D01*
X94061809Y-76249608D01*
X93872792Y-76365729D01*
X93665172Y-76491166D01*
X93446800Y-76621280D01*
X93225528Y-76751433D01*
X93009209Y-76876985D01*
X92805692Y-76993298D01*
X92622831Y-77095733D01*
X92468476Y-77179652D01*
X92350480Y-77240416D01*
X92276693Y-77273386D01*
X92253675Y-77281429D01*
X92173721Y-77304976D01*
X92096398Y-77317220D01*
X92015370Y-77315775D01*
X91924302Y-77298255D01*
X91816857Y-77262276D01*
X91686702Y-77205452D01*
X91527499Y-77125397D01*
X91332913Y-77019725D01*
X91096610Y-76886052D01*
X90812252Y-76721992D01*
X90750773Y-76686342D01*
X90484758Y-76532026D01*
X90267062Y-76405389D01*
X90092220Y-76302939D01*
X89954765Y-76221187D01*
X89849235Y-76156644D01*
X89770163Y-76105818D01*
X89712086Y-76065221D01*
X89669537Y-76031362D01*
X89637052Y-76000750D01*
X89609167Y-75969897D01*
X89580417Y-75935312D01*
X89542605Y-75887424D01*
X89507706Y-75834744D01*
X89479545Y-75776266D01*
X89457479Y-75705579D01*
X89440868Y-75616273D01*
X89429069Y-75501937D01*
X89421443Y-75356161D01*
X89417346Y-75172533D01*
X89416137Y-74944645D01*
X89417176Y-74666085D01*
X89419820Y-74330443D01*
X89420811Y-74219151D01*
X89423619Y-73927944D01*
X89426512Y-73691477D01*
X89429875Y-73503195D01*
X89434093Y-73356542D01*
X89439553Y-73244962D01*
X89446637Y-73161901D01*
X89455733Y-73100802D01*
X89467224Y-73055110D01*
X89481496Y-73018269D01*
X89498935Y-72983725D01*
X89512339Y-72960107D01*
X89583139Y-72856713D01*
X89657505Y-72771959D01*
X89719648Y-72722964D01*
X89821441Y-72655134D01*
X89951507Y-72575469D01*
X90100644Y-72488897D01*
X90259652Y-72400345D01*
X90419328Y-72314744D01*
X90570471Y-72237020D01*
X90703878Y-72172101D01*
X90810349Y-72124917D01*
X90880682Y-72100395D01*
X90905675Y-72103464D01*
X90904134Y-72108189D01*
X90866113Y-72147747D01*
X90782368Y-72214191D01*
X90659887Y-72302599D01*
X90505656Y-72408044D01*
X90326659Y-72525603D01*
X90129884Y-72650350D01*
X90017142Y-72719912D01*
X89908007Y-72788620D01*
X89819918Y-72851145D01*
X89750641Y-72914454D01*
X89697941Y-72985515D01*
X89659585Y-73071293D01*
X89633336Y-73178757D01*
X89616961Y-73314872D01*
X89608225Y-73486606D01*
X89604892Y-73700927D01*
X89604729Y-73964800D01*
X89605501Y-74285192D01*
X89606131Y-74496085D01*
X89607792Y-74749215D01*
X89610291Y-74980090D01*
X89613492Y-75180459D01*
X89617257Y-75342075D01*
X89621450Y-75456689D01*
X89625934Y-75516051D01*
X89644801Y-75635378D01*
X89778954Y-75511720D01*
X89837088Y-75461175D01*
X89917693Y-75400318D01*
X89974357Y-75368622D01*
X89997945Y-75354016D01*
X90035344Y-75299627D01*
X90077051Y-75199409D01*
X90126959Y-75045108D01*
X90229210Y-74761700D01*
X90370160Y-74493531D01*
X90549023Y-74255649D01*
X90570418Y-74229921D01*
X90661539Y-74089240D01*
X90726760Y-73939523D01*
X90762447Y-73841083D01*
X90800363Y-73779731D01*
X90842126Y-73761600D01*
X90898726Y-73756823D01*
X90973271Y-73728757D01*
X91001850Y-73682715D01*
X91007479Y-73658270D01*
X91045411Y-73606223D01*
X91063900Y-73594272D01*
X91095513Y-73603530D01*
X91128638Y-73665835D01*
X91131308Y-73672175D01*
X91163820Y-73735343D01*
X91188265Y-73760969D01*
X91201946Y-73751355D01*
X91242033Y-73698295D01*
X91295658Y-73612145D01*
X91354035Y-73508136D01*
X91408378Y-73401497D01*
X91449900Y-73307459D01*
X91474227Y-73251764D01*
X91521243Y-73188178D01*
X91582125Y-73164473D01*
X91628450Y-73164586D01*
X91668065Y-73193647D01*
X91700454Y-73269788D01*
X91708308Y-73292645D01*
X91733912Y-73354302D01*
X91749901Y-73373382D01*
X91759031Y-73341386D01*
X91778449Y-73259435D01*
X91805497Y-73139811D01*
X91837528Y-72994786D01*
X91871895Y-72836634D01*
X91905949Y-72677624D01*
X91937044Y-72530030D01*
X91962533Y-72406124D01*
X91979767Y-72318177D01*
X91986100Y-72278461D01*
X91995124Y-72276089D01*
X92033725Y-72301099D01*
X92058654Y-72329381D01*
X92081818Y-72392300D01*
X92091699Y-72452849D01*
X92123088Y-72565407D01*
X92171593Y-72713128D01*
X92232701Y-72883851D01*
X92301895Y-73065413D01*
X92374660Y-73245649D01*
X92446483Y-73412398D01*
X92512848Y-73553496D01*
X92523389Y-73574423D01*
X92630804Y-73774586D01*
X92752325Y-73981475D01*
X92882350Y-74187302D01*
X93015277Y-74384279D01*
X93145504Y-74564617D01*
X93267427Y-74720529D01*
X93375446Y-74844226D01*
X93463957Y-74927921D01*
X93527359Y-74963825D01*
X93538796Y-74967647D01*
X93600582Y-75005399D01*
X93687856Y-75073029D01*
X93785580Y-75159162D01*
X93814651Y-75185947D01*
X93931973Y-75287975D01*
X94058346Y-75390363D01*
X94182399Y-75484677D01*
X94292763Y-75562484D01*
X94378068Y-75615353D01*
X94426945Y-75634850D01*
X94435322Y-75627667D01*
X94447751Y-75575683D01*
X94456549Y-75470558D01*
X94461951Y-75308861D01*
X94464188Y-75087162D01*
X94464915Y-74956002D01*
X94467555Y-74706005D01*
X94471652Y-74432905D01*
X94476814Y-74161716D01*
X94482644Y-73917453D01*
X94484640Y-73839783D01*
X94488507Y-73600572D01*
X94486269Y-73412909D01*
X94476562Y-73267577D01*
X94458020Y-73155360D01*
X94429279Y-73067042D01*
X94388975Y-72993407D01*
X94335743Y-72925238D01*
X94282098Y-72875384D01*
X94181917Y-72798182D01*
X94054958Y-72710084D01*
X93916392Y-72622056D01*
X93780696Y-72538087D01*
X93620576Y-72434580D01*
X93472766Y-72334606D01*
X93345611Y-72244130D01*
X93247453Y-72169120D01*
X93186636Y-72115542D01*
X93171504Y-72089362D01*
X93186049Y-72088714D01*
X93243254Y-72109422D01*
G36*
X86066499Y-75005870D02*
G01*
X86179397Y-75015725D01*
X86178417Y-75579287D01*
X86178124Y-75734266D01*
X86177730Y-75909251D01*
X86177330Y-76056954D01*
X86176957Y-76165303D01*
X86176644Y-76222225D01*
X86171019Y-76268667D01*
X86139990Y-76295590D01*
X86064725Y-76301600D01*
X85953600Y-76301600D01*
X85953600Y-74996016D01*
X86066499Y-75005870D01*
G37*
X86066499Y-75005870D02*
X86179397Y-75015725D01*
X86178417Y-75579287D01*
X86178124Y-75734266D01*
X86177730Y-75909251D01*
X86177330Y-76056954D01*
X86176957Y-76165303D01*
X86176644Y-76222225D01*
X86171019Y-76268667D01*
X86139990Y-76295590D01*
X86064725Y-76301600D01*
X85953600Y-76301600D01*
X85953600Y-74996016D01*
X86066499Y-75005870D01*
G36*
X91268893Y-70958978D02*
G01*
X91367243Y-71001126D01*
X91480887Y-71059769D01*
X91595135Y-71126508D01*
X91695299Y-71192940D01*
X91766689Y-71250664D01*
X91794619Y-71291277D01*
X91778606Y-71294173D01*
X91718495Y-71278821D01*
X91628913Y-71246142D01*
X91605662Y-71236290D01*
X91509552Y-71188283D01*
X91407486Y-71128702D01*
X91311786Y-71065976D01*
X91234775Y-71008534D01*
X91188775Y-70964806D01*
X91186108Y-70943222D01*
X91200523Y-70941729D01*
X91268893Y-70958978D01*
G37*
X91268893Y-70958978D02*
X91367243Y-71001126D01*
X91480887Y-71059769D01*
X91595135Y-71126508D01*
X91695299Y-71192940D01*
X91766689Y-71250664D01*
X91794619Y-71291277D01*
X91778606Y-71294173D01*
X91718495Y-71278821D01*
X91628913Y-71246142D01*
X91605662Y-71236290D01*
X91509552Y-71188283D01*
X91407486Y-71128702D01*
X91311786Y-71065976D01*
X91234775Y-71008534D01*
X91188775Y-70964806D01*
X91186108Y-70943222D01*
X91200523Y-70941729D01*
X91268893Y-70958978D01*
G36*
X80683158Y-73436162D02*
G01*
X80683216Y-74380725D01*
X80286283Y-74370972D01*
X79889350Y-74361220D01*
X79889350Y-74142600D01*
X80333850Y-74142600D01*
X80333850Y-72491600D01*
X80683100Y-72491600D01*
X80683158Y-73436162D01*
G37*
X80683158Y-73436162D02*
X80683216Y-74380725D01*
X80286283Y-74370972D01*
X79889350Y-74361220D01*
X79889350Y-74142600D01*
X80333850Y-74142600D01*
X80333850Y-72491600D01*
X80683100Y-72491600D01*
X80683158Y-73436162D01*
G36*
X83841686Y-74995340D02*
G01*
X83864753Y-75028849D01*
X83878955Y-75093565D01*
X83886440Y-75197561D01*
X83889356Y-75348910D01*
X83889850Y-75555684D01*
X83889850Y-75579261D01*
X83889481Y-75772511D01*
X83887554Y-75913712D01*
X83882777Y-76013234D01*
X83873859Y-76081446D01*
X83859507Y-76128717D01*
X83838430Y-76165417D01*
X83809335Y-76201915D01*
X83798083Y-76214522D01*
X83719864Y-76277956D01*
X83642648Y-76310611D01*
X83511860Y-76315903D01*
X83365954Y-76285177D01*
X83254850Y-76218027D01*
X83247681Y-76211076D01*
X83221269Y-76182252D01*
X83201998Y-76148795D01*
X83188518Y-76100896D01*
X83179479Y-76028744D01*
X83173531Y-75922529D01*
X83169325Y-75772441D01*
X83165511Y-75568670D01*
X83155547Y-74995775D01*
X83269434Y-75005750D01*
X83383320Y-75015725D01*
X83390523Y-75530580D01*
X83392912Y-75672089D01*
X83397655Y-75832533D01*
X83404793Y-75945733D01*
X83415350Y-76021350D01*
X83430352Y-76069046D01*
X83450826Y-76098484D01*
X83451829Y-76099478D01*
X83520415Y-76134312D01*
X83585454Y-76110012D01*
X83636327Y-76030471D01*
X83640780Y-76013971D01*
X83651346Y-75932785D01*
X83659857Y-75807174D01*
X83665535Y-75650901D01*
X83667600Y-75477734D01*
X83667671Y-75363861D01*
X83668730Y-75214996D01*
X83672242Y-75114054D01*
X83679678Y-75051228D01*
X83692509Y-75016710D01*
X83712204Y-75000693D01*
X83740236Y-74993367D01*
X83760364Y-74989647D01*
X83807605Y-74984964D01*
X83841686Y-74995340D01*
G37*
X83841686Y-74995340D02*
X83864753Y-75028849D01*
X83878955Y-75093565D01*
X83886440Y-75197561D01*
X83889356Y-75348910D01*
X83889850Y-75555684D01*
X83889850Y-75579261D01*
X83889481Y-75772511D01*
X83887554Y-75913712D01*
X83882777Y-76013234D01*
X83873859Y-76081446D01*
X83859507Y-76128717D01*
X83838430Y-76165417D01*
X83809335Y-76201915D01*
X83798083Y-76214522D01*
X83719864Y-76277956D01*
X83642648Y-76310611D01*
X83511860Y-76315903D01*
X83365954Y-76285177D01*
X83254850Y-76218027D01*
X83247681Y-76211076D01*
X83221269Y-76182252D01*
X83201998Y-76148795D01*
X83188518Y-76100896D01*
X83179479Y-76028744D01*
X83173531Y-75922529D01*
X83169325Y-75772441D01*
X83165511Y-75568670D01*
X83155547Y-74995775D01*
X83269434Y-75005750D01*
X83383320Y-75015725D01*
X83390523Y-75530580D01*
X83392912Y-75672089D01*
X83397655Y-75832533D01*
X83404793Y-75945733D01*
X83415350Y-76021350D01*
X83430352Y-76069046D01*
X83450826Y-76098484D01*
X83451829Y-76099478D01*
X83520415Y-76134312D01*
X83585454Y-76110012D01*
X83636327Y-76030471D01*
X83640780Y-76013971D01*
X83651346Y-75932785D01*
X83659857Y-75807174D01*
X83665535Y-75650901D01*
X83667600Y-75477734D01*
X83667671Y-75363861D01*
X83668730Y-75214996D01*
X83672242Y-75114054D01*
X83679678Y-75051228D01*
X83692509Y-75016710D01*
X83712204Y-75000693D01*
X83740236Y-74993367D01*
X83760364Y-74989647D01*
X83807605Y-74984964D01*
X83841686Y-74995340D01*
G36*
X81159350Y-76301600D02*
G01*
X81159350Y-75999975D01*
X81159296Y-75968681D01*
X81156751Y-75834826D01*
X81149244Y-75752079D01*
X81135176Y-75710050D01*
X81112949Y-75698350D01*
X81103142Y-75700457D01*
X81064667Y-75743983D01*
X81031178Y-75833287D01*
X80985027Y-76008772D01*
X80949580Y-76135921D01*
X80921020Y-76219676D01*
X80894454Y-76269080D01*
X80864992Y-76293174D01*
X80827741Y-76301000D01*
X80777809Y-76301600D01*
X80654773Y-76301600D01*
X80700687Y-76142850D01*
X80725183Y-76058365D01*
X80769922Y-75903896D01*
X80799714Y-75796249D01*
X80815867Y-75725389D01*
X80819689Y-75681281D01*
X80812487Y-75653888D01*
X80795571Y-75633175D01*
X80770247Y-75609107D01*
X80750886Y-75586209D01*
X80703360Y-75479845D01*
X80686329Y-75353801D01*
X80913882Y-75353801D01*
X80950207Y-75460456D01*
X80996843Y-75510156D01*
X81080707Y-75539600D01*
X81082865Y-75539597D01*
X81125556Y-75535038D01*
X81148433Y-75511704D01*
X81157646Y-75454693D01*
X81159350Y-75349100D01*
X81157762Y-75249714D01*
X81149028Y-75189298D01*
X81127594Y-75164007D01*
X81087913Y-75159086D01*
X81030565Y-75164496D01*
X80960140Y-75204586D01*
X80920243Y-75294086D01*
X80913882Y-75353801D01*
X80686329Y-75353801D01*
X80685758Y-75349572D01*
X80699367Y-75220890D01*
X80745477Y-75119302D01*
X80809722Y-75056769D01*
X80902688Y-75012878D01*
X81030419Y-74993350D01*
X81206091Y-74994621D01*
X81413350Y-75005268D01*
X81413350Y-76301600D01*
X81159350Y-76301600D01*
G37*
X81159350Y-76301600D02*
X81159350Y-75999975D01*
X81159296Y-75968681D01*
X81156751Y-75834826D01*
X81149244Y-75752079D01*
X81135176Y-75710050D01*
X81112949Y-75698350D01*
X81103142Y-75700457D01*
X81064667Y-75743983D01*
X81031178Y-75833287D01*
X80985027Y-76008772D01*
X80949580Y-76135921D01*
X80921020Y-76219676D01*
X80894454Y-76269080D01*
X80864992Y-76293174D01*
X80827741Y-76301000D01*
X80777809Y-76301600D01*
X80654773Y-76301600D01*
X80700687Y-76142850D01*
X80725183Y-76058365D01*
X80769922Y-75903896D01*
X80799714Y-75796249D01*
X80815867Y-75725389D01*
X80819689Y-75681281D01*
X80812487Y-75653888D01*
X80795571Y-75633175D01*
X80770247Y-75609107D01*
X80750886Y-75586209D01*
X80703360Y-75479845D01*
X80686329Y-75353801D01*
X80913882Y-75353801D01*
X80950207Y-75460456D01*
X80996843Y-75510156D01*
X81080707Y-75539600D01*
X81082865Y-75539597D01*
X81125556Y-75535038D01*
X81148433Y-75511704D01*
X81157646Y-75454693D01*
X81159350Y-75349100D01*
X81157762Y-75249714D01*
X81149028Y-75189298D01*
X81127594Y-75164007D01*
X81087913Y-75159086D01*
X81030565Y-75164496D01*
X80960140Y-75204586D01*
X80920243Y-75294086D01*
X80913882Y-75353801D01*
X80686329Y-75353801D01*
X80685758Y-75349572D01*
X80699367Y-75220890D01*
X80745477Y-75119302D01*
X80809722Y-75056769D01*
X80902688Y-75012878D01*
X81030419Y-74993350D01*
X81206091Y-74994621D01*
X81413350Y-75005268D01*
X81413350Y-76301600D01*
X81159350Y-76301600D01*
G36*
X91489907Y-71390195D02*
G01*
X91589632Y-71397649D01*
X91637000Y-71403839D01*
X91721762Y-71418781D01*
X91743800Y-71433440D01*
X91703575Y-71450751D01*
X91601548Y-71473651D01*
X91586843Y-71476354D01*
X91457144Y-71487366D01*
X91305625Y-71484636D01*
X91160504Y-71469682D01*
X91049996Y-71444018D01*
X91047868Y-71443210D01*
X91039041Y-71428229D01*
X91080252Y-71414242D01*
X91158722Y-71402347D01*
X91261674Y-71393642D01*
X91376328Y-71389225D01*
X91489907Y-71390195D01*
G37*
X91489907Y-71390195D02*
X91589632Y-71397649D01*
X91637000Y-71403839D01*
X91721762Y-71418781D01*
X91743800Y-71433440D01*
X91703575Y-71450751D01*
X91601548Y-71473651D01*
X91586843Y-71476354D01*
X91457144Y-71487366D01*
X91305625Y-71484636D01*
X91160504Y-71469682D01*
X91049996Y-71444018D01*
X91047868Y-71443210D01*
X91039041Y-71428229D01*
X91080252Y-71414242D01*
X91158722Y-71402347D01*
X91261674Y-71393642D01*
X91376328Y-71389225D01*
X91489907Y-71390195D01*
G36*
X92335350Y-71589747D02*
G01*
X92377819Y-71602432D01*
X92603685Y-71700832D01*
X92795725Y-71837258D01*
X92922725Y-71952168D01*
X92748100Y-71886342D01*
X92670699Y-71856102D01*
X92556821Y-71802972D01*
X92459960Y-71740266D01*
X92351225Y-71650841D01*
X92323184Y-71626248D01*
X92282905Y-71587566D01*
X92287708Y-71578276D01*
X92335350Y-71589747D01*
G37*
X92335350Y-71589747D02*
X92377819Y-71602432D01*
X92603685Y-71700832D01*
X92795725Y-71837258D01*
X92922725Y-71952168D01*
X92748100Y-71886342D01*
X92670699Y-71856102D01*
X92556821Y-71802972D01*
X92459960Y-71740266D01*
X92351225Y-71650841D01*
X92323184Y-71626248D01*
X92282905Y-71587566D01*
X92287708Y-71578276D01*
X92335350Y-71589747D01*
G36*
X92884685Y-70946172D02*
G01*
X92869389Y-70975209D01*
X92814548Y-71024425D01*
X92732493Y-71085120D01*
X92635553Y-71148595D01*
X92536059Y-71206150D01*
X92446339Y-71249084D01*
X92373923Y-71278183D01*
X92300435Y-71304611D01*
X92279837Y-71302286D01*
X92308545Y-71268451D01*
X92382975Y-71200351D01*
X92419492Y-71170173D01*
X92516970Y-71102857D01*
X92628235Y-71037957D01*
X92736843Y-70983986D01*
X92826352Y-70949457D01*
X92880318Y-70942880D01*
X92884685Y-70946172D01*
G37*
X92884685Y-70946172D02*
X92869389Y-70975209D01*
X92814548Y-71024425D01*
X92732493Y-71085120D01*
X92635553Y-71148595D01*
X92536059Y-71206150D01*
X92446339Y-71249084D01*
X92373923Y-71278183D01*
X92300435Y-71304611D01*
X92279837Y-71302286D01*
X92308545Y-71268451D01*
X92382975Y-71200351D01*
X92419492Y-71170173D01*
X92516970Y-71102857D01*
X92628235Y-71037957D01*
X92736843Y-70983986D01*
X92826352Y-70949457D01*
X92880318Y-70942880D01*
X92884685Y-70946172D01*
G36*
X83195190Y-72491600D02*
G01*
X83318350Y-72491600D01*
X83318350Y-73422933D01*
X83318312Y-73491403D01*
X83317593Y-73722918D01*
X83316055Y-73930978D01*
X83313818Y-74107575D01*
X83311004Y-74244698D01*
X83307733Y-74334340D01*
X83304125Y-74368492D01*
X83297831Y-74371322D01*
X83245183Y-74374977D01*
X83161250Y-74370448D01*
X83032600Y-74358180D01*
X83029236Y-73924952D01*
X83029008Y-73893223D01*
X83028378Y-73726752D01*
X83028703Y-73578382D01*
X83029906Y-73463246D01*
X83031912Y-73396475D01*
X83033029Y-73360477D01*
X83027036Y-73329581D01*
X83009325Y-73338502D01*
X82977708Y-73391140D01*
X82930001Y-73491398D01*
X82864017Y-73643176D01*
X82777570Y-73850376D01*
X82729319Y-73965633D01*
X82663997Y-74115948D01*
X82607996Y-74238216D01*
X82566079Y-74322137D01*
X82543013Y-74357411D01*
X82498765Y-74372034D01*
X82421413Y-74381029D01*
X82334100Y-74383263D01*
X82334100Y-72491600D01*
X82619850Y-72491600D01*
X82620504Y-73007537D01*
X82621158Y-73523475D01*
X83072030Y-72491599D01*
X83195190Y-72491600D01*
G37*
X83195190Y-72491600D02*
X83318350Y-72491600D01*
X83318350Y-73422933D01*
X83318312Y-73491403D01*
X83317593Y-73722918D01*
X83316055Y-73930978D01*
X83313818Y-74107575D01*
X83311004Y-74244698D01*
X83307733Y-74334340D01*
X83304125Y-74368492D01*
X83297831Y-74371322D01*
X83245183Y-74374977D01*
X83161250Y-74370448D01*
X83032600Y-74358180D01*
X83029236Y-73924952D01*
X83029008Y-73893223D01*
X83028378Y-73726752D01*
X83028703Y-73578382D01*
X83029906Y-73463246D01*
X83031912Y-73396475D01*
X83033029Y-73360477D01*
X83027036Y-73329581D01*
X83009325Y-73338502D01*
X82977708Y-73391140D01*
X82930001Y-73491398D01*
X82864017Y-73643176D01*
X82777570Y-73850376D01*
X82729319Y-73965633D01*
X82663997Y-74115948D01*
X82607996Y-74238216D01*
X82566079Y-74322137D01*
X82543013Y-74357411D01*
X82498765Y-74372034D01*
X82421413Y-74381029D01*
X82334100Y-74383263D01*
X82334100Y-72491600D01*
X82619850Y-72491600D01*
X82620504Y-73007537D01*
X82621158Y-73523475D01*
X83072030Y-72491599D01*
X83195190Y-72491600D01*
G36*
X86588600Y-74362628D02*
G01*
X86263163Y-74371676D01*
X86091508Y-74376531D01*
X85965619Y-74378578D01*
X85883872Y-74375187D01*
X85836395Y-74363955D01*
X85813317Y-74342482D01*
X85804767Y-74308366D01*
X85800871Y-74259204D01*
X85791017Y-74142600D01*
X86239350Y-74142600D01*
X86239350Y-72491600D01*
X86588600Y-72491600D01*
X86588600Y-74362628D01*
G37*
X86588600Y-74362628D02*
X86263163Y-74371676D01*
X86091508Y-74376531D01*
X85965619Y-74378578D01*
X85883872Y-74375187D01*
X85836395Y-74363955D01*
X85813317Y-74342482D01*
X85804767Y-74308366D01*
X85800871Y-74259204D01*
X85791017Y-74142600D01*
X86239350Y-74142600D01*
X86239350Y-72491600D01*
X86588600Y-72491600D01*
X86588600Y-74362628D01*
G36*
X91626485Y-70665975D02*
G01*
X91633125Y-70673553D01*
X91699506Y-70762907D01*
X91768369Y-70874593D01*
X91829814Y-70990146D01*
X91873941Y-71091105D01*
X91890850Y-71159005D01*
X91886293Y-71183989D01*
X91866277Y-71178597D01*
X91824148Y-71131985D01*
X91753313Y-71038371D01*
X91714056Y-70980300D01*
X91636690Y-70844022D01*
X91577442Y-70712933D01*
X91512766Y-70538975D01*
X91626485Y-70665975D01*
G37*
X91626485Y-70665975D02*
X91633125Y-70673553D01*
X91699506Y-70762907D01*
X91768369Y-70874593D01*
X91829814Y-70990146D01*
X91873941Y-71091105D01*
X91890850Y-71159005D01*
X91886293Y-71183989D01*
X91866277Y-71178597D01*
X91824148Y-71131985D01*
X91753313Y-71038371D01*
X91714056Y-70980300D01*
X91636690Y-70844022D01*
X91577442Y-70712933D01*
X91512766Y-70538975D01*
X91626485Y-70665975D01*
G36*
X81664397Y-72485111D02*
G01*
X81790104Y-72517951D01*
X81884365Y-72580774D01*
X81962123Y-72680108D01*
X81976790Y-72704838D01*
X81998731Y-72751810D01*
X82014605Y-72808749D01*
X82025708Y-72886362D01*
X82033340Y-72995355D01*
X82038799Y-73146434D01*
X82043382Y-73350306D01*
X82044294Y-73402898D01*
X82045253Y-73624313D01*
X82041221Y-73809869D01*
X82032517Y-73950397D01*
X82019462Y-74036723D01*
X82015617Y-74050356D01*
X81956762Y-74188060D01*
X81874456Y-74299253D01*
X81782028Y-74365482D01*
X81752491Y-74374149D01*
X81661374Y-74388163D01*
X81552924Y-74394587D01*
X81464178Y-74391646D01*
X81379010Y-74370160D01*
X81309523Y-74321207D01*
X81257224Y-74276395D01*
X81228605Y-74269019D01*
X81213708Y-74301131D01*
X81177819Y-74338662D01*
X81108245Y-74368672D01*
X81034139Y-74382013D01*
X80984545Y-74369960D01*
X80981938Y-74360812D01*
X80976770Y-74299924D01*
X80972618Y-74192356D01*
X80969854Y-74049640D01*
X80968850Y-73883308D01*
X80968850Y-73412350D01*
X81217559Y-73412350D01*
X81246384Y-73412454D01*
X81360921Y-73415116D01*
X81444944Y-73420639D01*
X81481961Y-73428044D01*
X81488929Y-73467006D01*
X81483650Y-73539169D01*
X81475510Y-73580287D01*
X81445237Y-73624307D01*
X81377997Y-73634600D01*
X81335199Y-73636241D01*
X81301674Y-73652025D01*
X81288585Y-73698416D01*
X81286350Y-73791856D01*
X81291795Y-73888797D01*
X81326386Y-74023487D01*
X81389786Y-74108887D01*
X81478393Y-74141127D01*
X81588604Y-74116340D01*
X81589068Y-74116128D01*
X81628012Y-74090793D01*
X81657176Y-74049990D01*
X81677635Y-73985730D01*
X81690467Y-73890021D01*
X81696747Y-73754872D01*
X81697553Y-73572291D01*
X81693961Y-73334289D01*
X81692323Y-73256406D01*
X81687615Y-73080042D01*
X81681700Y-72953982D01*
X81673361Y-72868530D01*
X81661376Y-72813991D01*
X81644527Y-72780670D01*
X81621595Y-72758870D01*
X81563083Y-72726806D01*
X81469949Y-72719301D01*
X81391831Y-72764244D01*
X81338094Y-72854698D01*
X81318100Y-72983725D01*
X81318100Y-73126600D01*
X80961534Y-73126600D01*
X80984339Y-72944070D01*
X80984604Y-72941961D01*
X81021606Y-72755020D01*
X81083277Y-72622087D01*
X81177412Y-72536000D01*
X81311809Y-72489600D01*
X81494265Y-72475725D01*
X81664397Y-72485111D01*
G37*
X81664397Y-72485111D02*
X81790104Y-72517951D01*
X81884365Y-72580774D01*
X81962123Y-72680108D01*
X81976790Y-72704838D01*
X81998731Y-72751810D01*
X82014605Y-72808749D01*
X82025708Y-72886362D01*
X82033340Y-72995355D01*
X82038799Y-73146434D01*
X82043382Y-73350306D01*
X82044294Y-73402898D01*
X82045253Y-73624313D01*
X82041221Y-73809869D01*
X82032517Y-73950397D01*
X82019462Y-74036723D01*
X82015617Y-74050356D01*
X81956762Y-74188060D01*
X81874456Y-74299253D01*
X81782028Y-74365482D01*
X81752491Y-74374149D01*
X81661374Y-74388163D01*
X81552924Y-74394587D01*
X81464178Y-74391646D01*
X81379010Y-74370160D01*
X81309523Y-74321207D01*
X81257224Y-74276395D01*
X81228605Y-74269019D01*
X81213708Y-74301131D01*
X81177819Y-74338662D01*
X81108245Y-74368672D01*
X81034139Y-74382013D01*
X80984545Y-74369960D01*
X80981938Y-74360812D01*
X80976770Y-74299924D01*
X80972618Y-74192356D01*
X80969854Y-74049640D01*
X80968850Y-73883308D01*
X80968850Y-73412350D01*
X81217559Y-73412350D01*
X81246384Y-73412454D01*
X81360921Y-73415116D01*
X81444944Y-73420639D01*
X81481961Y-73428044D01*
X81488929Y-73467006D01*
X81483650Y-73539169D01*
X81475510Y-73580287D01*
X81445237Y-73624307D01*
X81377997Y-73634600D01*
X81335199Y-73636241D01*
X81301674Y-73652025D01*
X81288585Y-73698416D01*
X81286350Y-73791856D01*
X81291795Y-73888797D01*
X81326386Y-74023487D01*
X81389786Y-74108887D01*
X81478393Y-74141127D01*
X81588604Y-74116340D01*
X81589068Y-74116128D01*
X81628012Y-74090793D01*
X81657176Y-74049990D01*
X81677635Y-73985730D01*
X81690467Y-73890021D01*
X81696747Y-73754872D01*
X81697553Y-73572291D01*
X81693961Y-73334289D01*
X81692323Y-73256406D01*
X81687615Y-73080042D01*
X81681700Y-72953982D01*
X81673361Y-72868530D01*
X81661376Y-72813991D01*
X81644527Y-72780670D01*
X81621595Y-72758870D01*
X81563083Y-72726806D01*
X81469949Y-72719301D01*
X81391831Y-72764244D01*
X81338094Y-72854698D01*
X81318100Y-72983725D01*
X81318100Y-73126600D01*
X80961534Y-73126600D01*
X80984339Y-72944070D01*
X80984604Y-72941961D01*
X81021606Y-72755020D01*
X81083277Y-72622087D01*
X81177412Y-72536000D01*
X81311809Y-72489600D01*
X81494265Y-72475725D01*
X81664397Y-72485111D01*
G36*
X84334350Y-73422933D02*
G01*
X84334308Y-73491126D01*
X84333507Y-73722789D01*
X84331792Y-73931091D01*
X84329299Y-74108003D01*
X84326161Y-74245498D01*
X84322513Y-74335549D01*
X84318489Y-74370128D01*
X84293959Y-74378137D01*
X84231176Y-74378065D01*
X84204783Y-74376076D01*
X84116222Y-74372468D01*
X83991971Y-74369440D01*
X83850163Y-74367495D01*
X83540600Y-74364850D01*
X83540600Y-74142600D01*
X83985100Y-74142600D01*
X83985100Y-73507600D01*
X83635850Y-73507600D01*
X83635850Y-73288668D01*
X83802538Y-73279071D01*
X83969225Y-73269475D01*
X83969225Y-72729725D01*
X83754913Y-72720336D01*
X83540600Y-72710948D01*
X83540600Y-72491600D01*
X84334350Y-72491600D01*
X84334350Y-73422933D01*
G37*
X84334350Y-73422933D02*
X84334308Y-73491126D01*
X84333507Y-73722789D01*
X84331792Y-73931091D01*
X84329299Y-74108003D01*
X84326161Y-74245498D01*
X84322513Y-74335549D01*
X84318489Y-74370128D01*
X84293959Y-74378137D01*
X84231176Y-74378065D01*
X84204783Y-74376076D01*
X84116222Y-74372468D01*
X83991971Y-74369440D01*
X83850163Y-74367495D01*
X83540600Y-74364850D01*
X83540600Y-74142600D01*
X83985100Y-74142600D01*
X83985100Y-73507600D01*
X83635850Y-73507600D01*
X83635850Y-73288668D01*
X83802538Y-73279071D01*
X83969225Y-73269475D01*
X83969225Y-72729725D01*
X83754913Y-72720336D01*
X83540600Y-72710948D01*
X83540600Y-72491600D01*
X84334350Y-72491600D01*
X84334350Y-73422933D01*
G36*
X79106595Y-74987843D02*
G01*
X79219471Y-75052804D01*
X79292134Y-75161546D01*
X79317850Y-75309140D01*
X79317850Y-75310878D01*
X79314560Y-75379128D01*
X79299302Y-75435967D01*
X79263754Y-75495387D01*
X79199595Y-75571375D01*
X79098504Y-75677921D01*
X78998403Y-75783643D01*
X78926833Y-75867907D01*
X78886604Y-75932413D01*
X78870071Y-75989658D01*
X78869589Y-76052140D01*
X78875363Y-76081470D01*
X78912201Y-76121836D01*
X78968562Y-76123603D01*
X79028527Y-76093170D01*
X79076179Y-76036933D01*
X79095600Y-75961292D01*
X79099701Y-75918784D01*
X79127688Y-75893969D01*
X79198788Y-75894775D01*
X79237644Y-75900137D01*
X79291352Y-75926184D01*
X79310567Y-75984100D01*
X79308115Y-76040352D01*
X79265636Y-76148378D01*
X79187259Y-76241700D01*
X79088872Y-76297838D01*
X79055067Y-76306383D01*
X78907668Y-76312551D01*
X78780187Y-76269496D01*
X78684520Y-76183404D01*
X78632566Y-76060466D01*
X78625262Y-75971114D01*
X78654771Y-75838374D01*
X78737411Y-75705067D01*
X78877213Y-75562996D01*
X78990575Y-75454264D01*
X79066576Y-75353941D01*
X79090079Y-75272674D01*
X79063508Y-75205812D01*
X79052306Y-75193456D01*
X78984903Y-75158009D01*
X78923092Y-75180148D01*
X78881732Y-75255786D01*
X78880536Y-75260306D01*
X78856340Y-75325307D01*
X78833200Y-75351036D01*
X78800243Y-75349807D01*
X78730475Y-75349100D01*
X78723168Y-75349015D01*
X78666410Y-75332646D01*
X78651219Y-75277662D01*
X78656316Y-75231293D01*
X78701561Y-75122991D01*
X78779660Y-75033012D01*
X78873523Y-74983937D01*
X78960238Y-74971589D01*
X79106595Y-74987843D01*
G37*
X79106595Y-74987843D02*
X79219471Y-75052804D01*
X79292134Y-75161546D01*
X79317850Y-75309140D01*
X79317850Y-75310878D01*
X79314560Y-75379128D01*
X79299302Y-75435967D01*
X79263754Y-75495387D01*
X79199595Y-75571375D01*
X79098504Y-75677921D01*
X78998403Y-75783643D01*
X78926833Y-75867907D01*
X78886604Y-75932413D01*
X78870071Y-75989658D01*
X78869589Y-76052140D01*
X78875363Y-76081470D01*
X78912201Y-76121836D01*
X78968562Y-76123603D01*
X79028527Y-76093170D01*
X79076179Y-76036933D01*
X79095600Y-75961292D01*
X79099701Y-75918784D01*
X79127688Y-75893969D01*
X79198788Y-75894775D01*
X79237644Y-75900137D01*
X79291352Y-75926184D01*
X79310567Y-75984100D01*
X79308115Y-76040352D01*
X79265636Y-76148378D01*
X79187259Y-76241700D01*
X79088872Y-76297838D01*
X79055067Y-76306383D01*
X78907668Y-76312551D01*
X78780187Y-76269496D01*
X78684520Y-76183404D01*
X78632566Y-76060466D01*
X78625262Y-75971114D01*
X78654771Y-75838374D01*
X78737411Y-75705067D01*
X78877213Y-75562996D01*
X78990575Y-75454264D01*
X79066576Y-75353941D01*
X79090079Y-75272674D01*
X79063508Y-75205812D01*
X79052306Y-75193456D01*
X78984903Y-75158009D01*
X78923092Y-75180148D01*
X78881732Y-75255786D01*
X78880536Y-75260306D01*
X78856340Y-75325307D01*
X78833200Y-75351036D01*
X78800243Y-75349807D01*
X78730475Y-75349100D01*
X78723168Y-75349015D01*
X78666410Y-75332646D01*
X78651219Y-75277662D01*
X78656316Y-75231293D01*
X78701561Y-75122991D01*
X78779660Y-75033012D01*
X78873523Y-74983937D01*
X78960238Y-74971589D01*
X79106595Y-74987843D01*
G36*
X82752431Y-74984783D02*
G01*
X82871414Y-75050297D01*
X82899721Y-75075159D01*
X82944781Y-75129886D01*
X82964649Y-75197342D01*
X82969100Y-75302787D01*
X82969001Y-75335663D01*
X82965117Y-75406109D01*
X82949338Y-75462284D01*
X82913286Y-75518853D01*
X82848583Y-75590480D01*
X82746850Y-75691832D01*
X82679857Y-75760039D01*
X82578806Y-75879969D01*
X82528079Y-75974253D01*
X82525327Y-76048361D01*
X82568201Y-76107760D01*
X82571772Y-76110617D01*
X82635769Y-76129675D01*
X82694873Y-76095402D01*
X82740040Y-76017264D01*
X82762225Y-75904725D01*
X82779010Y-75887018D01*
X82840113Y-75884240D01*
X82929413Y-75905236D01*
X82961145Y-75943106D01*
X82967069Y-76017115D01*
X82947230Y-76105177D01*
X82903603Y-76185803D01*
X82830694Y-76251116D01*
X82736916Y-76298346D01*
X82679837Y-76313809D01*
X82587331Y-76327199D01*
X82512649Y-76310989D01*
X82428091Y-76261912D01*
X82394566Y-76237121D01*
X82306782Y-76131663D01*
X82278515Y-76008009D01*
X82309408Y-75868285D01*
X82399109Y-75714614D01*
X82547260Y-75549121D01*
X82608066Y-75488483D01*
X82699631Y-75380412D01*
X82740392Y-75296940D01*
X82732491Y-75232008D01*
X82678074Y-75179558D01*
X82662961Y-75171907D01*
X82598016Y-75173696D01*
X82545935Y-75221021D01*
X82524600Y-75299863D01*
X82521843Y-75332830D01*
X82496484Y-75358851D01*
X82428962Y-75355815D01*
X82390863Y-75349040D01*
X82328199Y-75321409D01*
X82311924Y-75267691D01*
X82334488Y-75173302D01*
X82397554Y-75068015D01*
X82499478Y-74997313D01*
X82623111Y-74968345D01*
X82752431Y-74984783D01*
G37*
X82752431Y-74984783D02*
X82871414Y-75050297D01*
X82899721Y-75075159D01*
X82944781Y-75129886D01*
X82964649Y-75197342D01*
X82969100Y-75302787D01*
X82969001Y-75335663D01*
X82965117Y-75406109D01*
X82949338Y-75462284D01*
X82913286Y-75518853D01*
X82848583Y-75590480D01*
X82746850Y-75691832D01*
X82679857Y-75760039D01*
X82578806Y-75879969D01*
X82528079Y-75974253D01*
X82525327Y-76048361D01*
X82568201Y-76107760D01*
X82571772Y-76110617D01*
X82635769Y-76129675D01*
X82694873Y-76095402D01*
X82740040Y-76017264D01*
X82762225Y-75904725D01*
X82779010Y-75887018D01*
X82840113Y-75884240D01*
X82929413Y-75905236D01*
X82961145Y-75943106D01*
X82967069Y-76017115D01*
X82947230Y-76105177D01*
X82903603Y-76185803D01*
X82830694Y-76251116D01*
X82736916Y-76298346D01*
X82679837Y-76313809D01*
X82587331Y-76327199D01*
X82512649Y-76310989D01*
X82428091Y-76261912D01*
X82394566Y-76237121D01*
X82306782Y-76131663D01*
X82278515Y-76008009D01*
X82309408Y-75868285D01*
X82399109Y-75714614D01*
X82547260Y-75549121D01*
X82608066Y-75488483D01*
X82699631Y-75380412D01*
X82740392Y-75296940D01*
X82732491Y-75232008D01*
X82678074Y-75179558D01*
X82662961Y-75171907D01*
X82598016Y-75173696D01*
X82545935Y-75221021D01*
X82524600Y-75299863D01*
X82521843Y-75332830D01*
X82496484Y-75358851D01*
X82428962Y-75355815D01*
X82390863Y-75349040D01*
X82328199Y-75321409D01*
X82311924Y-75267691D01*
X82334488Y-75173302D01*
X82397554Y-75068015D01*
X82499478Y-74997313D01*
X82623111Y-74968345D01*
X82752431Y-74984783D01*
G36*
X80000475Y-74993762D02*
G01*
X80017639Y-76301600D01*
X79731245Y-76301600D01*
X79704970Y-76301595D01*
X79578778Y-76300622D01*
X79501876Y-76295581D01*
X79462058Y-76283090D01*
X79447118Y-76259766D01*
X79444850Y-76222225D01*
X79446354Y-76190369D01*
X79462382Y-76158556D01*
X79509384Y-76145423D01*
X79603600Y-76142850D01*
X79762350Y-76142850D01*
X79762350Y-75698350D01*
X79635350Y-75698350D01*
X79624291Y-75698321D01*
X79547979Y-75692844D01*
X79515282Y-75670114D01*
X79508350Y-75618975D01*
X79508396Y-75612062D01*
X79517159Y-75564367D01*
X79553527Y-75543932D01*
X79635350Y-75539600D01*
X79762350Y-75539600D01*
X79762350Y-75158600D01*
X79601492Y-75158600D01*
X79525438Y-75157631D01*
X79468643Y-75149091D01*
X79448779Y-75124650D01*
X79450679Y-75076002D01*
X79457929Y-75036177D01*
X79476517Y-75011700D01*
X79519459Y-74999003D01*
X79599804Y-74994245D01*
X79730600Y-74993583D01*
X80000475Y-74993762D01*
G37*
X80000475Y-74993762D02*
X80017639Y-76301600D01*
X79731245Y-76301600D01*
X79704970Y-76301595D01*
X79578778Y-76300622D01*
X79501876Y-76295581D01*
X79462058Y-76283090D01*
X79447118Y-76259766D01*
X79444850Y-76222225D01*
X79446354Y-76190369D01*
X79462382Y-76158556D01*
X79509384Y-76145423D01*
X79603600Y-76142850D01*
X79762350Y-76142850D01*
X79762350Y-75698350D01*
X79635350Y-75698350D01*
X79624291Y-75698321D01*
X79547979Y-75692844D01*
X79515282Y-75670114D01*
X79508350Y-75618975D01*
X79508396Y-75612062D01*
X79517159Y-75564367D01*
X79553527Y-75543932D01*
X79635350Y-75539600D01*
X79762350Y-75539600D01*
X79762350Y-75158600D01*
X79601492Y-75158600D01*
X79525438Y-75157631D01*
X79468643Y-75149091D01*
X79448779Y-75124650D01*
X79450679Y-75076002D01*
X79457929Y-75036177D01*
X79476517Y-75011700D01*
X79519459Y-74999003D01*
X79599804Y-74994245D01*
X79730600Y-74993583D01*
X80000475Y-74993762D01*
D13*
%TO.C,U2*%
X40458492Y-77893494D02*
X44014492Y-77893494D01*
X44014492Y-77893494D02*
X44014492Y-76623494D01*
X44014492Y-76623494D02*
X40458492Y-76623494D01*
X40458492Y-76623494D02*
X40458492Y-77893494D01*
G36*
X40458492Y-77893494D02*
G01*
X44014492Y-77893494D01*
X44014492Y-76623494D01*
X40458492Y-76623494D01*
X40458492Y-77893494D01*
G37*
X40458492Y-77893494D02*
X44014492Y-77893494D01*
X44014492Y-77893494D02*
X44014492Y-68495494D01*
X44014492Y-68495494D02*
X40458492Y-68495494D01*
X40458492Y-68495494D02*
X40458492Y-77893494D01*
D15*
X37948492Y-78782494D02*
G75*
G03*
X37948492Y-78782494I-157000J0D01*
G01*
D13*
%TO.C,R5*%
X88611064Y-47350000D02*
X87156936Y-47350000D01*
X88611064Y-49170000D02*
X87156936Y-49170000D01*
%TO.C,S1*%
X96576300Y-87761526D02*
X97316214Y-88818232D01*
X97764071Y-86929840D02*
X93094904Y-90199226D01*
X96251316Y-89563882D02*
X96535598Y-89621188D01*
X97223124Y-85111221D02*
X97676250Y-85758351D01*
X96251316Y-89563882D02*
X95511402Y-88507175D01*
X97316214Y-88818232D02*
X97272834Y-89104969D01*
X97272834Y-89104969D02*
X96535598Y-89621188D01*
X95105438Y-85312227D02*
X93712879Y-86287307D01*
X92647982Y-87032957D02*
X92484151Y-87147672D01*
X92024100Y-89716028D02*
X91570975Y-89068898D01*
%TO.C,R4*%
X99787064Y-56028000D02*
X98332936Y-56028000D01*
X99787064Y-54208000D02*
X98332936Y-54208000D01*
%TO.C,R12*%
X66467400Y-77358864D02*
X66467400Y-75904736D01*
X64647400Y-77358864D02*
X64647400Y-75904736D01*
%TO.C,U1*%
X51634492Y-79248000D02*
X55190492Y-79248000D01*
X55190492Y-79248000D02*
X55190492Y-74676000D01*
X55190492Y-74676000D02*
X51634492Y-74676000D01*
X51634492Y-74676000D02*
X51634492Y-79248000D01*
X51634492Y-79248000D02*
X55190492Y-79248000D01*
X55190492Y-79248000D02*
X55190492Y-78232000D01*
X55190492Y-78232000D02*
X51634492Y-78232000D01*
X51634492Y-78232000D02*
X51634492Y-79248000D01*
G36*
X51634492Y-79248000D02*
G01*
X55190492Y-79248000D01*
X55190492Y-78232000D01*
X51634492Y-78232000D01*
X51634492Y-79248000D01*
G37*
D15*
X49251492Y-80010000D02*
G75*
G03*
X49251492Y-80010000I-157000J0D01*
G01*
D13*
%TO.C,R7*%
X33239064Y-62124000D02*
X31784936Y-62124000D01*
X33239064Y-60304000D02*
X31784936Y-60304000D01*
%TO.C,C3*%
X54139564Y-71480000D02*
X52685436Y-71480000D01*
X54139564Y-73300000D02*
X52685436Y-73300000D01*
%TO.C,R11*%
X62809800Y-77409664D02*
X62809800Y-75955536D01*
X60989800Y-77409664D02*
X60989800Y-75955536D01*
%TO.C,BT1*%
X77726807Y-47730023D02*
X79020902Y-52559652D01*
X81558258Y-62801934D02*
X76183998Y-69211288D01*
X77292141Y-47846492D02*
X70820438Y-49580579D01*
X56476439Y-53424042D02*
X57770534Y-58253671D01*
X56911106Y-53307574D02*
X56476439Y-53424042D01*
X76183998Y-69211288D02*
X68553184Y-71255958D01*
X56911106Y-53307574D02*
X63382809Y-51573486D01*
X81609093Y-62218911D02*
X81350274Y-61252985D01*
X60742557Y-68379484D02*
X60358725Y-67912930D01*
X77292141Y-47846492D02*
X77726807Y-47730023D01*
X68553184Y-71255958D02*
X60742557Y-68379484D01*
X81558258Y-62801934D02*
X81609093Y-62218911D01*
X60358725Y-67912930D02*
X60099906Y-66947004D01*
X70816567Y-49580100D02*
G75*
G03*
X63382809Y-51573486I-1256163J-10173228D01*
G01*
%TO.C,C2*%
X54393564Y-80370000D02*
X52939436Y-80370000D01*
X54393564Y-82190000D02*
X52939436Y-82190000D01*
%TO.C,R9*%
X49749064Y-58060000D02*
X48294936Y-58060000D01*
X49749064Y-56240000D02*
X48294936Y-56240000D01*
%TO.C,R10*%
X35525064Y-83714000D02*
X34070936Y-83714000D01*
X35525064Y-81894000D02*
X34070936Y-81894000D01*
%TO.C,R8*%
X33562936Y-69702000D02*
X35017064Y-69702000D01*
X33562936Y-71522000D02*
X35017064Y-71522000D01*
%TO.C,C1*%
X70252000Y-75954936D02*
X70252000Y-77409064D01*
X68432000Y-75954936D02*
X68432000Y-77409064D01*
%TO.C,R1*%
X109439064Y-44344000D02*
X107984936Y-44344000D01*
X109439064Y-42524000D02*
X107984936Y-42524000D01*
%TD*%
M02*
