%TF.GenerationSoftware,KiCad,Pcbnew,(6.0.1)*%
%TF.CreationDate,2022-05-04T14:42:35-07:00*%
%TF.ProjectId,Foxy_Pride,466f7879-5f50-4726-9964-652e6b696361,rev?*%
%TF.SameCoordinates,Original*%
%TF.FileFunction,Legend,Bot*%
%TF.FilePolarity,Positive*%
%FSLAX46Y46*%
G04 Gerber Fmt 4.6, Leading zero omitted, Abs format (unit mm)*
G04 Created by KiCad (PCBNEW (6.0.1)) date 2022-05-04 14:42:35*
%MOMM*%
%LPD*%
G01*
G04 APERTURE LIST*
%ADD10C,0.150000*%
%ADD11C,0.228600*%
%ADD12C,0.120000*%
%ADD13C,0.314000*%
%ADD14C,0.010000*%
G04 APERTURE END LIST*
D10*
X98052301Y-80750224D02*
X97887344Y-80845462D01*
X97828675Y-80934320D01*
X97793815Y-81064418D01*
X97847814Y-81253185D01*
X98014481Y-81541860D01*
X98150958Y-81683007D01*
X98281056Y-81717867D01*
X98387344Y-81711487D01*
X98552301Y-81616249D01*
X98610970Y-81527391D01*
X98645830Y-81397293D01*
X98591831Y-81208526D01*
X98425164Y-80919851D01*
X98288687Y-80778704D01*
X98158589Y-80743844D01*
X98052301Y-80750224D01*
X97809993Y-82044821D02*
X97309993Y-81178795D01*
X97315122Y-82330535D01*
X96815122Y-81464509D01*
X87926976Y-87441557D02*
X87762019Y-87536795D01*
X87703350Y-87625653D01*
X87668490Y-87755751D01*
X87722489Y-87944518D01*
X87889156Y-88233193D01*
X88025633Y-88374341D01*
X88155731Y-88409200D01*
X88262019Y-88402821D01*
X88426976Y-88307582D01*
X88485645Y-88218724D01*
X88520505Y-88088626D01*
X88466506Y-87899860D01*
X88299839Y-87611185D01*
X88163362Y-87470037D01*
X88033264Y-87435177D01*
X87926976Y-87441557D01*
X87134089Y-88449188D02*
X87422764Y-88282521D01*
X87684669Y-88736154D02*
X87184669Y-87870128D01*
X86772276Y-88108224D01*
X86391781Y-88877760D02*
X86680456Y-88711093D01*
X86942361Y-89164725D02*
X86442361Y-88298700D01*
X86029968Y-88536795D01*
D11*
X91040857Y-79139142D02*
X91548857Y-79139142D01*
X91548857Y-79937428D02*
X91548857Y-78413428D01*
X90823142Y-78413428D01*
X90024857Y-79937428D02*
X90170000Y-79864857D01*
X90242571Y-79792285D01*
X90315142Y-79647142D01*
X90315142Y-79211714D01*
X90242571Y-79066571D01*
X90170000Y-78994000D01*
X90024857Y-78921428D01*
X89807142Y-78921428D01*
X89662000Y-78994000D01*
X89589428Y-79066571D01*
X89516857Y-79211714D01*
X89516857Y-79647142D01*
X89589428Y-79792285D01*
X89662000Y-79864857D01*
X89807142Y-79937428D01*
X90024857Y-79937428D01*
X89008857Y-79937428D02*
X88210571Y-78921428D01*
X89008857Y-78921428D02*
X88210571Y-79937428D01*
X87775142Y-78921428D02*
X87412285Y-79937428D01*
X87049428Y-78921428D02*
X87412285Y-79937428D01*
X87557428Y-80300285D01*
X87630000Y-80372857D01*
X87775142Y-80445428D01*
X85307714Y-79937428D02*
X85307714Y-78413428D01*
X84727142Y-78413428D01*
X84582000Y-78486000D01*
X84509428Y-78558571D01*
X84436857Y-78703714D01*
X84436857Y-78921428D01*
X84509428Y-79066571D01*
X84582000Y-79139142D01*
X84727142Y-79211714D01*
X85307714Y-79211714D01*
X83783714Y-79937428D02*
X83783714Y-78921428D01*
X83783714Y-79211714D02*
X83711142Y-79066571D01*
X83638571Y-78994000D01*
X83493428Y-78921428D01*
X83348285Y-78921428D01*
X82840285Y-79937428D02*
X82840285Y-78921428D01*
X82840285Y-78413428D02*
X82912857Y-78486000D01*
X82840285Y-78558571D01*
X82767714Y-78486000D01*
X82840285Y-78413428D01*
X82840285Y-78558571D01*
X81461428Y-79937428D02*
X81461428Y-78413428D01*
X81461428Y-79864857D02*
X81606571Y-79937428D01*
X81896857Y-79937428D01*
X82042000Y-79864857D01*
X82114571Y-79792285D01*
X82187142Y-79647142D01*
X82187142Y-79211714D01*
X82114571Y-79066571D01*
X82042000Y-78994000D01*
X81896857Y-78921428D01*
X81606571Y-78921428D01*
X81461428Y-78994000D01*
X80155142Y-79864857D02*
X80300285Y-79937428D01*
X80590571Y-79937428D01*
X80735714Y-79864857D01*
X80808285Y-79719714D01*
X80808285Y-79139142D01*
X80735714Y-78994000D01*
X80590571Y-78921428D01*
X80300285Y-78921428D01*
X80155142Y-78994000D01*
X80082571Y-79139142D01*
X80082571Y-79284285D01*
X80808285Y-79429428D01*
D10*
%TO.C,R1*%
X62174380Y-80351333D02*
X61698190Y-80018000D01*
X62174380Y-79779904D02*
X61174380Y-79779904D01*
X61174380Y-80160857D01*
X61222000Y-80256095D01*
X61269619Y-80303714D01*
X61364857Y-80351333D01*
X61507714Y-80351333D01*
X61602952Y-80303714D01*
X61650571Y-80256095D01*
X61698190Y-80160857D01*
X61698190Y-79779904D01*
X62174380Y-81303714D02*
X62174380Y-80732285D01*
X62174380Y-81018000D02*
X61174380Y-81018000D01*
X61317238Y-80922761D01*
X61412476Y-80827523D01*
X61460095Y-80732285D01*
%TO.C,R4*%
X95670666Y-42616380D02*
X96004000Y-42140190D01*
X96242095Y-42616380D02*
X96242095Y-41616380D01*
X95861142Y-41616380D01*
X95765904Y-41664000D01*
X95718285Y-41711619D01*
X95670666Y-41806857D01*
X95670666Y-41949714D01*
X95718285Y-42044952D01*
X95765904Y-42092571D01*
X95861142Y-42140190D01*
X96242095Y-42140190D01*
X94813523Y-41949714D02*
X94813523Y-42616380D01*
X95051619Y-41568761D02*
X95289714Y-42283047D01*
X94670666Y-42283047D01*
%TO.C,R8*%
X98972666Y-62936380D02*
X99306000Y-62460190D01*
X99544095Y-62936380D02*
X99544095Y-61936380D01*
X99163142Y-61936380D01*
X99067904Y-61984000D01*
X99020285Y-62031619D01*
X98972666Y-62126857D01*
X98972666Y-62269714D01*
X99020285Y-62364952D01*
X99067904Y-62412571D01*
X99163142Y-62460190D01*
X99544095Y-62460190D01*
X98401238Y-62364952D02*
X98496476Y-62317333D01*
X98544095Y-62269714D01*
X98591714Y-62174476D01*
X98591714Y-62126857D01*
X98544095Y-62031619D01*
X98496476Y-61984000D01*
X98401238Y-61936380D01*
X98210761Y-61936380D01*
X98115523Y-61984000D01*
X98067904Y-62031619D01*
X98020285Y-62126857D01*
X98020285Y-62174476D01*
X98067904Y-62269714D01*
X98115523Y-62317333D01*
X98210761Y-62364952D01*
X98401238Y-62364952D01*
X98496476Y-62412571D01*
X98544095Y-62460190D01*
X98591714Y-62555428D01*
X98591714Y-62745904D01*
X98544095Y-62841142D01*
X98496476Y-62888761D01*
X98401238Y-62936380D01*
X98210761Y-62936380D01*
X98115523Y-62888761D01*
X98067904Y-62841142D01*
X98020285Y-62745904D01*
X98020285Y-62555428D01*
X98067904Y-62460190D01*
X98115523Y-62412571D01*
X98210761Y-62364952D01*
%TO.C,C4*%
X42508466Y-82830942D02*
X42556085Y-82878561D01*
X42698942Y-82926180D01*
X42794180Y-82926180D01*
X42937038Y-82878561D01*
X43032276Y-82783323D01*
X43079895Y-82688085D01*
X43127514Y-82497609D01*
X43127514Y-82354752D01*
X43079895Y-82164276D01*
X43032276Y-82069038D01*
X42937038Y-81973800D01*
X42794180Y-81926180D01*
X42698942Y-81926180D01*
X42556085Y-81973800D01*
X42508466Y-82021419D01*
X41651323Y-82259514D02*
X41651323Y-82926180D01*
X41889419Y-81878561D02*
X42127514Y-82592847D01*
X41508466Y-82592847D01*
%TO.C,R5*%
X107608666Y-54808380D02*
X107942000Y-54332190D01*
X108180095Y-54808380D02*
X108180095Y-53808380D01*
X107799142Y-53808380D01*
X107703904Y-53856000D01*
X107656285Y-53903619D01*
X107608666Y-53998857D01*
X107608666Y-54141714D01*
X107656285Y-54236952D01*
X107703904Y-54284571D01*
X107799142Y-54332190D01*
X108180095Y-54332190D01*
X106703904Y-53808380D02*
X107180095Y-53808380D01*
X107227714Y-54284571D01*
X107180095Y-54236952D01*
X107084857Y-54189333D01*
X106846761Y-54189333D01*
X106751523Y-54236952D01*
X106703904Y-54284571D01*
X106656285Y-54379809D01*
X106656285Y-54617904D01*
X106703904Y-54713142D01*
X106751523Y-54760761D01*
X106846761Y-54808380D01*
X107084857Y-54808380D01*
X107180095Y-54760761D01*
X107227714Y-54713142D01*
%TO.C,U2*%
X42925904Y-66254380D02*
X42925904Y-67063904D01*
X42878285Y-67159142D01*
X42830666Y-67206761D01*
X42735428Y-67254380D01*
X42544952Y-67254380D01*
X42449714Y-67206761D01*
X42402095Y-67159142D01*
X42354476Y-67063904D01*
X42354476Y-66254380D01*
X41925904Y-66349619D02*
X41878285Y-66302000D01*
X41783047Y-66254380D01*
X41544952Y-66254380D01*
X41449714Y-66302000D01*
X41402095Y-66349619D01*
X41354476Y-66444857D01*
X41354476Y-66540095D01*
X41402095Y-66682952D01*
X41973523Y-67254380D01*
X41354476Y-67254380D01*
%TO.C,R7*%
X88050666Y-46426380D02*
X88384000Y-45950190D01*
X88622095Y-46426380D02*
X88622095Y-45426380D01*
X88241142Y-45426380D01*
X88145904Y-45474000D01*
X88098285Y-45521619D01*
X88050666Y-45616857D01*
X88050666Y-45759714D01*
X88098285Y-45854952D01*
X88145904Y-45902571D01*
X88241142Y-45950190D01*
X88622095Y-45950190D01*
X87717333Y-45426380D02*
X87050666Y-45426380D01*
X87479238Y-46426380D01*
%TO.C,S1*%
X93566277Y-82444550D02*
X93476569Y-82565497D01*
X93281532Y-82702063D01*
X93176205Y-82717682D01*
X93109884Y-82705988D01*
X93016251Y-82655287D01*
X92961625Y-82577272D01*
X92946005Y-82471945D01*
X92957700Y-82405624D01*
X93008401Y-82311991D01*
X93137117Y-82163731D01*
X93187818Y-82070097D01*
X93199512Y-82003777D01*
X93183893Y-81898449D01*
X93129267Y-81820435D01*
X93035633Y-81769733D01*
X92969313Y-81758039D01*
X92863985Y-81773658D01*
X92668949Y-81910224D01*
X92579240Y-82031171D01*
X92345359Y-83357579D02*
X92813446Y-83029821D01*
X92579402Y-83193700D02*
X92005826Y-82374548D01*
X92165780Y-82436943D01*
X92298420Y-82460331D01*
X92403748Y-82444712D01*
%TO.C,R6*%
X99226666Y-52776380D02*
X99560000Y-52300190D01*
X99798095Y-52776380D02*
X99798095Y-51776380D01*
X99417142Y-51776380D01*
X99321904Y-51824000D01*
X99274285Y-51871619D01*
X99226666Y-51966857D01*
X99226666Y-52109714D01*
X99274285Y-52204952D01*
X99321904Y-52252571D01*
X99417142Y-52300190D01*
X99798095Y-52300190D01*
X98369523Y-51776380D02*
X98560000Y-51776380D01*
X98655238Y-51824000D01*
X98702857Y-51871619D01*
X98798095Y-52014476D01*
X98845714Y-52204952D01*
X98845714Y-52585904D01*
X98798095Y-52681142D01*
X98750476Y-52728761D01*
X98655238Y-52776380D01*
X98464761Y-52776380D01*
X98369523Y-52728761D01*
X98321904Y-52681142D01*
X98274285Y-52585904D01*
X98274285Y-52347809D01*
X98321904Y-52252571D01*
X98369523Y-52204952D01*
X98464761Y-52157333D01*
X98655238Y-52157333D01*
X98750476Y-52204952D01*
X98798095Y-52252571D01*
X98845714Y-52347809D01*
%TO.C,U1*%
X49783904Y-80732380D02*
X49783904Y-81541904D01*
X49736285Y-81637142D01*
X49688666Y-81684761D01*
X49593428Y-81732380D01*
X49402952Y-81732380D01*
X49307714Y-81684761D01*
X49260095Y-81637142D01*
X49212476Y-81541904D01*
X49212476Y-80732380D01*
X48212476Y-81732380D02*
X48783904Y-81732380D01*
X48498190Y-81732380D02*
X48498190Y-80732380D01*
X48593428Y-80875238D01*
X48688666Y-80970476D01*
X48783904Y-81018095D01*
%TO.C,R9*%
X32932666Y-59380380D02*
X33266000Y-58904190D01*
X33504095Y-59380380D02*
X33504095Y-58380380D01*
X33123142Y-58380380D01*
X33027904Y-58428000D01*
X32980285Y-58475619D01*
X32932666Y-58570857D01*
X32932666Y-58713714D01*
X32980285Y-58808952D01*
X33027904Y-58856571D01*
X33123142Y-58904190D01*
X33504095Y-58904190D01*
X32456476Y-59380380D02*
X32266000Y-59380380D01*
X32170761Y-59332761D01*
X32123142Y-59285142D01*
X32027904Y-59142285D01*
X31980285Y-58951809D01*
X31980285Y-58570857D01*
X32027904Y-58475619D01*
X32075523Y-58428000D01*
X32170761Y-58380380D01*
X32361238Y-58380380D01*
X32456476Y-58428000D01*
X32504095Y-58475619D01*
X32551714Y-58570857D01*
X32551714Y-58808952D01*
X32504095Y-58904190D01*
X32456476Y-58951809D01*
X32361238Y-58999428D01*
X32170761Y-58999428D01*
X32075523Y-58951809D01*
X32027904Y-58904190D01*
X31980285Y-58808952D01*
%TO.C,R2*%
X65984380Y-80351333D02*
X65508190Y-80018000D01*
X65984380Y-79779904D02*
X64984380Y-79779904D01*
X64984380Y-80160857D01*
X65032000Y-80256095D01*
X65079619Y-80303714D01*
X65174857Y-80351333D01*
X65317714Y-80351333D01*
X65412952Y-80303714D01*
X65460571Y-80256095D01*
X65508190Y-80160857D01*
X65508190Y-79779904D01*
X65079619Y-80732285D02*
X65032000Y-80779904D01*
X64984380Y-80875142D01*
X64984380Y-81113238D01*
X65032000Y-81208476D01*
X65079619Y-81256095D01*
X65174857Y-81303714D01*
X65270095Y-81303714D01*
X65412952Y-81256095D01*
X65984380Y-80684666D01*
X65984380Y-81303714D01*
%TO.C,C3*%
X53579166Y-70927142D02*
X53626785Y-70974761D01*
X53769642Y-71022380D01*
X53864880Y-71022380D01*
X54007738Y-70974761D01*
X54102976Y-70879523D01*
X54150595Y-70784285D01*
X54198214Y-70593809D01*
X54198214Y-70450952D01*
X54150595Y-70260476D01*
X54102976Y-70165238D01*
X54007738Y-70070000D01*
X53864880Y-70022380D01*
X53769642Y-70022380D01*
X53626785Y-70070000D01*
X53579166Y-70117619D01*
X53245833Y-70022380D02*
X52626785Y-70022380D01*
X52960119Y-70403333D01*
X52817261Y-70403333D01*
X52722023Y-70450952D01*
X52674404Y-70498571D01*
X52626785Y-70593809D01*
X52626785Y-70831904D01*
X52674404Y-70927142D01*
X52722023Y-70974761D01*
X52817261Y-71022380D01*
X53102976Y-71022380D01*
X53198214Y-70974761D01*
X53245833Y-70927142D01*
%TO.C,BT1*%
X81649624Y-66482261D02*
X81523959Y-66565232D01*
X81490288Y-66623553D01*
X81468941Y-66727870D01*
X81505915Y-66865860D01*
X81576561Y-66945528D01*
X81634882Y-66979200D01*
X81739200Y-67000547D01*
X82107171Y-66901949D01*
X81848352Y-65936023D01*
X81526377Y-66022296D01*
X81446709Y-66092942D01*
X81413037Y-66151263D01*
X81391690Y-66255581D01*
X81416339Y-66347574D01*
X81486985Y-66427242D01*
X81545306Y-66460914D01*
X81649624Y-66482261D01*
X81971599Y-66395988D01*
X81020416Y-66157868D02*
X80468458Y-66305765D01*
X81003256Y-67197742D02*
X80744437Y-66231816D01*
X79899341Y-67493535D02*
X80451298Y-67345639D01*
X80175320Y-67419587D02*
X79916501Y-66453661D01*
X80045468Y-66567001D01*
X80162110Y-66634345D01*
X80266428Y-66655692D01*
%TO.C,C2*%
X53760666Y-83923142D02*
X53808285Y-83970761D01*
X53951142Y-84018380D01*
X54046380Y-84018380D01*
X54189238Y-83970761D01*
X54284476Y-83875523D01*
X54332095Y-83780285D01*
X54379714Y-83589809D01*
X54379714Y-83446952D01*
X54332095Y-83256476D01*
X54284476Y-83161238D01*
X54189238Y-83066000D01*
X54046380Y-83018380D01*
X53951142Y-83018380D01*
X53808285Y-83066000D01*
X53760666Y-83113619D01*
X53379714Y-83113619D02*
X53332095Y-83066000D01*
X53236857Y-83018380D01*
X52998761Y-83018380D01*
X52903523Y-83066000D01*
X52855904Y-83113619D01*
X52808285Y-83208857D01*
X52808285Y-83304095D01*
X52855904Y-83446952D01*
X53427333Y-84018380D01*
X52808285Y-84018380D01*
%TO.C,R11*%
X49664857Y-55062380D02*
X49998190Y-54586190D01*
X50236285Y-55062380D02*
X50236285Y-54062380D01*
X49855333Y-54062380D01*
X49760095Y-54110000D01*
X49712476Y-54157619D01*
X49664857Y-54252857D01*
X49664857Y-54395714D01*
X49712476Y-54490952D01*
X49760095Y-54538571D01*
X49855333Y-54586190D01*
X50236285Y-54586190D01*
X48712476Y-55062380D02*
X49283904Y-55062380D01*
X48998190Y-55062380D02*
X48998190Y-54062380D01*
X49093428Y-54205238D01*
X49188666Y-54300476D01*
X49283904Y-54348095D01*
X47760095Y-55062380D02*
X48331523Y-55062380D01*
X48045809Y-55062380D02*
X48045809Y-54062380D01*
X48141047Y-54205238D01*
X48236285Y-54300476D01*
X48331523Y-54348095D01*
%TO.C,R12*%
X35186857Y-86050380D02*
X35520190Y-85574190D01*
X35758285Y-86050380D02*
X35758285Y-85050380D01*
X35377333Y-85050380D01*
X35282095Y-85098000D01*
X35234476Y-85145619D01*
X35186857Y-85240857D01*
X35186857Y-85383714D01*
X35234476Y-85478952D01*
X35282095Y-85526571D01*
X35377333Y-85574190D01*
X35758285Y-85574190D01*
X34234476Y-86050380D02*
X34805904Y-86050380D01*
X34520190Y-86050380D02*
X34520190Y-85050380D01*
X34615428Y-85193238D01*
X34710666Y-85288476D01*
X34805904Y-85336095D01*
X33853523Y-85145619D02*
X33805904Y-85098000D01*
X33710666Y-85050380D01*
X33472571Y-85050380D01*
X33377333Y-85098000D01*
X33329714Y-85145619D01*
X33282095Y-85240857D01*
X33282095Y-85336095D01*
X33329714Y-85478952D01*
X33901142Y-86050380D01*
X33282095Y-86050380D01*
%TO.C,R10*%
X34932857Y-73604380D02*
X35266190Y-73128190D01*
X35504285Y-73604380D02*
X35504285Y-72604380D01*
X35123333Y-72604380D01*
X35028095Y-72652000D01*
X34980476Y-72699619D01*
X34932857Y-72794857D01*
X34932857Y-72937714D01*
X34980476Y-73032952D01*
X35028095Y-73080571D01*
X35123333Y-73128190D01*
X35504285Y-73128190D01*
X33980476Y-73604380D02*
X34551904Y-73604380D01*
X34266190Y-73604380D02*
X34266190Y-72604380D01*
X34361428Y-72747238D01*
X34456666Y-72842476D01*
X34551904Y-72890095D01*
X33361428Y-72604380D02*
X33266190Y-72604380D01*
X33170952Y-72652000D01*
X33123333Y-72699619D01*
X33075714Y-72794857D01*
X33028095Y-72985333D01*
X33028095Y-73223428D01*
X33075714Y-73413904D01*
X33123333Y-73509142D01*
X33170952Y-73556761D01*
X33266190Y-73604380D01*
X33361428Y-73604380D01*
X33456666Y-73556761D01*
X33504285Y-73509142D01*
X33551904Y-73413904D01*
X33599523Y-73223428D01*
X33599523Y-72985333D01*
X33551904Y-72794857D01*
X33504285Y-72699619D01*
X33456666Y-72652000D01*
X33361428Y-72604380D01*
%TO.C,C1*%
X69699142Y-80351333D02*
X69746761Y-80303714D01*
X69794380Y-80160857D01*
X69794380Y-80065619D01*
X69746761Y-79922761D01*
X69651523Y-79827523D01*
X69556285Y-79779904D01*
X69365809Y-79732285D01*
X69222952Y-79732285D01*
X69032476Y-79779904D01*
X68937238Y-79827523D01*
X68842000Y-79922761D01*
X68794380Y-80065619D01*
X68794380Y-80160857D01*
X68842000Y-80303714D01*
X68889619Y-80351333D01*
X69794380Y-81303714D02*
X69794380Y-80732285D01*
X69794380Y-81018000D02*
X68794380Y-81018000D01*
X68937238Y-80922761D01*
X69032476Y-80827523D01*
X69080095Y-80732285D01*
%TO.C,R3*%
X108624666Y-41346380D02*
X108958000Y-40870190D01*
X109196095Y-41346380D02*
X109196095Y-40346380D01*
X108815142Y-40346380D01*
X108719904Y-40394000D01*
X108672285Y-40441619D01*
X108624666Y-40536857D01*
X108624666Y-40679714D01*
X108672285Y-40774952D01*
X108719904Y-40822571D01*
X108815142Y-40870190D01*
X109196095Y-40870190D01*
X108291333Y-40346380D02*
X107672285Y-40346380D01*
X108005619Y-40727333D01*
X107862761Y-40727333D01*
X107767523Y-40774952D01*
X107719904Y-40822571D01*
X107672285Y-40917809D01*
X107672285Y-41155904D01*
X107719904Y-41251142D01*
X107767523Y-41298761D01*
X107862761Y-41346380D01*
X108148476Y-41346380D01*
X108243714Y-41298761D01*
X108291333Y-41251142D01*
D12*
%TO.C,R1*%
X60812000Y-77435064D02*
X60812000Y-75980936D01*
X62632000Y-77435064D02*
X62632000Y-75980936D01*
%TO.C,R4*%
X96231064Y-45360000D02*
X94776936Y-45360000D01*
X96231064Y-43540000D02*
X94776936Y-43540000D01*
%TO.C,R8*%
X100041064Y-65934000D02*
X98586936Y-65934000D01*
X100041064Y-64114000D02*
X98586936Y-64114000D01*
%TO.C,C4*%
X43145064Y-81174000D02*
X41690936Y-81174000D01*
X43145064Y-79354000D02*
X41690936Y-79354000D01*
%TO.C,R5*%
X108423064Y-57806000D02*
X106968936Y-57806000D01*
X108423064Y-55986000D02*
X106968936Y-55986000D01*
%TO.C,U2*%
X40966500Y-77893500D02*
X43506500Y-77893500D01*
X43506500Y-77893500D02*
X43506500Y-76623500D01*
X43506500Y-76623500D02*
X40966500Y-76623500D01*
X40966500Y-76623500D02*
X40966500Y-77893500D01*
G36*
X40966500Y-77893500D02*
G01*
X43506500Y-77893500D01*
X43506500Y-76623500D01*
X40966500Y-76623500D01*
X40966500Y-77893500D01*
G37*
X40966500Y-77893500D02*
X43506500Y-77893500D01*
X43506500Y-77893500D02*
X43506500Y-68495500D01*
X43506500Y-68495500D02*
X40966500Y-68495500D01*
X40966500Y-68495500D02*
X40966500Y-77893500D01*
D13*
X37821500Y-78528500D02*
G75*
G03*
X37821500Y-78528500I-157000J0D01*
G01*
D12*
%TO.C,R7*%
X88611064Y-47350000D02*
X87156936Y-47350000D01*
X88611064Y-49170000D02*
X87156936Y-49170000D01*
%TO.C,S1*%
X96576300Y-87761526D02*
X97316214Y-88818232D01*
X97764071Y-86929840D02*
X93094904Y-90199226D01*
X96251316Y-89563882D02*
X96535598Y-89621188D01*
X97223124Y-85111221D02*
X97676250Y-85758351D01*
X96251316Y-89563882D02*
X95511402Y-88507175D01*
X97316214Y-88818232D02*
X97272834Y-89104969D01*
X97272834Y-89104969D02*
X96535598Y-89621188D01*
X95105438Y-85312227D02*
X93712879Y-86287307D01*
X92647982Y-87032957D02*
X92484151Y-87147672D01*
X92024100Y-89716028D02*
X91570975Y-89068898D01*
%TO.C,R6*%
X99787064Y-56028000D02*
X98332936Y-56028000D01*
X99787064Y-54208000D02*
X98332936Y-54208000D01*
D14*
%TO.C,G\u002A\u002A\u002A*%
X81162541Y-72622042D02*
X80996281Y-72656396D01*
X80996281Y-72656396D02*
X80873779Y-72725767D01*
X80873779Y-72725767D02*
X80780784Y-72839350D01*
X80780784Y-72839350D02*
X80756125Y-72884173D01*
X80756125Y-72884173D02*
X80733368Y-72934849D01*
X80733368Y-72934849D02*
X80716740Y-72991035D01*
X80716740Y-72991035D02*
X80705305Y-73063256D01*
X80705305Y-73063256D02*
X80698124Y-73162036D01*
X80698124Y-73162036D02*
X80694258Y-73297899D01*
X80694258Y-73297899D02*
X80692771Y-73481371D01*
X80692771Y-73481371D02*
X80692625Y-73596500D01*
X80692625Y-73596500D02*
X80694197Y-73832850D01*
X80694197Y-73832850D02*
X80700627Y-74015310D01*
X80700627Y-74015310D02*
X80714482Y-74153446D01*
X80714482Y-74153446D02*
X80738334Y-74256827D01*
X80738334Y-74256827D02*
X80774752Y-74335020D01*
X80774752Y-74335020D02*
X80826305Y-74397592D01*
X80826305Y-74397592D02*
X80895564Y-74454111D01*
X80895564Y-74454111D02*
X80929225Y-74477454D01*
X80929225Y-74477454D02*
X81049758Y-74528125D01*
X81049758Y-74528125D02*
X81202611Y-74550107D01*
X81202611Y-74550107D02*
X81363127Y-74542749D01*
X81363127Y-74542749D02*
X81506653Y-74505401D01*
X81506653Y-74505401D02*
X81532920Y-74493388D01*
X81532920Y-74493388D02*
X81623813Y-74426995D01*
X81623813Y-74426995D02*
X81700614Y-74338021D01*
X81700614Y-74338021D02*
X81707545Y-74326750D01*
X81707545Y-74326750D02*
X81729747Y-74283848D01*
X81729747Y-74283848D02*
X81746216Y-74235878D01*
X81746216Y-74235878D02*
X81757798Y-74173091D01*
X81757798Y-74173091D02*
X81765336Y-74085735D01*
X81765336Y-74085735D02*
X81769674Y-73964060D01*
X81769674Y-73964060D02*
X81771656Y-73798317D01*
X81771656Y-73798317D02*
X81772125Y-73580625D01*
X81772125Y-73580625D02*
X81772042Y-73526913D01*
X81772042Y-73526913D02*
X81434149Y-73526913D01*
X81434149Y-73526913D02*
X81432738Y-73637999D01*
X81432738Y-73637999D02*
X81428674Y-73842199D01*
X81428674Y-73842199D02*
X81423911Y-73992237D01*
X81423911Y-73992237D02*
X81417357Y-74097451D01*
X81417357Y-74097451D02*
X81407921Y-74167176D01*
X81407921Y-74167176D02*
X81394514Y-74210752D01*
X81394514Y-74210752D02*
X81376043Y-74237513D01*
X81376043Y-74237513D02*
X81361245Y-74249995D01*
X81361245Y-74249995D02*
X81259243Y-74291790D01*
X81259243Y-74291790D02*
X81159396Y-74272983D01*
X81159396Y-74272983D02*
X81115813Y-74242454D01*
X81115813Y-74242454D02*
X81095588Y-74218909D01*
X81095588Y-74218909D02*
X81080649Y-74184134D01*
X81080649Y-74184134D02*
X81070212Y-74129118D01*
X81070212Y-74129118D02*
X81063490Y-74044851D01*
X81063490Y-74044851D02*
X81059699Y-73922322D01*
X81059699Y-73922322D02*
X81058052Y-73752522D01*
X81058052Y-73752522D02*
X81057750Y-73576436D01*
X81057750Y-73576436D02*
X81057750Y-72962963D01*
X81057750Y-72962963D02*
X81136894Y-72911106D01*
X81136894Y-72911106D02*
X81237129Y-72875333D01*
X81237129Y-72875333D02*
X81330119Y-72893335D01*
X81330119Y-72893335D02*
X81398428Y-72960370D01*
X81398428Y-72960370D02*
X81410048Y-72985391D01*
X81410048Y-72985391D02*
X81421346Y-73049288D01*
X81421346Y-73049288D02*
X81429348Y-73167151D01*
X81429348Y-73167151D02*
X81433725Y-73329514D01*
X81433725Y-73329514D02*
X81434149Y-73526913D01*
X81434149Y-73526913D02*
X81772042Y-73526913D01*
X81772042Y-73526913D02*
X81771787Y-73363415D01*
X81771787Y-73363415D02*
X81770140Y-73199900D01*
X81770140Y-73199900D02*
X81766237Y-73080271D01*
X81766237Y-73080271D02*
X81759128Y-72994725D01*
X81759128Y-72994725D02*
X81747866Y-72933455D01*
X81747866Y-72933455D02*
X81731504Y-72886654D01*
X81731504Y-72886654D02*
X81709092Y-72844519D01*
X81709092Y-72844519D02*
X81699423Y-72828705D01*
X81699423Y-72828705D02*
X81591353Y-72712954D01*
X81591353Y-72712954D02*
X81441757Y-72641673D01*
X81441757Y-72641673D02*
X81256571Y-72617148D01*
X81256571Y-72617148D02*
X81162541Y-72622042D01*
X81162541Y-72622042D02*
X81162541Y-72622042D01*
G36*
X81771656Y-73798317D02*
G01*
X81769674Y-73964060D01*
X81765336Y-74085735D01*
X81757798Y-74173091D01*
X81746216Y-74235878D01*
X81729747Y-74283848D01*
X81707545Y-74326750D01*
X81700614Y-74338021D01*
X81623813Y-74426995D01*
X81532920Y-74493388D01*
X81506653Y-74505401D01*
X81363127Y-74542749D01*
X81202611Y-74550107D01*
X81049758Y-74528125D01*
X80929225Y-74477454D01*
X80895564Y-74454111D01*
X80826305Y-74397592D01*
X80774752Y-74335020D01*
X80738334Y-74256827D01*
X80714482Y-74153446D01*
X80700627Y-74015310D01*
X80694197Y-73832850D01*
X80692625Y-73596500D01*
X80692650Y-73576436D01*
X81057750Y-73576436D01*
X81058052Y-73752522D01*
X81059699Y-73922322D01*
X81063490Y-74044851D01*
X81070212Y-74129118D01*
X81080649Y-74184134D01*
X81095588Y-74218909D01*
X81115813Y-74242454D01*
X81159396Y-74272983D01*
X81259243Y-74291790D01*
X81361245Y-74249995D01*
X81376043Y-74237513D01*
X81394514Y-74210752D01*
X81407921Y-74167176D01*
X81417357Y-74097451D01*
X81423911Y-73992237D01*
X81428674Y-73842199D01*
X81432738Y-73637999D01*
X81434149Y-73526913D01*
X81433725Y-73329514D01*
X81429348Y-73167151D01*
X81421346Y-73049288D01*
X81410048Y-72985391D01*
X81398428Y-72960370D01*
X81330119Y-72893335D01*
X81237129Y-72875333D01*
X81136894Y-72911106D01*
X81057750Y-72962963D01*
X81057750Y-73576436D01*
X80692650Y-73576436D01*
X80692771Y-73481371D01*
X80694258Y-73297899D01*
X80698124Y-73162036D01*
X80705305Y-73063256D01*
X80716740Y-72991035D01*
X80733368Y-72934849D01*
X80756125Y-72884173D01*
X80780784Y-72839350D01*
X80873779Y-72725767D01*
X80996281Y-72656396D01*
X81162541Y-72622042D01*
X81256571Y-72617148D01*
X81441757Y-72641673D01*
X81591353Y-72712954D01*
X81699423Y-72828705D01*
X81709092Y-72844519D01*
X81731504Y-72886654D01*
X81747866Y-72933455D01*
X81759128Y-72994725D01*
X81766237Y-73080271D01*
X81770140Y-73199900D01*
X81771787Y-73363415D01*
X81772042Y-73526913D01*
X81772125Y-73580625D01*
X81771656Y-73798317D01*
G37*
X81771656Y-73798317D02*
X81769674Y-73964060D01*
X81765336Y-74085735D01*
X81757798Y-74173091D01*
X81746216Y-74235878D01*
X81729747Y-74283848D01*
X81707545Y-74326750D01*
X81700614Y-74338021D01*
X81623813Y-74426995D01*
X81532920Y-74493388D01*
X81506653Y-74505401D01*
X81363127Y-74542749D01*
X81202611Y-74550107D01*
X81049758Y-74528125D01*
X80929225Y-74477454D01*
X80895564Y-74454111D01*
X80826305Y-74397592D01*
X80774752Y-74335020D01*
X80738334Y-74256827D01*
X80714482Y-74153446D01*
X80700627Y-74015310D01*
X80694197Y-73832850D01*
X80692625Y-73596500D01*
X80692650Y-73576436D01*
X81057750Y-73576436D01*
X81058052Y-73752522D01*
X81059699Y-73922322D01*
X81063490Y-74044851D01*
X81070212Y-74129118D01*
X81080649Y-74184134D01*
X81095588Y-74218909D01*
X81115813Y-74242454D01*
X81159396Y-74272983D01*
X81259243Y-74291790D01*
X81361245Y-74249995D01*
X81376043Y-74237513D01*
X81394514Y-74210752D01*
X81407921Y-74167176D01*
X81417357Y-74097451D01*
X81423911Y-73992237D01*
X81428674Y-73842199D01*
X81432738Y-73637999D01*
X81434149Y-73526913D01*
X81433725Y-73329514D01*
X81429348Y-73167151D01*
X81421346Y-73049288D01*
X81410048Y-72985391D01*
X81398428Y-72960370D01*
X81330119Y-72893335D01*
X81237129Y-72875333D01*
X81136894Y-72911106D01*
X81057750Y-72962963D01*
X81057750Y-73576436D01*
X80692650Y-73576436D01*
X80692771Y-73481371D01*
X80694258Y-73297899D01*
X80698124Y-73162036D01*
X80705305Y-73063256D01*
X80716740Y-72991035D01*
X80733368Y-72934849D01*
X80756125Y-72884173D01*
X80780784Y-72839350D01*
X80873779Y-72725767D01*
X80996281Y-72656396D01*
X81162541Y-72622042D01*
X81256571Y-72617148D01*
X81441757Y-72641673D01*
X81591353Y-72712954D01*
X81699423Y-72828705D01*
X81709092Y-72844519D01*
X81731504Y-72886654D01*
X81747866Y-72933455D01*
X81759128Y-72994725D01*
X81766237Y-73080271D01*
X81770140Y-73199900D01*
X81771787Y-73363415D01*
X81772042Y-73526913D01*
X81772125Y-73580625D01*
X81771656Y-73798317D01*
X86482630Y-75156387D02*
X86371835Y-75167345D01*
X86371835Y-75167345D02*
X86299904Y-75182939D01*
X86299904Y-75182939D02*
X86291725Y-75186555D01*
X86291725Y-75186555D02*
X86227654Y-75242160D01*
X86227654Y-75242160D02*
X86182180Y-75334577D01*
X86182180Y-75334577D02*
X86153460Y-75470988D01*
X86153460Y-75470988D02*
X86139654Y-75658579D01*
X86139654Y-75658579D02*
X86137750Y-75787249D01*
X86137750Y-75787249D02*
X86143622Y-76011710D01*
X86143622Y-76011710D02*
X86164791Y-76180810D01*
X86164791Y-76180810D02*
X86206586Y-76301902D01*
X86206586Y-76301902D02*
X86274337Y-76382340D01*
X86274337Y-76382340D02*
X86373375Y-76429475D01*
X86373375Y-76429475D02*
X86509028Y-76450661D01*
X86509028Y-76450661D02*
X86621065Y-76454000D01*
X86621065Y-76454000D02*
X86868000Y-76454000D01*
X86868000Y-76454000D02*
X86868000Y-75801022D01*
X86868000Y-75801022D02*
X86614000Y-75801022D01*
X86614000Y-75801022D02*
X86614000Y-76291044D01*
X86614000Y-76291044D02*
X86527364Y-76275334D01*
X86527364Y-76275334D02*
X86454776Y-76250990D01*
X86454776Y-76250990D02*
X86416725Y-76221874D01*
X86416725Y-76221874D02*
X86407390Y-76176899D01*
X86407390Y-76176899D02*
X86399666Y-76082244D01*
X86399666Y-76082244D02*
X86394350Y-75951725D01*
X86394350Y-75951725D02*
X86392239Y-75799156D01*
X86392239Y-75799156D02*
X86392237Y-75797455D01*
X86392237Y-75797455D02*
X86394860Y-75608946D01*
X86394860Y-75608946D02*
X86405194Y-75475059D01*
X86405194Y-75475059D02*
X86426105Y-75387104D01*
X86426105Y-75387104D02*
X86460463Y-75336389D01*
X86460463Y-75336389D02*
X86511136Y-75314220D01*
X86511136Y-75314220D02*
X86552768Y-75311000D01*
X86552768Y-75311000D02*
X86576037Y-75314530D01*
X86576037Y-75314530D02*
X86592531Y-75331307D01*
X86592531Y-75331307D02*
X86603408Y-75370609D01*
X86603408Y-75370609D02*
X86609830Y-75441716D01*
X86609830Y-75441716D02*
X86612956Y-75553907D01*
X86612956Y-75553907D02*
X86613944Y-75716461D01*
X86613944Y-75716461D02*
X86614000Y-75801022D01*
X86614000Y-75801022D02*
X86868000Y-75801022D01*
X86868000Y-75801022D02*
X86868000Y-75152250D01*
X86868000Y-75152250D02*
X86611913Y-75152250D01*
X86611913Y-75152250D02*
X86482630Y-75156387D01*
X86482630Y-75156387D02*
X86482630Y-75156387D01*
G36*
X86621065Y-76454000D02*
G01*
X86509028Y-76450661D01*
X86373375Y-76429475D01*
X86274337Y-76382340D01*
X86206586Y-76301902D01*
X86164791Y-76180810D01*
X86143622Y-76011710D01*
X86138017Y-75797455D01*
X86392237Y-75797455D01*
X86392239Y-75799156D01*
X86394350Y-75951725D01*
X86399666Y-76082244D01*
X86407390Y-76176899D01*
X86416725Y-76221874D01*
X86454776Y-76250990D01*
X86527364Y-76275334D01*
X86614000Y-76291044D01*
X86614000Y-75801022D01*
X86613944Y-75716461D01*
X86612956Y-75553907D01*
X86609830Y-75441716D01*
X86603408Y-75370609D01*
X86592531Y-75331307D01*
X86576037Y-75314530D01*
X86552768Y-75311000D01*
X86511136Y-75314220D01*
X86460463Y-75336389D01*
X86426105Y-75387104D01*
X86405194Y-75475059D01*
X86394860Y-75608946D01*
X86392237Y-75797455D01*
X86138017Y-75797455D01*
X86137750Y-75787249D01*
X86139654Y-75658579D01*
X86153460Y-75470988D01*
X86182180Y-75334577D01*
X86227654Y-75242160D01*
X86291725Y-75186555D01*
X86299904Y-75182939D01*
X86371835Y-75167345D01*
X86482630Y-75156387D01*
X86611913Y-75152250D01*
X86868000Y-75152250D01*
X86868000Y-76454000D01*
X86621065Y-76454000D01*
G37*
X86621065Y-76454000D02*
X86509028Y-76450661D01*
X86373375Y-76429475D01*
X86274337Y-76382340D01*
X86206586Y-76301902D01*
X86164791Y-76180810D01*
X86143622Y-76011710D01*
X86138017Y-75797455D01*
X86392237Y-75797455D01*
X86392239Y-75799156D01*
X86394350Y-75951725D01*
X86399666Y-76082244D01*
X86407390Y-76176899D01*
X86416725Y-76221874D01*
X86454776Y-76250990D01*
X86527364Y-76275334D01*
X86614000Y-76291044D01*
X86614000Y-75801022D01*
X86613944Y-75716461D01*
X86612956Y-75553907D01*
X86609830Y-75441716D01*
X86603408Y-75370609D01*
X86592531Y-75331307D01*
X86576037Y-75314530D01*
X86552768Y-75311000D01*
X86511136Y-75314220D01*
X86460463Y-75336389D01*
X86426105Y-75387104D01*
X86405194Y-75475059D01*
X86394860Y-75608946D01*
X86392237Y-75797455D01*
X86138017Y-75797455D01*
X86137750Y-75787249D01*
X86139654Y-75658579D01*
X86153460Y-75470988D01*
X86182180Y-75334577D01*
X86227654Y-75242160D01*
X86291725Y-75186555D01*
X86299904Y-75182939D01*
X86371835Y-75167345D01*
X86482630Y-75156387D01*
X86611913Y-75152250D01*
X86868000Y-75152250D01*
X86868000Y-76454000D01*
X86621065Y-76454000D01*
X89186016Y-75710140D02*
X89049037Y-75728640D01*
X89049037Y-75728640D02*
X88959076Y-75742483D01*
X88959076Y-75742483D02*
X88598375Y-75798795D01*
X88598375Y-75798795D02*
X88963500Y-75855294D01*
X88963500Y-75855294D02*
X89108368Y-75877258D01*
X89108368Y-75877258D02*
X89228887Y-75894679D01*
X89228887Y-75894679D02*
X89312030Y-75905732D01*
X89312030Y-75905732D02*
X89344500Y-75908676D01*
X89344500Y-75908676D02*
X89380534Y-75902757D01*
X89380534Y-75902757D02*
X89465590Y-75889182D01*
X89465590Y-75889182D02*
X89585955Y-75870132D01*
X89585955Y-75870132D02*
X89693750Y-75853154D01*
X89693750Y-75853154D02*
X90027125Y-75800747D01*
X90027125Y-75800747D02*
X89673451Y-75743458D01*
X89673451Y-75743458D02*
X89515785Y-75718970D01*
X89515785Y-75718970D02*
X89396950Y-75705274D01*
X89396950Y-75705274D02*
X89294508Y-75702341D01*
X89294508Y-75702341D02*
X89186016Y-75710140D01*
X89186016Y-75710140D02*
X89186016Y-75710140D01*
G36*
X89396950Y-75705274D02*
G01*
X89515785Y-75718970D01*
X89673451Y-75743458D01*
X90027125Y-75800747D01*
X89693750Y-75853154D01*
X89585955Y-75870132D01*
X89465590Y-75889182D01*
X89380534Y-75902757D01*
X89344500Y-75908676D01*
X89312030Y-75905732D01*
X89228887Y-75894679D01*
X89108368Y-75877258D01*
X88963500Y-75855294D01*
X88598375Y-75798795D01*
X88959076Y-75742483D01*
X89049037Y-75728640D01*
X89186016Y-75710140D01*
X89294508Y-75702341D01*
X89396950Y-75705274D01*
G37*
X89396950Y-75705274D02*
X89515785Y-75718970D01*
X89673451Y-75743458D01*
X90027125Y-75800747D01*
X89693750Y-75853154D01*
X89585955Y-75870132D01*
X89465590Y-75889182D01*
X89380534Y-75902757D01*
X89344500Y-75908676D01*
X89312030Y-75905732D01*
X89228887Y-75894679D01*
X89108368Y-75877258D01*
X88963500Y-75855294D01*
X88598375Y-75798795D01*
X88959076Y-75742483D01*
X89049037Y-75728640D01*
X89186016Y-75710140D01*
X89294508Y-75702341D01*
X89396950Y-75705274D01*
X87088949Y-76458343D02*
X87175374Y-76448234D01*
X87175374Y-76448234D02*
X87213860Y-76438730D01*
X87213860Y-76438730D02*
X87247554Y-76413706D01*
X87247554Y-76413706D02*
X87282696Y-76363314D01*
X87282696Y-76363314D02*
X87325526Y-76277708D01*
X87325526Y-76277708D02*
X87382285Y-76147042D01*
X87382285Y-76147042D02*
X87413170Y-76073000D01*
X87413170Y-76073000D02*
X87564541Y-75707875D01*
X87564541Y-75707875D02*
X87565521Y-76080937D01*
X87565521Y-76080937D02*
X87566500Y-76454000D01*
X87566500Y-76454000D02*
X87788750Y-76454000D01*
X87788750Y-76454000D02*
X87788750Y-75806828D01*
X87788750Y-75806828D02*
X87788455Y-75588411D01*
X87788455Y-75588411D02*
X87787050Y-75425189D01*
X87787050Y-75425189D02*
X87783760Y-75308857D01*
X87783760Y-75308857D02*
X87777808Y-75231109D01*
X87777808Y-75231109D02*
X87768418Y-75183641D01*
X87768418Y-75183641D02*
X87754813Y-75158147D01*
X87754813Y-75158147D02*
X87736217Y-75146324D01*
X87736217Y-75146324D02*
X87726726Y-75143436D01*
X87726726Y-75143436D02*
X87674686Y-75139704D01*
X87674686Y-75139704D02*
X87628183Y-75163687D01*
X87628183Y-75163687D02*
X87580831Y-75223485D01*
X87580831Y-75223485D02*
X87526240Y-75327199D01*
X87526240Y-75327199D02*
X87458026Y-75482927D01*
X87458026Y-75482927D02*
X87456898Y-75485625D01*
X87456898Y-75485625D02*
X87403048Y-75611109D01*
X87403048Y-75611109D02*
X87355947Y-75714765D01*
X87355947Y-75714765D02*
X87322242Y-75782262D01*
X87322242Y-75782262D02*
X87311425Y-75799224D01*
X87311425Y-75799224D02*
X87300551Y-75781660D01*
X87300551Y-75781660D02*
X87291521Y-75712387D01*
X87291521Y-75712387D02*
X87285438Y-75603195D01*
X87285438Y-75603195D02*
X87283466Y-75500648D01*
X87283466Y-75500648D02*
X87281914Y-75364291D01*
X87281914Y-75364291D02*
X87279233Y-75254267D01*
X87279233Y-75254267D02*
X87275843Y-75184264D01*
X87275843Y-75184264D02*
X87273216Y-75166340D01*
X87273216Y-75166340D02*
X87239214Y-75156520D01*
X87239214Y-75156520D02*
X87185500Y-75147417D01*
X87185500Y-75147417D02*
X87106125Y-75136375D01*
X87106125Y-75136375D02*
X87088949Y-76458343D01*
X87088949Y-76458343D02*
X87088949Y-76458343D01*
G36*
X87185500Y-75147417D02*
G01*
X87239214Y-75156520D01*
X87273216Y-75166340D01*
X87275843Y-75184264D01*
X87279233Y-75254267D01*
X87281914Y-75364291D01*
X87283466Y-75500648D01*
X87285438Y-75603195D01*
X87291521Y-75712387D01*
X87300551Y-75781660D01*
X87311425Y-75799224D01*
X87322242Y-75782262D01*
X87355947Y-75714765D01*
X87403048Y-75611109D01*
X87456898Y-75485625D01*
X87458026Y-75482927D01*
X87526240Y-75327199D01*
X87580831Y-75223485D01*
X87628183Y-75163687D01*
X87674686Y-75139704D01*
X87726726Y-75143436D01*
X87736217Y-75146324D01*
X87754813Y-75158147D01*
X87768418Y-75183641D01*
X87777808Y-75231109D01*
X87783760Y-75308857D01*
X87787050Y-75425189D01*
X87788455Y-75588411D01*
X87788750Y-75806828D01*
X87788750Y-76454000D01*
X87566500Y-76454000D01*
X87565521Y-76080937D01*
X87564541Y-75707875D01*
X87413170Y-76073000D01*
X87382285Y-76147042D01*
X87325526Y-76277708D01*
X87282696Y-76363314D01*
X87247554Y-76413706D01*
X87213860Y-76438730D01*
X87175374Y-76448234D01*
X87088949Y-76458343D01*
X87106125Y-75136375D01*
X87185500Y-75147417D01*
G37*
X87185500Y-75147417D02*
X87239214Y-75156520D01*
X87273216Y-75166340D01*
X87275843Y-75184264D01*
X87279233Y-75254267D01*
X87281914Y-75364291D01*
X87283466Y-75500648D01*
X87285438Y-75603195D01*
X87291521Y-75712387D01*
X87300551Y-75781660D01*
X87311425Y-75799224D01*
X87322242Y-75782262D01*
X87355947Y-75714765D01*
X87403048Y-75611109D01*
X87456898Y-75485625D01*
X87458026Y-75482927D01*
X87526240Y-75327199D01*
X87580831Y-75223485D01*
X87628183Y-75163687D01*
X87674686Y-75139704D01*
X87726726Y-75143436D01*
X87736217Y-75146324D01*
X87754813Y-75158147D01*
X87768418Y-75183641D01*
X87777808Y-75231109D01*
X87783760Y-75308857D01*
X87787050Y-75425189D01*
X87788455Y-75588411D01*
X87788750Y-75806828D01*
X87788750Y-76454000D01*
X87566500Y-76454000D01*
X87565521Y-76080937D01*
X87564541Y-75707875D01*
X87413170Y-76073000D01*
X87382285Y-76147042D01*
X87325526Y-76277708D01*
X87282696Y-76363314D01*
X87247554Y-76413706D01*
X87213860Y-76438730D01*
X87175374Y-76448234D01*
X87088949Y-76458343D01*
X87106125Y-75136375D01*
X87185500Y-75147417D01*
X89053814Y-73564750D02*
X89007006Y-73796072D01*
X89007006Y-73796072D02*
X88964532Y-74006969D01*
X88964532Y-74006969D02*
X88927981Y-74189480D01*
X88927981Y-74189480D02*
X88898940Y-74335642D01*
X88898940Y-74335642D02*
X88878995Y-74437495D01*
X88878995Y-74437495D02*
X88869734Y-74487077D01*
X88869734Y-74487077D02*
X88869275Y-74490373D01*
X88869275Y-74490373D02*
X88897195Y-74504241D01*
X88897195Y-74504241D02*
X88969656Y-74516842D01*
X88969656Y-74516842D02*
X89025579Y-74522123D01*
X89025579Y-74522123D02*
X89121450Y-74525308D01*
X89121450Y-74525308D02*
X89171892Y-74513935D01*
X89171892Y-74513935D02*
X89194294Y-74482707D01*
X89194294Y-74482707D02*
X89197925Y-74469625D01*
X89197925Y-74469625D02*
X89211491Y-74400176D01*
X89211491Y-74400176D02*
X89228100Y-74299482D01*
X89228100Y-74299482D02*
X89234702Y-74255312D01*
X89234702Y-74255312D02*
X89256461Y-74104500D01*
X89256461Y-74104500D02*
X89591290Y-74104500D01*
X89591290Y-74104500D02*
X89612579Y-74255312D01*
X89612579Y-74255312D02*
X89632028Y-74383150D01*
X89632028Y-74383150D02*
X89652730Y-74460686D01*
X89652730Y-74460686D02*
X89684786Y-74500495D01*
X89684786Y-74500495D02*
X89738294Y-74515157D01*
X89738294Y-74515157D02*
X89822890Y-74517250D01*
X89822890Y-74517250D02*
X89930144Y-74509626D01*
X89930144Y-74509626D02*
X89976273Y-74486667D01*
X89976273Y-74486667D02*
X89978311Y-74477562D01*
X89978311Y-74477562D02*
X89971865Y-74437246D01*
X89971865Y-74437246D02*
X89954244Y-74342990D01*
X89954244Y-74342990D02*
X89927072Y-74203052D01*
X89927072Y-74203052D02*
X89891972Y-74025689D01*
X89891972Y-74025689D02*
X89850812Y-73820380D01*
X89850812Y-73820380D02*
X89530194Y-73820380D01*
X89530194Y-73820380D02*
X89520589Y-73861015D01*
X89520589Y-73861015D02*
X89495764Y-73878355D01*
X89495764Y-73878355D02*
X89454383Y-73882258D01*
X89454383Y-73882258D02*
X89423875Y-73882250D01*
X89423875Y-73882250D02*
X89348502Y-73876025D01*
X89348502Y-73876025D02*
X89318223Y-73849602D01*
X89318223Y-73849602D02*
X89314352Y-73810812D01*
X89314352Y-73810812D02*
X89320665Y-73749130D01*
X89320665Y-73749130D02*
X89336265Y-73643098D01*
X89336265Y-73643098D02*
X89358394Y-73510713D01*
X89358394Y-73510713D02*
X89371507Y-73437750D01*
X89371507Y-73437750D02*
X89427060Y-73136125D01*
X89427060Y-73136125D02*
X89481030Y-73460127D01*
X89481030Y-73460127D02*
X89509080Y-73629794D01*
X89509080Y-73629794D02*
X89525912Y-73746592D01*
X89525912Y-73746592D02*
X89530194Y-73820380D01*
X89530194Y-73820380D02*
X89850812Y-73820380D01*
X89850812Y-73820380D02*
X89850567Y-73819158D01*
X89850567Y-73819158D02*
X89804481Y-73591717D01*
X89804481Y-73591717D02*
X89795748Y-73548875D01*
X89795748Y-73548875D02*
X89614375Y-72659875D01*
X89614375Y-72659875D02*
X89237330Y-72659875D01*
X89237330Y-72659875D02*
X89053814Y-73564750D01*
X89053814Y-73564750D02*
X89053814Y-73564750D01*
G36*
X89927072Y-74203052D02*
G01*
X89954244Y-74342990D01*
X89971865Y-74437246D01*
X89978311Y-74477562D01*
X89976273Y-74486667D01*
X89930144Y-74509626D01*
X89822890Y-74517250D01*
X89738294Y-74515157D01*
X89684786Y-74500495D01*
X89652730Y-74460686D01*
X89632028Y-74383150D01*
X89612579Y-74255312D01*
X89591290Y-74104500D01*
X89256461Y-74104500D01*
X89234702Y-74255312D01*
X89228100Y-74299482D01*
X89211491Y-74400176D01*
X89197925Y-74469625D01*
X89194294Y-74482707D01*
X89171892Y-74513935D01*
X89121450Y-74525308D01*
X89025579Y-74522123D01*
X88969656Y-74516842D01*
X88897195Y-74504241D01*
X88869275Y-74490373D01*
X88869734Y-74487077D01*
X88878995Y-74437495D01*
X88898940Y-74335642D01*
X88927981Y-74189480D01*
X88964532Y-74006969D01*
X89004037Y-73810812D01*
X89314352Y-73810812D01*
X89318223Y-73849602D01*
X89348502Y-73876025D01*
X89423875Y-73882250D01*
X89454383Y-73882258D01*
X89495764Y-73878355D01*
X89520589Y-73861015D01*
X89530194Y-73820380D01*
X89525912Y-73746592D01*
X89509080Y-73629794D01*
X89481030Y-73460127D01*
X89427060Y-73136125D01*
X89371507Y-73437750D01*
X89358394Y-73510713D01*
X89336265Y-73643098D01*
X89320665Y-73749130D01*
X89314352Y-73810812D01*
X89004037Y-73810812D01*
X89007006Y-73796072D01*
X89053814Y-73564750D01*
X89237330Y-72659875D01*
X89614375Y-72659875D01*
X89795748Y-73548875D01*
X89804481Y-73591717D01*
X89850567Y-73819158D01*
X89850812Y-73820380D01*
X89891972Y-74025689D01*
X89927072Y-74203052D01*
G37*
X89927072Y-74203052D02*
X89954244Y-74342990D01*
X89971865Y-74437246D01*
X89978311Y-74477562D01*
X89976273Y-74486667D01*
X89930144Y-74509626D01*
X89822890Y-74517250D01*
X89738294Y-74515157D01*
X89684786Y-74500495D01*
X89652730Y-74460686D01*
X89632028Y-74383150D01*
X89612579Y-74255312D01*
X89591290Y-74104500D01*
X89256461Y-74104500D01*
X89234702Y-74255312D01*
X89228100Y-74299482D01*
X89211491Y-74400176D01*
X89197925Y-74469625D01*
X89194294Y-74482707D01*
X89171892Y-74513935D01*
X89121450Y-74525308D01*
X89025579Y-74522123D01*
X88969656Y-74516842D01*
X88897195Y-74504241D01*
X88869275Y-74490373D01*
X88869734Y-74487077D01*
X88878995Y-74437495D01*
X88898940Y-74335642D01*
X88927981Y-74189480D01*
X88964532Y-74006969D01*
X89004037Y-73810812D01*
X89314352Y-73810812D01*
X89318223Y-73849602D01*
X89348502Y-73876025D01*
X89423875Y-73882250D01*
X89454383Y-73882258D01*
X89495764Y-73878355D01*
X89520589Y-73861015D01*
X89530194Y-73820380D01*
X89525912Y-73746592D01*
X89509080Y-73629794D01*
X89481030Y-73460127D01*
X89427060Y-73136125D01*
X89371507Y-73437750D01*
X89358394Y-73510713D01*
X89336265Y-73643098D01*
X89320665Y-73749130D01*
X89314352Y-73810812D01*
X89004037Y-73810812D01*
X89007006Y-73796072D01*
X89053814Y-73564750D01*
X89237330Y-72659875D01*
X89614375Y-72659875D01*
X89795748Y-73548875D01*
X89804481Y-73591717D01*
X89850567Y-73819158D01*
X89850812Y-73820380D01*
X89891972Y-74025689D01*
X89927072Y-74203052D01*
X80331826Y-72644000D02*
X80181394Y-72644000D01*
X80181394Y-72644000D02*
X80124054Y-73112312D01*
X80124054Y-73112312D02*
X80094851Y-73349665D01*
X80094851Y-73349665D02*
X80071696Y-73525245D01*
X80071696Y-73525245D02*
X80052590Y-73640270D01*
X80052590Y-73640270D02*
X80035535Y-73695953D01*
X80035535Y-73695953D02*
X80018533Y-73693513D01*
X80018533Y-73693513D02*
X79999584Y-73634164D01*
X79999584Y-73634164D02*
X79976691Y-73519122D01*
X79976691Y-73519122D02*
X79947854Y-73349604D01*
X79947854Y-73349604D02*
X79928372Y-73231375D01*
X79928372Y-73231375D02*
X79834210Y-72659875D01*
X79834210Y-72659875D02*
X79718427Y-72650181D01*
X79718427Y-72650181D02*
X79674064Y-72645956D01*
X79674064Y-72645956D02*
X79640406Y-72647051D01*
X79640406Y-72647051D02*
X79614450Y-72661385D01*
X79614450Y-72661385D02*
X79593193Y-72696878D01*
X79593193Y-72696878D02*
X79573635Y-72761446D01*
X79573635Y-72761446D02*
X79552771Y-72863011D01*
X79552771Y-72863011D02*
X79527599Y-73009489D01*
X79527599Y-73009489D02*
X79495117Y-73208800D01*
X79495117Y-73208800D02*
X79486453Y-73261989D01*
X79486453Y-73261989D02*
X79458007Y-73433250D01*
X79458007Y-73433250D02*
X79432517Y-73581048D01*
X79432517Y-73581048D02*
X79411907Y-73694665D01*
X79411907Y-73694665D02*
X79398102Y-73763381D01*
X79398102Y-73763381D02*
X79393648Y-73778935D01*
X79393648Y-73778935D02*
X79385602Y-73754355D01*
X79385602Y-73754355D02*
X79372407Y-73680055D01*
X79372407Y-73680055D02*
X79356288Y-73569390D01*
X79356288Y-73569390D02*
X79347534Y-73502258D01*
X79347534Y-73502258D02*
X79325227Y-73324733D01*
X79325227Y-73324733D02*
X79300152Y-73125177D01*
X79300152Y-73125177D02*
X79277414Y-72944215D01*
X79277414Y-72944215D02*
X79275597Y-72929750D01*
X79275597Y-72929750D02*
X79239693Y-72644000D01*
X79239693Y-72644000D02*
X79100972Y-72644000D01*
X79100972Y-72644000D02*
X79011791Y-72649186D01*
X79011791Y-72649186D02*
X78970633Y-72668740D01*
X78970633Y-72668740D02*
X78962250Y-72699689D01*
X78962250Y-72699689D02*
X78966728Y-72744818D01*
X78966728Y-72744818D02*
X78979359Y-72844041D01*
X78979359Y-72844041D02*
X78998941Y-72988645D01*
X78998941Y-72988645D02*
X79024273Y-73169918D01*
X79024273Y-73169918D02*
X79054152Y-73379146D01*
X79054152Y-73379146D02*
X79087378Y-73607616D01*
X79087378Y-73607616D02*
X79089250Y-73620376D01*
X79089250Y-73620376D02*
X79122495Y-73847650D01*
X79122495Y-73847650D02*
X79152490Y-74054325D01*
X79152490Y-74054325D02*
X79178048Y-74232088D01*
X79178048Y-74232088D02*
X79197981Y-74372626D01*
X79197981Y-74372626D02*
X79211101Y-74467625D01*
X79211101Y-74467625D02*
X79216222Y-74508772D01*
X79216222Y-74508772D02*
X79216250Y-74509478D01*
X79216250Y-74509478D02*
X79244456Y-74521655D01*
X79244456Y-74521655D02*
X79315765Y-74524595D01*
X79315765Y-74524595D02*
X79357273Y-74522366D01*
X79357273Y-74522366D02*
X79447061Y-74510336D01*
X79447061Y-74510336D02*
X79492696Y-74485282D01*
X79492696Y-74485282D02*
X79513510Y-74435525D01*
X79513510Y-74435525D02*
X79515350Y-74426887D01*
X79515350Y-74426887D02*
X79529557Y-74351333D01*
X79529557Y-74351333D02*
X79550157Y-74235004D01*
X79550157Y-74235004D02*
X79574996Y-74090815D01*
X79574996Y-74090815D02*
X79601921Y-73931684D01*
X79601921Y-73931684D02*
X79628780Y-73770527D01*
X79628780Y-73770527D02*
X79653420Y-73620260D01*
X79653420Y-73620260D02*
X79673689Y-73493799D01*
X79673689Y-73493799D02*
X79687433Y-73404061D01*
X79687433Y-73404061D02*
X79692500Y-73363963D01*
X79692500Y-73363963D02*
X79692500Y-73363951D01*
X79692500Y-73363951D02*
X79696275Y-73332231D01*
X79696275Y-73332231D02*
X79707800Y-73356920D01*
X79707800Y-73356920D02*
X79727380Y-73439402D01*
X79727380Y-73439402D02*
X79755319Y-73581061D01*
X79755319Y-73581061D02*
X79791920Y-73783281D01*
X79791920Y-73783281D02*
X79820177Y-73945982D01*
X79820177Y-73945982D02*
X79851992Y-74129990D01*
X79851992Y-74129990D02*
X79880195Y-74290464D01*
X79880195Y-74290464D02*
X79903045Y-74417713D01*
X79903045Y-74417713D02*
X79918801Y-74502046D01*
X79918801Y-74502046D02*
X79925723Y-74533771D01*
X79925723Y-74533771D02*
X79925778Y-74533809D01*
X79925778Y-74533809D02*
X79957096Y-74530907D01*
X79957096Y-74530907D02*
X80030676Y-74522780D01*
X80030676Y-74522780D02*
X80072738Y-74517934D01*
X80072738Y-74517934D02*
X80214850Y-74501375D01*
X80214850Y-74501375D02*
X80332151Y-73675875D01*
X80332151Y-73675875D02*
X80364509Y-73448613D01*
X80364509Y-73448613D02*
X80394722Y-73237278D01*
X80394722Y-73237278D02*
X80421403Y-73051507D01*
X80421403Y-73051507D02*
X80443164Y-72900939D01*
X80443164Y-72900939D02*
X80458618Y-72795213D01*
X80458618Y-72795213D02*
X80465855Y-72747187D01*
X80465855Y-72747187D02*
X80482258Y-72643999D01*
X80482258Y-72643999D02*
X80331826Y-72644000D01*
X80331826Y-72644000D02*
X80331826Y-72644000D01*
G36*
X80465855Y-72747187D02*
G01*
X80458618Y-72795213D01*
X80443164Y-72900939D01*
X80421403Y-73051507D01*
X80394722Y-73237278D01*
X80364509Y-73448613D01*
X80332151Y-73675875D01*
X80214850Y-74501375D01*
X80072738Y-74517934D01*
X80030676Y-74522780D01*
X79957096Y-74530907D01*
X79925778Y-74533809D01*
X79925723Y-74533771D01*
X79918801Y-74502046D01*
X79903045Y-74417713D01*
X79880195Y-74290464D01*
X79851992Y-74129990D01*
X79820177Y-73945982D01*
X79791920Y-73783281D01*
X79755319Y-73581061D01*
X79727380Y-73439402D01*
X79707800Y-73356920D01*
X79696275Y-73332231D01*
X79692500Y-73363951D01*
X79692500Y-73363963D01*
X79687433Y-73404061D01*
X79673689Y-73493799D01*
X79653420Y-73620260D01*
X79628780Y-73770527D01*
X79601921Y-73931684D01*
X79574996Y-74090815D01*
X79550157Y-74235004D01*
X79529557Y-74351333D01*
X79515350Y-74426887D01*
X79513510Y-74435525D01*
X79492696Y-74485282D01*
X79447061Y-74510336D01*
X79357273Y-74522366D01*
X79315765Y-74524595D01*
X79244456Y-74521655D01*
X79216250Y-74509478D01*
X79216222Y-74508772D01*
X79211101Y-74467625D01*
X79197981Y-74372626D01*
X79178048Y-74232088D01*
X79152490Y-74054325D01*
X79122495Y-73847650D01*
X79089250Y-73620376D01*
X79087378Y-73607616D01*
X79054152Y-73379146D01*
X79024273Y-73169918D01*
X78998941Y-72988645D01*
X78979359Y-72844041D01*
X78966728Y-72744818D01*
X78962250Y-72699689D01*
X78970633Y-72668740D01*
X79011791Y-72649186D01*
X79100972Y-72644000D01*
X79239693Y-72644000D01*
X79275597Y-72929750D01*
X79277414Y-72944215D01*
X79300152Y-73125177D01*
X79325227Y-73324733D01*
X79347534Y-73502258D01*
X79356288Y-73569390D01*
X79372407Y-73680055D01*
X79385602Y-73754355D01*
X79393648Y-73778935D01*
X79398102Y-73763381D01*
X79411907Y-73694665D01*
X79432517Y-73581048D01*
X79458007Y-73433250D01*
X79486453Y-73261989D01*
X79495117Y-73208800D01*
X79527599Y-73009489D01*
X79552771Y-72863011D01*
X79573635Y-72761446D01*
X79593193Y-72696878D01*
X79614450Y-72661385D01*
X79640406Y-72647051D01*
X79674064Y-72645956D01*
X79718427Y-72650181D01*
X79834210Y-72659875D01*
X79928372Y-73231375D01*
X79947854Y-73349604D01*
X79976691Y-73519122D01*
X79999584Y-73634164D01*
X80018533Y-73693513D01*
X80035535Y-73695953D01*
X80052590Y-73640270D01*
X80071696Y-73525245D01*
X80094851Y-73349665D01*
X80124054Y-73112312D01*
X80181394Y-72644000D01*
X80331826Y-72644000D01*
X80482258Y-72643999D01*
X80465855Y-72747187D01*
G37*
X80465855Y-72747187D02*
X80458618Y-72795213D01*
X80443164Y-72900939D01*
X80421403Y-73051507D01*
X80394722Y-73237278D01*
X80364509Y-73448613D01*
X80332151Y-73675875D01*
X80214850Y-74501375D01*
X80072738Y-74517934D01*
X80030676Y-74522780D01*
X79957096Y-74530907D01*
X79925778Y-74533809D01*
X79925723Y-74533771D01*
X79918801Y-74502046D01*
X79903045Y-74417713D01*
X79880195Y-74290464D01*
X79851992Y-74129990D01*
X79820177Y-73945982D01*
X79791920Y-73783281D01*
X79755319Y-73581061D01*
X79727380Y-73439402D01*
X79707800Y-73356920D01*
X79696275Y-73332231D01*
X79692500Y-73363951D01*
X79692500Y-73363963D01*
X79687433Y-73404061D01*
X79673689Y-73493799D01*
X79653420Y-73620260D01*
X79628780Y-73770527D01*
X79601921Y-73931684D01*
X79574996Y-74090815D01*
X79550157Y-74235004D01*
X79529557Y-74351333D01*
X79515350Y-74426887D01*
X79513510Y-74435525D01*
X79492696Y-74485282D01*
X79447061Y-74510336D01*
X79357273Y-74522366D01*
X79315765Y-74524595D01*
X79244456Y-74521655D01*
X79216250Y-74509478D01*
X79216222Y-74508772D01*
X79211101Y-74467625D01*
X79197981Y-74372626D01*
X79178048Y-74232088D01*
X79152490Y-74054325D01*
X79122495Y-73847650D01*
X79089250Y-73620376D01*
X79087378Y-73607616D01*
X79054152Y-73379146D01*
X79024273Y-73169918D01*
X78998941Y-72988645D01*
X78979359Y-72844041D01*
X78966728Y-72744818D01*
X78962250Y-72699689D01*
X78970633Y-72668740D01*
X79011791Y-72649186D01*
X79100972Y-72644000D01*
X79239693Y-72644000D01*
X79275597Y-72929750D01*
X79277414Y-72944215D01*
X79300152Y-73125177D01*
X79325227Y-73324733D01*
X79347534Y-73502258D01*
X79356288Y-73569390D01*
X79372407Y-73680055D01*
X79385602Y-73754355D01*
X79393648Y-73778935D01*
X79398102Y-73763381D01*
X79411907Y-73694665D01*
X79432517Y-73581048D01*
X79458007Y-73433250D01*
X79486453Y-73261989D01*
X79495117Y-73208800D01*
X79527599Y-73009489D01*
X79552771Y-72863011D01*
X79573635Y-72761446D01*
X79593193Y-72696878D01*
X79614450Y-72661385D01*
X79640406Y-72647051D01*
X79674064Y-72645956D01*
X79718427Y-72650181D01*
X79834210Y-72659875D01*
X79928372Y-73231375D01*
X79947854Y-73349604D01*
X79976691Y-73519122D01*
X79999584Y-73634164D01*
X80018533Y-73693513D01*
X80035535Y-73695953D01*
X80052590Y-73640270D01*
X80071696Y-73525245D01*
X80094851Y-73349665D01*
X80124054Y-73112312D01*
X80181394Y-72644000D01*
X80331826Y-72644000D01*
X80482258Y-72643999D01*
X80465855Y-72747187D01*
X94234000Y-71845460D02*
X94249546Y-71915918D01*
X94249546Y-71915918D02*
X94290598Y-72015785D01*
X94290598Y-72015785D02*
X94348786Y-72130690D01*
X94348786Y-72130690D02*
X94415734Y-72246260D01*
X94415734Y-72246260D02*
X94483070Y-72348125D01*
X94483070Y-72348125D02*
X94542419Y-72421913D01*
X94542419Y-72421913D02*
X94585410Y-72453252D01*
X94585410Y-72453252D02*
X94588268Y-72453500D01*
X94588268Y-72453500D02*
X94590057Y-72427116D01*
X94590057Y-72427116D02*
X94570769Y-72358814D01*
X94570769Y-72358814D02*
X94543844Y-72286812D01*
X94543844Y-72286812D02*
X94504010Y-72203901D01*
X94504010Y-72203901D02*
X94449064Y-72108571D01*
X94449064Y-72108571D02*
X94387218Y-72012519D01*
X94387218Y-72012519D02*
X94326682Y-71927441D01*
X94326682Y-71927441D02*
X94275668Y-71865032D01*
X94275668Y-71865032D02*
X94242386Y-71836988D01*
X94242386Y-71836988D02*
X94234000Y-71845460D01*
X94234000Y-71845460D02*
X94234000Y-71845460D01*
G36*
X94275668Y-71865032D02*
G01*
X94326682Y-71927441D01*
X94387218Y-72012519D01*
X94449064Y-72108571D01*
X94504010Y-72203901D01*
X94543844Y-72286812D01*
X94570769Y-72358814D01*
X94590057Y-72427116D01*
X94588268Y-72453500D01*
X94585410Y-72453252D01*
X94542419Y-72421913D01*
X94483070Y-72348125D01*
X94415734Y-72246260D01*
X94348786Y-72130690D01*
X94290598Y-72015785D01*
X94249546Y-71915918D01*
X94234000Y-71845460D01*
X94242386Y-71836988D01*
X94275668Y-71865032D01*
G37*
X94275668Y-71865032D02*
X94326682Y-71927441D01*
X94387218Y-72012519D01*
X94449064Y-72108571D01*
X94504010Y-72203901D01*
X94543844Y-72286812D01*
X94570769Y-72358814D01*
X94590057Y-72427116D01*
X94588268Y-72453500D01*
X94585410Y-72453252D01*
X94542419Y-72421913D01*
X94483070Y-72348125D01*
X94415734Y-72246260D01*
X94348786Y-72130690D01*
X94290598Y-72015785D01*
X94249546Y-71915918D01*
X94234000Y-71845460D01*
X94242386Y-71836988D01*
X94275668Y-71865032D01*
X79490303Y-75711880D02*
X79350587Y-75731047D01*
X79350587Y-75731047D02*
X79271813Y-75743237D01*
X79271813Y-75743237D02*
X78914625Y-75799222D01*
X78914625Y-75799222D02*
X79263875Y-75854680D01*
X79263875Y-75854680D02*
X79415281Y-75879036D01*
X79415281Y-75879036D02*
X79522568Y-75895055D01*
X79522568Y-75895055D02*
X79604026Y-75902704D01*
X79604026Y-75902704D02*
X79677942Y-75901948D01*
X79677942Y-75901948D02*
X79762604Y-75892754D01*
X79762604Y-75892754D02*
X79876299Y-75875088D01*
X79876299Y-75875088D02*
X80010000Y-75853293D01*
X80010000Y-75853293D02*
X80343375Y-75799640D01*
X80343375Y-75799640D02*
X79986188Y-75743446D01*
X79986188Y-75743446D02*
X79825753Y-75719306D01*
X79825753Y-75719306D02*
X79704931Y-75706003D01*
X79704931Y-75706003D02*
X79600766Y-75703530D01*
X79600766Y-75703530D02*
X79490303Y-75711880D01*
X79490303Y-75711880D02*
X79490303Y-75711880D01*
G36*
X79704931Y-75706003D02*
G01*
X79825753Y-75719306D01*
X79986188Y-75743446D01*
X80343375Y-75799640D01*
X80010000Y-75853293D01*
X79876299Y-75875088D01*
X79762604Y-75892754D01*
X79677942Y-75901948D01*
X79604026Y-75902704D01*
X79522568Y-75895055D01*
X79415281Y-75879036D01*
X79263875Y-75854680D01*
X78914625Y-75799222D01*
X79271813Y-75743237D01*
X79350587Y-75731047D01*
X79490303Y-75711880D01*
X79600766Y-75703530D01*
X79704931Y-75706003D01*
G37*
X79704931Y-75706003D02*
X79825753Y-75719306D01*
X79986188Y-75743446D01*
X80343375Y-75799640D01*
X80010000Y-75853293D01*
X79876299Y-75875088D01*
X79762604Y-75892754D01*
X79677942Y-75901948D01*
X79604026Y-75902704D01*
X79522568Y-75895055D01*
X79415281Y-75879036D01*
X79263875Y-75854680D01*
X78914625Y-75799222D01*
X79271813Y-75743237D01*
X79350587Y-75731047D01*
X79490303Y-75711880D01*
X79600766Y-75703530D01*
X79704931Y-75706003D01*
X82296000Y-76454000D02*
X82518250Y-76454000D01*
X82518250Y-76454000D02*
X82518250Y-75152250D01*
X82518250Y-75152250D02*
X82296000Y-75152250D01*
X82296000Y-75152250D02*
X82296000Y-76454000D01*
X82296000Y-76454000D02*
X82296000Y-76454000D01*
G36*
X82518250Y-76454000D02*
G01*
X82296000Y-76454000D01*
X82296000Y-75152250D01*
X82518250Y-75152250D01*
X82518250Y-76454000D01*
G37*
X82518250Y-76454000D02*
X82296000Y-76454000D01*
X82296000Y-75152250D01*
X82518250Y-75152250D01*
X82518250Y-76454000D01*
X93789500Y-71741822D02*
X93568089Y-71829728D01*
X93568089Y-71829728D02*
X93368257Y-71957087D01*
X93368257Y-71957087D02*
X93329125Y-71989782D01*
X93329125Y-71989782D02*
X93258178Y-72056630D01*
X93258178Y-72056630D02*
X93235116Y-72090989D01*
X93235116Y-72090989D02*
X93261825Y-72093159D01*
X93261825Y-72093159D02*
X93340189Y-72063435D01*
X93340189Y-72063435D02*
X93456125Y-72009812D01*
X93456125Y-72009812D02*
X93557608Y-71955891D01*
X93557608Y-71955891D02*
X93654308Y-71895848D01*
X93654308Y-71895848D02*
X93737360Y-71836811D01*
X93737360Y-71836811D02*
X93797901Y-71785904D01*
X93797901Y-71785904D02*
X93827064Y-71750254D01*
X93827064Y-71750254D02*
X93815984Y-71736988D01*
X93815984Y-71736988D02*
X93789500Y-71741822D01*
X93789500Y-71741822D02*
X93789500Y-71741822D01*
G36*
X93827064Y-71750254D02*
G01*
X93797901Y-71785904D01*
X93737360Y-71836811D01*
X93654308Y-71895848D01*
X93557608Y-71955891D01*
X93456125Y-72009812D01*
X93340189Y-72063435D01*
X93261825Y-72093159D01*
X93235116Y-72090989D01*
X93258178Y-72056630D01*
X93329125Y-71989782D01*
X93368257Y-71957087D01*
X93568089Y-71829728D01*
X93789500Y-71741822D01*
X93815984Y-71736988D01*
X93827064Y-71750254D01*
G37*
X93827064Y-71750254D02*
X93797901Y-71785904D01*
X93737360Y-71836811D01*
X93654308Y-71895848D01*
X93557608Y-71955891D01*
X93456125Y-72009812D01*
X93340189Y-72063435D01*
X93261825Y-72093159D01*
X93235116Y-72090989D01*
X93258178Y-72056630D01*
X93329125Y-71989782D01*
X93368257Y-71957087D01*
X93568089Y-71829728D01*
X93789500Y-71741822D01*
X93815984Y-71736988D01*
X93827064Y-71750254D01*
X87272813Y-72644118D02*
X87067787Y-72650003D01*
X87067787Y-72650003D02*
X86915286Y-72670122D01*
X86915286Y-72670122D02*
X86805176Y-72708402D01*
X86805176Y-72708402D02*
X86727323Y-72768772D01*
X86727323Y-72768772D02*
X86671593Y-72855162D01*
X86671593Y-72855162D02*
X86659715Y-72881800D01*
X86659715Y-72881800D02*
X86625406Y-73016470D01*
X86625406Y-73016470D02*
X86615713Y-73177570D01*
X86615713Y-73177570D02*
X86630266Y-73336333D01*
X86630266Y-73336333D02*
X86667154Y-73460791D01*
X86667154Y-73460791D02*
X86751198Y-73567445D01*
X86751198Y-73567445D02*
X86881603Y-73644583D01*
X86881603Y-73644583D02*
X87045605Y-73685854D01*
X87045605Y-73685854D02*
X87129938Y-73691052D01*
X87129938Y-73691052D02*
X87280750Y-73691750D01*
X87280750Y-73691750D02*
X87280750Y-74104500D01*
X87280750Y-74104500D02*
X87281516Y-74274028D01*
X87281516Y-74274028D02*
X87284705Y-74390075D01*
X87284705Y-74390075D02*
X87291658Y-74462648D01*
X87291658Y-74462648D02*
X87303714Y-74501756D01*
X87303714Y-74501756D02*
X87322211Y-74517409D01*
X87322211Y-74517409D02*
X87336313Y-74519679D01*
X87336313Y-74519679D02*
X87413846Y-74525942D01*
X87413846Y-74525942D02*
X87439500Y-74529201D01*
X87439500Y-74529201D02*
X87509135Y-74529986D01*
X87509135Y-74529986D02*
X87558563Y-74524563D01*
X87558563Y-74524563D02*
X87630000Y-74512833D01*
X87630000Y-74512833D02*
X87630000Y-73437750D01*
X87630000Y-73437750D02*
X87280750Y-73437750D01*
X87280750Y-73437750D02*
X87175694Y-73437750D01*
X87175694Y-73437750D02*
X87082333Y-73424223D01*
X87082333Y-73424223D02*
X87009006Y-73392684D01*
X87009006Y-73392684D02*
X86970892Y-73348879D01*
X86970892Y-73348879D02*
X86952063Y-73277564D01*
X86952063Y-73277564D02*
X86947375Y-73171568D01*
X86947375Y-73171568D02*
X86957034Y-73040930D01*
X86957034Y-73040930D02*
X86992833Y-72958050D01*
X86992833Y-72958050D02*
X87065010Y-72909213D01*
X87065010Y-72909213D02*
X87161688Y-72884382D01*
X87161688Y-72884382D02*
X87280750Y-72863372D01*
X87280750Y-72863372D02*
X87280750Y-73437750D01*
X87280750Y-73437750D02*
X87630000Y-73437750D01*
X87630000Y-73437750D02*
X87630000Y-72644000D01*
X87630000Y-72644000D02*
X87272813Y-72644118D01*
X87272813Y-72644118D02*
X87272813Y-72644118D01*
G36*
X87558563Y-74524563D02*
G01*
X87509135Y-74529986D01*
X87439500Y-74529201D01*
X87413846Y-74525942D01*
X87336313Y-74519679D01*
X87322211Y-74517409D01*
X87303714Y-74501756D01*
X87291658Y-74462648D01*
X87284705Y-74390075D01*
X87281516Y-74274028D01*
X87280750Y-74104500D01*
X87280750Y-73691750D01*
X87129938Y-73691052D01*
X87045605Y-73685854D01*
X86881603Y-73644583D01*
X86751198Y-73567445D01*
X86667154Y-73460791D01*
X86630266Y-73336333D01*
X86615713Y-73177570D01*
X86616074Y-73171568D01*
X86947375Y-73171568D01*
X86952063Y-73277564D01*
X86970892Y-73348879D01*
X87009006Y-73392684D01*
X87082333Y-73424223D01*
X87175694Y-73437750D01*
X87280750Y-73437750D01*
X87280750Y-72863372D01*
X87161688Y-72884382D01*
X87065010Y-72909213D01*
X86992833Y-72958050D01*
X86957034Y-73040930D01*
X86947375Y-73171568D01*
X86616074Y-73171568D01*
X86625406Y-73016470D01*
X86659715Y-72881800D01*
X86671593Y-72855162D01*
X86727323Y-72768772D01*
X86805176Y-72708402D01*
X86915286Y-72670122D01*
X87067787Y-72650003D01*
X87272813Y-72644118D01*
X87630000Y-72644000D01*
X87630000Y-74512833D01*
X87558563Y-74524563D01*
G37*
X87558563Y-74524563D02*
X87509135Y-74529986D01*
X87439500Y-74529201D01*
X87413846Y-74525942D01*
X87336313Y-74519679D01*
X87322211Y-74517409D01*
X87303714Y-74501756D01*
X87291658Y-74462648D01*
X87284705Y-74390075D01*
X87281516Y-74274028D01*
X87280750Y-74104500D01*
X87280750Y-73691750D01*
X87129938Y-73691052D01*
X87045605Y-73685854D01*
X86881603Y-73644583D01*
X86751198Y-73567445D01*
X86667154Y-73460791D01*
X86630266Y-73336333D01*
X86615713Y-73177570D01*
X86616074Y-73171568D01*
X86947375Y-73171568D01*
X86952063Y-73277564D01*
X86970892Y-73348879D01*
X87009006Y-73392684D01*
X87082333Y-73424223D01*
X87175694Y-73437750D01*
X87280750Y-73437750D01*
X87280750Y-72863372D01*
X87161688Y-72884382D01*
X87065010Y-72909213D01*
X86992833Y-72958050D01*
X86957034Y-73040930D01*
X86947375Y-73171568D01*
X86616074Y-73171568D01*
X86625406Y-73016470D01*
X86659715Y-72881800D01*
X86671593Y-72855162D01*
X86727323Y-72768772D01*
X86805176Y-72708402D01*
X86915286Y-72670122D01*
X87067787Y-72650003D01*
X87272813Y-72644118D01*
X87630000Y-72644000D01*
X87630000Y-74512833D01*
X87558563Y-74524563D01*
X83782792Y-75152715D02*
X83686645Y-75155862D01*
X83686645Y-75155862D02*
X83631370Y-75164315D01*
X83631370Y-75164315D02*
X83605654Y-75180701D01*
X83605654Y-75180701D02*
X83598182Y-75207645D01*
X83598182Y-75207645D02*
X83597750Y-75229613D01*
X83597750Y-75229613D02*
X83609083Y-75285110D01*
X83609083Y-75285110D02*
X83655345Y-75310393D01*
X83655345Y-75310393D02*
X83700938Y-75316925D01*
X83700938Y-75316925D02*
X83804125Y-75326875D01*
X83804125Y-75326875D02*
X83804125Y-76454041D01*
X83804125Y-76454041D02*
X83923188Y-76454020D01*
X83923188Y-76454020D02*
X84042250Y-76454000D01*
X84042250Y-76454000D02*
X84042250Y-75311000D01*
X84042250Y-75311000D02*
X84153375Y-75311000D01*
X84153375Y-75311000D02*
X84228525Y-75305069D01*
X84228525Y-75305069D02*
X84259290Y-75278382D01*
X84259290Y-75278382D02*
X84264500Y-75231625D01*
X84264500Y-75231625D02*
X84264500Y-75152250D01*
X84264500Y-75152250D02*
X83931125Y-75152250D01*
X83931125Y-75152250D02*
X83782792Y-75152715D01*
X83782792Y-75152715D02*
X83782792Y-75152715D01*
G36*
X84264500Y-75231625D02*
G01*
X84259290Y-75278382D01*
X84228525Y-75305069D01*
X84153375Y-75311000D01*
X84042250Y-75311000D01*
X84042250Y-76454000D01*
X83923188Y-76454020D01*
X83804125Y-76454041D01*
X83804125Y-75326875D01*
X83700938Y-75316925D01*
X83655345Y-75310393D01*
X83609083Y-75285110D01*
X83597750Y-75229613D01*
X83598182Y-75207645D01*
X83605654Y-75180701D01*
X83631370Y-75164315D01*
X83686645Y-75155862D01*
X83782792Y-75152715D01*
X83931125Y-75152250D01*
X84264500Y-75152250D01*
X84264500Y-75231625D01*
G37*
X84264500Y-75231625D02*
X84259290Y-75278382D01*
X84228525Y-75305069D01*
X84153375Y-75311000D01*
X84042250Y-75311000D01*
X84042250Y-76454000D01*
X83923188Y-76454020D01*
X83804125Y-76454041D01*
X83804125Y-75326875D01*
X83700938Y-75316925D01*
X83655345Y-75310393D01*
X83609083Y-75285110D01*
X83597750Y-75229613D01*
X83598182Y-75207645D01*
X83605654Y-75180701D01*
X83631370Y-75164315D01*
X83686645Y-75155862D01*
X83782792Y-75152715D01*
X83931125Y-75152250D01*
X84264500Y-75152250D01*
X84264500Y-75231625D01*
X94487800Y-70834250D02*
X94427589Y-70913797D01*
X94427589Y-70913797D02*
X94365229Y-71015251D01*
X94365229Y-71015251D02*
X94308299Y-71123217D01*
X94308299Y-71123217D02*
X94264377Y-71222302D01*
X94264377Y-71222302D02*
X94241044Y-71297112D01*
X94241044Y-71297112D02*
X94243455Y-71330537D01*
X94243455Y-71330537D02*
X94267932Y-71315065D01*
X94267932Y-71315065D02*
X94317206Y-71262603D01*
X94317206Y-71262603D02*
X94349783Y-71223175D01*
X94349783Y-71223175D02*
X94414602Y-71140437D01*
X94414602Y-71140437D02*
X94456939Y-71079016D01*
X94456939Y-71079016D02*
X94489517Y-71016070D01*
X94489517Y-71016070D02*
X94525057Y-70928752D01*
X94525057Y-70928752D02*
X94549603Y-70864362D01*
X94549603Y-70864362D02*
X94615245Y-70691375D01*
X94615245Y-70691375D02*
X94487800Y-70834250D01*
X94487800Y-70834250D02*
X94487800Y-70834250D01*
G36*
X94549603Y-70864362D02*
G01*
X94525057Y-70928752D01*
X94489517Y-71016070D01*
X94456939Y-71079016D01*
X94414602Y-71140437D01*
X94349783Y-71223175D01*
X94317206Y-71262603D01*
X94267932Y-71315065D01*
X94243455Y-71330537D01*
X94241044Y-71297112D01*
X94264377Y-71222302D01*
X94308299Y-71123217D01*
X94365229Y-71015251D01*
X94427589Y-70913797D01*
X94487800Y-70834250D01*
X94615245Y-70691375D01*
X94549603Y-70864362D01*
G37*
X94549603Y-70864362D02*
X94525057Y-70928752D01*
X94489517Y-71016070D01*
X94456939Y-71079016D01*
X94414602Y-71140437D01*
X94349783Y-71223175D01*
X94317206Y-71262603D01*
X94267932Y-71315065D01*
X94243455Y-71330537D01*
X94241044Y-71297112D01*
X94264377Y-71222302D01*
X94308299Y-71123217D01*
X94365229Y-71015251D01*
X94427589Y-70913797D01*
X94487800Y-70834250D01*
X94615245Y-70691375D01*
X94549603Y-70864362D01*
X94568890Y-71547894D02*
X94472342Y-71558252D01*
X94472342Y-71558252D02*
X94407565Y-71572230D01*
X94407565Y-71572230D02*
X94387563Y-71588677D01*
X94387563Y-71588677D02*
X94396281Y-71596389D01*
X94396281Y-71596389D02*
X94469583Y-71617638D01*
X94469583Y-71617638D02*
X94584282Y-71632389D01*
X94584282Y-71632389D02*
X94718502Y-71639504D01*
X94718502Y-71639504D02*
X94850368Y-71637844D01*
X94850368Y-71637844D02*
X94958004Y-71626273D01*
X94958004Y-71626273D02*
X94960698Y-71625747D01*
X94960698Y-71625747D02*
X95047514Y-71606378D01*
X95047514Y-71606378D02*
X95103747Y-71589862D01*
X95103747Y-71589862D02*
X95112949Y-71585134D01*
X95112949Y-71585134D02*
X95090996Y-71575556D01*
X95090996Y-71575556D02*
X95021008Y-71562916D01*
X95021008Y-71562916D02*
X94919109Y-71550062D01*
X94919109Y-71550062D02*
X94805278Y-71542646D01*
X94805278Y-71542646D02*
X94684203Y-71542308D01*
X94684203Y-71542308D02*
X94568890Y-71547894D01*
X94568890Y-71547894D02*
X94568890Y-71547894D01*
G36*
X94805278Y-71542646D02*
G01*
X94919109Y-71550062D01*
X95021008Y-71562916D01*
X95090996Y-71575556D01*
X95112949Y-71585134D01*
X95103747Y-71589862D01*
X95047514Y-71606378D01*
X94960698Y-71625747D01*
X94958004Y-71626273D01*
X94850368Y-71637844D01*
X94718502Y-71639504D01*
X94584282Y-71632389D01*
X94469583Y-71617638D01*
X94396281Y-71596389D01*
X94387563Y-71588677D01*
X94407565Y-71572230D01*
X94472342Y-71558252D01*
X94568890Y-71547894D01*
X94684203Y-71542308D01*
X94805278Y-71542646D01*
G37*
X94805278Y-71542646D02*
X94919109Y-71550062D01*
X95021008Y-71562916D01*
X95090996Y-71575556D01*
X95112949Y-71585134D01*
X95103747Y-71589862D01*
X95047514Y-71606378D01*
X94960698Y-71625747D01*
X94958004Y-71626273D01*
X94850368Y-71637844D01*
X94718502Y-71639504D01*
X94584282Y-71632389D01*
X94469583Y-71617638D01*
X94396281Y-71596389D01*
X94387563Y-71588677D01*
X94407565Y-71572230D01*
X94472342Y-71558252D01*
X94568890Y-71547894D01*
X94684203Y-71542308D01*
X94805278Y-71542646D01*
X93895044Y-71880543D02*
X93841389Y-71950028D01*
X93841389Y-71950028D02*
X93781124Y-72037864D01*
X93781124Y-72037864D02*
X93722817Y-72131947D01*
X93722817Y-72131947D02*
X93675036Y-72220173D01*
X93675036Y-72220173D02*
X93660795Y-72251104D01*
X93660795Y-72251104D02*
X93618443Y-72361063D01*
X93618443Y-72361063D02*
X93608376Y-72416783D01*
X93608376Y-72416783D02*
X93629998Y-72417807D01*
X93629998Y-72417807D02*
X93682713Y-72363673D01*
X93682713Y-72363673D02*
X93729431Y-72303977D01*
X93729431Y-72303977D02*
X93803949Y-72191294D01*
X93803949Y-72191294D02*
X93871222Y-72066997D01*
X93871222Y-72066997D02*
X93922012Y-71950458D01*
X93922012Y-71950458D02*
X93947083Y-71861048D01*
X93947083Y-71861048D02*
X93948250Y-71845041D01*
X93948250Y-71845041D02*
X93933521Y-71841513D01*
X93933521Y-71841513D02*
X93895044Y-71880543D01*
X93895044Y-71880543D02*
X93895044Y-71880543D01*
G36*
X93948250Y-71845041D02*
G01*
X93947083Y-71861048D01*
X93922012Y-71950458D01*
X93871222Y-72066997D01*
X93803949Y-72191294D01*
X93729431Y-72303977D01*
X93682713Y-72363673D01*
X93629998Y-72417807D01*
X93608376Y-72416783D01*
X93618443Y-72361063D01*
X93660795Y-72251104D01*
X93675036Y-72220173D01*
X93722817Y-72131947D01*
X93781124Y-72037864D01*
X93841389Y-71950028D01*
X93895044Y-71880543D01*
X93933521Y-71841513D01*
X93948250Y-71845041D01*
G37*
X93948250Y-71845041D02*
X93947083Y-71861048D01*
X93922012Y-71950458D01*
X93871222Y-72066997D01*
X93803949Y-72191294D01*
X93729431Y-72303977D01*
X93682713Y-72363673D01*
X93629998Y-72417807D01*
X93608376Y-72416783D01*
X93618443Y-72361063D01*
X93660795Y-72251104D01*
X93675036Y-72220173D01*
X93722817Y-72131947D01*
X93781124Y-72037864D01*
X93841389Y-71950028D01*
X93895044Y-71880543D01*
X93933521Y-71841513D01*
X93948250Y-71845041D01*
X94078495Y-70608237D02*
X94076087Y-70627875D01*
X94076087Y-70627875D02*
X94068225Y-70698105D01*
X94068225Y-70698105D02*
X94054076Y-70797820D01*
X94054076Y-70797820D02*
X94048351Y-70834250D01*
X94048351Y-70834250D02*
X94041299Y-70956076D01*
X94041299Y-70956076D02*
X94050981Y-71096127D01*
X94050981Y-71096127D02*
X94059980Y-71151750D01*
X94059980Y-71151750D02*
X94094725Y-71326375D01*
X94094725Y-71326375D02*
X94119005Y-71202892D01*
X94119005Y-71202892D02*
X94137319Y-71054034D01*
X94137319Y-71054034D02*
X94140313Y-70891548D01*
X94140313Y-70891548D02*
X94128414Y-70743111D01*
X94128414Y-70743111D02*
X94110602Y-70659625D01*
X94110602Y-70659625D02*
X94089543Y-70604166D01*
X94089543Y-70604166D02*
X94078495Y-70608237D01*
X94078495Y-70608237D02*
X94078495Y-70608237D01*
G36*
X94110602Y-70659625D02*
G01*
X94128414Y-70743111D01*
X94140313Y-70891548D01*
X94137319Y-71054034D01*
X94119005Y-71202892D01*
X94094725Y-71326375D01*
X94059980Y-71151750D01*
X94050981Y-71096127D01*
X94041299Y-70956076D01*
X94048351Y-70834250D01*
X94054076Y-70797820D01*
X94068225Y-70698105D01*
X94076087Y-70627875D01*
X94078495Y-70608237D01*
X94089543Y-70604166D01*
X94110602Y-70659625D01*
G37*
X94110602Y-70659625D02*
X94128414Y-70743111D01*
X94140313Y-70891548D01*
X94137319Y-71054034D01*
X94119005Y-71202892D01*
X94094725Y-71326375D01*
X94059980Y-71151750D01*
X94050981Y-71096127D01*
X94041299Y-70956076D01*
X94048351Y-70834250D01*
X94054076Y-70797820D01*
X94068225Y-70698105D01*
X94076087Y-70627875D01*
X94078495Y-70608237D01*
X94089543Y-70604166D01*
X94110602Y-70659625D01*
X95228904Y-72241762D02*
X95244036Y-72267942D01*
X95244036Y-72267942D02*
X95304853Y-72321520D01*
X95304853Y-72321520D02*
X95403011Y-72396530D01*
X95403011Y-72396530D02*
X95530166Y-72487006D01*
X95530166Y-72487006D02*
X95677976Y-72586980D01*
X95677976Y-72586980D02*
X95838096Y-72690487D01*
X95838096Y-72690487D02*
X95973792Y-72774456D01*
X95973792Y-72774456D02*
X96112358Y-72862484D01*
X96112358Y-72862484D02*
X96239317Y-72950582D01*
X96239317Y-72950582D02*
X96339498Y-73027784D01*
X96339498Y-73027784D02*
X96393143Y-73077638D01*
X96393143Y-73077638D02*
X96446375Y-73145807D01*
X96446375Y-73145807D02*
X96486679Y-73219442D01*
X96486679Y-73219442D02*
X96515420Y-73307760D01*
X96515420Y-73307760D02*
X96533962Y-73419977D01*
X96533962Y-73419977D02*
X96543669Y-73565309D01*
X96543669Y-73565309D02*
X96545907Y-73752972D01*
X96545907Y-73752972D02*
X96542040Y-73992183D01*
X96542040Y-73992183D02*
X96540044Y-74069853D01*
X96540044Y-74069853D02*
X96534214Y-74314116D01*
X96534214Y-74314116D02*
X96529052Y-74585305D01*
X96529052Y-74585305D02*
X96524955Y-74858405D01*
X96524955Y-74858405D02*
X96522315Y-75108402D01*
X96522315Y-75108402D02*
X96521588Y-75239562D01*
X96521588Y-75239562D02*
X96519351Y-75461261D01*
X96519351Y-75461261D02*
X96513949Y-75622958D01*
X96513949Y-75622958D02*
X96505151Y-75728083D01*
X96505151Y-75728083D02*
X96492722Y-75780067D01*
X96492722Y-75780067D02*
X96484345Y-75787250D01*
X96484345Y-75787250D02*
X96435468Y-75767753D01*
X96435468Y-75767753D02*
X96350163Y-75714884D01*
X96350163Y-75714884D02*
X96239799Y-75637077D01*
X96239799Y-75637077D02*
X96115746Y-75542763D01*
X96115746Y-75542763D02*
X95989373Y-75440375D01*
X95989373Y-75440375D02*
X95872051Y-75338347D01*
X95872051Y-75338347D02*
X95842980Y-75311562D01*
X95842980Y-75311562D02*
X95745256Y-75225429D01*
X95745256Y-75225429D02*
X95657982Y-75157799D01*
X95657982Y-75157799D02*
X95596196Y-75120047D01*
X95596196Y-75120047D02*
X95584759Y-75116225D01*
X95584759Y-75116225D02*
X95521357Y-75080321D01*
X95521357Y-75080321D02*
X95432846Y-74996626D01*
X95432846Y-74996626D02*
X95324827Y-74872929D01*
X95324827Y-74872929D02*
X95202904Y-74717017D01*
X95202904Y-74717017D02*
X95072677Y-74536679D01*
X95072677Y-74536679D02*
X94939750Y-74339702D01*
X94939750Y-74339702D02*
X94809725Y-74133875D01*
X94809725Y-74133875D02*
X94688204Y-73926986D01*
X94688204Y-73926986D02*
X94580789Y-73726823D01*
X94580789Y-73726823D02*
X94570248Y-73705896D01*
X94570248Y-73705896D02*
X94503883Y-73564798D01*
X94503883Y-73564798D02*
X94432060Y-73398049D01*
X94432060Y-73398049D02*
X94359295Y-73217813D01*
X94359295Y-73217813D02*
X94290101Y-73036251D01*
X94290101Y-73036251D02*
X94228993Y-72865528D01*
X94228993Y-72865528D02*
X94180488Y-72717807D01*
X94180488Y-72717807D02*
X94149099Y-72605249D01*
X94149099Y-72605249D02*
X94139218Y-72544700D01*
X94139218Y-72544700D02*
X94116054Y-72481781D01*
X94116054Y-72481781D02*
X94091125Y-72453499D01*
X94091125Y-72453499D02*
X94052524Y-72428489D01*
X94052524Y-72428489D02*
X94043500Y-72430861D01*
X94043500Y-72430861D02*
X94037167Y-72470577D01*
X94037167Y-72470577D02*
X94019933Y-72558524D01*
X94019933Y-72558524D02*
X93994444Y-72682430D01*
X93994444Y-72682430D02*
X93963349Y-72830024D01*
X93963349Y-72830024D02*
X93929295Y-72989034D01*
X93929295Y-72989034D02*
X93894928Y-73147186D01*
X93894928Y-73147186D02*
X93862897Y-73292211D01*
X93862897Y-73292211D02*
X93835849Y-73411835D01*
X93835849Y-73411835D02*
X93816431Y-73493786D01*
X93816431Y-73493786D02*
X93807301Y-73525782D01*
X93807301Y-73525782D02*
X93791312Y-73506702D01*
X93791312Y-73506702D02*
X93765708Y-73445045D01*
X93765708Y-73445045D02*
X93757854Y-73422188D01*
X93757854Y-73422188D02*
X93725465Y-73346047D01*
X93725465Y-73346047D02*
X93685850Y-73316986D01*
X93685850Y-73316986D02*
X93639525Y-73316873D01*
X93639525Y-73316873D02*
X93578643Y-73340578D01*
X93578643Y-73340578D02*
X93531627Y-73404164D01*
X93531627Y-73404164D02*
X93507300Y-73459859D01*
X93507300Y-73459859D02*
X93465778Y-73553897D01*
X93465778Y-73553897D02*
X93411435Y-73660536D01*
X93411435Y-73660536D02*
X93353058Y-73764545D01*
X93353058Y-73764545D02*
X93299433Y-73850695D01*
X93299433Y-73850695D02*
X93259346Y-73903755D01*
X93259346Y-73903755D02*
X93245665Y-73913369D01*
X93245665Y-73913369D02*
X93221220Y-73887743D01*
X93221220Y-73887743D02*
X93188708Y-73824575D01*
X93188708Y-73824575D02*
X93186038Y-73818235D01*
X93186038Y-73818235D02*
X93152913Y-73755930D01*
X93152913Y-73755930D02*
X93121300Y-73746672D01*
X93121300Y-73746672D02*
X93102811Y-73758623D01*
X93102811Y-73758623D02*
X93064879Y-73810670D01*
X93064879Y-73810670D02*
X93059250Y-73835115D01*
X93059250Y-73835115D02*
X93030671Y-73881157D01*
X93030671Y-73881157D02*
X92956126Y-73909223D01*
X92956126Y-73909223D02*
X92899526Y-73914000D01*
X92899526Y-73914000D02*
X92857763Y-73932131D01*
X92857763Y-73932131D02*
X92819847Y-73993483D01*
X92819847Y-73993483D02*
X92784160Y-74091923D01*
X92784160Y-74091923D02*
X92718939Y-74241640D01*
X92718939Y-74241640D02*
X92627818Y-74382321D01*
X92627818Y-74382321D02*
X92606423Y-74408049D01*
X92606423Y-74408049D02*
X92427560Y-74645931D01*
X92427560Y-74645931D02*
X92286610Y-74914100D01*
X92286610Y-74914100D02*
X92184359Y-75197508D01*
X92184359Y-75197508D02*
X92134451Y-75351809D01*
X92134451Y-75351809D02*
X92092744Y-75452027D01*
X92092744Y-75452027D02*
X92055345Y-75506416D01*
X92055345Y-75506416D02*
X92031757Y-75521022D01*
X92031757Y-75521022D02*
X91975093Y-75552718D01*
X91975093Y-75552718D02*
X91894488Y-75613575D01*
X91894488Y-75613575D02*
X91836354Y-75664120D01*
X91836354Y-75664120D02*
X91702201Y-75787778D01*
X91702201Y-75787778D02*
X91683334Y-75668451D01*
X91683334Y-75668451D02*
X91678850Y-75609089D01*
X91678850Y-75609089D02*
X91674657Y-75494475D01*
X91674657Y-75494475D02*
X91670892Y-75332859D01*
X91670892Y-75332859D02*
X91667691Y-75132490D01*
X91667691Y-75132490D02*
X91665192Y-74901615D01*
X91665192Y-74901615D02*
X91663531Y-74648485D01*
X91663531Y-74648485D02*
X91662901Y-74437592D01*
X91662901Y-74437592D02*
X91662129Y-74117200D01*
X91662129Y-74117200D02*
X91662292Y-73853327D01*
X91662292Y-73853327D02*
X91665625Y-73639006D01*
X91665625Y-73639006D02*
X91674361Y-73467272D01*
X91674361Y-73467272D02*
X91690736Y-73331157D01*
X91690736Y-73331157D02*
X91716985Y-73223693D01*
X91716985Y-73223693D02*
X91755341Y-73137915D01*
X91755341Y-73137915D02*
X91808041Y-73066854D01*
X91808041Y-73066854D02*
X91877318Y-73003545D01*
X91877318Y-73003545D02*
X91965407Y-72941020D01*
X91965407Y-72941020D02*
X92074542Y-72872312D01*
X92074542Y-72872312D02*
X92187284Y-72802750D01*
X92187284Y-72802750D02*
X92384059Y-72678003D01*
X92384059Y-72678003D02*
X92563056Y-72560444D01*
X92563056Y-72560444D02*
X92717287Y-72454999D01*
X92717287Y-72454999D02*
X92839768Y-72366591D01*
X92839768Y-72366591D02*
X92923513Y-72300147D01*
X92923513Y-72300147D02*
X92961534Y-72260589D01*
X92961534Y-72260589D02*
X92963075Y-72255864D01*
X92963075Y-72255864D02*
X92938082Y-72252795D01*
X92938082Y-72252795D02*
X92867749Y-72277317D01*
X92867749Y-72277317D02*
X92761278Y-72324501D01*
X92761278Y-72324501D02*
X92627871Y-72389420D01*
X92627871Y-72389420D02*
X92476728Y-72467144D01*
X92476728Y-72467144D02*
X92317052Y-72552745D01*
X92317052Y-72552745D02*
X92158044Y-72641297D01*
X92158044Y-72641297D02*
X92008907Y-72727869D01*
X92008907Y-72727869D02*
X91878841Y-72807534D01*
X91878841Y-72807534D02*
X91777048Y-72875364D01*
X91777048Y-72875364D02*
X91714905Y-72924359D01*
X91714905Y-72924359D02*
X91640539Y-73009113D01*
X91640539Y-73009113D02*
X91569739Y-73112507D01*
X91569739Y-73112507D02*
X91556335Y-73136125D01*
X91556335Y-73136125D02*
X91538896Y-73170669D01*
X91538896Y-73170669D02*
X91524624Y-73207510D01*
X91524624Y-73207510D02*
X91513133Y-73253202D01*
X91513133Y-73253202D02*
X91504037Y-73314301D01*
X91504037Y-73314301D02*
X91496953Y-73397362D01*
X91496953Y-73397362D02*
X91491493Y-73508942D01*
X91491493Y-73508942D02*
X91487275Y-73655595D01*
X91487275Y-73655595D02*
X91483912Y-73843877D01*
X91483912Y-73843877D02*
X91481019Y-74080344D01*
X91481019Y-74080344D02*
X91478211Y-74371551D01*
X91478211Y-74371551D02*
X91477220Y-74482843D01*
X91477220Y-74482843D02*
X91474576Y-74818485D01*
X91474576Y-74818485D02*
X91473537Y-75097045D01*
X91473537Y-75097045D02*
X91474746Y-75324933D01*
X91474746Y-75324933D02*
X91478843Y-75508561D01*
X91478843Y-75508561D02*
X91486469Y-75654337D01*
X91486469Y-75654337D02*
X91498268Y-75768673D01*
X91498268Y-75768673D02*
X91514879Y-75857979D01*
X91514879Y-75857979D02*
X91536945Y-75928666D01*
X91536945Y-75928666D02*
X91565106Y-75987144D01*
X91565106Y-75987144D02*
X91600005Y-76039824D01*
X91600005Y-76039824D02*
X91637817Y-76087712D01*
X91637817Y-76087712D02*
X91666567Y-76122297D01*
X91666567Y-76122297D02*
X91694452Y-76153150D01*
X91694452Y-76153150D02*
X91726937Y-76183762D01*
X91726937Y-76183762D02*
X91769486Y-76217621D01*
X91769486Y-76217621D02*
X91827563Y-76258218D01*
X91827563Y-76258218D02*
X91906635Y-76309044D01*
X91906635Y-76309044D02*
X92012165Y-76373587D01*
X92012165Y-76373587D02*
X92149620Y-76455339D01*
X92149620Y-76455339D02*
X92324462Y-76557789D01*
X92324462Y-76557789D02*
X92542158Y-76684426D01*
X92542158Y-76684426D02*
X92808173Y-76838742D01*
X92808173Y-76838742D02*
X92869652Y-76874392D01*
X92869652Y-76874392D02*
X93154010Y-77038452D01*
X93154010Y-77038452D02*
X93390313Y-77172125D01*
X93390313Y-77172125D02*
X93584899Y-77277797D01*
X93584899Y-77277797D02*
X93744102Y-77357852D01*
X93744102Y-77357852D02*
X93874257Y-77414676D01*
X93874257Y-77414676D02*
X93981702Y-77450655D01*
X93981702Y-77450655D02*
X94072770Y-77468175D01*
X94072770Y-77468175D02*
X94153798Y-77469620D01*
X94153798Y-77469620D02*
X94231121Y-77457376D01*
X94231121Y-77457376D02*
X94311075Y-77433829D01*
X94311075Y-77433829D02*
X94334093Y-77425786D01*
X94334093Y-77425786D02*
X94407880Y-77392816D01*
X94407880Y-77392816D02*
X94525876Y-77332052D01*
X94525876Y-77332052D02*
X94680231Y-77248133D01*
X94680231Y-77248133D02*
X94863092Y-77145698D01*
X94863092Y-77145698D02*
X95066609Y-77029385D01*
X95066609Y-77029385D02*
X95282928Y-76903833D01*
X95282928Y-76903833D02*
X95504200Y-76773680D01*
X95504200Y-76773680D02*
X95722572Y-76643566D01*
X95722572Y-76643566D02*
X95930192Y-76518129D01*
X95930192Y-76518129D02*
X96119209Y-76402008D01*
X96119209Y-76402008D02*
X96281771Y-76299841D01*
X96281771Y-76299841D02*
X96410027Y-76216268D01*
X96410027Y-76216268D02*
X96496125Y-76155927D01*
X96496125Y-76155927D02*
X96526727Y-76130386D01*
X96526727Y-76130386D02*
X96577619Y-76075805D01*
X96577619Y-76075805D02*
X96619597Y-76021996D01*
X96619597Y-76021996D02*
X96653422Y-75962572D01*
X96653422Y-75962572D02*
X96679856Y-75891146D01*
X96679856Y-75891146D02*
X96699661Y-75801333D01*
X96699661Y-75801333D02*
X96713596Y-75686747D01*
X96713596Y-75686747D02*
X96722425Y-75541001D01*
X96722425Y-75541001D02*
X96726908Y-75357710D01*
X96726908Y-75357710D02*
X96727807Y-75130487D01*
X96727807Y-75130487D02*
X96725882Y-74852945D01*
X96725882Y-74852945D02*
X96721896Y-74518700D01*
X96721896Y-74518700D02*
X96721597Y-74495887D01*
X96721597Y-74495887D02*
X96717346Y-74150397D01*
X96717346Y-74150397D02*
X96712644Y-73861764D01*
X96712644Y-73861764D02*
X96704751Y-73623385D01*
X96704751Y-73623385D02*
X96690924Y-73428659D01*
X96690924Y-73428659D02*
X96668424Y-73270984D01*
X96668424Y-73270984D02*
X96634508Y-73143757D01*
X96634508Y-73143757D02*
X96586435Y-73040377D01*
X96586435Y-73040377D02*
X96521463Y-72954241D01*
X96521463Y-72954241D02*
X96436851Y-72878748D01*
X96436851Y-72878748D02*
X96329858Y-72807295D01*
X96329858Y-72807295D02*
X96197743Y-72733281D01*
X96197743Y-72733281D02*
X96037763Y-72650103D01*
X96037763Y-72650103D02*
X95932625Y-72595837D01*
X95932625Y-72595837D02*
X95772431Y-72512230D01*
X95772431Y-72512230D02*
X95620267Y-72431988D01*
X95620267Y-72431988D02*
X95490916Y-72362962D01*
X95490916Y-72362962D02*
X95399158Y-72313002D01*
X95399158Y-72313002D02*
X95382445Y-72303629D01*
X95382445Y-72303629D02*
X95300654Y-72261822D01*
X95300654Y-72261822D02*
X95243449Y-72241114D01*
X95243449Y-72241114D02*
X95228904Y-72241762D01*
X95228904Y-72241762D02*
X95228904Y-72241762D01*
G36*
X95300654Y-72261822D02*
G01*
X95382445Y-72303629D01*
X95399158Y-72313002D01*
X95490916Y-72362962D01*
X95620267Y-72431988D01*
X95772431Y-72512230D01*
X95932625Y-72595837D01*
X96037763Y-72650103D01*
X96197743Y-72733281D01*
X96329858Y-72807295D01*
X96436851Y-72878748D01*
X96521463Y-72954241D01*
X96586435Y-73040377D01*
X96634508Y-73143757D01*
X96668424Y-73270984D01*
X96690924Y-73428659D01*
X96704751Y-73623385D01*
X96712644Y-73861764D01*
X96717346Y-74150397D01*
X96721597Y-74495887D01*
X96721896Y-74518700D01*
X96725882Y-74852945D01*
X96727807Y-75130487D01*
X96726908Y-75357710D01*
X96722425Y-75541001D01*
X96713596Y-75686747D01*
X96699661Y-75801333D01*
X96679856Y-75891146D01*
X96653422Y-75962572D01*
X96619597Y-76021996D01*
X96577619Y-76075805D01*
X96526727Y-76130386D01*
X96496125Y-76155927D01*
X96410027Y-76216268D01*
X96281771Y-76299841D01*
X96119209Y-76402008D01*
X95930192Y-76518129D01*
X95722572Y-76643566D01*
X95504200Y-76773680D01*
X95282928Y-76903833D01*
X95066609Y-77029385D01*
X94863092Y-77145698D01*
X94680231Y-77248133D01*
X94525876Y-77332052D01*
X94407880Y-77392816D01*
X94334093Y-77425786D01*
X94311075Y-77433829D01*
X94231121Y-77457376D01*
X94153798Y-77469620D01*
X94072770Y-77468175D01*
X93981702Y-77450655D01*
X93874257Y-77414676D01*
X93744102Y-77357852D01*
X93584899Y-77277797D01*
X93390313Y-77172125D01*
X93154010Y-77038452D01*
X92869652Y-76874392D01*
X92808173Y-76838742D01*
X92542158Y-76684426D01*
X92324462Y-76557789D01*
X92149620Y-76455339D01*
X92012165Y-76373587D01*
X91906635Y-76309044D01*
X91827563Y-76258218D01*
X91769486Y-76217621D01*
X91726937Y-76183762D01*
X91694452Y-76153150D01*
X91666567Y-76122297D01*
X91637817Y-76087712D01*
X91600005Y-76039824D01*
X91565106Y-75987144D01*
X91536945Y-75928666D01*
X91514879Y-75857979D01*
X91498268Y-75768673D01*
X91486469Y-75654337D01*
X91478843Y-75508561D01*
X91474746Y-75324933D01*
X91473537Y-75097045D01*
X91474576Y-74818485D01*
X91477220Y-74482843D01*
X91478211Y-74371551D01*
X91481019Y-74080344D01*
X91483912Y-73843877D01*
X91487275Y-73655595D01*
X91491493Y-73508942D01*
X91496953Y-73397362D01*
X91504037Y-73314301D01*
X91513133Y-73253202D01*
X91524624Y-73207510D01*
X91538896Y-73170669D01*
X91556335Y-73136125D01*
X91569739Y-73112507D01*
X91640539Y-73009113D01*
X91714905Y-72924359D01*
X91777048Y-72875364D01*
X91878841Y-72807534D01*
X92008907Y-72727869D01*
X92158044Y-72641297D01*
X92317052Y-72552745D01*
X92476728Y-72467144D01*
X92627871Y-72389420D01*
X92761278Y-72324501D01*
X92867749Y-72277317D01*
X92938082Y-72252795D01*
X92963075Y-72255864D01*
X92961534Y-72260589D01*
X92923513Y-72300147D01*
X92839768Y-72366591D01*
X92717287Y-72454999D01*
X92563056Y-72560444D01*
X92384059Y-72678003D01*
X92187284Y-72802750D01*
X92074542Y-72872312D01*
X91965407Y-72941020D01*
X91877318Y-73003545D01*
X91808041Y-73066854D01*
X91755341Y-73137915D01*
X91716985Y-73223693D01*
X91690736Y-73331157D01*
X91674361Y-73467272D01*
X91665625Y-73639006D01*
X91662292Y-73853327D01*
X91662129Y-74117200D01*
X91662901Y-74437592D01*
X91663531Y-74648485D01*
X91665192Y-74901615D01*
X91667691Y-75132490D01*
X91670892Y-75332859D01*
X91674657Y-75494475D01*
X91678850Y-75609089D01*
X91683334Y-75668451D01*
X91702201Y-75787778D01*
X91836354Y-75664120D01*
X91894488Y-75613575D01*
X91975093Y-75552718D01*
X92031757Y-75521022D01*
X92055345Y-75506416D01*
X92092744Y-75452027D01*
X92134451Y-75351809D01*
X92184359Y-75197508D01*
X92286610Y-74914100D01*
X92427560Y-74645931D01*
X92606423Y-74408049D01*
X92627818Y-74382321D01*
X92718939Y-74241640D01*
X92784160Y-74091923D01*
X92819847Y-73993483D01*
X92857763Y-73932131D01*
X92899526Y-73914000D01*
X92956126Y-73909223D01*
X93030671Y-73881157D01*
X93059250Y-73835115D01*
X93064879Y-73810670D01*
X93102811Y-73758623D01*
X93121300Y-73746672D01*
X93152913Y-73755930D01*
X93186038Y-73818235D01*
X93188708Y-73824575D01*
X93221220Y-73887743D01*
X93245665Y-73913369D01*
X93259346Y-73903755D01*
X93299433Y-73850695D01*
X93353058Y-73764545D01*
X93411435Y-73660536D01*
X93465778Y-73553897D01*
X93507300Y-73459859D01*
X93531627Y-73404164D01*
X93578643Y-73340578D01*
X93639525Y-73316873D01*
X93685850Y-73316986D01*
X93725465Y-73346047D01*
X93757854Y-73422188D01*
X93765708Y-73445045D01*
X93791312Y-73506702D01*
X93807301Y-73525782D01*
X93816431Y-73493786D01*
X93835849Y-73411835D01*
X93862897Y-73292211D01*
X93894928Y-73147186D01*
X93929295Y-72989034D01*
X93963349Y-72830024D01*
X93994444Y-72682430D01*
X94019933Y-72558524D01*
X94037167Y-72470577D01*
X94043500Y-72430861D01*
X94052524Y-72428489D01*
X94091125Y-72453499D01*
X94116054Y-72481781D01*
X94139218Y-72544700D01*
X94149099Y-72605249D01*
X94180488Y-72717807D01*
X94228993Y-72865528D01*
X94290101Y-73036251D01*
X94359295Y-73217813D01*
X94432060Y-73398049D01*
X94503883Y-73564798D01*
X94570248Y-73705896D01*
X94580789Y-73726823D01*
X94688204Y-73926986D01*
X94809725Y-74133875D01*
X94939750Y-74339702D01*
X95072677Y-74536679D01*
X95202904Y-74717017D01*
X95324827Y-74872929D01*
X95432846Y-74996626D01*
X95521357Y-75080321D01*
X95584759Y-75116225D01*
X95596196Y-75120047D01*
X95657982Y-75157799D01*
X95745256Y-75225429D01*
X95842980Y-75311562D01*
X95872051Y-75338347D01*
X95989373Y-75440375D01*
X96115746Y-75542763D01*
X96239799Y-75637077D01*
X96350163Y-75714884D01*
X96435468Y-75767753D01*
X96484345Y-75787250D01*
X96492722Y-75780067D01*
X96505151Y-75728083D01*
X96513949Y-75622958D01*
X96519351Y-75461261D01*
X96521588Y-75239562D01*
X96522315Y-75108402D01*
X96524955Y-74858405D01*
X96529052Y-74585305D01*
X96534214Y-74314116D01*
X96540044Y-74069853D01*
X96542040Y-73992183D01*
X96545907Y-73752972D01*
X96543669Y-73565309D01*
X96533962Y-73419977D01*
X96515420Y-73307760D01*
X96486679Y-73219442D01*
X96446375Y-73145807D01*
X96393143Y-73077638D01*
X96339498Y-73027784D01*
X96239317Y-72950582D01*
X96112358Y-72862484D01*
X95973792Y-72774456D01*
X95838096Y-72690487D01*
X95677976Y-72586980D01*
X95530166Y-72487006D01*
X95403011Y-72396530D01*
X95304853Y-72321520D01*
X95244036Y-72267942D01*
X95228904Y-72241762D01*
X95243449Y-72241114D01*
X95300654Y-72261822D01*
G37*
X95300654Y-72261822D02*
X95382445Y-72303629D01*
X95399158Y-72313002D01*
X95490916Y-72362962D01*
X95620267Y-72431988D01*
X95772431Y-72512230D01*
X95932625Y-72595837D01*
X96037763Y-72650103D01*
X96197743Y-72733281D01*
X96329858Y-72807295D01*
X96436851Y-72878748D01*
X96521463Y-72954241D01*
X96586435Y-73040377D01*
X96634508Y-73143757D01*
X96668424Y-73270984D01*
X96690924Y-73428659D01*
X96704751Y-73623385D01*
X96712644Y-73861764D01*
X96717346Y-74150397D01*
X96721597Y-74495887D01*
X96721896Y-74518700D01*
X96725882Y-74852945D01*
X96727807Y-75130487D01*
X96726908Y-75357710D01*
X96722425Y-75541001D01*
X96713596Y-75686747D01*
X96699661Y-75801333D01*
X96679856Y-75891146D01*
X96653422Y-75962572D01*
X96619597Y-76021996D01*
X96577619Y-76075805D01*
X96526727Y-76130386D01*
X96496125Y-76155927D01*
X96410027Y-76216268D01*
X96281771Y-76299841D01*
X96119209Y-76402008D01*
X95930192Y-76518129D01*
X95722572Y-76643566D01*
X95504200Y-76773680D01*
X95282928Y-76903833D01*
X95066609Y-77029385D01*
X94863092Y-77145698D01*
X94680231Y-77248133D01*
X94525876Y-77332052D01*
X94407880Y-77392816D01*
X94334093Y-77425786D01*
X94311075Y-77433829D01*
X94231121Y-77457376D01*
X94153798Y-77469620D01*
X94072770Y-77468175D01*
X93981702Y-77450655D01*
X93874257Y-77414676D01*
X93744102Y-77357852D01*
X93584899Y-77277797D01*
X93390313Y-77172125D01*
X93154010Y-77038452D01*
X92869652Y-76874392D01*
X92808173Y-76838742D01*
X92542158Y-76684426D01*
X92324462Y-76557789D01*
X92149620Y-76455339D01*
X92012165Y-76373587D01*
X91906635Y-76309044D01*
X91827563Y-76258218D01*
X91769486Y-76217621D01*
X91726937Y-76183762D01*
X91694452Y-76153150D01*
X91666567Y-76122297D01*
X91637817Y-76087712D01*
X91600005Y-76039824D01*
X91565106Y-75987144D01*
X91536945Y-75928666D01*
X91514879Y-75857979D01*
X91498268Y-75768673D01*
X91486469Y-75654337D01*
X91478843Y-75508561D01*
X91474746Y-75324933D01*
X91473537Y-75097045D01*
X91474576Y-74818485D01*
X91477220Y-74482843D01*
X91478211Y-74371551D01*
X91481019Y-74080344D01*
X91483912Y-73843877D01*
X91487275Y-73655595D01*
X91491493Y-73508942D01*
X91496953Y-73397362D01*
X91504037Y-73314301D01*
X91513133Y-73253202D01*
X91524624Y-73207510D01*
X91538896Y-73170669D01*
X91556335Y-73136125D01*
X91569739Y-73112507D01*
X91640539Y-73009113D01*
X91714905Y-72924359D01*
X91777048Y-72875364D01*
X91878841Y-72807534D01*
X92008907Y-72727869D01*
X92158044Y-72641297D01*
X92317052Y-72552745D01*
X92476728Y-72467144D01*
X92627871Y-72389420D01*
X92761278Y-72324501D01*
X92867749Y-72277317D01*
X92938082Y-72252795D01*
X92963075Y-72255864D01*
X92961534Y-72260589D01*
X92923513Y-72300147D01*
X92839768Y-72366591D01*
X92717287Y-72454999D01*
X92563056Y-72560444D01*
X92384059Y-72678003D01*
X92187284Y-72802750D01*
X92074542Y-72872312D01*
X91965407Y-72941020D01*
X91877318Y-73003545D01*
X91808041Y-73066854D01*
X91755341Y-73137915D01*
X91716985Y-73223693D01*
X91690736Y-73331157D01*
X91674361Y-73467272D01*
X91665625Y-73639006D01*
X91662292Y-73853327D01*
X91662129Y-74117200D01*
X91662901Y-74437592D01*
X91663531Y-74648485D01*
X91665192Y-74901615D01*
X91667691Y-75132490D01*
X91670892Y-75332859D01*
X91674657Y-75494475D01*
X91678850Y-75609089D01*
X91683334Y-75668451D01*
X91702201Y-75787778D01*
X91836354Y-75664120D01*
X91894488Y-75613575D01*
X91975093Y-75552718D01*
X92031757Y-75521022D01*
X92055345Y-75506416D01*
X92092744Y-75452027D01*
X92134451Y-75351809D01*
X92184359Y-75197508D01*
X92286610Y-74914100D01*
X92427560Y-74645931D01*
X92606423Y-74408049D01*
X92627818Y-74382321D01*
X92718939Y-74241640D01*
X92784160Y-74091923D01*
X92819847Y-73993483D01*
X92857763Y-73932131D01*
X92899526Y-73914000D01*
X92956126Y-73909223D01*
X93030671Y-73881157D01*
X93059250Y-73835115D01*
X93064879Y-73810670D01*
X93102811Y-73758623D01*
X93121300Y-73746672D01*
X93152913Y-73755930D01*
X93186038Y-73818235D01*
X93188708Y-73824575D01*
X93221220Y-73887743D01*
X93245665Y-73913369D01*
X93259346Y-73903755D01*
X93299433Y-73850695D01*
X93353058Y-73764545D01*
X93411435Y-73660536D01*
X93465778Y-73553897D01*
X93507300Y-73459859D01*
X93531627Y-73404164D01*
X93578643Y-73340578D01*
X93639525Y-73316873D01*
X93685850Y-73316986D01*
X93725465Y-73346047D01*
X93757854Y-73422188D01*
X93765708Y-73445045D01*
X93791312Y-73506702D01*
X93807301Y-73525782D01*
X93816431Y-73493786D01*
X93835849Y-73411835D01*
X93862897Y-73292211D01*
X93894928Y-73147186D01*
X93929295Y-72989034D01*
X93963349Y-72830024D01*
X93994444Y-72682430D01*
X94019933Y-72558524D01*
X94037167Y-72470577D01*
X94043500Y-72430861D01*
X94052524Y-72428489D01*
X94091125Y-72453499D01*
X94116054Y-72481781D01*
X94139218Y-72544700D01*
X94149099Y-72605249D01*
X94180488Y-72717807D01*
X94228993Y-72865528D01*
X94290101Y-73036251D01*
X94359295Y-73217813D01*
X94432060Y-73398049D01*
X94503883Y-73564798D01*
X94570248Y-73705896D01*
X94580789Y-73726823D01*
X94688204Y-73926986D01*
X94809725Y-74133875D01*
X94939750Y-74339702D01*
X95072677Y-74536679D01*
X95202904Y-74717017D01*
X95324827Y-74872929D01*
X95432846Y-74996626D01*
X95521357Y-75080321D01*
X95584759Y-75116225D01*
X95596196Y-75120047D01*
X95657982Y-75157799D01*
X95745256Y-75225429D01*
X95842980Y-75311562D01*
X95872051Y-75338347D01*
X95989373Y-75440375D01*
X96115746Y-75542763D01*
X96239799Y-75637077D01*
X96350163Y-75714884D01*
X96435468Y-75767753D01*
X96484345Y-75787250D01*
X96492722Y-75780067D01*
X96505151Y-75728083D01*
X96513949Y-75622958D01*
X96519351Y-75461261D01*
X96521588Y-75239562D01*
X96522315Y-75108402D01*
X96524955Y-74858405D01*
X96529052Y-74585305D01*
X96534214Y-74314116D01*
X96540044Y-74069853D01*
X96542040Y-73992183D01*
X96545907Y-73752972D01*
X96543669Y-73565309D01*
X96533962Y-73419977D01*
X96515420Y-73307760D01*
X96486679Y-73219442D01*
X96446375Y-73145807D01*
X96393143Y-73077638D01*
X96339498Y-73027784D01*
X96239317Y-72950582D01*
X96112358Y-72862484D01*
X95973792Y-72774456D01*
X95838096Y-72690487D01*
X95677976Y-72586980D01*
X95530166Y-72487006D01*
X95403011Y-72396530D01*
X95304853Y-72321520D01*
X95244036Y-72267942D01*
X95228904Y-72241762D01*
X95243449Y-72241114D01*
X95300654Y-72261822D01*
X88011000Y-76454000D02*
X88122125Y-76454000D01*
X88122125Y-76454000D02*
X88197390Y-76447990D01*
X88197390Y-76447990D02*
X88228419Y-76421067D01*
X88228419Y-76421067D02*
X88234044Y-76374625D01*
X88234044Y-76374625D02*
X88234357Y-76317703D01*
X88234357Y-76317703D02*
X88234730Y-76209354D01*
X88234730Y-76209354D02*
X88235130Y-76061651D01*
X88235130Y-76061651D02*
X88235524Y-75886666D01*
X88235524Y-75886666D02*
X88235817Y-75731687D01*
X88235817Y-75731687D02*
X88236797Y-75168125D01*
X88236797Y-75168125D02*
X88123899Y-75158270D01*
X88123899Y-75158270D02*
X88011000Y-75148416D01*
X88011000Y-75148416D02*
X88011000Y-76454000D01*
X88011000Y-76454000D02*
X88011000Y-76454000D01*
G36*
X88123899Y-75158270D02*
G01*
X88236797Y-75168125D01*
X88235817Y-75731687D01*
X88235524Y-75886666D01*
X88235130Y-76061651D01*
X88234730Y-76209354D01*
X88234357Y-76317703D01*
X88234044Y-76374625D01*
X88228419Y-76421067D01*
X88197390Y-76447990D01*
X88122125Y-76454000D01*
X88011000Y-76454000D01*
X88011000Y-75148416D01*
X88123899Y-75158270D01*
G37*
X88123899Y-75158270D02*
X88236797Y-75168125D01*
X88235817Y-75731687D01*
X88235524Y-75886666D01*
X88235130Y-76061651D01*
X88234730Y-76209354D01*
X88234357Y-76317703D01*
X88234044Y-76374625D01*
X88228419Y-76421067D01*
X88197390Y-76447990D01*
X88122125Y-76454000D01*
X88011000Y-76454000D01*
X88011000Y-75148416D01*
X88123899Y-75158270D01*
X93243508Y-71095622D02*
X93246175Y-71117206D01*
X93246175Y-71117206D02*
X93292175Y-71160934D01*
X93292175Y-71160934D02*
X93369186Y-71218376D01*
X93369186Y-71218376D02*
X93464886Y-71281102D01*
X93464886Y-71281102D02*
X93566952Y-71340683D01*
X93566952Y-71340683D02*
X93663062Y-71388690D01*
X93663062Y-71388690D02*
X93686313Y-71398542D01*
X93686313Y-71398542D02*
X93775895Y-71431221D01*
X93775895Y-71431221D02*
X93836006Y-71446573D01*
X93836006Y-71446573D02*
X93852019Y-71443677D01*
X93852019Y-71443677D02*
X93824089Y-71403064D01*
X93824089Y-71403064D02*
X93752699Y-71345340D01*
X93752699Y-71345340D02*
X93652535Y-71278908D01*
X93652535Y-71278908D02*
X93538287Y-71212169D01*
X93538287Y-71212169D02*
X93424643Y-71153526D01*
X93424643Y-71153526D02*
X93326293Y-71111378D01*
X93326293Y-71111378D02*
X93257923Y-71094129D01*
X93257923Y-71094129D02*
X93243508Y-71095622D01*
X93243508Y-71095622D02*
X93243508Y-71095622D01*
G36*
X93326293Y-71111378D02*
G01*
X93424643Y-71153526D01*
X93538287Y-71212169D01*
X93652535Y-71278908D01*
X93752699Y-71345340D01*
X93824089Y-71403064D01*
X93852019Y-71443677D01*
X93836006Y-71446573D01*
X93775895Y-71431221D01*
X93686313Y-71398542D01*
X93663062Y-71388690D01*
X93566952Y-71340683D01*
X93464886Y-71281102D01*
X93369186Y-71218376D01*
X93292175Y-71160934D01*
X93246175Y-71117206D01*
X93243508Y-71095622D01*
X93257923Y-71094129D01*
X93326293Y-71111378D01*
G37*
X93326293Y-71111378D02*
X93424643Y-71153526D01*
X93538287Y-71212169D01*
X93652535Y-71278908D01*
X93752699Y-71345340D01*
X93824089Y-71403064D01*
X93852019Y-71443677D01*
X93836006Y-71446573D01*
X93775895Y-71431221D01*
X93686313Y-71398542D01*
X93663062Y-71388690D01*
X93566952Y-71340683D01*
X93464886Y-71281102D01*
X93369186Y-71218376D01*
X93292175Y-71160934D01*
X93246175Y-71117206D01*
X93243508Y-71095622D01*
X93257923Y-71094129D01*
X93326293Y-71111378D01*
X82391250Y-74295000D02*
X81946750Y-74295000D01*
X81946750Y-74295000D02*
X81946750Y-74513620D01*
X81946750Y-74513620D02*
X82343683Y-74523372D01*
X82343683Y-74523372D02*
X82740616Y-74533125D01*
X82740616Y-74533125D02*
X82740558Y-73588562D01*
X82740558Y-73588562D02*
X82740500Y-72644000D01*
X82740500Y-72644000D02*
X82391250Y-72644000D01*
X82391250Y-72644000D02*
X82391250Y-74295000D01*
X82391250Y-74295000D02*
X82391250Y-74295000D01*
G36*
X82740558Y-73588562D02*
G01*
X82740616Y-74533125D01*
X82343683Y-74523372D01*
X81946750Y-74513620D01*
X81946750Y-74295000D01*
X82391250Y-74295000D01*
X82391250Y-72644000D01*
X82740500Y-72644000D01*
X82740558Y-73588562D01*
G37*
X82740558Y-73588562D02*
X82740616Y-74533125D01*
X82343683Y-74523372D01*
X81946750Y-74513620D01*
X81946750Y-74295000D01*
X82391250Y-74295000D01*
X82391250Y-72644000D01*
X82740500Y-72644000D01*
X82740558Y-73588562D01*
X85817764Y-75142047D02*
X85797636Y-75145767D01*
X85797636Y-75145767D02*
X85769604Y-75153093D01*
X85769604Y-75153093D02*
X85749909Y-75169110D01*
X85749909Y-75169110D02*
X85737078Y-75203628D01*
X85737078Y-75203628D02*
X85729642Y-75266454D01*
X85729642Y-75266454D02*
X85726130Y-75367396D01*
X85726130Y-75367396D02*
X85725071Y-75516261D01*
X85725071Y-75516261D02*
X85725000Y-75630134D01*
X85725000Y-75630134D02*
X85722935Y-75803301D01*
X85722935Y-75803301D02*
X85717257Y-75959574D01*
X85717257Y-75959574D02*
X85708746Y-76085185D01*
X85708746Y-76085185D02*
X85698180Y-76166371D01*
X85698180Y-76166371D02*
X85693727Y-76182871D01*
X85693727Y-76182871D02*
X85642854Y-76262412D01*
X85642854Y-76262412D02*
X85577815Y-76286712D01*
X85577815Y-76286712D02*
X85509229Y-76251878D01*
X85509229Y-76251878D02*
X85508226Y-76250884D01*
X85508226Y-76250884D02*
X85487752Y-76221446D01*
X85487752Y-76221446D02*
X85472750Y-76173750D01*
X85472750Y-76173750D02*
X85462193Y-76098133D01*
X85462193Y-76098133D02*
X85455055Y-75984933D01*
X85455055Y-75984933D02*
X85450312Y-75824489D01*
X85450312Y-75824489D02*
X85447923Y-75682980D01*
X85447923Y-75682980D02*
X85440720Y-75168125D01*
X85440720Y-75168125D02*
X85326834Y-75158150D01*
X85326834Y-75158150D02*
X85212947Y-75148175D01*
X85212947Y-75148175D02*
X85222911Y-75721070D01*
X85222911Y-75721070D02*
X85226725Y-75924841D01*
X85226725Y-75924841D02*
X85230931Y-76074929D01*
X85230931Y-76074929D02*
X85236879Y-76181144D01*
X85236879Y-76181144D02*
X85245918Y-76253296D01*
X85245918Y-76253296D02*
X85259398Y-76301195D01*
X85259398Y-76301195D02*
X85278669Y-76334652D01*
X85278669Y-76334652D02*
X85305081Y-76363476D01*
X85305081Y-76363476D02*
X85312250Y-76370427D01*
X85312250Y-76370427D02*
X85423354Y-76437577D01*
X85423354Y-76437577D02*
X85569260Y-76468303D01*
X85569260Y-76468303D02*
X85700048Y-76463011D01*
X85700048Y-76463011D02*
X85777264Y-76430356D01*
X85777264Y-76430356D02*
X85855483Y-76366922D01*
X85855483Y-76366922D02*
X85866735Y-76354315D01*
X85866735Y-76354315D02*
X85895830Y-76317817D01*
X85895830Y-76317817D02*
X85916907Y-76281117D01*
X85916907Y-76281117D02*
X85931259Y-76233846D01*
X85931259Y-76233846D02*
X85940177Y-76165634D01*
X85940177Y-76165634D02*
X85944954Y-76066112D01*
X85944954Y-76066112D02*
X85946881Y-75924911D01*
X85946881Y-75924911D02*
X85947250Y-75731661D01*
X85947250Y-75731661D02*
X85947250Y-75708084D01*
X85947250Y-75708084D02*
X85946756Y-75501310D01*
X85946756Y-75501310D02*
X85943840Y-75349961D01*
X85943840Y-75349961D02*
X85936355Y-75245965D01*
X85936355Y-75245965D02*
X85922153Y-75181249D01*
X85922153Y-75181249D02*
X85899086Y-75147740D01*
X85899086Y-75147740D02*
X85865005Y-75137364D01*
X85865005Y-75137364D02*
X85817764Y-75142047D01*
X85817764Y-75142047D02*
X85817764Y-75142047D01*
G36*
X85899086Y-75147740D02*
G01*
X85922153Y-75181249D01*
X85936355Y-75245965D01*
X85943840Y-75349961D01*
X85946756Y-75501310D01*
X85947250Y-75708084D01*
X85947250Y-75731661D01*
X85946881Y-75924911D01*
X85944954Y-76066112D01*
X85940177Y-76165634D01*
X85931259Y-76233846D01*
X85916907Y-76281117D01*
X85895830Y-76317817D01*
X85866735Y-76354315D01*
X85855483Y-76366922D01*
X85777264Y-76430356D01*
X85700048Y-76463011D01*
X85569260Y-76468303D01*
X85423354Y-76437577D01*
X85312250Y-76370427D01*
X85305081Y-76363476D01*
X85278669Y-76334652D01*
X85259398Y-76301195D01*
X85245918Y-76253296D01*
X85236879Y-76181144D01*
X85230931Y-76074929D01*
X85226725Y-75924841D01*
X85222911Y-75721070D01*
X85212947Y-75148175D01*
X85326834Y-75158150D01*
X85440720Y-75168125D01*
X85447923Y-75682980D01*
X85450312Y-75824489D01*
X85455055Y-75984933D01*
X85462193Y-76098133D01*
X85472750Y-76173750D01*
X85487752Y-76221446D01*
X85508226Y-76250884D01*
X85509229Y-76251878D01*
X85577815Y-76286712D01*
X85642854Y-76262412D01*
X85693727Y-76182871D01*
X85698180Y-76166371D01*
X85708746Y-76085185D01*
X85717257Y-75959574D01*
X85722935Y-75803301D01*
X85725000Y-75630134D01*
X85725071Y-75516261D01*
X85726130Y-75367396D01*
X85729642Y-75266454D01*
X85737078Y-75203628D01*
X85749909Y-75169110D01*
X85769604Y-75153093D01*
X85797636Y-75145767D01*
X85817764Y-75142047D01*
X85865005Y-75137364D01*
X85899086Y-75147740D01*
G37*
X85899086Y-75147740D02*
X85922153Y-75181249D01*
X85936355Y-75245965D01*
X85943840Y-75349961D01*
X85946756Y-75501310D01*
X85947250Y-75708084D01*
X85947250Y-75731661D01*
X85946881Y-75924911D01*
X85944954Y-76066112D01*
X85940177Y-76165634D01*
X85931259Y-76233846D01*
X85916907Y-76281117D01*
X85895830Y-76317817D01*
X85866735Y-76354315D01*
X85855483Y-76366922D01*
X85777264Y-76430356D01*
X85700048Y-76463011D01*
X85569260Y-76468303D01*
X85423354Y-76437577D01*
X85312250Y-76370427D01*
X85305081Y-76363476D01*
X85278669Y-76334652D01*
X85259398Y-76301195D01*
X85245918Y-76253296D01*
X85236879Y-76181144D01*
X85230931Y-76074929D01*
X85226725Y-75924841D01*
X85222911Y-75721070D01*
X85212947Y-75148175D01*
X85326834Y-75158150D01*
X85440720Y-75168125D01*
X85447923Y-75682980D01*
X85450312Y-75824489D01*
X85455055Y-75984933D01*
X85462193Y-76098133D01*
X85472750Y-76173750D01*
X85487752Y-76221446D01*
X85508226Y-76250884D01*
X85509229Y-76251878D01*
X85577815Y-76286712D01*
X85642854Y-76262412D01*
X85693727Y-76182871D01*
X85698180Y-76166371D01*
X85708746Y-76085185D01*
X85717257Y-75959574D01*
X85722935Y-75803301D01*
X85725000Y-75630134D01*
X85725071Y-75516261D01*
X85726130Y-75367396D01*
X85729642Y-75266454D01*
X85737078Y-75203628D01*
X85749909Y-75169110D01*
X85769604Y-75153093D01*
X85797636Y-75145767D01*
X85817764Y-75142047D01*
X85865005Y-75137364D01*
X85899086Y-75147740D01*
X82960088Y-75165278D02*
X82867122Y-75209169D01*
X82867122Y-75209169D02*
X82802877Y-75271702D01*
X82802877Y-75271702D02*
X82756767Y-75373290D01*
X82756767Y-75373290D02*
X82743158Y-75501972D01*
X82743158Y-75501972D02*
X82760760Y-75632245D01*
X82760760Y-75632245D02*
X82808286Y-75738609D01*
X82808286Y-75738609D02*
X82827647Y-75761507D01*
X82827647Y-75761507D02*
X82852971Y-75785575D01*
X82852971Y-75785575D02*
X82869887Y-75806288D01*
X82869887Y-75806288D02*
X82877089Y-75833681D01*
X82877089Y-75833681D02*
X82873267Y-75877789D01*
X82873267Y-75877789D02*
X82857114Y-75948649D01*
X82857114Y-75948649D02*
X82827322Y-76056296D01*
X82827322Y-76056296D02*
X82782583Y-76210765D01*
X82782583Y-76210765D02*
X82758087Y-76295250D01*
X82758087Y-76295250D02*
X82712173Y-76454000D01*
X82712173Y-76454000D02*
X82835209Y-76454000D01*
X82835209Y-76454000D02*
X82885141Y-76453400D01*
X82885141Y-76453400D02*
X82922392Y-76445574D01*
X82922392Y-76445574D02*
X82951854Y-76421480D01*
X82951854Y-76421480D02*
X82978420Y-76372076D01*
X82978420Y-76372076D02*
X83006980Y-76288321D01*
X83006980Y-76288321D02*
X83042427Y-76161172D01*
X83042427Y-76161172D02*
X83088578Y-75985687D01*
X83088578Y-75985687D02*
X83122067Y-75896383D01*
X83122067Y-75896383D02*
X83160542Y-75852857D01*
X83160542Y-75852857D02*
X83170349Y-75850750D01*
X83170349Y-75850750D02*
X83192576Y-75862450D01*
X83192576Y-75862450D02*
X83206644Y-75904479D01*
X83206644Y-75904479D02*
X83214151Y-75987226D01*
X83214151Y-75987226D02*
X83216696Y-76121081D01*
X83216696Y-76121081D02*
X83216750Y-76152375D01*
X83216750Y-76152375D02*
X83216750Y-76454000D01*
X83216750Y-76454000D02*
X83470750Y-76454000D01*
X83470750Y-76454000D02*
X83470750Y-75501500D01*
X83470750Y-75501500D02*
X83216750Y-75501500D01*
X83216750Y-75501500D02*
X83215046Y-75607093D01*
X83215046Y-75607093D02*
X83205833Y-75664104D01*
X83205833Y-75664104D02*
X83182956Y-75687438D01*
X83182956Y-75687438D02*
X83140265Y-75691997D01*
X83140265Y-75691997D02*
X83138107Y-75692000D01*
X83138107Y-75692000D02*
X83054243Y-75662556D01*
X83054243Y-75662556D02*
X83007607Y-75612856D01*
X83007607Y-75612856D02*
X82971282Y-75506201D01*
X82971282Y-75506201D02*
X82977643Y-75446486D01*
X82977643Y-75446486D02*
X83017540Y-75356986D01*
X83017540Y-75356986D02*
X83087965Y-75316896D01*
X83087965Y-75316896D02*
X83145313Y-75311486D01*
X83145313Y-75311486D02*
X83184994Y-75316407D01*
X83184994Y-75316407D02*
X83206428Y-75341698D01*
X83206428Y-75341698D02*
X83215162Y-75402114D01*
X83215162Y-75402114D02*
X83216750Y-75501500D01*
X83216750Y-75501500D02*
X83470750Y-75501500D01*
X83470750Y-75501500D02*
X83470750Y-75157668D01*
X83470750Y-75157668D02*
X83263491Y-75147021D01*
X83263491Y-75147021D02*
X83087819Y-75145750D01*
X83087819Y-75145750D02*
X82960088Y-75165278D01*
X82960088Y-75165278D02*
X82960088Y-75165278D01*
G36*
X83216750Y-76454000D02*
G01*
X83216750Y-76152375D01*
X83216696Y-76121081D01*
X83214151Y-75987226D01*
X83206644Y-75904479D01*
X83192576Y-75862450D01*
X83170349Y-75850750D01*
X83160542Y-75852857D01*
X83122067Y-75896383D01*
X83088578Y-75985687D01*
X83042427Y-76161172D01*
X83006980Y-76288321D01*
X82978420Y-76372076D01*
X82951854Y-76421480D01*
X82922392Y-76445574D01*
X82885141Y-76453400D01*
X82835209Y-76454000D01*
X82712173Y-76454000D01*
X82758087Y-76295250D01*
X82782583Y-76210765D01*
X82827322Y-76056296D01*
X82857114Y-75948649D01*
X82873267Y-75877789D01*
X82877089Y-75833681D01*
X82869887Y-75806288D01*
X82852971Y-75785575D01*
X82827647Y-75761507D01*
X82808286Y-75738609D01*
X82760760Y-75632245D01*
X82743729Y-75506201D01*
X82971282Y-75506201D01*
X83007607Y-75612856D01*
X83054243Y-75662556D01*
X83138107Y-75692000D01*
X83140265Y-75691997D01*
X83182956Y-75687438D01*
X83205833Y-75664104D01*
X83215046Y-75607093D01*
X83216750Y-75501500D01*
X83215162Y-75402114D01*
X83206428Y-75341698D01*
X83184994Y-75316407D01*
X83145313Y-75311486D01*
X83087965Y-75316896D01*
X83017540Y-75356986D01*
X82977643Y-75446486D01*
X82971282Y-75506201D01*
X82743729Y-75506201D01*
X82743158Y-75501972D01*
X82756767Y-75373290D01*
X82802877Y-75271702D01*
X82867122Y-75209169D01*
X82960088Y-75165278D01*
X83087819Y-75145750D01*
X83263491Y-75147021D01*
X83470750Y-75157668D01*
X83470750Y-76454000D01*
X83216750Y-76454000D01*
G37*
X83216750Y-76454000D02*
X83216750Y-76152375D01*
X83216696Y-76121081D01*
X83214151Y-75987226D01*
X83206644Y-75904479D01*
X83192576Y-75862450D01*
X83170349Y-75850750D01*
X83160542Y-75852857D01*
X83122067Y-75896383D01*
X83088578Y-75985687D01*
X83042427Y-76161172D01*
X83006980Y-76288321D01*
X82978420Y-76372076D01*
X82951854Y-76421480D01*
X82922392Y-76445574D01*
X82885141Y-76453400D01*
X82835209Y-76454000D01*
X82712173Y-76454000D01*
X82758087Y-76295250D01*
X82782583Y-76210765D01*
X82827322Y-76056296D01*
X82857114Y-75948649D01*
X82873267Y-75877789D01*
X82877089Y-75833681D01*
X82869887Y-75806288D01*
X82852971Y-75785575D01*
X82827647Y-75761507D01*
X82808286Y-75738609D01*
X82760760Y-75632245D01*
X82743729Y-75506201D01*
X82971282Y-75506201D01*
X83007607Y-75612856D01*
X83054243Y-75662556D01*
X83138107Y-75692000D01*
X83140265Y-75691997D01*
X83182956Y-75687438D01*
X83205833Y-75664104D01*
X83215046Y-75607093D01*
X83216750Y-75501500D01*
X83215162Y-75402114D01*
X83206428Y-75341698D01*
X83184994Y-75316407D01*
X83145313Y-75311486D01*
X83087965Y-75316896D01*
X83017540Y-75356986D01*
X82977643Y-75446486D01*
X82971282Y-75506201D01*
X82743729Y-75506201D01*
X82743158Y-75501972D01*
X82756767Y-75373290D01*
X82802877Y-75271702D01*
X82867122Y-75209169D01*
X82960088Y-75165278D01*
X83087819Y-75145750D01*
X83263491Y-75147021D01*
X83470750Y-75157668D01*
X83470750Y-76454000D01*
X83216750Y-76454000D01*
X93319074Y-71546042D02*
X93216122Y-71554747D01*
X93216122Y-71554747D02*
X93137652Y-71566642D01*
X93137652Y-71566642D02*
X93096441Y-71580629D01*
X93096441Y-71580629D02*
X93105268Y-71595610D01*
X93105268Y-71595610D02*
X93107396Y-71596418D01*
X93107396Y-71596418D02*
X93217904Y-71622082D01*
X93217904Y-71622082D02*
X93363025Y-71637036D01*
X93363025Y-71637036D02*
X93514544Y-71639766D01*
X93514544Y-71639766D02*
X93644243Y-71628754D01*
X93644243Y-71628754D02*
X93658948Y-71626051D01*
X93658948Y-71626051D02*
X93760975Y-71603151D01*
X93760975Y-71603151D02*
X93801200Y-71585840D01*
X93801200Y-71585840D02*
X93779162Y-71571181D01*
X93779162Y-71571181D02*
X93694400Y-71556239D01*
X93694400Y-71556239D02*
X93647032Y-71550049D01*
X93647032Y-71550049D02*
X93547307Y-71542595D01*
X93547307Y-71542595D02*
X93433728Y-71541625D01*
X93433728Y-71541625D02*
X93319074Y-71546042D01*
X93319074Y-71546042D02*
X93319074Y-71546042D01*
G36*
X93547307Y-71542595D02*
G01*
X93647032Y-71550049D01*
X93694400Y-71556239D01*
X93779162Y-71571181D01*
X93801200Y-71585840D01*
X93760975Y-71603151D01*
X93658948Y-71626051D01*
X93644243Y-71628754D01*
X93514544Y-71639766D01*
X93363025Y-71637036D01*
X93217904Y-71622082D01*
X93107396Y-71596418D01*
X93105268Y-71595610D01*
X93096441Y-71580629D01*
X93137652Y-71566642D01*
X93216122Y-71554747D01*
X93319074Y-71546042D01*
X93433728Y-71541625D01*
X93547307Y-71542595D01*
G37*
X93547307Y-71542595D02*
X93647032Y-71550049D01*
X93694400Y-71556239D01*
X93779162Y-71571181D01*
X93801200Y-71585840D01*
X93760975Y-71603151D01*
X93658948Y-71626051D01*
X93644243Y-71628754D01*
X93514544Y-71639766D01*
X93363025Y-71637036D01*
X93217904Y-71622082D01*
X93107396Y-71596418D01*
X93105268Y-71595610D01*
X93096441Y-71580629D01*
X93137652Y-71566642D01*
X93216122Y-71554747D01*
X93319074Y-71546042D01*
X93433728Y-71541625D01*
X93547307Y-71542595D01*
X94340305Y-71739966D02*
X94380584Y-71778648D01*
X94380584Y-71778648D02*
X94408625Y-71803241D01*
X94408625Y-71803241D02*
X94517360Y-71892666D01*
X94517360Y-71892666D02*
X94614221Y-71955372D01*
X94614221Y-71955372D02*
X94728099Y-72008502D01*
X94728099Y-72008502D02*
X94805500Y-72038742D01*
X94805500Y-72038742D02*
X94980125Y-72104568D01*
X94980125Y-72104568D02*
X94853125Y-71989658D01*
X94853125Y-71989658D02*
X94661085Y-71853232D01*
X94661085Y-71853232D02*
X94435219Y-71754832D01*
X94435219Y-71754832D02*
X94392750Y-71742147D01*
X94392750Y-71742147D02*
X94345108Y-71730676D01*
X94345108Y-71730676D02*
X94340305Y-71739966D01*
X94340305Y-71739966D02*
X94340305Y-71739966D01*
G36*
X94392750Y-71742147D02*
G01*
X94435219Y-71754832D01*
X94661085Y-71853232D01*
X94853125Y-71989658D01*
X94980125Y-72104568D01*
X94805500Y-72038742D01*
X94728099Y-72008502D01*
X94614221Y-71955372D01*
X94517360Y-71892666D01*
X94408625Y-71803241D01*
X94380584Y-71778648D01*
X94340305Y-71739966D01*
X94345108Y-71730676D01*
X94392750Y-71742147D01*
G37*
X94392750Y-71742147D02*
X94435219Y-71754832D01*
X94661085Y-71853232D01*
X94853125Y-71989658D01*
X94980125Y-72104568D01*
X94805500Y-72038742D01*
X94728099Y-72008502D01*
X94614221Y-71955372D01*
X94517360Y-71892666D01*
X94408625Y-71803241D01*
X94380584Y-71778648D01*
X94340305Y-71739966D01*
X94345108Y-71730676D01*
X94392750Y-71742147D01*
X94883752Y-71101857D02*
X94794243Y-71136386D01*
X94794243Y-71136386D02*
X94685635Y-71190357D01*
X94685635Y-71190357D02*
X94574370Y-71255257D01*
X94574370Y-71255257D02*
X94476892Y-71322573D01*
X94476892Y-71322573D02*
X94440375Y-71352751D01*
X94440375Y-71352751D02*
X94365945Y-71420851D01*
X94365945Y-71420851D02*
X94337237Y-71454686D01*
X94337237Y-71454686D02*
X94357835Y-71457011D01*
X94357835Y-71457011D02*
X94431323Y-71430583D01*
X94431323Y-71430583D02*
X94503739Y-71401484D01*
X94503739Y-71401484D02*
X94593459Y-71358550D01*
X94593459Y-71358550D02*
X94692953Y-71300995D01*
X94692953Y-71300995D02*
X94789893Y-71237520D01*
X94789893Y-71237520D02*
X94871948Y-71176825D01*
X94871948Y-71176825D02*
X94926789Y-71127609D01*
X94926789Y-71127609D02*
X94942085Y-71098572D01*
X94942085Y-71098572D02*
X94937718Y-71095280D01*
X94937718Y-71095280D02*
X94883752Y-71101857D01*
X94883752Y-71101857D02*
X94883752Y-71101857D01*
G36*
X94942085Y-71098572D02*
G01*
X94926789Y-71127609D01*
X94871948Y-71176825D01*
X94789893Y-71237520D01*
X94692953Y-71300995D01*
X94593459Y-71358550D01*
X94503739Y-71401484D01*
X94431323Y-71430583D01*
X94357835Y-71457011D01*
X94337237Y-71454686D01*
X94365945Y-71420851D01*
X94440375Y-71352751D01*
X94476892Y-71322573D01*
X94574370Y-71255257D01*
X94685635Y-71190357D01*
X94794243Y-71136386D01*
X94883752Y-71101857D01*
X94937718Y-71095280D01*
X94942085Y-71098572D01*
G37*
X94942085Y-71098572D02*
X94926789Y-71127609D01*
X94871948Y-71176825D01*
X94789893Y-71237520D01*
X94692953Y-71300995D01*
X94593459Y-71358550D01*
X94503739Y-71401484D01*
X94431323Y-71430583D01*
X94357835Y-71457011D01*
X94337237Y-71454686D01*
X94365945Y-71420851D01*
X94440375Y-71352751D01*
X94476892Y-71322573D01*
X94574370Y-71255257D01*
X94685635Y-71190357D01*
X94794243Y-71136386D01*
X94883752Y-71101857D01*
X94937718Y-71095280D01*
X94942085Y-71098572D01*
X84678558Y-73675875D02*
X84677904Y-73159937D01*
X84677904Y-73159937D02*
X84677250Y-72644000D01*
X84677250Y-72644000D02*
X84391500Y-72644000D01*
X84391500Y-72644000D02*
X84391500Y-74535663D01*
X84391500Y-74535663D02*
X84478813Y-74533429D01*
X84478813Y-74533429D02*
X84556165Y-74524434D01*
X84556165Y-74524434D02*
X84600413Y-74509811D01*
X84600413Y-74509811D02*
X84623479Y-74474537D01*
X84623479Y-74474537D02*
X84665396Y-74390616D01*
X84665396Y-74390616D02*
X84721397Y-74268348D01*
X84721397Y-74268348D02*
X84786719Y-74118033D01*
X84786719Y-74118033D02*
X84834970Y-74002776D01*
X84834970Y-74002776D02*
X84921417Y-73795576D01*
X84921417Y-73795576D02*
X84987401Y-73643798D01*
X84987401Y-73643798D02*
X85035108Y-73543540D01*
X85035108Y-73543540D02*
X85066725Y-73490902D01*
X85066725Y-73490902D02*
X85084436Y-73481981D01*
X85084436Y-73481981D02*
X85090429Y-73512877D01*
X85090429Y-73512877D02*
X85089312Y-73548875D01*
X85089312Y-73548875D02*
X85087306Y-73615646D01*
X85087306Y-73615646D02*
X85086103Y-73730782D01*
X85086103Y-73730782D02*
X85085778Y-73879152D01*
X85085778Y-73879152D02*
X85086408Y-74045623D01*
X85086408Y-74045623D02*
X85086636Y-74077352D01*
X85086636Y-74077352D02*
X85090000Y-74510580D01*
X85090000Y-74510580D02*
X85218650Y-74522848D01*
X85218650Y-74522848D02*
X85302583Y-74527377D01*
X85302583Y-74527377D02*
X85355231Y-74523722D01*
X85355231Y-74523722D02*
X85361525Y-74520892D01*
X85361525Y-74520892D02*
X85365133Y-74486740D01*
X85365133Y-74486740D02*
X85368404Y-74397098D01*
X85368404Y-74397098D02*
X85371218Y-74259975D01*
X85371218Y-74259975D02*
X85373455Y-74083378D01*
X85373455Y-74083378D02*
X85374993Y-73875318D01*
X85374993Y-73875318D02*
X85375712Y-73643803D01*
X85375712Y-73643803D02*
X85375750Y-73575333D01*
X85375750Y-73575333D02*
X85375750Y-72644000D01*
X85375750Y-72644000D02*
X85252590Y-72644000D01*
X85252590Y-72644000D02*
X85129430Y-72643999D01*
X85129430Y-72643999D02*
X84678558Y-73675875D01*
X84678558Y-73675875D02*
X84678558Y-73675875D01*
G36*
X85252590Y-72644000D02*
G01*
X85375750Y-72644000D01*
X85375750Y-73575333D01*
X85375712Y-73643803D01*
X85374993Y-73875318D01*
X85373455Y-74083378D01*
X85371218Y-74259975D01*
X85368404Y-74397098D01*
X85365133Y-74486740D01*
X85361525Y-74520892D01*
X85355231Y-74523722D01*
X85302583Y-74527377D01*
X85218650Y-74522848D01*
X85090000Y-74510580D01*
X85086636Y-74077352D01*
X85086408Y-74045623D01*
X85085778Y-73879152D01*
X85086103Y-73730782D01*
X85087306Y-73615646D01*
X85089312Y-73548875D01*
X85090429Y-73512877D01*
X85084436Y-73481981D01*
X85066725Y-73490902D01*
X85035108Y-73543540D01*
X84987401Y-73643798D01*
X84921417Y-73795576D01*
X84834970Y-74002776D01*
X84786719Y-74118033D01*
X84721397Y-74268348D01*
X84665396Y-74390616D01*
X84623479Y-74474537D01*
X84600413Y-74509811D01*
X84556165Y-74524434D01*
X84478813Y-74533429D01*
X84391500Y-74535663D01*
X84391500Y-72644000D01*
X84677250Y-72644000D01*
X84677904Y-73159937D01*
X84678558Y-73675875D01*
X85129430Y-72643999D01*
X85252590Y-72644000D01*
G37*
X85252590Y-72644000D02*
X85375750Y-72644000D01*
X85375750Y-73575333D01*
X85375712Y-73643803D01*
X85374993Y-73875318D01*
X85373455Y-74083378D01*
X85371218Y-74259975D01*
X85368404Y-74397098D01*
X85365133Y-74486740D01*
X85361525Y-74520892D01*
X85355231Y-74523722D01*
X85302583Y-74527377D01*
X85218650Y-74522848D01*
X85090000Y-74510580D01*
X85086636Y-74077352D01*
X85086408Y-74045623D01*
X85085778Y-73879152D01*
X85086103Y-73730782D01*
X85087306Y-73615646D01*
X85089312Y-73548875D01*
X85090429Y-73512877D01*
X85084436Y-73481981D01*
X85066725Y-73490902D01*
X85035108Y-73543540D01*
X84987401Y-73643798D01*
X84921417Y-73795576D01*
X84834970Y-74002776D01*
X84786719Y-74118033D01*
X84721397Y-74268348D01*
X84665396Y-74390616D01*
X84623479Y-74474537D01*
X84600413Y-74509811D01*
X84556165Y-74524434D01*
X84478813Y-74533429D01*
X84391500Y-74535663D01*
X84391500Y-72644000D01*
X84677250Y-72644000D01*
X84677904Y-73159937D01*
X84678558Y-73675875D01*
X85129430Y-72643999D01*
X85252590Y-72644000D01*
X88296750Y-74295000D02*
X87848417Y-74295000D01*
X87848417Y-74295000D02*
X87858271Y-74411604D01*
X87858271Y-74411604D02*
X87862167Y-74460766D01*
X87862167Y-74460766D02*
X87870717Y-74494882D01*
X87870717Y-74494882D02*
X87893795Y-74516355D01*
X87893795Y-74516355D02*
X87941272Y-74527587D01*
X87941272Y-74527587D02*
X88023019Y-74530978D01*
X88023019Y-74530978D02*
X88148908Y-74528931D01*
X88148908Y-74528931D02*
X88320563Y-74524076D01*
X88320563Y-74524076D02*
X88646000Y-74515028D01*
X88646000Y-74515028D02*
X88646000Y-72644000D01*
X88646000Y-72644000D02*
X88296750Y-72644000D01*
X88296750Y-72644000D02*
X88296750Y-74295000D01*
X88296750Y-74295000D02*
X88296750Y-74295000D01*
G36*
X88646000Y-74515028D02*
G01*
X88320563Y-74524076D01*
X88148908Y-74528931D01*
X88023019Y-74530978D01*
X87941272Y-74527587D01*
X87893795Y-74516355D01*
X87870717Y-74494882D01*
X87862167Y-74460766D01*
X87858271Y-74411604D01*
X87848417Y-74295000D01*
X88296750Y-74295000D01*
X88296750Y-72644000D01*
X88646000Y-72644000D01*
X88646000Y-74515028D01*
G37*
X88646000Y-74515028D02*
X88320563Y-74524076D01*
X88148908Y-74528931D01*
X88023019Y-74530978D01*
X87941272Y-74527587D01*
X87893795Y-74516355D01*
X87870717Y-74494882D01*
X87862167Y-74460766D01*
X87858271Y-74411604D01*
X87848417Y-74295000D01*
X88296750Y-74295000D01*
X88296750Y-72644000D01*
X88646000Y-72644000D01*
X88646000Y-74515028D01*
X93634842Y-70865333D02*
X93694090Y-70996422D01*
X93694090Y-70996422D02*
X93771456Y-71132700D01*
X93771456Y-71132700D02*
X93810713Y-71190771D01*
X93810713Y-71190771D02*
X93881548Y-71284385D01*
X93881548Y-71284385D02*
X93923677Y-71330997D01*
X93923677Y-71330997D02*
X93943693Y-71336389D01*
X93943693Y-71336389D02*
X93948250Y-71311405D01*
X93948250Y-71311405D02*
X93931341Y-71243505D01*
X93931341Y-71243505D02*
X93887214Y-71142546D01*
X93887214Y-71142546D02*
X93825769Y-71026993D01*
X93825769Y-71026993D02*
X93756906Y-70915307D01*
X93756906Y-70915307D02*
X93690525Y-70825953D01*
X93690525Y-70825953D02*
X93683885Y-70818375D01*
X93683885Y-70818375D02*
X93570166Y-70691375D01*
X93570166Y-70691375D02*
X93634842Y-70865333D01*
X93634842Y-70865333D02*
X93634842Y-70865333D01*
G36*
X93683885Y-70818375D02*
G01*
X93690525Y-70825953D01*
X93756906Y-70915307D01*
X93825769Y-71026993D01*
X93887214Y-71142546D01*
X93931341Y-71243505D01*
X93948250Y-71311405D01*
X93943693Y-71336389D01*
X93923677Y-71330997D01*
X93881548Y-71284385D01*
X93810713Y-71190771D01*
X93771456Y-71132700D01*
X93694090Y-70996422D01*
X93634842Y-70865333D01*
X93570166Y-70691375D01*
X93683885Y-70818375D01*
G37*
X93683885Y-70818375D02*
X93690525Y-70825953D01*
X93756906Y-70915307D01*
X93825769Y-71026993D01*
X93887214Y-71142546D01*
X93931341Y-71243505D01*
X93948250Y-71311405D01*
X93943693Y-71336389D01*
X93923677Y-71330997D01*
X93881548Y-71284385D01*
X93810713Y-71190771D01*
X93771456Y-71132700D01*
X93694090Y-70996422D01*
X93634842Y-70865333D01*
X93570166Y-70691375D01*
X93683885Y-70818375D01*
X83369209Y-72642000D02*
X83234812Y-72688400D01*
X83234812Y-72688400D02*
X83140677Y-72774487D01*
X83140677Y-72774487D02*
X83079006Y-72907420D01*
X83079006Y-72907420D02*
X83042004Y-73094361D01*
X83042004Y-73094361D02*
X83041739Y-73096470D01*
X83041739Y-73096470D02*
X83018934Y-73279000D01*
X83018934Y-73279000D02*
X83375500Y-73279000D01*
X83375500Y-73279000D02*
X83375500Y-73136125D01*
X83375500Y-73136125D02*
X83395494Y-73007098D01*
X83395494Y-73007098D02*
X83449231Y-72916644D01*
X83449231Y-72916644D02*
X83527349Y-72871701D01*
X83527349Y-72871701D02*
X83620483Y-72879206D01*
X83620483Y-72879206D02*
X83678995Y-72911270D01*
X83678995Y-72911270D02*
X83701927Y-72933070D01*
X83701927Y-72933070D02*
X83718776Y-72966391D01*
X83718776Y-72966391D02*
X83730761Y-73020930D01*
X83730761Y-73020930D02*
X83739100Y-73106382D01*
X83739100Y-73106382D02*
X83745015Y-73232442D01*
X83745015Y-73232442D02*
X83749723Y-73408806D01*
X83749723Y-73408806D02*
X83751361Y-73486689D01*
X83751361Y-73486689D02*
X83754953Y-73724691D01*
X83754953Y-73724691D02*
X83754147Y-73907272D01*
X83754147Y-73907272D02*
X83747867Y-74042421D01*
X83747867Y-74042421D02*
X83735035Y-74138130D01*
X83735035Y-74138130D02*
X83714576Y-74202390D01*
X83714576Y-74202390D02*
X83685412Y-74243193D01*
X83685412Y-74243193D02*
X83646468Y-74268528D01*
X83646468Y-74268528D02*
X83646004Y-74268740D01*
X83646004Y-74268740D02*
X83535793Y-74293527D01*
X83535793Y-74293527D02*
X83447186Y-74261287D01*
X83447186Y-74261287D02*
X83383786Y-74175887D01*
X83383786Y-74175887D02*
X83349195Y-74041197D01*
X83349195Y-74041197D02*
X83343750Y-73944256D01*
X83343750Y-73944256D02*
X83345985Y-73850816D01*
X83345985Y-73850816D02*
X83359074Y-73804425D01*
X83359074Y-73804425D02*
X83392599Y-73788641D01*
X83392599Y-73788641D02*
X83435397Y-73787000D01*
X83435397Y-73787000D02*
X83502637Y-73776707D01*
X83502637Y-73776707D02*
X83532910Y-73732687D01*
X83532910Y-73732687D02*
X83541050Y-73691569D01*
X83541050Y-73691569D02*
X83546329Y-73619406D01*
X83546329Y-73619406D02*
X83539361Y-73580444D01*
X83539361Y-73580444D02*
X83502344Y-73573039D01*
X83502344Y-73573039D02*
X83418321Y-73567516D01*
X83418321Y-73567516D02*
X83303784Y-73564854D01*
X83303784Y-73564854D02*
X83274959Y-73564750D01*
X83274959Y-73564750D02*
X83026250Y-73564750D01*
X83026250Y-73564750D02*
X83026250Y-74035708D01*
X83026250Y-74035708D02*
X83027254Y-74202040D01*
X83027254Y-74202040D02*
X83030018Y-74344756D01*
X83030018Y-74344756D02*
X83034170Y-74452324D01*
X83034170Y-74452324D02*
X83039338Y-74513212D01*
X83039338Y-74513212D02*
X83041945Y-74522360D01*
X83041945Y-74522360D02*
X83091539Y-74534413D01*
X83091539Y-74534413D02*
X83165645Y-74521072D01*
X83165645Y-74521072D02*
X83235219Y-74491062D01*
X83235219Y-74491062D02*
X83271108Y-74453531D01*
X83271108Y-74453531D02*
X83286005Y-74421419D01*
X83286005Y-74421419D02*
X83314624Y-74428795D01*
X83314624Y-74428795D02*
X83366923Y-74473607D01*
X83366923Y-74473607D02*
X83436410Y-74522560D01*
X83436410Y-74522560D02*
X83521578Y-74544046D01*
X83521578Y-74544046D02*
X83610324Y-74546987D01*
X83610324Y-74546987D02*
X83718774Y-74540563D01*
X83718774Y-74540563D02*
X83809891Y-74526549D01*
X83809891Y-74526549D02*
X83839428Y-74517882D01*
X83839428Y-74517882D02*
X83931856Y-74451653D01*
X83931856Y-74451653D02*
X84014162Y-74340460D01*
X84014162Y-74340460D02*
X84073017Y-74202756D01*
X84073017Y-74202756D02*
X84076862Y-74189123D01*
X84076862Y-74189123D02*
X84089917Y-74102797D01*
X84089917Y-74102797D02*
X84098621Y-73962269D01*
X84098621Y-73962269D02*
X84102653Y-73776713D01*
X84102653Y-73776713D02*
X84101694Y-73555298D01*
X84101694Y-73555298D02*
X84100782Y-73502706D01*
X84100782Y-73502706D02*
X84096199Y-73298834D01*
X84096199Y-73298834D02*
X84090740Y-73147755D01*
X84090740Y-73147755D02*
X84083108Y-73038762D01*
X84083108Y-73038762D02*
X84072005Y-72961149D01*
X84072005Y-72961149D02*
X84056131Y-72904210D01*
X84056131Y-72904210D02*
X84034190Y-72857238D01*
X84034190Y-72857238D02*
X84019523Y-72832508D01*
X84019523Y-72832508D02*
X83941765Y-72733174D01*
X83941765Y-72733174D02*
X83847504Y-72670351D01*
X83847504Y-72670351D02*
X83721797Y-72637511D01*
X83721797Y-72637511D02*
X83551665Y-72628125D01*
X83551665Y-72628125D02*
X83369209Y-72642000D01*
X83369209Y-72642000D02*
X83369209Y-72642000D01*
G36*
X83721797Y-72637511D02*
G01*
X83847504Y-72670351D01*
X83941765Y-72733174D01*
X84019523Y-72832508D01*
X84034190Y-72857238D01*
X84056131Y-72904210D01*
X84072005Y-72961149D01*
X84083108Y-73038762D01*
X84090740Y-73147755D01*
X84096199Y-73298834D01*
X84100782Y-73502706D01*
X84101694Y-73555298D01*
X84102653Y-73776713D01*
X84098621Y-73962269D01*
X84089917Y-74102797D01*
X84076862Y-74189123D01*
X84073017Y-74202756D01*
X84014162Y-74340460D01*
X83931856Y-74451653D01*
X83839428Y-74517882D01*
X83809891Y-74526549D01*
X83718774Y-74540563D01*
X83610324Y-74546987D01*
X83521578Y-74544046D01*
X83436410Y-74522560D01*
X83366923Y-74473607D01*
X83314624Y-74428795D01*
X83286005Y-74421419D01*
X83271108Y-74453531D01*
X83235219Y-74491062D01*
X83165645Y-74521072D01*
X83091539Y-74534413D01*
X83041945Y-74522360D01*
X83039338Y-74513212D01*
X83034170Y-74452324D01*
X83030018Y-74344756D01*
X83027254Y-74202040D01*
X83026250Y-74035708D01*
X83026250Y-73564750D01*
X83274959Y-73564750D01*
X83303784Y-73564854D01*
X83418321Y-73567516D01*
X83502344Y-73573039D01*
X83539361Y-73580444D01*
X83546329Y-73619406D01*
X83541050Y-73691569D01*
X83532910Y-73732687D01*
X83502637Y-73776707D01*
X83435397Y-73787000D01*
X83392599Y-73788641D01*
X83359074Y-73804425D01*
X83345985Y-73850816D01*
X83343750Y-73944256D01*
X83349195Y-74041197D01*
X83383786Y-74175887D01*
X83447186Y-74261287D01*
X83535793Y-74293527D01*
X83646004Y-74268740D01*
X83646468Y-74268528D01*
X83685412Y-74243193D01*
X83714576Y-74202390D01*
X83735035Y-74138130D01*
X83747867Y-74042421D01*
X83754147Y-73907272D01*
X83754953Y-73724691D01*
X83751361Y-73486689D01*
X83749723Y-73408806D01*
X83745015Y-73232442D01*
X83739100Y-73106382D01*
X83730761Y-73020930D01*
X83718776Y-72966391D01*
X83701927Y-72933070D01*
X83678995Y-72911270D01*
X83620483Y-72879206D01*
X83527349Y-72871701D01*
X83449231Y-72916644D01*
X83395494Y-73007098D01*
X83375500Y-73136125D01*
X83375500Y-73279000D01*
X83018934Y-73279000D01*
X83041739Y-73096470D01*
X83042004Y-73094361D01*
X83079006Y-72907420D01*
X83140677Y-72774487D01*
X83234812Y-72688400D01*
X83369209Y-72642000D01*
X83551665Y-72628125D01*
X83721797Y-72637511D01*
G37*
X83721797Y-72637511D02*
X83847504Y-72670351D01*
X83941765Y-72733174D01*
X84019523Y-72832508D01*
X84034190Y-72857238D01*
X84056131Y-72904210D01*
X84072005Y-72961149D01*
X84083108Y-73038762D01*
X84090740Y-73147755D01*
X84096199Y-73298834D01*
X84100782Y-73502706D01*
X84101694Y-73555298D01*
X84102653Y-73776713D01*
X84098621Y-73962269D01*
X84089917Y-74102797D01*
X84076862Y-74189123D01*
X84073017Y-74202756D01*
X84014162Y-74340460D01*
X83931856Y-74451653D01*
X83839428Y-74517882D01*
X83809891Y-74526549D01*
X83718774Y-74540563D01*
X83610324Y-74546987D01*
X83521578Y-74544046D01*
X83436410Y-74522560D01*
X83366923Y-74473607D01*
X83314624Y-74428795D01*
X83286005Y-74421419D01*
X83271108Y-74453531D01*
X83235219Y-74491062D01*
X83165645Y-74521072D01*
X83091539Y-74534413D01*
X83041945Y-74522360D01*
X83039338Y-74513212D01*
X83034170Y-74452324D01*
X83030018Y-74344756D01*
X83027254Y-74202040D01*
X83026250Y-74035708D01*
X83026250Y-73564750D01*
X83274959Y-73564750D01*
X83303784Y-73564854D01*
X83418321Y-73567516D01*
X83502344Y-73573039D01*
X83539361Y-73580444D01*
X83546329Y-73619406D01*
X83541050Y-73691569D01*
X83532910Y-73732687D01*
X83502637Y-73776707D01*
X83435397Y-73787000D01*
X83392599Y-73788641D01*
X83359074Y-73804425D01*
X83345985Y-73850816D01*
X83343750Y-73944256D01*
X83349195Y-74041197D01*
X83383786Y-74175887D01*
X83447186Y-74261287D01*
X83535793Y-74293527D01*
X83646004Y-74268740D01*
X83646468Y-74268528D01*
X83685412Y-74243193D01*
X83714576Y-74202390D01*
X83735035Y-74138130D01*
X83747867Y-74042421D01*
X83754147Y-73907272D01*
X83754953Y-73724691D01*
X83751361Y-73486689D01*
X83749723Y-73408806D01*
X83745015Y-73232442D01*
X83739100Y-73106382D01*
X83730761Y-73020930D01*
X83718776Y-72966391D01*
X83701927Y-72933070D01*
X83678995Y-72911270D01*
X83620483Y-72879206D01*
X83527349Y-72871701D01*
X83449231Y-72916644D01*
X83395494Y-73007098D01*
X83375500Y-73136125D01*
X83375500Y-73279000D01*
X83018934Y-73279000D01*
X83041739Y-73096470D01*
X83042004Y-73094361D01*
X83079006Y-72907420D01*
X83140677Y-72774487D01*
X83234812Y-72688400D01*
X83369209Y-72642000D01*
X83551665Y-72628125D01*
X83721797Y-72637511D01*
X85598000Y-72863348D02*
X85812313Y-72872736D01*
X85812313Y-72872736D02*
X86026625Y-72882125D01*
X86026625Y-72882125D02*
X86026625Y-73421875D01*
X86026625Y-73421875D02*
X85859938Y-73431471D01*
X85859938Y-73431471D02*
X85693250Y-73441068D01*
X85693250Y-73441068D02*
X85693250Y-73660000D01*
X85693250Y-73660000D02*
X86042500Y-73660000D01*
X86042500Y-73660000D02*
X86042500Y-74295000D01*
X86042500Y-74295000D02*
X85598000Y-74295000D01*
X85598000Y-74295000D02*
X85598000Y-74517250D01*
X85598000Y-74517250D02*
X85907563Y-74519895D01*
X85907563Y-74519895D02*
X86049371Y-74521840D01*
X86049371Y-74521840D02*
X86173622Y-74524868D01*
X86173622Y-74524868D02*
X86262183Y-74528476D01*
X86262183Y-74528476D02*
X86288576Y-74530465D01*
X86288576Y-74530465D02*
X86351359Y-74530537D01*
X86351359Y-74530537D02*
X86375889Y-74522528D01*
X86375889Y-74522528D02*
X86379913Y-74487949D01*
X86379913Y-74487949D02*
X86383561Y-74397898D01*
X86383561Y-74397898D02*
X86386699Y-74260403D01*
X86386699Y-74260403D02*
X86389192Y-74083491D01*
X86389192Y-74083491D02*
X86390907Y-73875189D01*
X86390907Y-73875189D02*
X86391708Y-73643526D01*
X86391708Y-73643526D02*
X86391750Y-73575333D01*
X86391750Y-73575333D02*
X86391750Y-72644000D01*
X86391750Y-72644000D02*
X85598000Y-72644000D01*
X85598000Y-72644000D02*
X85598000Y-72863348D01*
X85598000Y-72863348D02*
X85598000Y-72863348D01*
G36*
X86391750Y-73575333D02*
G01*
X86391708Y-73643526D01*
X86390907Y-73875189D01*
X86389192Y-74083491D01*
X86386699Y-74260403D01*
X86383561Y-74397898D01*
X86379913Y-74487949D01*
X86375889Y-74522528D01*
X86351359Y-74530537D01*
X86288576Y-74530465D01*
X86262183Y-74528476D01*
X86173622Y-74524868D01*
X86049371Y-74521840D01*
X85907563Y-74519895D01*
X85598000Y-74517250D01*
X85598000Y-74295000D01*
X86042500Y-74295000D01*
X86042500Y-73660000D01*
X85693250Y-73660000D01*
X85693250Y-73441068D01*
X85859938Y-73431471D01*
X86026625Y-73421875D01*
X86026625Y-72882125D01*
X85812313Y-72872736D01*
X85598000Y-72863348D01*
X85598000Y-72644000D01*
X86391750Y-72644000D01*
X86391750Y-73575333D01*
G37*
X86391750Y-73575333D02*
X86391708Y-73643526D01*
X86390907Y-73875189D01*
X86389192Y-74083491D01*
X86386699Y-74260403D01*
X86383561Y-74397898D01*
X86379913Y-74487949D01*
X86375889Y-74522528D01*
X86351359Y-74530537D01*
X86288576Y-74530465D01*
X86262183Y-74528476D01*
X86173622Y-74524868D01*
X86049371Y-74521840D01*
X85907563Y-74519895D01*
X85598000Y-74517250D01*
X85598000Y-74295000D01*
X86042500Y-74295000D01*
X86042500Y-73660000D01*
X85693250Y-73660000D01*
X85693250Y-73441068D01*
X85859938Y-73431471D01*
X86026625Y-73421875D01*
X86026625Y-72882125D01*
X85812313Y-72872736D01*
X85598000Y-72863348D01*
X85598000Y-72644000D01*
X86391750Y-72644000D01*
X86391750Y-73575333D01*
X80930923Y-75136337D02*
X80837060Y-75185412D01*
X80837060Y-75185412D02*
X80758961Y-75275391D01*
X80758961Y-75275391D02*
X80713716Y-75383693D01*
X80713716Y-75383693D02*
X80708619Y-75430062D01*
X80708619Y-75430062D02*
X80723810Y-75485046D01*
X80723810Y-75485046D02*
X80780568Y-75501415D01*
X80780568Y-75501415D02*
X80787875Y-75501500D01*
X80787875Y-75501500D02*
X80857643Y-75502207D01*
X80857643Y-75502207D02*
X80890600Y-75503436D01*
X80890600Y-75503436D02*
X80913740Y-75477707D01*
X80913740Y-75477707D02*
X80937936Y-75412706D01*
X80937936Y-75412706D02*
X80939132Y-75408186D01*
X80939132Y-75408186D02*
X80980492Y-75332548D01*
X80980492Y-75332548D02*
X81042303Y-75310409D01*
X81042303Y-75310409D02*
X81109706Y-75345856D01*
X81109706Y-75345856D02*
X81120908Y-75358212D01*
X81120908Y-75358212D02*
X81147479Y-75425074D01*
X81147479Y-75425074D02*
X81123976Y-75506341D01*
X81123976Y-75506341D02*
X81047975Y-75606664D01*
X81047975Y-75606664D02*
X80934613Y-75715396D01*
X80934613Y-75715396D02*
X80794811Y-75857467D01*
X80794811Y-75857467D02*
X80712171Y-75990774D01*
X80712171Y-75990774D02*
X80682662Y-76123514D01*
X80682662Y-76123514D02*
X80689966Y-76212866D01*
X80689966Y-76212866D02*
X80741920Y-76335804D01*
X80741920Y-76335804D02*
X80837587Y-76421896D01*
X80837587Y-76421896D02*
X80965068Y-76464951D01*
X80965068Y-76464951D02*
X81112467Y-76458783D01*
X81112467Y-76458783D02*
X81146272Y-76450238D01*
X81146272Y-76450238D02*
X81244659Y-76394100D01*
X81244659Y-76394100D02*
X81323036Y-76300778D01*
X81323036Y-76300778D02*
X81365515Y-76192752D01*
X81365515Y-76192752D02*
X81367967Y-76136500D01*
X81367967Y-76136500D02*
X81348752Y-76078584D01*
X81348752Y-76078584D02*
X81295044Y-76052537D01*
X81295044Y-76052537D02*
X81256188Y-76047175D01*
X81256188Y-76047175D02*
X81185088Y-76046369D01*
X81185088Y-76046369D02*
X81157101Y-76071184D01*
X81157101Y-76071184D02*
X81153000Y-76113692D01*
X81153000Y-76113692D02*
X81133579Y-76189333D01*
X81133579Y-76189333D02*
X81085927Y-76245570D01*
X81085927Y-76245570D02*
X81025962Y-76276003D01*
X81025962Y-76276003D02*
X80969601Y-76274236D01*
X80969601Y-76274236D02*
X80932763Y-76233870D01*
X80932763Y-76233870D02*
X80926989Y-76204540D01*
X80926989Y-76204540D02*
X80927471Y-76142058D01*
X80927471Y-76142058D02*
X80944004Y-76084813D01*
X80944004Y-76084813D02*
X80984233Y-76020307D01*
X80984233Y-76020307D02*
X81055803Y-75936043D01*
X81055803Y-75936043D02*
X81155904Y-75830321D01*
X81155904Y-75830321D02*
X81256995Y-75723775D01*
X81256995Y-75723775D02*
X81321154Y-75647787D01*
X81321154Y-75647787D02*
X81356702Y-75588367D01*
X81356702Y-75588367D02*
X81371960Y-75531528D01*
X81371960Y-75531528D02*
X81375250Y-75463278D01*
X81375250Y-75463278D02*
X81375250Y-75461540D01*
X81375250Y-75461540D02*
X81349534Y-75313946D01*
X81349534Y-75313946D02*
X81276871Y-75205204D01*
X81276871Y-75205204D02*
X81163995Y-75140243D01*
X81163995Y-75140243D02*
X81017638Y-75123989D01*
X81017638Y-75123989D02*
X80930923Y-75136337D01*
X80930923Y-75136337D02*
X80930923Y-75136337D01*
G36*
X81163995Y-75140243D02*
G01*
X81276871Y-75205204D01*
X81349534Y-75313946D01*
X81375250Y-75461540D01*
X81375250Y-75463278D01*
X81371960Y-75531528D01*
X81356702Y-75588367D01*
X81321154Y-75647787D01*
X81256995Y-75723775D01*
X81155904Y-75830321D01*
X81055803Y-75936043D01*
X80984233Y-76020307D01*
X80944004Y-76084813D01*
X80927471Y-76142058D01*
X80926989Y-76204540D01*
X80932763Y-76233870D01*
X80969601Y-76274236D01*
X81025962Y-76276003D01*
X81085927Y-76245570D01*
X81133579Y-76189333D01*
X81153000Y-76113692D01*
X81157101Y-76071184D01*
X81185088Y-76046369D01*
X81256188Y-76047175D01*
X81295044Y-76052537D01*
X81348752Y-76078584D01*
X81367967Y-76136500D01*
X81365515Y-76192752D01*
X81323036Y-76300778D01*
X81244659Y-76394100D01*
X81146272Y-76450238D01*
X81112467Y-76458783D01*
X80965068Y-76464951D01*
X80837587Y-76421896D01*
X80741920Y-76335804D01*
X80689966Y-76212866D01*
X80682662Y-76123514D01*
X80712171Y-75990774D01*
X80794811Y-75857467D01*
X80934613Y-75715396D01*
X81047975Y-75606664D01*
X81123976Y-75506341D01*
X81147479Y-75425074D01*
X81120908Y-75358212D01*
X81109706Y-75345856D01*
X81042303Y-75310409D01*
X80980492Y-75332548D01*
X80939132Y-75408186D01*
X80937936Y-75412706D01*
X80913740Y-75477707D01*
X80890600Y-75503436D01*
X80857643Y-75502207D01*
X80787875Y-75501500D01*
X80780568Y-75501415D01*
X80723810Y-75485046D01*
X80708619Y-75430062D01*
X80713716Y-75383693D01*
X80758961Y-75275391D01*
X80837060Y-75185412D01*
X80930923Y-75136337D01*
X81017638Y-75123989D01*
X81163995Y-75140243D01*
G37*
X81163995Y-75140243D02*
X81276871Y-75205204D01*
X81349534Y-75313946D01*
X81375250Y-75461540D01*
X81375250Y-75463278D01*
X81371960Y-75531528D01*
X81356702Y-75588367D01*
X81321154Y-75647787D01*
X81256995Y-75723775D01*
X81155904Y-75830321D01*
X81055803Y-75936043D01*
X80984233Y-76020307D01*
X80944004Y-76084813D01*
X80927471Y-76142058D01*
X80926989Y-76204540D01*
X80932763Y-76233870D01*
X80969601Y-76274236D01*
X81025962Y-76276003D01*
X81085927Y-76245570D01*
X81133579Y-76189333D01*
X81153000Y-76113692D01*
X81157101Y-76071184D01*
X81185088Y-76046369D01*
X81256188Y-76047175D01*
X81295044Y-76052537D01*
X81348752Y-76078584D01*
X81367967Y-76136500D01*
X81365515Y-76192752D01*
X81323036Y-76300778D01*
X81244659Y-76394100D01*
X81146272Y-76450238D01*
X81112467Y-76458783D01*
X80965068Y-76464951D01*
X80837587Y-76421896D01*
X80741920Y-76335804D01*
X80689966Y-76212866D01*
X80682662Y-76123514D01*
X80712171Y-75990774D01*
X80794811Y-75857467D01*
X80934613Y-75715396D01*
X81047975Y-75606664D01*
X81123976Y-75506341D01*
X81147479Y-75425074D01*
X81120908Y-75358212D01*
X81109706Y-75345856D01*
X81042303Y-75310409D01*
X80980492Y-75332548D01*
X80939132Y-75408186D01*
X80937936Y-75412706D01*
X80913740Y-75477707D01*
X80890600Y-75503436D01*
X80857643Y-75502207D01*
X80787875Y-75501500D01*
X80780568Y-75501415D01*
X80723810Y-75485046D01*
X80708619Y-75430062D01*
X80713716Y-75383693D01*
X80758961Y-75275391D01*
X80837060Y-75185412D01*
X80930923Y-75136337D01*
X81017638Y-75123989D01*
X81163995Y-75140243D01*
X84556878Y-75149713D02*
X84454954Y-75220415D01*
X84454954Y-75220415D02*
X84391888Y-75325702D01*
X84391888Y-75325702D02*
X84369324Y-75420091D01*
X84369324Y-75420091D02*
X84385599Y-75473809D01*
X84385599Y-75473809D02*
X84448263Y-75501440D01*
X84448263Y-75501440D02*
X84486362Y-75508215D01*
X84486362Y-75508215D02*
X84553884Y-75511251D01*
X84553884Y-75511251D02*
X84579243Y-75485230D01*
X84579243Y-75485230D02*
X84582000Y-75452263D01*
X84582000Y-75452263D02*
X84603335Y-75373421D01*
X84603335Y-75373421D02*
X84655416Y-75326096D01*
X84655416Y-75326096D02*
X84720361Y-75324307D01*
X84720361Y-75324307D02*
X84735474Y-75331958D01*
X84735474Y-75331958D02*
X84789891Y-75384408D01*
X84789891Y-75384408D02*
X84797792Y-75449340D01*
X84797792Y-75449340D02*
X84757031Y-75532812D01*
X84757031Y-75532812D02*
X84665466Y-75640883D01*
X84665466Y-75640883D02*
X84604660Y-75701521D01*
X84604660Y-75701521D02*
X84456509Y-75867014D01*
X84456509Y-75867014D02*
X84366808Y-76020685D01*
X84366808Y-76020685D02*
X84335915Y-76160409D01*
X84335915Y-76160409D02*
X84364182Y-76284063D01*
X84364182Y-76284063D02*
X84451966Y-76389521D01*
X84451966Y-76389521D02*
X84485491Y-76414312D01*
X84485491Y-76414312D02*
X84570049Y-76463389D01*
X84570049Y-76463389D02*
X84644731Y-76479599D01*
X84644731Y-76479599D02*
X84737237Y-76466209D01*
X84737237Y-76466209D02*
X84794316Y-76450746D01*
X84794316Y-76450746D02*
X84888094Y-76403516D01*
X84888094Y-76403516D02*
X84961003Y-76338203D01*
X84961003Y-76338203D02*
X85004630Y-76257577D01*
X85004630Y-76257577D02*
X85024469Y-76169515D01*
X85024469Y-76169515D02*
X85018545Y-76095506D01*
X85018545Y-76095506D02*
X84986813Y-76057636D01*
X84986813Y-76057636D02*
X84897513Y-76036640D01*
X84897513Y-76036640D02*
X84836410Y-76039418D01*
X84836410Y-76039418D02*
X84819625Y-76057125D01*
X84819625Y-76057125D02*
X84797440Y-76169664D01*
X84797440Y-76169664D02*
X84752273Y-76247802D01*
X84752273Y-76247802D02*
X84693169Y-76282075D01*
X84693169Y-76282075D02*
X84629172Y-76263017D01*
X84629172Y-76263017D02*
X84625601Y-76260160D01*
X84625601Y-76260160D02*
X84582727Y-76200761D01*
X84582727Y-76200761D02*
X84585479Y-76126653D01*
X84585479Y-76126653D02*
X84636206Y-76032369D01*
X84636206Y-76032369D02*
X84737257Y-75912439D01*
X84737257Y-75912439D02*
X84804250Y-75844232D01*
X84804250Y-75844232D02*
X84905983Y-75742880D01*
X84905983Y-75742880D02*
X84970686Y-75671253D01*
X84970686Y-75671253D02*
X85006738Y-75614684D01*
X85006738Y-75614684D02*
X85022517Y-75558509D01*
X85022517Y-75558509D02*
X85026401Y-75488063D01*
X85026401Y-75488063D02*
X85026500Y-75455187D01*
X85026500Y-75455187D02*
X85022049Y-75349742D01*
X85022049Y-75349742D02*
X85002181Y-75282286D01*
X85002181Y-75282286D02*
X84957121Y-75227559D01*
X84957121Y-75227559D02*
X84928814Y-75202697D01*
X84928814Y-75202697D02*
X84809831Y-75137183D01*
X84809831Y-75137183D02*
X84680511Y-75120745D01*
X84680511Y-75120745D02*
X84556878Y-75149713D01*
X84556878Y-75149713D02*
X84556878Y-75149713D01*
G36*
X84809831Y-75137183D02*
G01*
X84928814Y-75202697D01*
X84957121Y-75227559D01*
X85002181Y-75282286D01*
X85022049Y-75349742D01*
X85026500Y-75455187D01*
X85026401Y-75488063D01*
X85022517Y-75558509D01*
X85006738Y-75614684D01*
X84970686Y-75671253D01*
X84905983Y-75742880D01*
X84804250Y-75844232D01*
X84737257Y-75912439D01*
X84636206Y-76032369D01*
X84585479Y-76126653D01*
X84582727Y-76200761D01*
X84625601Y-76260160D01*
X84629172Y-76263017D01*
X84693169Y-76282075D01*
X84752273Y-76247802D01*
X84797440Y-76169664D01*
X84819625Y-76057125D01*
X84836410Y-76039418D01*
X84897513Y-76036640D01*
X84986813Y-76057636D01*
X85018545Y-76095506D01*
X85024469Y-76169515D01*
X85004630Y-76257577D01*
X84961003Y-76338203D01*
X84888094Y-76403516D01*
X84794316Y-76450746D01*
X84737237Y-76466209D01*
X84644731Y-76479599D01*
X84570049Y-76463389D01*
X84485491Y-76414312D01*
X84451966Y-76389521D01*
X84364182Y-76284063D01*
X84335915Y-76160409D01*
X84366808Y-76020685D01*
X84456509Y-75867014D01*
X84604660Y-75701521D01*
X84665466Y-75640883D01*
X84757031Y-75532812D01*
X84797792Y-75449340D01*
X84789891Y-75384408D01*
X84735474Y-75331958D01*
X84720361Y-75324307D01*
X84655416Y-75326096D01*
X84603335Y-75373421D01*
X84582000Y-75452263D01*
X84579243Y-75485230D01*
X84553884Y-75511251D01*
X84486362Y-75508215D01*
X84448263Y-75501440D01*
X84385599Y-75473809D01*
X84369324Y-75420091D01*
X84391888Y-75325702D01*
X84454954Y-75220415D01*
X84556878Y-75149713D01*
X84680511Y-75120745D01*
X84809831Y-75137183D01*
G37*
X84809831Y-75137183D02*
X84928814Y-75202697D01*
X84957121Y-75227559D01*
X85002181Y-75282286D01*
X85022049Y-75349742D01*
X85026500Y-75455187D01*
X85026401Y-75488063D01*
X85022517Y-75558509D01*
X85006738Y-75614684D01*
X84970686Y-75671253D01*
X84905983Y-75742880D01*
X84804250Y-75844232D01*
X84737257Y-75912439D01*
X84636206Y-76032369D01*
X84585479Y-76126653D01*
X84582727Y-76200761D01*
X84625601Y-76260160D01*
X84629172Y-76263017D01*
X84693169Y-76282075D01*
X84752273Y-76247802D01*
X84797440Y-76169664D01*
X84819625Y-76057125D01*
X84836410Y-76039418D01*
X84897513Y-76036640D01*
X84986813Y-76057636D01*
X85018545Y-76095506D01*
X85024469Y-76169515D01*
X85004630Y-76257577D01*
X84961003Y-76338203D01*
X84888094Y-76403516D01*
X84794316Y-76450746D01*
X84737237Y-76466209D01*
X84644731Y-76479599D01*
X84570049Y-76463389D01*
X84485491Y-76414312D01*
X84451966Y-76389521D01*
X84364182Y-76284063D01*
X84335915Y-76160409D01*
X84366808Y-76020685D01*
X84456509Y-75867014D01*
X84604660Y-75701521D01*
X84665466Y-75640883D01*
X84757031Y-75532812D01*
X84797792Y-75449340D01*
X84789891Y-75384408D01*
X84735474Y-75331958D01*
X84720361Y-75324307D01*
X84655416Y-75326096D01*
X84603335Y-75373421D01*
X84582000Y-75452263D01*
X84579243Y-75485230D01*
X84553884Y-75511251D01*
X84486362Y-75508215D01*
X84448263Y-75501440D01*
X84385599Y-75473809D01*
X84369324Y-75420091D01*
X84391888Y-75325702D01*
X84454954Y-75220415D01*
X84556878Y-75149713D01*
X84680511Y-75120745D01*
X84809831Y-75137183D01*
X81657204Y-75146645D02*
X81576859Y-75151403D01*
X81576859Y-75151403D02*
X81533917Y-75164100D01*
X81533917Y-75164100D02*
X81515329Y-75188577D01*
X81515329Y-75188577D02*
X81508079Y-75228402D01*
X81508079Y-75228402D02*
X81506179Y-75277050D01*
X81506179Y-75277050D02*
X81526043Y-75301491D01*
X81526043Y-75301491D02*
X81582838Y-75310031D01*
X81582838Y-75310031D02*
X81658892Y-75311000D01*
X81658892Y-75311000D02*
X81819750Y-75311000D01*
X81819750Y-75311000D02*
X81819750Y-75692000D01*
X81819750Y-75692000D02*
X81692750Y-75692000D01*
X81692750Y-75692000D02*
X81610927Y-75696332D01*
X81610927Y-75696332D02*
X81574559Y-75716767D01*
X81574559Y-75716767D02*
X81565796Y-75764462D01*
X81565796Y-75764462D02*
X81565750Y-75771375D01*
X81565750Y-75771375D02*
X81572682Y-75822514D01*
X81572682Y-75822514D02*
X81605379Y-75845244D01*
X81605379Y-75845244D02*
X81681691Y-75850721D01*
X81681691Y-75850721D02*
X81692750Y-75850750D01*
X81692750Y-75850750D02*
X81819750Y-75850750D01*
X81819750Y-75850750D02*
X81819750Y-76295250D01*
X81819750Y-76295250D02*
X81661000Y-76295250D01*
X81661000Y-76295250D02*
X81566784Y-76297823D01*
X81566784Y-76297823D02*
X81519782Y-76310956D01*
X81519782Y-76310956D02*
X81503754Y-76342769D01*
X81503754Y-76342769D02*
X81502250Y-76374625D01*
X81502250Y-76374625D02*
X81504518Y-76412166D01*
X81504518Y-76412166D02*
X81519458Y-76435490D01*
X81519458Y-76435490D02*
X81559276Y-76447981D01*
X81559276Y-76447981D02*
X81636178Y-76453022D01*
X81636178Y-76453022D02*
X81762370Y-76453995D01*
X81762370Y-76453995D02*
X81788645Y-76454000D01*
X81788645Y-76454000D02*
X82075039Y-76454000D01*
X82075039Y-76454000D02*
X82057875Y-75146162D01*
X82057875Y-75146162D02*
X81788000Y-75145983D01*
X81788000Y-75145983D02*
X81657204Y-75146645D01*
X81657204Y-75146645D02*
X81657204Y-75146645D01*
G36*
X82057875Y-75146162D02*
G01*
X82075039Y-76454000D01*
X81788645Y-76454000D01*
X81762370Y-76453995D01*
X81636178Y-76453022D01*
X81559276Y-76447981D01*
X81519458Y-76435490D01*
X81504518Y-76412166D01*
X81502250Y-76374625D01*
X81503754Y-76342769D01*
X81519782Y-76310956D01*
X81566784Y-76297823D01*
X81661000Y-76295250D01*
X81819750Y-76295250D01*
X81819750Y-75850750D01*
X81692750Y-75850750D01*
X81681691Y-75850721D01*
X81605379Y-75845244D01*
X81572682Y-75822514D01*
X81565750Y-75771375D01*
X81565796Y-75764462D01*
X81574559Y-75716767D01*
X81610927Y-75696332D01*
X81692750Y-75692000D01*
X81819750Y-75692000D01*
X81819750Y-75311000D01*
X81658892Y-75311000D01*
X81582838Y-75310031D01*
X81526043Y-75301491D01*
X81506179Y-75277050D01*
X81508079Y-75228402D01*
X81515329Y-75188577D01*
X81533917Y-75164100D01*
X81576859Y-75151403D01*
X81657204Y-75146645D01*
X81788000Y-75145983D01*
X82057875Y-75146162D01*
G37*
X82057875Y-75146162D02*
X82075039Y-76454000D01*
X81788645Y-76454000D01*
X81762370Y-76453995D01*
X81636178Y-76453022D01*
X81559276Y-76447981D01*
X81519458Y-76435490D01*
X81504518Y-76412166D01*
X81502250Y-76374625D01*
X81503754Y-76342769D01*
X81519782Y-76310956D01*
X81566784Y-76297823D01*
X81661000Y-76295250D01*
X81819750Y-76295250D01*
X81819750Y-75850750D01*
X81692750Y-75850750D01*
X81681691Y-75850721D01*
X81605379Y-75845244D01*
X81572682Y-75822514D01*
X81565750Y-75771375D01*
X81565796Y-75764462D01*
X81574559Y-75716767D01*
X81610927Y-75696332D01*
X81692750Y-75692000D01*
X81819750Y-75692000D01*
X81819750Y-75311000D01*
X81658892Y-75311000D01*
X81582838Y-75310031D01*
X81526043Y-75301491D01*
X81506179Y-75277050D01*
X81508079Y-75228402D01*
X81515329Y-75188577D01*
X81533917Y-75164100D01*
X81576859Y-75151403D01*
X81657204Y-75146645D01*
X81788000Y-75145983D01*
X82057875Y-75146162D01*
D12*
%TO.C,U1*%
X54682500Y-79248000D02*
X54682500Y-74930000D01*
X52142500Y-74930000D02*
X54682500Y-74930000D01*
X52142500Y-74930000D02*
X52142500Y-79248000D01*
X52142500Y-79248000D02*
X54682500Y-79248000D01*
X54682500Y-79248000D02*
X54682500Y-78232000D01*
X54682500Y-78232000D02*
X52142500Y-78232000D01*
X52142500Y-78232000D02*
X52142500Y-79248000D01*
G36*
X52142500Y-79248000D02*
G01*
X54682500Y-79248000D01*
X54682500Y-78232000D01*
X52142500Y-78232000D01*
X52142500Y-79248000D01*
G37*
D13*
X49505500Y-79883000D02*
G75*
G03*
X49505500Y-79883000I-157000J0D01*
G01*
D12*
%TO.C,R9*%
X33239064Y-62124000D02*
X31784936Y-62124000D01*
X33239064Y-60304000D02*
X31784936Y-60304000D01*
%TO.C,R2*%
X66442000Y-76006936D02*
X66442000Y-77461064D01*
X64622000Y-76006936D02*
X64622000Y-77461064D01*
%TO.C,C3*%
X54139564Y-71480000D02*
X52685436Y-71480000D01*
X54139564Y-73300000D02*
X52685436Y-73300000D01*
%TO.C,BT1*%
X77726807Y-47730023D02*
X79020902Y-52559652D01*
X81558258Y-62801934D02*
X76183998Y-69211288D01*
X77292141Y-47846492D02*
X70820438Y-49580579D01*
X56476439Y-53424042D02*
X57770534Y-58253671D01*
X56911106Y-53307574D02*
X56476439Y-53424042D01*
X76183998Y-69211288D02*
X68553184Y-71255958D01*
X56911106Y-53307574D02*
X63382809Y-51573486D01*
X81609093Y-62218911D02*
X81350274Y-61252985D01*
X60742557Y-68379484D02*
X60358725Y-67912930D01*
X77292141Y-47846492D02*
X77726807Y-47730023D01*
X68553184Y-71255958D02*
X60742557Y-68379484D01*
X81558258Y-62801934D02*
X81609093Y-62218911D01*
X60358725Y-67912930D02*
X60099906Y-66947004D01*
X70816567Y-49580101D02*
G75*
G03*
X63382809Y-51573486I-1256165J-10173220D01*
G01*
%TO.C,C2*%
X54393564Y-80370000D02*
X52939436Y-80370000D01*
X54393564Y-82190000D02*
X52939436Y-82190000D01*
%TO.C,R11*%
X49749064Y-58060000D02*
X48294936Y-58060000D01*
X49749064Y-56240000D02*
X48294936Y-56240000D01*
%TO.C,R12*%
X35525064Y-83714000D02*
X34070936Y-83714000D01*
X35525064Y-81894000D02*
X34070936Y-81894000D01*
%TO.C,R10*%
X33562936Y-69702000D02*
X35017064Y-69702000D01*
X33562936Y-71522000D02*
X35017064Y-71522000D01*
%TO.C,C1*%
X68432000Y-77409064D02*
X68432000Y-75954936D01*
X70252000Y-77409064D02*
X70252000Y-75954936D01*
%TO.C,R3*%
X109439064Y-44344000D02*
X107984936Y-44344000D01*
X109439064Y-42524000D02*
X107984936Y-42524000D01*
%TD*%
M02*
