%TF.GenerationSoftware,KiCad,Pcbnew,(6.0.1)*%
%TF.CreationDate,2022-05-04T14:42:35-07:00*%
%TF.ProjectId,Foxy_Pride,466f7879-5f50-4726-9964-652e6b696361,rev?*%
%TF.SameCoordinates,Original*%
%TF.FileFunction,Soldermask,Bot*%
%TF.FilePolarity,Negative*%
%FSLAX46Y46*%
G04 Gerber Fmt 4.6, Leading zero omitted, Abs format (unit mm)*
G04 Created by KiCad (PCBNEW (6.0.1)) date 2022-05-04 14:42:35*
%MOMM*%
%LPD*%
G01*
G04 APERTURE LIST*
G04 Aperture macros list*
%AMRoundRect*
0 Rectangle with rounded corners*
0 $1 Rounding radius*
0 $2 $3 $4 $5 $6 $7 $8 $9 X,Y pos of 4 corners*
0 Add a 4 corners polygon primitive as box body*
4,1,4,$2,$3,$4,$5,$6,$7,$8,$9,$2,$3,0*
0 Add four circle primitives for the rounded corners*
1,1,$1+$1,$2,$3*
1,1,$1+$1,$4,$5*
1,1,$1+$1,$6,$7*
1,1,$1+$1,$8,$9*
0 Add four rect primitives between the rounded corners*
20,1,$1+$1,$2,$3,$4,$5,0*
20,1,$1+$1,$4,$5,$6,$7,0*
20,1,$1+$1,$6,$7,$8,$9,0*
20,1,$1+$1,$8,$9,$2,$3,0*%
%AMRotRect*
0 Rectangle, with rotation*
0 The origin of the aperture is its center*
0 $1 length*
0 $2 width*
0 $3 Rotation angle, in degrees counterclockwise*
0 Add horizontal line*
21,1,$1,$2,0,0,$3*%
G04 Aperture macros list end*
%ADD10RoundRect,0.250000X0.625000X-0.400000X0.625000X0.400000X-0.625000X0.400000X-0.625000X-0.400000X0*%
%ADD11RoundRect,0.250000X0.400000X0.625000X-0.400000X0.625000X-0.400000X-0.625000X0.400000X-0.625000X0*%
%ADD12RoundRect,0.150000X-0.866000X-0.150000X0.866000X-0.150000X0.866000X0.150000X-0.866000X0.150000X0*%
%ADD13RotRect,1.500000X1.000000X215.000000*%
%ADD14C,0.750000*%
%ADD15RotRect,0.900000X2.000000X215.000000*%
%ADD16RoundRect,0.250000X-0.625000X0.400000X-0.625000X-0.400000X0.625000X-0.400000X0.625000X0.400000X0*%
%ADD17RotRect,2.540000X7.620000X195.000000*%
%ADD18C,17.800000*%
%ADD19RoundRect,0.250000X-0.400000X-0.625000X0.400000X-0.625000X0.400000X0.625000X-0.400000X0.625000X0*%
G04 APERTURE END LIST*
%TO.C,G\u002A\u002A\u002A*%
G36*
X71977569Y-89052115D02*
G01*
X72204177Y-88411494D01*
X72419341Y-87880670D01*
X72611041Y-87487780D01*
X72718227Y-87318555D01*
X73103345Y-86931466D01*
X73579705Y-86641994D01*
X74103379Y-86461958D01*
X74630439Y-86403175D01*
X75116959Y-86477463D01*
X75387164Y-86600545D01*
X75502918Y-86678488D01*
X75600745Y-86769347D01*
X75687132Y-86893914D01*
X75768568Y-87072983D01*
X75851541Y-87327347D01*
X75942540Y-87677801D01*
X76048054Y-88145136D01*
X76174570Y-88750147D01*
X76328578Y-89513628D01*
X76386164Y-89802015D01*
X76508114Y-90218724D01*
X76714201Y-90727311D01*
X76974724Y-91268091D01*
X77259981Y-91781380D01*
X77540271Y-92207493D01*
X77656157Y-92354072D01*
X78001630Y-92757104D01*
X77785828Y-93112281D01*
X76974555Y-94267263D01*
X76008639Y-95315701D01*
X74887116Y-96258349D01*
X73609019Y-97095963D01*
X72173382Y-97829296D01*
X71258669Y-98210809D01*
X70747229Y-98391087D01*
X70145354Y-98575611D01*
X69490209Y-98755728D01*
X68818958Y-98922785D01*
X68168768Y-99068130D01*
X67576803Y-99183110D01*
X67080229Y-99259072D01*
X66716210Y-99287363D01*
X66642558Y-99285530D01*
X66478880Y-99269299D01*
X66176782Y-99234220D01*
X65785776Y-99186165D01*
X65517201Y-99152017D01*
X64762442Y-99034380D01*
X63947093Y-98871549D01*
X63101199Y-98672617D01*
X62254802Y-98446674D01*
X61437949Y-98202813D01*
X60680684Y-97950124D01*
X60013050Y-97697700D01*
X59465093Y-97454632D01*
X59066856Y-97230012D01*
X58994919Y-97178346D01*
X58574449Y-96874520D01*
X58230358Y-96675536D01*
X57905140Y-96552056D01*
X57653706Y-96494046D01*
X57187860Y-96381416D01*
X56670993Y-96215766D01*
X56173908Y-96022977D01*
X55767409Y-95828930D01*
X55658297Y-95764653D01*
X55050059Y-95306962D01*
X54430550Y-94699004D01*
X53794636Y-93933949D01*
X53137183Y-93004971D01*
X52453057Y-91905243D01*
X52042967Y-91173596D01*
X60642429Y-91173596D01*
X60712505Y-91317623D01*
X60893079Y-91528225D01*
X61139672Y-91762840D01*
X61407803Y-91978900D01*
X61637578Y-92125912D01*
X62020694Y-92245260D01*
X62487168Y-92274679D01*
X62954205Y-92215467D01*
X63282582Y-92100131D01*
X63624565Y-91895667D01*
X63803350Y-91729780D01*
X63824596Y-91622551D01*
X63693964Y-91594064D01*
X63417116Y-91664399D01*
X63186895Y-91760657D01*
X62653580Y-91947262D01*
X62184122Y-91967200D01*
X61747519Y-91814487D01*
X61312772Y-91483143D01*
X61207538Y-91378723D01*
X60953021Y-91152872D01*
X60762328Y-91056887D01*
X60656702Y-91098481D01*
X60642429Y-91173596D01*
X52042967Y-91173596D01*
X51737123Y-90627935D01*
X51595418Y-90361465D01*
X51361311Y-89906898D01*
X51112857Y-89405951D01*
X50863240Y-88887408D01*
X50625647Y-88380053D01*
X50413262Y-87912670D01*
X50239271Y-87514044D01*
X50116860Y-87212959D01*
X50059212Y-87038200D01*
X50058881Y-87007100D01*
X50156252Y-87020284D01*
X50379381Y-87084300D01*
X50624185Y-87166045D01*
X51132089Y-87305531D01*
X51656926Y-87365061D01*
X52218962Y-87339980D01*
X52838460Y-87225631D01*
X53535683Y-87017360D01*
X54330895Y-86710510D01*
X55244359Y-86300427D01*
X56003691Y-85930107D01*
X56603155Y-85633363D01*
X57191012Y-85348298D01*
X57730579Y-85092260D01*
X58185174Y-84882595D01*
X58518112Y-84736650D01*
X58586167Y-84708920D01*
X59708609Y-84326321D01*
X60735222Y-84105836D01*
X61668184Y-84047332D01*
X62509673Y-84150676D01*
X63261867Y-84415732D01*
X63271602Y-84420506D01*
X63955977Y-84851601D01*
X64634691Y-85464786D01*
X65303203Y-86252600D01*
X65956973Y-87207584D01*
X66591460Y-88322278D01*
X67202121Y-89589222D01*
X67784416Y-91000957D01*
X68333803Y-92550023D01*
X68461773Y-92946189D01*
X68634921Y-93485583D01*
X68794311Y-93969902D01*
X68929063Y-94367031D01*
X69028294Y-94644857D01*
X69078864Y-94767483D01*
X69106820Y-94922224D01*
X68996609Y-95100320D01*
X68934178Y-95165973D01*
X68775860Y-95347915D01*
X68699623Y-95481951D01*
X68698399Y-95492411D01*
X68773683Y-95623930D01*
X68966480Y-95805933D01*
X69227204Y-95999412D01*
X69506271Y-96165358D01*
X69623512Y-96220194D01*
X69802101Y-96286464D01*
X69951035Y-96300797D01*
X70124515Y-96251566D01*
X70376741Y-96127144D01*
X70583526Y-96014263D01*
X71146178Y-95684729D01*
X71537901Y-95405935D01*
X71766801Y-95166362D01*
X71840983Y-94954488D01*
X71768555Y-94758792D01*
X71586723Y-94588436D01*
X71347434Y-94414126D01*
X71479793Y-91511441D01*
X73917026Y-91511441D01*
X73942308Y-91658759D01*
X74095384Y-91817104D01*
X74379152Y-91922946D01*
X74740386Y-91969652D01*
X75125859Y-91950587D01*
X75482345Y-91859120D01*
X75498161Y-91852649D01*
X75863767Y-91662488D01*
X76103007Y-91458905D01*
X76185712Y-91272918D01*
X76132575Y-91158795D01*
X75970024Y-91189800D01*
X75693352Y-91366991D01*
X75662513Y-91390281D01*
X75262466Y-91583857D01*
X74787787Y-91637553D01*
X74297891Y-91545512D01*
X74253352Y-91529217D01*
X74013815Y-91463571D01*
X73917026Y-91511441D01*
X71479793Y-91511441D01*
X71530700Y-90395026D01*
X71977569Y-89052115D01*
G37*
%TD*%
D10*
%TO.C,R1*%
X61722000Y-78258000D03*
X61722000Y-75158000D03*
%TD*%
D11*
%TO.C,R4*%
X97054000Y-44450000D03*
X93954000Y-44450000D03*
%TD*%
%TO.C,R8*%
X100864000Y-65024000D03*
X97764000Y-65024000D03*
%TD*%
%TO.C,C4*%
X43968000Y-80264000D03*
X40868000Y-80264000D03*
%TD*%
%TO.C,R5*%
X109246000Y-56896000D03*
X106146000Y-56896000D03*
%TD*%
D12*
%TO.C,U2*%
X39761500Y-77639500D03*
X39761500Y-76369500D03*
X39761500Y-75099500D03*
X39761500Y-73829500D03*
X39761500Y-72559500D03*
X39761500Y-71289500D03*
X39761500Y-70019500D03*
X39761500Y-68749500D03*
X44711500Y-68749500D03*
X44711500Y-70019500D03*
X44711500Y-71289500D03*
X44711500Y-72559500D03*
X44711500Y-73829500D03*
X44711500Y-75099500D03*
X44711500Y-76369500D03*
X44711500Y-77639500D03*
%TD*%
D11*
%TO.C,R7*%
X89434000Y-48260000D03*
X86334000Y-48260000D03*
%TD*%
D13*
%TO.C,S1*%
X98459468Y-85917989D03*
X91906242Y-90506601D03*
X90713204Y-88802770D03*
X97312302Y-84279689D03*
D14*
X95855208Y-86557356D03*
X93397752Y-88278085D03*
D15*
X95133135Y-84218551D03*
X92634725Y-85967957D03*
X91446955Y-86799643D03*
%TD*%
D11*
%TO.C,R6*%
X100610000Y-55118000D03*
X97510000Y-55118000D03*
%TD*%
D12*
%TO.C,U1*%
X50937500Y-78867000D03*
X50937500Y-77597000D03*
X50937500Y-76327000D03*
X50937500Y-75057000D03*
X55887500Y-75057000D03*
X55887500Y-76327000D03*
X55887500Y-77597000D03*
X55887500Y-78867000D03*
%TD*%
D11*
%TO.C,R9*%
X34062000Y-61214000D03*
X30962000Y-61214000D03*
%TD*%
D16*
%TO.C,R2*%
X65532000Y-75184000D03*
X65532000Y-78284000D03*
%TD*%
D11*
%TO.C,C3*%
X54962500Y-72390000D03*
X51862500Y-72390000D03*
%TD*%
D17*
%TO.C,BT1*%
X80571958Y-56802791D03*
X58548850Y-62703865D03*
D18*
X69560404Y-59753328D03*
%TD*%
D11*
%TO.C,C2*%
X55216500Y-81280000D03*
X52116500Y-81280000D03*
%TD*%
%TO.C,R11*%
X50572000Y-57150000D03*
X47472000Y-57150000D03*
%TD*%
%TO.C,R12*%
X36348000Y-82804000D03*
X33248000Y-82804000D03*
%TD*%
D19*
%TO.C,R10*%
X32740000Y-70612000D03*
X35840000Y-70612000D03*
%TD*%
D10*
%TO.C,C1*%
X69342000Y-78232000D03*
X69342000Y-75132000D03*
%TD*%
D11*
%TO.C,R3*%
X110262000Y-43434000D03*
X107162000Y-43434000D03*
%TD*%
M02*
