%TF.GenerationSoftware,KiCad,Pcbnew,(6.0.4)*%
%TF.CreationDate,2022-06-03T16:22:06-07:00*%
%TF.ProjectId,Foxy_Pride,466f7879-5f50-4726-9964-652e6b696361,rev?*%
%TF.SameCoordinates,Original*%
%TF.FileFunction,Paste,Bot*%
%TF.FilePolarity,Positive*%
%FSLAX46Y46*%
G04 Gerber Fmt 4.6, Leading zero omitted, Abs format (unit mm)*
G04 Created by KiCad (PCBNEW (6.0.4)) date 2022-06-03 16:22:06*
%MOMM*%
%LPD*%
G01*
G04 APERTURE LIST*
G04 Aperture macros list*
%AMRoundRect*
0 Rectangle with rounded corners*
0 $1 Rounding radius*
0 $2 $3 $4 $5 $6 $7 $8 $9 X,Y pos of 4 corners*
0 Add a 4 corners polygon primitive as box body*
4,1,4,$2,$3,$4,$5,$6,$7,$8,$9,$2,$3,0*
0 Add four circle primitives for the rounded corners*
1,1,$1+$1,$2,$3*
1,1,$1+$1,$4,$5*
1,1,$1+$1,$6,$7*
1,1,$1+$1,$8,$9*
0 Add four rect primitives between the rounded corners*
20,1,$1+$1,$2,$3,$4,$5,0*
20,1,$1+$1,$4,$5,$6,$7,0*
20,1,$1+$1,$6,$7,$8,$9,0*
20,1,$1+$1,$8,$9,$2,$3,0*%
%AMRotRect*
0 Rectangle, with rotation*
0 The origin of the aperture is its center*
0 $1 length*
0 $2 width*
0 $3 Rotation angle, in degrees counterclockwise*
0 Add horizontal line*
21,1,$1,$2,0,0,$3*%
G04 Aperture macros list end*
%ADD10RoundRect,0.250000X0.400000X0.625000X-0.400000X0.625000X-0.400000X-0.625000X0.400000X-0.625000X0*%
%ADD11RoundRect,0.150000X-0.866000X-0.150000X0.866000X-0.150000X0.866000X0.150000X-0.866000X0.150000X0*%
%ADD12RotRect,1.500000X1.000000X215.000000*%
%ADD13RotRect,0.900000X2.000000X215.000000*%
%ADD14RoundRect,0.250000X0.625000X-0.400000X0.625000X0.400000X-0.625000X0.400000X-0.625000X-0.400000X0*%
%ADD15RotRect,2.540000X7.620000X195.000000*%
%ADD16RoundRect,0.250000X-0.400000X-0.625000X0.400000X-0.625000X0.400000X0.625000X-0.400000X0.625000X0*%
%ADD17RoundRect,0.250000X-0.625000X0.400000X-0.625000X-0.400000X0.625000X-0.400000X0.625000X0.400000X0*%
G04 APERTURE END LIST*
D10*
%TO.C,R2*%
X97054000Y-44450000D03*
X93954000Y-44450000D03*
%TD*%
%TO.C,R6*%
X100864000Y-65024000D03*
X97764000Y-65024000D03*
%TD*%
%TO.C,C4*%
X43968000Y-80264000D03*
X40868000Y-80264000D03*
%TD*%
%TO.C,R3*%
X109246000Y-56896000D03*
X106146000Y-56896000D03*
%TD*%
D11*
%TO.C,U2*%
X39061492Y-77639494D03*
X39061492Y-76369494D03*
X39061492Y-75099494D03*
X39061492Y-73829494D03*
X39061492Y-72559494D03*
X39061492Y-71289494D03*
X39061492Y-70019494D03*
X39061492Y-68749494D03*
X45411492Y-68749494D03*
X45411492Y-70019494D03*
X45411492Y-71289494D03*
X45411492Y-72559494D03*
X45411492Y-73829494D03*
X45411492Y-75099494D03*
X45411492Y-76369494D03*
X45411492Y-77639494D03*
%TD*%
D10*
%TO.C,R5*%
X89434000Y-48260000D03*
X86334000Y-48260000D03*
%TD*%
D12*
%TO.C,S1*%
X98459468Y-85917989D03*
X91906242Y-90506601D03*
X90713204Y-88802770D03*
X97312302Y-84279689D03*
D13*
X95133135Y-84218551D03*
X92634725Y-85967957D03*
X91446955Y-86799643D03*
%TD*%
D10*
%TO.C,R4*%
X100610000Y-55118000D03*
X97510000Y-55118000D03*
%TD*%
D14*
%TO.C,R12*%
X65557400Y-78181800D03*
X65557400Y-75081800D03*
%TD*%
D11*
%TO.C,U1*%
X50237492Y-78867000D03*
X50237492Y-77597000D03*
X50237492Y-76327000D03*
X50237492Y-75057000D03*
X56587492Y-75057000D03*
X56587492Y-76327000D03*
X56587492Y-77597000D03*
X56587492Y-78867000D03*
%TD*%
D10*
%TO.C,R7*%
X34062000Y-61214000D03*
X30962000Y-61214000D03*
%TD*%
%TO.C,C3*%
X54962500Y-72390000D03*
X51862500Y-72390000D03*
%TD*%
D14*
%TO.C,R11*%
X61899800Y-78232600D03*
X61899800Y-75132600D03*
%TD*%
D15*
%TO.C,BT1*%
X80571958Y-56802791D03*
X58548850Y-62703865D03*
%TD*%
D10*
%TO.C,C2*%
X55216500Y-81280000D03*
X52116500Y-81280000D03*
%TD*%
%TO.C,R9*%
X50572000Y-57150000D03*
X47472000Y-57150000D03*
%TD*%
%TO.C,R10*%
X36348000Y-82804000D03*
X33248000Y-82804000D03*
%TD*%
D16*
%TO.C,R8*%
X32740000Y-70612000D03*
X35840000Y-70612000D03*
%TD*%
D17*
%TO.C,C1*%
X69342000Y-75132000D03*
X69342000Y-78232000D03*
%TD*%
D10*
%TO.C,R1*%
X110262000Y-43434000D03*
X107162000Y-43434000D03*
%TD*%
M02*
