%TF.GenerationSoftware,KiCad,Pcbnew,(6.0.1)*%
%TF.CreationDate,2022-05-04T14:42:35-07:00*%
%TF.ProjectId,Foxy_Pride,466f7879-5f50-4726-9964-652e6b696361,rev?*%
%TF.SameCoordinates,Original*%
%TF.FileFunction,Profile,NP*%
%FSLAX46Y46*%
G04 Gerber Fmt 4.6, Leading zero omitted, Abs format (unit mm)*
G04 Created by KiCad (PCBNEW (6.0.1)) date 2022-05-04 14:42:35*
%MOMM*%
%LPD*%
G01*
G04 APERTURE LIST*
%TA.AperFunction,Profile*%
%ADD10C,0.396874*%
%TD*%
G04 APERTURE END LIST*
D10*
X27615228Y-85344000D02*
X27716787Y-85655547D01*
X27716787Y-85655547D02*
X27838250Y-85956957D01*
X27838250Y-85956957D02*
X27978829Y-86247489D01*
X27978829Y-86247489D02*
X28137735Y-86526401D01*
X28137735Y-86526401D02*
X28314180Y-86792955D01*
X28314180Y-86792955D02*
X28507376Y-87046409D01*
X28507376Y-87046409D02*
X28716532Y-87286023D01*
X28716532Y-87286023D02*
X28940862Y-87511057D01*
X28940862Y-87511057D02*
X29179577Y-87720771D01*
X29179577Y-87720771D02*
X29431887Y-87914423D01*
X29431887Y-87914423D02*
X29697004Y-88091274D01*
X29697004Y-88091274D02*
X29974140Y-88250583D01*
X29974140Y-88250583D02*
X30262507Y-88391610D01*
X30262507Y-88391610D02*
X30561315Y-88513614D01*
X30561315Y-88513614D02*
X30869776Y-88615856D01*
X30869776Y-88615856D02*
X31187101Y-88697594D01*
X31187101Y-88697594D02*
X31850875Y-88847103D01*
X31850875Y-88847103D02*
X32517625Y-89006658D01*
X32517625Y-89006658D02*
X33842196Y-89336557D01*
X33842196Y-89336557D02*
X35349825Y-89712104D01*
X35349825Y-89712104D02*
X36116476Y-89894108D01*
X36116476Y-89894108D02*
X36890195Y-90066811D01*
X36890195Y-90066811D02*
X37014136Y-90088388D01*
X37014136Y-90088388D02*
X37138249Y-90101620D01*
X37138249Y-90101620D02*
X37262160Y-90106631D01*
X37262160Y-90106631D02*
X37385494Y-90103543D01*
X37385494Y-90103543D02*
X37507876Y-90092479D01*
X37507876Y-90092479D02*
X37628931Y-90073561D01*
X37628931Y-90073561D02*
X37748285Y-90046913D01*
X37748285Y-90046913D02*
X37865563Y-90012656D01*
X37865563Y-90012656D02*
X37980390Y-89970915D01*
X37980390Y-89970915D02*
X38092392Y-89921810D01*
X38092392Y-89921810D02*
X38201193Y-89865466D01*
X38201193Y-89865466D02*
X38306418Y-89802005D01*
X38306418Y-89802005D02*
X38407694Y-89731549D01*
X38407694Y-89731549D02*
X38504645Y-89654222D01*
X38504645Y-89654222D02*
X38596896Y-89570145D01*
X38596896Y-89570145D02*
X38684072Y-89479443D01*
X38684072Y-89479443D02*
X38711852Y-89451651D01*
X38711852Y-89451651D02*
X38850757Y-89332586D01*
X38850757Y-89332586D02*
X38952189Y-89424279D01*
X38952189Y-89424279D02*
X39055162Y-89514191D01*
X39055162Y-89514191D02*
X39159652Y-89602303D01*
X39159652Y-89602303D02*
X39265635Y-89688596D01*
X39265635Y-89688596D02*
X39373089Y-89773052D01*
X39373089Y-89773052D02*
X39481989Y-89855652D01*
X39481989Y-89855652D02*
X39592312Y-89936378D01*
X39592312Y-89936378D02*
X39704034Y-90015209D01*
X39704034Y-90015209D02*
X40056490Y-90257442D01*
X40056490Y-90257442D02*
X40420282Y-90477267D01*
X40420282Y-90477267D02*
X40794362Y-90674507D01*
X40794362Y-90674507D02*
X41177684Y-90848985D01*
X41177684Y-90848985D02*
X41569203Y-91000522D01*
X41569203Y-91000522D02*
X41967870Y-91128942D01*
X41967870Y-91128942D02*
X42372641Y-91234067D01*
X42372641Y-91234067D02*
X42782468Y-91315719D01*
X42782468Y-91315719D02*
X43196305Y-91373722D01*
X43196305Y-91373722D02*
X43613105Y-91407898D01*
X43613105Y-91407898D02*
X44031823Y-91418069D01*
X44031823Y-91418069D02*
X44451411Y-91404058D01*
X44451411Y-91404058D02*
X44870822Y-91365687D01*
X44870822Y-91365687D02*
X45289012Y-91302780D01*
X45289012Y-91302780D02*
X45704932Y-91215158D01*
X45704932Y-91215158D02*
X46117537Y-91102644D01*
X46117537Y-91102644D02*
X46338776Y-91020793D01*
X46338776Y-91020793D02*
X46556620Y-90930922D01*
X46556620Y-90930922D02*
X46770855Y-90833142D01*
X46770855Y-90833142D02*
X46981269Y-90727565D01*
X46981269Y-90727565D02*
X47187648Y-90614304D01*
X47187648Y-90614304D02*
X47389779Y-90493471D01*
X47389779Y-90493471D02*
X47587450Y-90365177D01*
X47587450Y-90365177D02*
X47780446Y-90229534D01*
X47780446Y-90229534D02*
X47897896Y-90150838D01*
X47897896Y-90150838D02*
X48011626Y-90076236D01*
X48011626Y-90076236D02*
X48120890Y-90006845D01*
X48120890Y-90006845D02*
X48173616Y-89974452D01*
X48173616Y-89974452D02*
X48224946Y-89943781D01*
X48224946Y-89943781D02*
X48292415Y-89904087D01*
X48292415Y-89904087D02*
X48407228Y-89992591D01*
X48407228Y-89992591D02*
X48523844Y-90078503D01*
X48523844Y-90078503D02*
X48642218Y-90161798D01*
X48642218Y-90161798D02*
X48762303Y-90242453D01*
X48762303Y-90242453D02*
X48884056Y-90320442D01*
X48884056Y-90320442D02*
X49007430Y-90395743D01*
X49007430Y-90395743D02*
X49132381Y-90468329D01*
X49132381Y-90468329D02*
X49258864Y-90538178D01*
X49258864Y-90538178D02*
X49386833Y-90605265D01*
X49386833Y-90605265D02*
X49516243Y-90669566D01*
X49516243Y-90669566D02*
X49647050Y-90731055D01*
X49647050Y-90731055D02*
X49779207Y-90789710D01*
X49779207Y-90789710D02*
X49912671Y-90845505D01*
X49912671Y-90845505D02*
X50047395Y-90898417D01*
X50047395Y-90898417D02*
X50183335Y-90948421D01*
X50183335Y-90948421D02*
X50320445Y-90995493D01*
X50320445Y-90995493D02*
X50484778Y-91322292D01*
X50484778Y-91322292D02*
X50653227Y-91646934D01*
X50653227Y-91646934D02*
X50825772Y-91969382D01*
X50825772Y-91969382D02*
X51002391Y-92289599D01*
X51002391Y-92289599D02*
X51183063Y-92607546D01*
X51183063Y-92607546D02*
X51367768Y-92923186D01*
X51367768Y-92923186D02*
X51556483Y-93236481D01*
X51556483Y-93236481D02*
X51749188Y-93547394D01*
X51749188Y-93547394D02*
X51663567Y-93577579D01*
X51663567Y-93577579D02*
X51578552Y-93609366D01*
X51578552Y-93609366D02*
X51494166Y-93642743D01*
X51494166Y-93642743D02*
X51410431Y-93677701D01*
X51410431Y-93677701D02*
X51327369Y-93714231D01*
X51327369Y-93714231D02*
X51245003Y-93752323D01*
X51245003Y-93752323D02*
X51163355Y-93791967D01*
X51163355Y-93791967D02*
X51082447Y-93833153D01*
X51082447Y-93833153D02*
X50956741Y-93899348D01*
X50956741Y-93899348D02*
X50835138Y-93971531D01*
X50835138Y-93971531D02*
X50717814Y-94049497D01*
X50717814Y-94049497D02*
X50604944Y-94133040D01*
X50604944Y-94133040D02*
X50496703Y-94221957D01*
X50496703Y-94221957D02*
X50393265Y-94316043D01*
X50393265Y-94316043D02*
X50294807Y-94415091D01*
X50294807Y-94415091D02*
X50201502Y-94518898D01*
X50201502Y-94518898D02*
X50113527Y-94627258D01*
X50113527Y-94627258D02*
X50031057Y-94739966D01*
X50031057Y-94739966D02*
X49954266Y-94856819D01*
X49954266Y-94856819D02*
X49883329Y-94977609D01*
X49883329Y-94977609D02*
X49818422Y-95102134D01*
X49818422Y-95102134D02*
X49759720Y-95230187D01*
X49759720Y-95230187D02*
X49707398Y-95361564D01*
X49707398Y-95361564D02*
X49661632Y-95496059D01*
X49661632Y-95496059D02*
X49627867Y-95628015D01*
X49627867Y-95628015D02*
X49600809Y-95759654D01*
X49600809Y-95759654D02*
X49580184Y-95890893D01*
X49580184Y-95890893D02*
X49565723Y-96021649D01*
X49565723Y-96021649D02*
X49557153Y-96151838D01*
X49557153Y-96151838D02*
X49554205Y-96281377D01*
X49554205Y-96281377D02*
X49564087Y-96538169D01*
X49564087Y-96538169D02*
X49593201Y-96791356D01*
X49593201Y-96791356D02*
X49639377Y-97040270D01*
X49639377Y-97040270D02*
X49700448Y-97284243D01*
X49700448Y-97284243D02*
X49774245Y-97522605D01*
X49774245Y-97522605D02*
X49858599Y-97754688D01*
X49858599Y-97754688D02*
X49951342Y-97979825D01*
X49951342Y-97979825D02*
X50050306Y-98197345D01*
X50050306Y-98197345D02*
X50153322Y-98406581D01*
X50153322Y-98406581D02*
X50362836Y-98797525D01*
X50362836Y-98797525D02*
X50562536Y-99147308D01*
X50562536Y-99147308D02*
X50577233Y-99171107D01*
X50577233Y-99171107D02*
X50591558Y-99194812D01*
X50591558Y-99194812D02*
X50619092Y-99241570D01*
X50619092Y-99241570D02*
X50669693Y-99329876D01*
X50669693Y-99329876D02*
X50784538Y-99521305D01*
X50784538Y-99521305D02*
X50891942Y-99697479D01*
X50891942Y-99697479D02*
X50993393Y-99859517D01*
X50993393Y-99859517D02*
X51090378Y-100008533D01*
X51090378Y-100008533D02*
X51149910Y-100091881D01*
X51149910Y-100091881D02*
X51230608Y-100198105D01*
X51230608Y-100198105D02*
X51313691Y-100302406D01*
X51313691Y-100302406D02*
X51399125Y-100404744D01*
X51399125Y-100404744D02*
X51486874Y-100505081D01*
X51486874Y-100505081D02*
X51576904Y-100603378D01*
X51576904Y-100603378D02*
X51669178Y-100699594D01*
X51669178Y-100699594D02*
X51763661Y-100793692D01*
X51763661Y-100793692D02*
X51860319Y-100885632D01*
X51860319Y-100885632D02*
X51957292Y-100974546D01*
X51957292Y-100974546D02*
X52056422Y-101060953D01*
X52056422Y-101060953D02*
X52157662Y-101144813D01*
X52157662Y-101144813D02*
X52260960Y-101226089D01*
X52260960Y-101226089D02*
X52366268Y-101304744D01*
X52366268Y-101304744D02*
X52473536Y-101380739D01*
X52473536Y-101380739D02*
X52582715Y-101454037D01*
X52582715Y-101454037D02*
X52693755Y-101524601D01*
X52693755Y-101524601D02*
X52749316Y-101556353D01*
X52749316Y-101556353D02*
X52950223Y-101670520D01*
X52950223Y-101670520D02*
X53154368Y-101777863D01*
X53154368Y-101777863D02*
X53361573Y-101878334D01*
X53361573Y-101878334D02*
X53571662Y-101971883D01*
X53571662Y-101971883D02*
X53784461Y-102058461D01*
X53784461Y-102058461D02*
X53999793Y-102138018D01*
X53999793Y-102138018D02*
X54217482Y-102210506D01*
X54217482Y-102210506D02*
X54437352Y-102275874D01*
X54437352Y-102275874D02*
X54659228Y-102334075D01*
X54659228Y-102334075D02*
X54882932Y-102385058D01*
X54882932Y-102385058D02*
X55108290Y-102428774D01*
X55108290Y-102428774D02*
X55335125Y-102465174D01*
X55335125Y-102465174D02*
X55563262Y-102494209D01*
X55563262Y-102494209D02*
X55792524Y-102515830D01*
X55792524Y-102515830D02*
X56022735Y-102529987D01*
X56022735Y-102529987D02*
X56253720Y-102536631D01*
X56253720Y-102536631D02*
X56381822Y-102535332D01*
X56381822Y-102535332D02*
X56509831Y-102531422D01*
X56509831Y-102531422D02*
X56637706Y-102524903D01*
X56637706Y-102524903D02*
X56765408Y-102515778D01*
X56765408Y-102515778D02*
X56892897Y-102504051D01*
X56892897Y-102504051D02*
X57020134Y-102489725D01*
X57020134Y-102489725D02*
X57147079Y-102472803D01*
X57147079Y-102472803D02*
X57273692Y-102453289D01*
X57273692Y-102453289D02*
X57388027Y-102437619D01*
X57388027Y-102437619D02*
X57502060Y-102420039D01*
X57502060Y-102420039D02*
X57615765Y-102400553D01*
X57615765Y-102400553D02*
X57729120Y-102379166D01*
X57729120Y-102379166D02*
X57842100Y-102355882D01*
X57842100Y-102355882D02*
X57954682Y-102330705D01*
X57954682Y-102330705D02*
X58066842Y-102303641D01*
X58066842Y-102303641D02*
X58178556Y-102274693D01*
X58178556Y-102274693D02*
X58467137Y-102194397D01*
X58467137Y-102194397D02*
X58746269Y-102102625D01*
X58746269Y-102102625D02*
X59015624Y-101999808D01*
X59015624Y-101999808D02*
X59274868Y-101886375D01*
X59274868Y-101886375D02*
X59523670Y-101762757D01*
X59523670Y-101762757D02*
X59761700Y-101629383D01*
X59761700Y-101629383D02*
X59988626Y-101486685D01*
X59988626Y-101486685D02*
X60204116Y-101335091D01*
X60204116Y-101335091D02*
X60407839Y-101175033D01*
X60407839Y-101175033D02*
X60599464Y-101006940D01*
X60599464Y-101006940D02*
X60778660Y-100831244D01*
X60778660Y-100831244D02*
X60945094Y-100648373D01*
X60945094Y-100648373D02*
X61098436Y-100458758D01*
X61098436Y-100458758D02*
X61238355Y-100262829D01*
X61238355Y-100262829D02*
X61364518Y-100061017D01*
X61364518Y-100061017D02*
X61476595Y-99853752D01*
X61476595Y-99853752D02*
X61886637Y-99971773D01*
X61886637Y-99971773D02*
X62298122Y-100084447D01*
X62298122Y-100084447D02*
X62710998Y-100191761D01*
X62710998Y-100191761D02*
X63125214Y-100293703D01*
X63125214Y-100293703D02*
X63540719Y-100390260D01*
X63540719Y-100390260D02*
X63957460Y-100481420D01*
X63957460Y-100481420D02*
X64375386Y-100567170D01*
X64375386Y-100567170D02*
X64794446Y-100647497D01*
X64794446Y-100647497D02*
X64928976Y-100670451D01*
X64928976Y-100670451D02*
X65063809Y-100691388D01*
X65063809Y-100691388D02*
X65198925Y-100710306D01*
X65198925Y-100710306D02*
X65334298Y-100727201D01*
X65334298Y-100727201D02*
X65469909Y-100742071D01*
X65469909Y-100742071D02*
X65605732Y-100754913D01*
X65605732Y-100754913D02*
X65741747Y-100765725D01*
X65741747Y-100765725D02*
X65877930Y-100774504D01*
X65877930Y-100774504D02*
X66056220Y-100789017D01*
X66056220Y-100789017D02*
X66226694Y-100804271D01*
X66226694Y-100804271D02*
X66308418Y-100812873D01*
X66308418Y-100812873D02*
X66387492Y-100822499D01*
X66387492Y-100822499D02*
X66463681Y-100833428D01*
X66463681Y-100833428D02*
X66536755Y-100845938D01*
X66536755Y-100845938D02*
X66830799Y-100854939D01*
X66830799Y-100854939D02*
X67124710Y-100853665D01*
X67124710Y-100853665D02*
X67418220Y-100842141D01*
X67418220Y-100842141D02*
X67711060Y-100820392D01*
X67711060Y-100820392D02*
X68002963Y-100788441D01*
X68002963Y-100788441D02*
X68293662Y-100746314D01*
X68293662Y-100746314D02*
X68582889Y-100694035D01*
X68582889Y-100694035D02*
X68870377Y-100631630D01*
X68870377Y-100631630D02*
X69268017Y-100549877D01*
X69268017Y-100549877D02*
X69663831Y-100460232D01*
X69663831Y-100460232D02*
X70057701Y-100362730D01*
X70057701Y-100362730D02*
X70449509Y-100257403D01*
X70449509Y-100257403D02*
X70839139Y-100144284D01*
X70839139Y-100144284D02*
X71226473Y-100023406D01*
X71226473Y-100023406D02*
X71611394Y-99894801D01*
X71611394Y-99894801D02*
X71993784Y-99758503D01*
X71993784Y-99758503D02*
X72232718Y-99820701D01*
X72232718Y-99820701D02*
X72472841Y-99877024D01*
X72472841Y-99877024D02*
X72714047Y-99927464D01*
X72714047Y-99927464D02*
X72956227Y-99972014D01*
X72956227Y-99972014D02*
X73199273Y-100010665D01*
X73199273Y-100010665D02*
X73443077Y-100043409D01*
X73443077Y-100043409D02*
X73687530Y-100070239D01*
X73687530Y-100070239D02*
X73932526Y-100091147D01*
X73932526Y-100091147D02*
X74177956Y-100106124D01*
X74177956Y-100106124D02*
X74423711Y-100115164D01*
X74423711Y-100115164D02*
X74669684Y-100118257D01*
X74669684Y-100118257D02*
X74915767Y-100115397D01*
X74915767Y-100115397D02*
X75161851Y-100106574D01*
X75161851Y-100106574D02*
X75407830Y-100091782D01*
X75407830Y-100091782D02*
X75653593Y-100071012D01*
X75653593Y-100071012D02*
X75899034Y-100044256D01*
X75899034Y-100044256D02*
X76247442Y-99994001D01*
X76247442Y-99994001D02*
X76585582Y-99931125D01*
X76585582Y-99931125D02*
X76913234Y-99855749D01*
X76913234Y-99855749D02*
X77230178Y-99767996D01*
X77230178Y-99767996D02*
X77536192Y-99667988D01*
X77536192Y-99667988D02*
X77831056Y-99555847D01*
X77831056Y-99555847D02*
X78114548Y-99431694D01*
X78114548Y-99431694D02*
X78386449Y-99295653D01*
X78386449Y-99295653D02*
X78646536Y-99147845D01*
X78646536Y-99147845D02*
X78894588Y-98988393D01*
X78894588Y-98988393D02*
X79130386Y-98817417D01*
X79130386Y-98817417D02*
X79353708Y-98635042D01*
X79353708Y-98635042D02*
X79564333Y-98441387D01*
X79564333Y-98441387D02*
X79762041Y-98236577D01*
X79762041Y-98236577D02*
X79946610Y-98020733D01*
X79946610Y-98020733D02*
X80117819Y-97793976D01*
X80117819Y-97793976D02*
X80276566Y-97567755D01*
X80276566Y-97567755D02*
X80359913Y-97305817D01*
X80359913Y-97305817D02*
X80398854Y-97178793D01*
X80398854Y-97178793D02*
X80432672Y-97050474D01*
X80432672Y-97050474D02*
X80461341Y-96921013D01*
X80461341Y-96921013D02*
X80484837Y-96790567D01*
X80484837Y-96790567D02*
X80503136Y-96659291D01*
X80503136Y-96659291D02*
X80516211Y-96527340D01*
X80516211Y-96527340D02*
X80524040Y-96394870D01*
X80524040Y-96394870D02*
X80526596Y-96262035D01*
X80526596Y-96262035D02*
X80523880Y-96124097D01*
X80523880Y-96124097D02*
X80515649Y-95986547D01*
X80515649Y-95986547D02*
X80501932Y-95849549D01*
X80501932Y-95849549D02*
X80482753Y-95713265D01*
X80482753Y-95713265D02*
X80458140Y-95577859D01*
X80458140Y-95577859D02*
X80428119Y-95443494D01*
X80428119Y-95443494D02*
X80392717Y-95310332D01*
X80392717Y-95310332D02*
X80351959Y-95178537D01*
X80351959Y-95178537D02*
X80865029Y-95025881D01*
X80865029Y-95025881D02*
X81374220Y-94862202D01*
X81374220Y-94862202D02*
X81879360Y-94687582D01*
X81879360Y-94687582D02*
X82380278Y-94502106D01*
X82380278Y-94502106D02*
X82876804Y-94305856D01*
X82876804Y-94305856D02*
X83368766Y-94098916D01*
X83368766Y-94098916D02*
X83855993Y-93881369D01*
X83855993Y-93881369D02*
X84338315Y-93653297D01*
X84338315Y-93653297D02*
X84815559Y-93414785D01*
X84815559Y-93414785D02*
X85287556Y-93165916D01*
X85287556Y-93165916D02*
X85754134Y-92906772D01*
X85754134Y-92906772D02*
X86215122Y-92637437D01*
X86215122Y-92637437D02*
X86670349Y-92357994D01*
X86670349Y-92357994D02*
X87119644Y-92068526D01*
X87119644Y-92068526D02*
X87562836Y-91769116D01*
X87562836Y-91769116D02*
X87999754Y-91459848D01*
X87999754Y-91459848D02*
X88308553Y-91567007D01*
X88308553Y-91567007D02*
X88624678Y-91654829D01*
X88624678Y-91654829D02*
X88948011Y-91723327D01*
X88948011Y-91723327D02*
X89278436Y-91772512D01*
X89278436Y-91772512D02*
X89615838Y-91802396D01*
X89615838Y-91802396D02*
X89960100Y-91812990D01*
X89960100Y-91812990D02*
X90311105Y-91804307D01*
X90311105Y-91804307D02*
X90668739Y-91776357D01*
X90668739Y-91776357D02*
X91032883Y-91729153D01*
X91032883Y-91729153D02*
X91403422Y-91662705D01*
X91403422Y-91662705D02*
X91780241Y-91577027D01*
X91780241Y-91577027D02*
X92163221Y-91472128D01*
X92163221Y-91472128D02*
X92552248Y-91348022D01*
X92552248Y-91348022D02*
X92947205Y-91204720D01*
X92947205Y-91204720D02*
X93347976Y-91042233D01*
X93347976Y-91042233D02*
X93754444Y-90860573D01*
X93754444Y-90860573D02*
X94184897Y-90646401D01*
X94184897Y-90646401D02*
X94609555Y-90421456D01*
X94609555Y-90421456D02*
X95028220Y-90185860D01*
X95028220Y-90185860D02*
X95440693Y-89939735D01*
X95440693Y-89939735D02*
X95846776Y-89683204D01*
X95846776Y-89683204D02*
X96246270Y-89416387D01*
X96246270Y-89416387D02*
X96638976Y-89139407D01*
X96638976Y-89139407D02*
X97024696Y-88852386D01*
X97024696Y-88852386D02*
X97123911Y-88780947D01*
X97123911Y-88780947D02*
X98072443Y-88114203D01*
X98072443Y-88114203D02*
X98032755Y-87884016D01*
X98032755Y-87884016D02*
X98798719Y-87090265D01*
X98798719Y-87090265D02*
X98862223Y-87050571D01*
X98862223Y-87050571D02*
X99052721Y-86820385D01*
X99052721Y-86820385D02*
X99354134Y-86447052D01*
X99354134Y-86447052D02*
X99630273Y-86058596D01*
X99630273Y-86058596D02*
X99880849Y-85656283D01*
X99880849Y-85656283D02*
X100105571Y-85241375D01*
X100105571Y-85241375D02*
X100304149Y-84815137D01*
X100304149Y-84815137D02*
X100476292Y-84378832D01*
X100476292Y-84378832D02*
X100621709Y-83933724D01*
X100621709Y-83933724D02*
X100740111Y-83481077D01*
X100740111Y-83481077D02*
X100831207Y-83022154D01*
X100831207Y-83022154D02*
X100894706Y-82558219D01*
X100894706Y-82558219D02*
X100930318Y-82090536D01*
X100930318Y-82090536D02*
X100937753Y-81620369D01*
X100937753Y-81620369D02*
X100916720Y-81148982D01*
X100916720Y-81148982D02*
X100866929Y-80677638D01*
X100866929Y-80677638D02*
X100788089Y-80207601D01*
X100788089Y-80207601D02*
X100679911Y-79740134D01*
X100679911Y-79740134D02*
X100625252Y-79498395D01*
X100625252Y-79498395D02*
X100564302Y-79258296D01*
X100564302Y-79258296D02*
X100497102Y-79019959D01*
X100497102Y-79019959D02*
X100423690Y-78783505D01*
X100423690Y-78783505D02*
X100344106Y-78549056D01*
X100344106Y-78549056D02*
X100258389Y-78316735D01*
X100258389Y-78316735D02*
X100166579Y-78086661D01*
X100166579Y-78086661D02*
X100068716Y-77858957D01*
X100068716Y-77858957D02*
X99959469Y-77617746D01*
X99959469Y-77617746D02*
X99843617Y-77371419D01*
X99843617Y-77371419D02*
X99721998Y-77121557D01*
X99721998Y-77121557D02*
X99595448Y-76869743D01*
X99595448Y-76869743D02*
X99464806Y-76617556D01*
X99464806Y-76617556D02*
X99330908Y-76366579D01*
X99330908Y-76366579D02*
X99194591Y-76118392D01*
X99194591Y-76118392D02*
X99056692Y-75874578D01*
X99056692Y-75874578D02*
X99378157Y-76223825D01*
X99378157Y-76223825D02*
X100719599Y-75033199D01*
X100719599Y-75033199D02*
X101077285Y-74718181D01*
X101077285Y-74718181D02*
X101257056Y-74561602D01*
X101257056Y-74561602D02*
X101437944Y-74406137D01*
X101437944Y-74406137D02*
X101735598Y-74151641D01*
X101735598Y-74151641D02*
X102033252Y-73894168D01*
X102033252Y-73894168D02*
X102330908Y-73633719D01*
X102330908Y-73633719D02*
X102628565Y-73370293D01*
X102628565Y-73370293D02*
X103799347Y-72921824D01*
X103799347Y-72921824D02*
X104418472Y-72687670D01*
X104418472Y-72687670D02*
X104781426Y-72552548D01*
X104781426Y-72552548D02*
X105149218Y-72413332D01*
X105149218Y-72413332D02*
X105520730Y-72267418D01*
X105520730Y-72267418D02*
X105707532Y-72191136D01*
X105707532Y-72191136D02*
X105894846Y-72112204D01*
X105894846Y-72112204D02*
X106204548Y-71977971D01*
X106204548Y-71977971D02*
X106531459Y-71827135D01*
X106531459Y-71827135D02*
X106698141Y-71743557D01*
X106698141Y-71743557D02*
X106865253Y-71653510D01*
X106865253Y-71653510D02*
X107031505Y-71556218D01*
X107031505Y-71556218D02*
X107195606Y-71450910D01*
X107195606Y-71450910D02*
X107356265Y-71336811D01*
X107356265Y-71336811D02*
X107512192Y-71213149D01*
X107512192Y-71213149D02*
X107662095Y-71079151D01*
X107662095Y-71079151D02*
X107804686Y-70934042D01*
X107804686Y-70934042D02*
X107938672Y-70777051D01*
X107938672Y-70777051D02*
X108002035Y-70693858D01*
X108002035Y-70693858D02*
X108062763Y-70607403D01*
X108062763Y-70607403D02*
X108120695Y-70517592D01*
X108120695Y-70517592D02*
X108175669Y-70424327D01*
X108175669Y-70424327D02*
X108227524Y-70327510D01*
X108227524Y-70327510D02*
X108276098Y-70227047D01*
X108276098Y-70227047D02*
X108308428Y-70151121D01*
X108308428Y-70151121D02*
X108338444Y-70074388D01*
X108338444Y-70074388D02*
X108366136Y-69996901D01*
X108366136Y-69996901D02*
X108391494Y-69918714D01*
X108391494Y-69918714D02*
X108414509Y-69839879D01*
X108414509Y-69839879D02*
X108435171Y-69760449D01*
X108435171Y-69760449D02*
X108453471Y-69680478D01*
X108453471Y-69680478D02*
X108469398Y-69600019D01*
X108469398Y-69600019D02*
X108482944Y-69519124D01*
X108482944Y-69519124D02*
X108494097Y-69437848D01*
X108494097Y-69437848D02*
X108502849Y-69356243D01*
X108502849Y-69356243D02*
X108509191Y-69274362D01*
X108509191Y-69274362D02*
X108513111Y-69192258D01*
X108513111Y-69192258D02*
X108514601Y-69109985D01*
X108514601Y-69109985D02*
X108513650Y-69027595D01*
X108513650Y-69027595D02*
X108510250Y-68945143D01*
X108510250Y-68945143D02*
X108558855Y-68905171D01*
X108558855Y-68905171D02*
X108606392Y-68864041D01*
X108606392Y-68864041D02*
X108652842Y-68821775D01*
X108652842Y-68821775D02*
X108698186Y-68778395D01*
X108698186Y-68778395D02*
X108742405Y-68733923D01*
X108742405Y-68733923D02*
X108785482Y-68688384D01*
X108785482Y-68688384D02*
X108827395Y-68641798D01*
X108827395Y-68641798D02*
X108868128Y-68594188D01*
X108868128Y-68594188D02*
X108907661Y-68545578D01*
X108907661Y-68545578D02*
X108945975Y-68495989D01*
X108945975Y-68495989D02*
X108983052Y-68445444D01*
X108983052Y-68445444D02*
X109018873Y-68393966D01*
X109018873Y-68393966D02*
X109053418Y-68341577D01*
X109053418Y-68341577D02*
X109086669Y-68288299D01*
X109086669Y-68288299D02*
X109118607Y-68234156D01*
X109118607Y-68234156D02*
X109149214Y-68179170D01*
X109149214Y-68179170D02*
X109177700Y-68125900D01*
X109177700Y-68125900D02*
X109204736Y-68071916D01*
X109204736Y-68071916D02*
X109230307Y-68017246D01*
X109230307Y-68017246D02*
X109254401Y-67961921D01*
X109254401Y-67961921D02*
X109277005Y-67905971D01*
X109277005Y-67905971D02*
X109298107Y-67849426D01*
X109298107Y-67849426D02*
X109317694Y-67792316D01*
X109317694Y-67792316D02*
X109335752Y-67734670D01*
X109335752Y-67734670D02*
X109732628Y-67583859D01*
X109732628Y-67583859D02*
X109442909Y-67135391D01*
X109442909Y-67135391D02*
X109448133Y-67068009D01*
X109448133Y-67068009D02*
X109451864Y-67000552D01*
X109451864Y-67000552D02*
X109454102Y-66933046D01*
X109454102Y-66933046D02*
X109454848Y-66865515D01*
X109454848Y-66865515D02*
X109454102Y-66797985D01*
X109454102Y-66797985D02*
X109451864Y-66730479D01*
X109451864Y-66730479D02*
X109448133Y-66663022D01*
X109448133Y-66663022D02*
X109442909Y-66595639D01*
X109442909Y-66595639D02*
X109674407Y-66523333D01*
X109674407Y-66523333D02*
X109902632Y-66442108D01*
X109902632Y-66442108D02*
X110127333Y-66352083D01*
X110127333Y-66352083D02*
X110348258Y-66253376D01*
X110348258Y-66253376D02*
X110565155Y-66146107D01*
X110565155Y-66146107D02*
X110777772Y-66030394D01*
X110777772Y-66030394D02*
X110985857Y-65906356D01*
X110985857Y-65906356D02*
X111189157Y-65774111D01*
X111189157Y-65774111D02*
X111335382Y-65670305D01*
X111335382Y-65670305D02*
X111475022Y-65560593D01*
X111475022Y-65560593D02*
X111608016Y-65445254D01*
X111608016Y-65445254D02*
X111734299Y-65324569D01*
X111734299Y-65324569D02*
X111853808Y-65198817D01*
X111853808Y-65198817D02*
X111966479Y-65068279D01*
X111966479Y-65068279D02*
X112072250Y-64933235D01*
X112072250Y-64933235D02*
X112171058Y-64793966D01*
X112171058Y-64793966D02*
X112262838Y-64650752D01*
X112262838Y-64650752D02*
X112347527Y-64503872D01*
X112347527Y-64503872D02*
X112425062Y-64353607D01*
X112425062Y-64353607D02*
X112495380Y-64200238D01*
X112495380Y-64200238D02*
X112558417Y-64044044D01*
X112558417Y-64044044D02*
X112614110Y-63885305D01*
X112614110Y-63885305D02*
X112662395Y-63724303D01*
X112662395Y-63724303D02*
X112703209Y-63561317D01*
X112703209Y-63561317D02*
X112736490Y-63396627D01*
X112736490Y-63396627D02*
X112762172Y-63230514D01*
X112762172Y-63230514D02*
X112780194Y-63063257D01*
X112780194Y-63063257D02*
X112790491Y-62895138D01*
X112790491Y-62895138D02*
X112793001Y-62726436D01*
X112793001Y-62726436D02*
X112787660Y-62557431D01*
X112787660Y-62557431D02*
X112774404Y-62388404D01*
X112774404Y-62388404D02*
X112753171Y-62219635D01*
X112753171Y-62219635D02*
X112723896Y-62051404D01*
X112723896Y-62051404D02*
X112686517Y-61883991D01*
X112686517Y-61883991D02*
X112640970Y-61717677D01*
X112640970Y-61717677D02*
X112587192Y-61552741D01*
X112587192Y-61552741D02*
X112525119Y-61389465D01*
X112525119Y-61389465D02*
X112454688Y-61228128D01*
X112454688Y-61228128D02*
X112375836Y-61069010D01*
X112375836Y-61069010D02*
X112288500Y-60912392D01*
X112288500Y-60912392D02*
X112495536Y-60688289D01*
X112495536Y-60688289D02*
X112691739Y-60456034D01*
X112691739Y-60456034D02*
X112876931Y-60216032D01*
X112876931Y-60216032D02*
X113050934Y-59968684D01*
X113050934Y-59968684D02*
X113213569Y-59714396D01*
X113213569Y-59714396D02*
X113364660Y-59453570D01*
X113364660Y-59453570D02*
X113504028Y-59186611D01*
X113504028Y-59186611D02*
X113631495Y-58913921D01*
X113631495Y-58913921D02*
X113746883Y-58635905D01*
X113746883Y-58635905D02*
X113850014Y-58352965D01*
X113850014Y-58352965D02*
X113940710Y-58065506D01*
X113940710Y-58065506D02*
X114018794Y-57773932D01*
X114018794Y-57773932D02*
X114084087Y-57478645D01*
X114084087Y-57478645D02*
X114136412Y-57180049D01*
X114136412Y-57180049D02*
X114175589Y-56878548D01*
X114175589Y-56878548D02*
X114201443Y-56574546D01*
X114201443Y-56574546D02*
X114225394Y-56301585D01*
X114225394Y-56301585D02*
X114235055Y-56029069D01*
X114235055Y-56029069D02*
X114230585Y-55757515D01*
X114230585Y-55757515D02*
X114212143Y-55487439D01*
X114212143Y-55487439D02*
X114179890Y-55219360D01*
X114179890Y-55219360D02*
X114133986Y-54953794D01*
X114133986Y-54953794D02*
X114074589Y-54691260D01*
X114074589Y-54691260D02*
X114001859Y-54432275D01*
X114001859Y-54432275D02*
X113915957Y-54177356D01*
X113915957Y-54177356D02*
X113817042Y-53927020D01*
X113817042Y-53927020D02*
X113705273Y-53681785D01*
X113705273Y-53681785D02*
X113580811Y-53442169D01*
X113580811Y-53442169D02*
X113443815Y-53208688D01*
X113443815Y-53208688D02*
X113294445Y-52981861D01*
X113294445Y-52981861D02*
X113132860Y-52762204D01*
X113132860Y-52762204D02*
X112959221Y-52550235D01*
X112959221Y-52550235D02*
X112929394Y-52519850D01*
X112929394Y-52519850D02*
X112899195Y-52488720D01*
X112899195Y-52488720D02*
X112883840Y-52473109D01*
X112883840Y-52473109D02*
X112868252Y-52457590D01*
X112868252Y-52457590D02*
X112852385Y-52442258D01*
X112852385Y-52442258D02*
X112836191Y-52427204D01*
X112836191Y-52427204D02*
X113069049Y-52162002D01*
X113069049Y-52162002D02*
X113298216Y-51890051D01*
X113298216Y-51890051D02*
X113522791Y-51611018D01*
X113522791Y-51611018D02*
X113741871Y-51324574D01*
X113741871Y-51324574D02*
X113954557Y-51030385D01*
X113954557Y-51030385D02*
X114159947Y-50728122D01*
X114159947Y-50728122D02*
X114357139Y-50417452D01*
X114357139Y-50417452D02*
X114545234Y-50098044D01*
X114545234Y-50098044D02*
X114723329Y-49769567D01*
X114723329Y-49769567D02*
X114890524Y-49431689D01*
X114890524Y-49431689D02*
X115045917Y-49084080D01*
X115045917Y-49084080D02*
X115188607Y-48726407D01*
X115188607Y-48726407D02*
X115317694Y-48358339D01*
X115317694Y-48358339D02*
X115432275Y-47979545D01*
X115432275Y-47979545D02*
X115531451Y-47589694D01*
X115531451Y-47589694D02*
X115614319Y-47188454D01*
X115614319Y-47188454D02*
X115660600Y-46944709D01*
X115660600Y-46944709D02*
X115700441Y-46700132D01*
X115700441Y-46700132D02*
X115733843Y-46454848D01*
X115733843Y-46454848D02*
X115760807Y-46208985D01*
X115760807Y-46208985D02*
X115781333Y-45962668D01*
X115781333Y-45962668D02*
X115795423Y-45716024D01*
X115795423Y-45716024D02*
X115803079Y-45469179D01*
X115803079Y-45469179D02*
X115804300Y-45222259D01*
X115804300Y-45222259D02*
X115799088Y-44975392D01*
X115799088Y-44975392D02*
X115787445Y-44728703D01*
X115787445Y-44728703D02*
X115769371Y-44482318D01*
X115769371Y-44482318D02*
X115744867Y-44236365D01*
X115744867Y-44236365D02*
X115713934Y-43990970D01*
X115713934Y-43990970D02*
X115676573Y-43746258D01*
X115676573Y-43746258D02*
X115632786Y-43502357D01*
X115632786Y-43502357D02*
X115582573Y-43259392D01*
X115582573Y-43259392D02*
X115510962Y-42986757D01*
X115510962Y-42986757D02*
X115427857Y-42718389D01*
X115427857Y-42718389D02*
X115333471Y-42454615D01*
X115333471Y-42454615D02*
X115228020Y-42195760D01*
X115228020Y-42195760D02*
X115111718Y-41942153D01*
X115111718Y-41942153D02*
X114984779Y-41694120D01*
X114984779Y-41694120D02*
X114847417Y-41451988D01*
X114847417Y-41451988D02*
X114699846Y-41216083D01*
X114699846Y-41216083D02*
X114542282Y-40986733D01*
X114542282Y-40986733D02*
X114374938Y-40764265D01*
X114374938Y-40764265D02*
X114198029Y-40549004D01*
X114198029Y-40549004D02*
X114011769Y-40341279D01*
X114011769Y-40341279D02*
X113816372Y-40141416D01*
X113816372Y-40141416D02*
X113612053Y-39949741D01*
X113612053Y-39949741D02*
X113399026Y-39766582D01*
X113399026Y-39766582D02*
X113177505Y-39592265D01*
X113177505Y-39592265D02*
X112733150Y-39272670D01*
X112733150Y-39272670D02*
X112277196Y-38989613D01*
X112277196Y-38989613D02*
X111810417Y-38743170D01*
X111810417Y-38743170D02*
X111333587Y-38533416D01*
X111333587Y-38533416D02*
X110847478Y-38360428D01*
X110847478Y-38360428D02*
X110352864Y-38224280D01*
X110352864Y-38224280D02*
X109850517Y-38125049D01*
X109850517Y-38125049D02*
X109341212Y-38062810D01*
X109341212Y-38062810D02*
X108825721Y-38037638D01*
X108825721Y-38037638D02*
X108304818Y-38049609D01*
X108304818Y-38049609D02*
X107779275Y-38098799D01*
X107779275Y-38098799D02*
X107249867Y-38185283D01*
X107249867Y-38185283D02*
X106717365Y-38309137D01*
X106717365Y-38309137D02*
X106182545Y-38470436D01*
X106182545Y-38470436D02*
X105646178Y-38669256D01*
X105646178Y-38669256D02*
X105109037Y-38905673D01*
X105109037Y-38905673D02*
X105027731Y-38944911D01*
X105027731Y-38944911D02*
X104947495Y-38985172D01*
X104947495Y-38985172D02*
X104868282Y-39026363D01*
X104868282Y-39026363D02*
X104790045Y-39068392D01*
X104790045Y-39068392D02*
X104712740Y-39111164D01*
X104712740Y-39111164D02*
X104636318Y-39154588D01*
X104636318Y-39154588D02*
X104485941Y-39243017D01*
X104485941Y-39243017D02*
X104351794Y-38985017D01*
X104351794Y-38985017D02*
X104204345Y-38731916D01*
X104204345Y-38731916D02*
X104043595Y-38483714D01*
X104043595Y-38483714D02*
X103869544Y-38240411D01*
X103869544Y-38240411D02*
X103682190Y-38002007D01*
X103682190Y-38002007D02*
X103481535Y-37768502D01*
X103481535Y-37768502D02*
X103267579Y-37539896D01*
X103267579Y-37539896D02*
X103040321Y-37316189D01*
X103040321Y-37316189D02*
X102799762Y-37097380D01*
X102799762Y-37097380D02*
X102545901Y-36883471D01*
X102545901Y-36883471D02*
X102278738Y-36674461D01*
X102278738Y-36674461D02*
X101998274Y-36470349D01*
X101998274Y-36470349D02*
X101704508Y-36271136D01*
X101704508Y-36271136D02*
X101397441Y-36076823D01*
X101397441Y-36076823D02*
X101077073Y-35887408D01*
X101077073Y-35887408D02*
X100743402Y-35702892D01*
X100743402Y-35702892D02*
X100347933Y-35506677D01*
X100347933Y-35506677D02*
X99950661Y-35335147D01*
X99950661Y-35335147D02*
X99552110Y-35186662D01*
X99552110Y-35186662D02*
X99152803Y-35059583D01*
X99152803Y-35059583D02*
X98753264Y-34952269D01*
X98753264Y-34952269D02*
X98354015Y-34863083D01*
X98354015Y-34863083D02*
X97955580Y-34790384D01*
X97955580Y-34790384D02*
X97558482Y-34732533D01*
X97558482Y-34732533D02*
X97163245Y-34687890D01*
X97163245Y-34687890D02*
X96770391Y-34654817D01*
X96770391Y-34654817D02*
X95993927Y-34616819D01*
X95993927Y-34616819D02*
X95233275Y-34605424D01*
X95233275Y-34605424D02*
X94492622Y-34607517D01*
X94492622Y-34607517D02*
X94278315Y-34607517D01*
X94278315Y-34607517D02*
X93592101Y-34626770D01*
X93592101Y-34626770D02*
X92925473Y-34684148D01*
X92925473Y-34684148D02*
X92279135Y-34779082D01*
X92279135Y-34779082D02*
X91653791Y-34911002D01*
X91653791Y-34911002D02*
X91050142Y-35079339D01*
X91050142Y-35079339D02*
X90468894Y-35283522D01*
X90468894Y-35283522D02*
X89910749Y-35522982D01*
X89910749Y-35522982D02*
X89376411Y-35797150D01*
X89376411Y-35797150D02*
X88866583Y-36105455D01*
X88866583Y-36105455D02*
X88381968Y-36447327D01*
X88381968Y-36447327D02*
X87923271Y-36822198D01*
X87923271Y-36822198D02*
X87491194Y-37229496D01*
X87491194Y-37229496D02*
X87086441Y-37668654D01*
X87086441Y-37668654D02*
X86709714Y-38139100D01*
X86709714Y-38139100D02*
X86361719Y-38640265D01*
X86361719Y-38640265D02*
X86043158Y-39171579D01*
X86043158Y-39171579D02*
X85844723Y-39266829D01*
X85844723Y-39266829D02*
X85497531Y-39452578D01*
X85497531Y-39452578D02*
X85159019Y-39651518D01*
X85159019Y-39651518D02*
X84829515Y-39863317D01*
X84829515Y-39863317D02*
X84509347Y-40087644D01*
X84509347Y-40087644D02*
X84198842Y-40324169D01*
X84198842Y-40324169D02*
X83898329Y-40572562D01*
X83898329Y-40572562D02*
X83608134Y-40832490D01*
X83608134Y-40832490D02*
X83328587Y-41103624D01*
X83328587Y-41103624D02*
X83060014Y-41385633D01*
X83060014Y-41385633D02*
X82802743Y-41678186D01*
X82802743Y-41678186D02*
X82557102Y-41980952D01*
X82557102Y-41980952D02*
X82323418Y-42293601D01*
X82323418Y-42293601D02*
X82102020Y-42615802D01*
X82102020Y-42615802D02*
X81893235Y-42947224D01*
X81893235Y-42947224D02*
X81697392Y-43287536D01*
X81697392Y-43287536D02*
X81514816Y-43636407D01*
X81514816Y-43636407D02*
X81389630Y-43880623D01*
X81389630Y-43880623D02*
X81271387Y-44127868D01*
X81271387Y-44127868D02*
X81160125Y-44377992D01*
X81160125Y-44377992D02*
X81055888Y-44630845D01*
X81055888Y-44630845D02*
X80958716Y-44886277D01*
X80958716Y-44886277D02*
X80868650Y-45144139D01*
X80868650Y-45144139D02*
X80785731Y-45404281D01*
X80785731Y-45404281D02*
X80710000Y-45666553D01*
X80710000Y-45666553D02*
X80641498Y-45930805D01*
X80641498Y-45930805D02*
X80580266Y-46196888D01*
X80580266Y-46196888D02*
X80526346Y-46464652D01*
X80526346Y-46464652D02*
X80479778Y-46733946D01*
X80479778Y-46733946D02*
X80440603Y-47004622D01*
X80440603Y-47004622D02*
X80408863Y-47276529D01*
X80408863Y-47276529D02*
X80384598Y-47549518D01*
X80384598Y-47549518D02*
X80367849Y-47823439D01*
X80367849Y-47823439D02*
X78825148Y-47436888D01*
X78825148Y-47436888D02*
X77272380Y-47152210D01*
X77272380Y-47152210D02*
X75714130Y-46968336D01*
X75714130Y-46968336D02*
X74154980Y-46884197D01*
X74154980Y-46884197D02*
X72599516Y-46898722D01*
X72599516Y-46898722D02*
X71052320Y-47010844D01*
X71052320Y-47010844D02*
X69517975Y-47219492D01*
X69517975Y-47219492D02*
X68001066Y-47523597D01*
X68001066Y-47523597D02*
X66506176Y-47922091D01*
X66506176Y-47922091D02*
X65037889Y-48413903D01*
X65037889Y-48413903D02*
X63600788Y-48997965D01*
X63600788Y-48997965D02*
X62199457Y-49673207D01*
X62199457Y-49673207D02*
X60838479Y-50438560D01*
X60838479Y-50438560D02*
X59522439Y-51292955D01*
X59522439Y-51292955D02*
X58255919Y-52235322D01*
X58255919Y-52235322D02*
X57043503Y-53264593D01*
X57043503Y-53264593D02*
X56818698Y-53247648D01*
X56818698Y-53247648D02*
X56593865Y-53237816D01*
X56593865Y-53237816D02*
X56369168Y-53235069D01*
X56369168Y-53235069D02*
X56144771Y-53239383D01*
X56144771Y-53239383D02*
X55920838Y-53250729D01*
X55920838Y-53250729D02*
X55697533Y-53269082D01*
X55697533Y-53269082D02*
X55475020Y-53294415D01*
X55475020Y-53294415D02*
X55253464Y-53326701D01*
X55253464Y-53326701D02*
X55033028Y-53365914D01*
X55033028Y-53365914D02*
X54813877Y-53412027D01*
X54813877Y-53412027D02*
X54596174Y-53465014D01*
X54596174Y-53465014D02*
X54380085Y-53524848D01*
X54380085Y-53524848D02*
X54165772Y-53591503D01*
X54165772Y-53591503D02*
X53953400Y-53664952D01*
X53953400Y-53664952D02*
X53743134Y-53745168D01*
X53743134Y-53745168D02*
X53535136Y-53832125D01*
X53535136Y-53832125D02*
X53356540Y-53490814D01*
X53356540Y-53490814D02*
X53216632Y-53239922D01*
X53216632Y-53239922D02*
X53069417Y-52995591D01*
X53069417Y-52995591D02*
X52915121Y-52757961D01*
X52915121Y-52757961D02*
X52753971Y-52527175D01*
X52753971Y-52527175D02*
X52586194Y-52303374D01*
X52586194Y-52303374D02*
X52412015Y-52086699D01*
X52412015Y-52086699D02*
X52231663Y-51877293D01*
X52231663Y-51877293D02*
X52045363Y-51675297D01*
X52045363Y-51675297D02*
X51853343Y-51480853D01*
X51853343Y-51480853D02*
X51655829Y-51294102D01*
X51655829Y-51294102D02*
X51453047Y-51115187D01*
X51453047Y-51115187D02*
X51245226Y-50944249D01*
X51245226Y-50944249D02*
X51032590Y-50781429D01*
X51032590Y-50781429D02*
X50815368Y-50626870D01*
X50815368Y-50626870D02*
X50593786Y-50480713D01*
X50593786Y-50480713D02*
X50368070Y-50343099D01*
X50368070Y-50343099D02*
X50138447Y-50214172D01*
X50138447Y-50214172D02*
X49905145Y-50094071D01*
X49905145Y-50094071D02*
X49668389Y-49982939D01*
X49668389Y-49982939D02*
X49428407Y-49880918D01*
X49428407Y-49880918D02*
X49185424Y-49788150D01*
X49185424Y-49788150D02*
X48939669Y-49704775D01*
X48939669Y-49704775D02*
X48691367Y-49630936D01*
X48691367Y-49630936D02*
X48440746Y-49566775D01*
X48440746Y-49566775D02*
X48188032Y-49512433D01*
X48188032Y-49512433D02*
X47933452Y-49468051D01*
X47933452Y-49468051D02*
X47677232Y-49433773D01*
X47677232Y-49433773D02*
X47419600Y-49409738D01*
X47419600Y-49409738D02*
X47160781Y-49396090D01*
X47160781Y-49396090D02*
X46901004Y-49392969D01*
X46901004Y-49392969D02*
X46640493Y-49400517D01*
X46640493Y-49400517D02*
X46379477Y-49418877D01*
X46379477Y-49418877D02*
X46099640Y-49447041D01*
X46099640Y-49447041D02*
X45821694Y-49485392D01*
X45821694Y-49485392D02*
X45545902Y-49533826D01*
X45545902Y-49533826D02*
X45272526Y-49592240D01*
X45272526Y-49592240D02*
X45001827Y-49660532D01*
X45001827Y-49660532D02*
X44734068Y-49738598D01*
X44734068Y-49738598D02*
X44469511Y-49826336D01*
X44469511Y-49826336D02*
X44208417Y-49923641D01*
X44208417Y-49923641D02*
X43951049Y-50030411D01*
X43951049Y-50030411D02*
X43697668Y-50146543D01*
X43697668Y-50146543D02*
X43448536Y-50271934D01*
X43448536Y-50271934D02*
X43203917Y-50406480D01*
X43203917Y-50406480D02*
X42964070Y-50550078D01*
X42964070Y-50550078D02*
X42729259Y-50702626D01*
X42729259Y-50702626D02*
X42499745Y-50864020D01*
X42499745Y-50864020D02*
X42275791Y-51034158D01*
X42275791Y-51034158D02*
X42067949Y-51208511D01*
X42067949Y-51208511D02*
X41867651Y-51390386D01*
X41867651Y-51390386D02*
X41675066Y-51579525D01*
X41675066Y-51579525D02*
X41490362Y-51775671D01*
X41490362Y-51775671D02*
X41313709Y-51978566D01*
X41313709Y-51978566D02*
X41145274Y-52187952D01*
X41145274Y-52187952D02*
X40985227Y-52403574D01*
X40985227Y-52403574D02*
X40833737Y-52625171D01*
X40833737Y-52625171D02*
X40690972Y-52852489D01*
X40690972Y-52852489D02*
X40557101Y-53085267D01*
X40557101Y-53085267D02*
X40432293Y-53323251D01*
X40432293Y-53323251D02*
X40316717Y-53566181D01*
X40316717Y-53566181D02*
X40210541Y-53813800D01*
X40210541Y-53813800D02*
X40113934Y-54065852D01*
X40113934Y-54065852D02*
X40027066Y-54322077D01*
X40027066Y-54322077D02*
X39950104Y-54582220D01*
X39950104Y-54582220D02*
X39803259Y-54582220D01*
X39803259Y-54582220D02*
X39481003Y-54613451D01*
X39481003Y-54613451D02*
X39159991Y-54653981D01*
X39159991Y-54653981D02*
X38840421Y-54703772D01*
X38840421Y-54703772D02*
X38522494Y-54762782D01*
X38522494Y-54762782D02*
X38206409Y-54830971D01*
X38206409Y-54830971D02*
X37892364Y-54908300D01*
X37892364Y-54908300D02*
X37580560Y-54994729D01*
X37580560Y-54994729D02*
X37271196Y-55090217D01*
X37271196Y-55090217D02*
X36883716Y-55199715D01*
X36883716Y-55199715D02*
X36528048Y-55294237D01*
X36528048Y-55294237D02*
X36199913Y-55371085D01*
X36199913Y-55371085D02*
X36044833Y-55402039D01*
X36044833Y-55402039D02*
X35895032Y-55427562D01*
X35895032Y-55427562D02*
X35749975Y-55447319D01*
X35749975Y-55447319D02*
X35609127Y-55460971D01*
X35609127Y-55460971D02*
X35471953Y-55468182D01*
X35471953Y-55468182D02*
X35337919Y-55468614D01*
X35337919Y-55468614D02*
X35206489Y-55461931D01*
X35206489Y-55461931D02*
X35077128Y-55447794D01*
X35077128Y-55447794D02*
X34949303Y-55425867D01*
X34949303Y-55425867D02*
X34822477Y-55395813D01*
X34822477Y-55395813D02*
X34753924Y-55378509D01*
X34753924Y-55378509D02*
X34684943Y-55363822D01*
X34684943Y-55363822D02*
X34615606Y-55351747D01*
X34615606Y-55351747D02*
X34545987Y-55342284D01*
X34545987Y-55342284D02*
X34476159Y-55335430D01*
X34476159Y-55335430D02*
X34406195Y-55331182D01*
X34406195Y-55331182D02*
X34336169Y-55329538D01*
X34336169Y-55329538D02*
X34266153Y-55330495D01*
X34266153Y-55330495D02*
X34196221Y-55334052D01*
X34196221Y-55334052D02*
X34126446Y-55340206D01*
X34126446Y-55340206D02*
X34056901Y-55348954D01*
X34056901Y-55348954D02*
X33987660Y-55360294D01*
X33987660Y-55360294D02*
X33918796Y-55374225D01*
X33918796Y-55374225D02*
X33850381Y-55390742D01*
X33850381Y-55390742D02*
X33782490Y-55409845D01*
X33782490Y-55409845D02*
X33715195Y-55431530D01*
X33715195Y-55431530D02*
X33270138Y-55553934D01*
X33270138Y-55553934D02*
X32834134Y-55698575D01*
X32834134Y-55698575D02*
X32407902Y-55864901D01*
X32407902Y-55864901D02*
X31992162Y-56052361D01*
X31992162Y-56052361D02*
X31587633Y-56260404D01*
X31587633Y-56260404D02*
X31195035Y-56488478D01*
X31195035Y-56488478D02*
X30815087Y-56736030D01*
X30815087Y-56736030D02*
X30448509Y-57002510D01*
X30448509Y-57002510D02*
X30096020Y-57287365D01*
X30096020Y-57287365D02*
X29758341Y-57590044D01*
X29758341Y-57590044D02*
X29436189Y-57909996D01*
X29436189Y-57909996D02*
X29130285Y-58246668D01*
X29130285Y-58246668D02*
X28841349Y-58599510D01*
X28841349Y-58599510D02*
X28570099Y-58967969D01*
X28570099Y-58967969D02*
X28317256Y-59351493D01*
X28317256Y-59351493D02*
X28083538Y-59749532D01*
X28083538Y-59749532D02*
X27839610Y-60196117D01*
X27839610Y-60196117D02*
X27620745Y-60652694D01*
X27620745Y-60652694D02*
X27427051Y-61118232D01*
X27427051Y-61118232D02*
X27258641Y-61591699D01*
X27258641Y-61591699D02*
X27115625Y-62072064D01*
X27115625Y-62072064D02*
X26998114Y-62558295D01*
X26998114Y-62558295D02*
X26906218Y-63049362D01*
X26906218Y-63049362D02*
X26840048Y-63544232D01*
X26840048Y-63544232D02*
X26799714Y-64041875D01*
X26799714Y-64041875D02*
X26785328Y-64541259D01*
X26785328Y-64541259D02*
X26797000Y-65041353D01*
X26797000Y-65041353D02*
X26834840Y-65541125D01*
X26834840Y-65541125D02*
X26898960Y-66039545D01*
X26898960Y-66039545D02*
X26989469Y-66535579D01*
X26989469Y-66535579D02*
X27106480Y-67028199D01*
X27106480Y-67028199D02*
X27250102Y-67516371D01*
X27250102Y-67516371D02*
X27265086Y-67578053D01*
X27265086Y-67578053D02*
X27277834Y-67640090D01*
X27277834Y-67640090D02*
X27288346Y-67702423D01*
X27288346Y-67702423D02*
X27296624Y-67764993D01*
X27296624Y-67764993D02*
X27302670Y-67827739D01*
X27302670Y-67827739D02*
X27306485Y-67890601D01*
X27306485Y-67890601D02*
X27308072Y-67953521D01*
X27308072Y-67953521D02*
X27307431Y-68016439D01*
X27307431Y-68016439D02*
X27304564Y-68079294D01*
X27304564Y-68079294D02*
X27299474Y-68142028D01*
X27299474Y-68142028D02*
X27292161Y-68204580D01*
X27292161Y-68204580D02*
X27282628Y-68266892D01*
X27282628Y-68266892D02*
X27270876Y-68328902D01*
X27270876Y-68328902D02*
X27256906Y-68390553D01*
X27256906Y-68390553D02*
X27240721Y-68451783D01*
X27240721Y-68451783D02*
X27222322Y-68512533D01*
X27222322Y-68512533D02*
X27010846Y-69124987D01*
X27010846Y-69124987D02*
X26833315Y-69729970D01*
X26833315Y-69729970D02*
X26689724Y-70327360D01*
X26689724Y-70327360D02*
X26580067Y-70917036D01*
X26580067Y-70917036D02*
X26504338Y-71498875D01*
X26504338Y-71498875D02*
X26462531Y-72072756D01*
X26462531Y-72072756D02*
X26454641Y-72638556D01*
X26454641Y-72638556D02*
X26480662Y-73196153D01*
X26480662Y-73196153D02*
X26540588Y-73745424D01*
X26540588Y-73745424D02*
X26634412Y-74286249D01*
X26634412Y-74286249D02*
X26762130Y-74818505D01*
X26762130Y-74818505D02*
X26923736Y-75342069D01*
X26923736Y-75342069D02*
X27119223Y-75856820D01*
X27119223Y-75856820D02*
X27348585Y-76362635D01*
X27348585Y-76362635D02*
X27611818Y-76859393D01*
X27611818Y-76859393D02*
X27908915Y-77346972D01*
X27908915Y-77346972D02*
X28049958Y-77547564D01*
X28049958Y-77547564D02*
X28195926Y-77744458D01*
X28195926Y-77744458D02*
X28346744Y-77937565D01*
X28346744Y-77937565D02*
X28502338Y-78126796D01*
X28502338Y-78126796D02*
X28662634Y-78312062D01*
X28662634Y-78312062D02*
X28827555Y-78493273D01*
X28827555Y-78493273D02*
X28997027Y-78670343D01*
X28997027Y-78670343D02*
X29170975Y-78843181D01*
X29170975Y-78843181D02*
X29149513Y-78914310D01*
X29149513Y-78914310D02*
X29125475Y-78984531D01*
X29125475Y-78984531D02*
X29098892Y-79053774D01*
X29098892Y-79053774D02*
X29069795Y-79121972D01*
X29069795Y-79121972D02*
X29038215Y-79189056D01*
X29038215Y-79189056D02*
X29004183Y-79254957D01*
X29004183Y-79254957D02*
X28967729Y-79319607D01*
X28967729Y-79319607D02*
X28928884Y-79382938D01*
X28928884Y-79382938D02*
X28667699Y-79693869D01*
X28667699Y-79693869D02*
X28429149Y-80018655D01*
X28429149Y-80018655D02*
X28213501Y-80356091D01*
X28213501Y-80356091D02*
X28021019Y-80704966D01*
X28021019Y-80704966D02*
X27851972Y-81064073D01*
X27851972Y-81064073D02*
X27706625Y-81432203D01*
X27706625Y-81432203D02*
X27585244Y-81808149D01*
X27585244Y-81808149D02*
X27488095Y-82190703D01*
X27488095Y-82190703D02*
X27415445Y-82578655D01*
X27415445Y-82578655D02*
X27367560Y-82970798D01*
X27367560Y-82970798D02*
X27344707Y-83365923D01*
X27344707Y-83365923D02*
X27347151Y-83762823D01*
X27347151Y-83762823D02*
X27375159Y-84160289D01*
X27375159Y-84160289D02*
X27428997Y-84557112D01*
X27428997Y-84557112D02*
X27508931Y-84952085D01*
X27508931Y-84952085D02*
X27615228Y-85344000D01*
X27615228Y-85344000D02*
X27615228Y-85344000D01*
M02*
