%TF.GenerationSoftware,KiCad,Pcbnew,(6.0.4)*%
%TF.CreationDate,2022-06-03T16:22:06-07:00*%
%TF.ProjectId,Foxy_Pride,466f7879-5f50-4726-9964-652e6b696361,rev?*%
%TF.SameCoordinates,Original*%
%TF.FileFunction,Legend,Top*%
%TF.FilePolarity,Positive*%
%FSLAX46Y46*%
G04 Gerber Fmt 4.6, Leading zero omitted, Abs format (unit mm)*
G04 Created by KiCad (PCBNEW (6.0.4)) date 2022-06-03 16:22:06*
%MOMM*%
%LPD*%
G01*
G04 APERTURE LIST*
%ADD10C,0.254000*%
%ADD11C,0.150000*%
%ADD12C,0.120000*%
%ADD13C,0.304800*%
G04 APERTURE END LIST*
D10*
X49834800Y-73202800D02*
X49809400Y-74574400D01*
D11*
X50088800Y-71856600D02*
X50038000Y-71780400D01*
D10*
X50038000Y-71780400D02*
X49961800Y-72212200D01*
X49834800Y-72669400D02*
X49834800Y-73202800D01*
X49961800Y-72212200D02*
X49834800Y-72669400D01*
X50800000Y-72491600D02*
X50038000Y-71780400D01*
D11*
%TO.C,D9*%
X47775904Y-62936380D02*
X47775904Y-61936380D01*
X48014000Y-61936380D01*
X48156857Y-61984000D01*
X48252095Y-62079238D01*
X48299714Y-62174476D01*
X48347333Y-62364952D01*
X48347333Y-62507809D01*
X48299714Y-62698285D01*
X48252095Y-62793523D01*
X48156857Y-62888761D01*
X48014000Y-62936380D01*
X47775904Y-62936380D01*
X48823523Y-62936380D02*
X49014000Y-62936380D01*
X49109238Y-62888761D01*
X49156857Y-62841142D01*
X49252095Y-62698285D01*
X49299714Y-62507809D01*
X49299714Y-62126857D01*
X49252095Y-62031619D01*
X49204476Y-61984000D01*
X49109238Y-61936380D01*
X48918761Y-61936380D01*
X48823523Y-61984000D01*
X48775904Y-62031619D01*
X48728285Y-62126857D01*
X48728285Y-62364952D01*
X48775904Y-62460190D01*
X48823523Y-62507809D01*
X48918761Y-62555428D01*
X49109238Y-62555428D01*
X49204476Y-62507809D01*
X49252095Y-62460190D01*
X49299714Y-62364952D01*
%TO.C,D6*%
X96797904Y-63190380D02*
X96797904Y-62190380D01*
X97036000Y-62190380D01*
X97178857Y-62238000D01*
X97274095Y-62333238D01*
X97321714Y-62428476D01*
X97369333Y-62618952D01*
X97369333Y-62761809D01*
X97321714Y-62952285D01*
X97274095Y-63047523D01*
X97178857Y-63142761D01*
X97036000Y-63190380D01*
X96797904Y-63190380D01*
X98226476Y-62190380D02*
X98036000Y-62190380D01*
X97940761Y-62238000D01*
X97893142Y-62285619D01*
X97797904Y-62428476D01*
X97750285Y-62618952D01*
X97750285Y-62999904D01*
X97797904Y-63095142D01*
X97845523Y-63142761D01*
X97940761Y-63190380D01*
X98131238Y-63190380D01*
X98226476Y-63142761D01*
X98274095Y-63095142D01*
X98321714Y-62999904D01*
X98321714Y-62761809D01*
X98274095Y-62666571D01*
X98226476Y-62618952D01*
X98131238Y-62571333D01*
X97940761Y-62571333D01*
X97845523Y-62618952D01*
X97797904Y-62666571D01*
X97750285Y-62761809D01*
%TO.C,D3*%
X107084904Y-59888380D02*
X107084904Y-58888380D01*
X107323000Y-58888380D01*
X107465857Y-58936000D01*
X107561095Y-59031238D01*
X107608714Y-59126476D01*
X107656333Y-59316952D01*
X107656333Y-59459809D01*
X107608714Y-59650285D01*
X107561095Y-59745523D01*
X107465857Y-59840761D01*
X107323000Y-59888380D01*
X107084904Y-59888380D01*
X107989666Y-58888380D02*
X108608714Y-58888380D01*
X108275380Y-59269333D01*
X108418238Y-59269333D01*
X108513476Y-59316952D01*
X108561095Y-59364571D01*
X108608714Y-59459809D01*
X108608714Y-59697904D01*
X108561095Y-59793142D01*
X108513476Y-59840761D01*
X108418238Y-59888380D01*
X108132523Y-59888380D01*
X108037285Y-59840761D01*
X107989666Y-59793142D01*
%TO.C,D8*%
X34821904Y-74112380D02*
X34821904Y-73112380D01*
X35060000Y-73112380D01*
X35202857Y-73160000D01*
X35298095Y-73255238D01*
X35345714Y-73350476D01*
X35393333Y-73540952D01*
X35393333Y-73683809D01*
X35345714Y-73874285D01*
X35298095Y-73969523D01*
X35202857Y-74064761D01*
X35060000Y-74112380D01*
X34821904Y-74112380D01*
X35964761Y-73540952D02*
X35869523Y-73493333D01*
X35821904Y-73445714D01*
X35774285Y-73350476D01*
X35774285Y-73302857D01*
X35821904Y-73207619D01*
X35869523Y-73160000D01*
X35964761Y-73112380D01*
X36155238Y-73112380D01*
X36250476Y-73160000D01*
X36298095Y-73207619D01*
X36345714Y-73302857D01*
X36345714Y-73350476D01*
X36298095Y-73445714D01*
X36250476Y-73493333D01*
X36155238Y-73540952D01*
X35964761Y-73540952D01*
X35869523Y-73588571D01*
X35821904Y-73636190D01*
X35774285Y-73731428D01*
X35774285Y-73921904D01*
X35821904Y-74017142D01*
X35869523Y-74064761D01*
X35964761Y-74112380D01*
X36155238Y-74112380D01*
X36250476Y-74064761D01*
X36298095Y-74017142D01*
X36345714Y-73921904D01*
X36345714Y-73731428D01*
X36298095Y-73636190D01*
X36250476Y-73588571D01*
X36155238Y-73540952D01*
%TO.C,D5*%
X85875904Y-46172380D02*
X85875904Y-45172380D01*
X86114000Y-45172380D01*
X86256857Y-45220000D01*
X86352095Y-45315238D01*
X86399714Y-45410476D01*
X86447333Y-45600952D01*
X86447333Y-45743809D01*
X86399714Y-45934285D01*
X86352095Y-46029523D01*
X86256857Y-46124761D01*
X86114000Y-46172380D01*
X85875904Y-46172380D01*
X87352095Y-45172380D02*
X86875904Y-45172380D01*
X86828285Y-45648571D01*
X86875904Y-45600952D01*
X86971142Y-45553333D01*
X87209238Y-45553333D01*
X87304476Y-45600952D01*
X87352095Y-45648571D01*
X87399714Y-45743809D01*
X87399714Y-45981904D01*
X87352095Y-46077142D01*
X87304476Y-46124761D01*
X87209238Y-46172380D01*
X86971142Y-46172380D01*
X86875904Y-46124761D01*
X86828285Y-46077142D01*
%TO.C,D2*%
X93241904Y-42870380D02*
X93241904Y-41870380D01*
X93480000Y-41870380D01*
X93622857Y-41918000D01*
X93718095Y-42013238D01*
X93765714Y-42108476D01*
X93813333Y-42298952D01*
X93813333Y-42441809D01*
X93765714Y-42632285D01*
X93718095Y-42727523D01*
X93622857Y-42822761D01*
X93480000Y-42870380D01*
X93241904Y-42870380D01*
X94194285Y-41965619D02*
X94241904Y-41918000D01*
X94337142Y-41870380D01*
X94575238Y-41870380D01*
X94670476Y-41918000D01*
X94718095Y-41965619D01*
X94765714Y-42060857D01*
X94765714Y-42156095D01*
X94718095Y-42298952D01*
X94146666Y-42870380D01*
X94765714Y-42870380D01*
%TO.C,D4*%
X98321904Y-58110380D02*
X98321904Y-57110380D01*
X98560000Y-57110380D01*
X98702857Y-57158000D01*
X98798095Y-57253238D01*
X98845714Y-57348476D01*
X98893333Y-57538952D01*
X98893333Y-57681809D01*
X98845714Y-57872285D01*
X98798095Y-57967523D01*
X98702857Y-58062761D01*
X98560000Y-58110380D01*
X98321904Y-58110380D01*
X99750476Y-57443714D02*
X99750476Y-58110380D01*
X99512380Y-57062761D02*
X99274285Y-57777047D01*
X99893333Y-57777047D01*
%TO.C,D7*%
X34567904Y-58872380D02*
X34567904Y-57872380D01*
X34806000Y-57872380D01*
X34948857Y-57920000D01*
X35044095Y-58015238D01*
X35091714Y-58110476D01*
X35139333Y-58300952D01*
X35139333Y-58443809D01*
X35091714Y-58634285D01*
X35044095Y-58729523D01*
X34948857Y-58824761D01*
X34806000Y-58872380D01*
X34567904Y-58872380D01*
X35472666Y-57872380D02*
X36139333Y-57872380D01*
X35710761Y-58872380D01*
%TO.C,D1*%
X106957904Y-46680380D02*
X106957904Y-45680380D01*
X107196000Y-45680380D01*
X107338857Y-45728000D01*
X107434095Y-45823238D01*
X107481714Y-45918476D01*
X107529333Y-46108952D01*
X107529333Y-46251809D01*
X107481714Y-46442285D01*
X107434095Y-46537523D01*
X107338857Y-46632761D01*
X107196000Y-46680380D01*
X106957904Y-46680380D01*
X108481714Y-46680380D02*
X107910285Y-46680380D01*
X108196000Y-46680380D02*
X108196000Y-45680380D01*
X108100761Y-45823238D01*
X108005523Y-45918476D01*
X107910285Y-45966095D01*
%TO.C,D10*%
X39171714Y-83256380D02*
X39171714Y-82256380D01*
X39409809Y-82256380D01*
X39552666Y-82304000D01*
X39647904Y-82399238D01*
X39695523Y-82494476D01*
X39743142Y-82684952D01*
X39743142Y-82827809D01*
X39695523Y-83018285D01*
X39647904Y-83113523D01*
X39552666Y-83208761D01*
X39409809Y-83256380D01*
X39171714Y-83256380D01*
X40695523Y-83256380D02*
X40124095Y-83256380D01*
X40409809Y-83256380D02*
X40409809Y-82256380D01*
X40314571Y-82399238D01*
X40219333Y-82494476D01*
X40124095Y-82542095D01*
X41314571Y-82256380D02*
X41409809Y-82256380D01*
X41505047Y-82304000D01*
X41552666Y-82351619D01*
X41600285Y-82446857D01*
X41647904Y-82637333D01*
X41647904Y-82875428D01*
X41600285Y-83065904D01*
X41552666Y-83161142D01*
X41505047Y-83208761D01*
X41409809Y-83256380D01*
X41314571Y-83256380D01*
X41219333Y-83208761D01*
X41171714Y-83161142D01*
X41124095Y-83065904D01*
X41076476Y-82875428D01*
X41076476Y-82637333D01*
X41124095Y-82446857D01*
X41171714Y-82351619D01*
X41219333Y-82304000D01*
X41314571Y-82256380D01*
D12*
%TO.C,D9*%
X50130000Y-59144000D02*
X48930000Y-59144000D01*
D13*
X46431200Y-58928000D02*
X46431200Y-60960000D01*
D12*
X48980000Y-60744000D02*
X50080000Y-60744000D01*
%TO.C,D6*%
X98764000Y-66078000D02*
X99864000Y-66078000D01*
D13*
X96215200Y-64262000D02*
X96215200Y-66294000D01*
D12*
X99914000Y-64478000D02*
X98714000Y-64478000D01*
%TO.C,D3*%
X107146000Y-57442000D02*
X108246000Y-57442000D01*
D13*
X104597200Y-55626000D02*
X104597200Y-57658000D01*
D12*
X108296000Y-55842000D02*
X107096000Y-55842000D01*
%TO.C,D8*%
X34945500Y-71539000D02*
X36045500Y-71539000D01*
D13*
X32396700Y-69723000D02*
X32396700Y-71755000D01*
D12*
X36095500Y-69939000D02*
X34895500Y-69939000D01*
%TO.C,D5*%
X88738000Y-47460000D02*
X87538000Y-47460000D01*
D13*
X85039200Y-47244000D02*
X85039200Y-49276000D01*
D12*
X87588000Y-49060000D02*
X88688000Y-49060000D01*
%TO.C,G\u002A\u002A\u002A*%
G36*
X103492235Y-45607025D02*
G01*
X103709931Y-46093466D01*
X103894506Y-46516866D01*
X104033850Y-46848534D01*
X104115855Y-47059779D01*
X104131984Y-47122857D01*
X104051944Y-47082111D01*
X103867622Y-46942351D01*
X103615434Y-46731586D01*
X103555979Y-46679802D01*
X103010682Y-46201489D01*
X102788483Y-46528484D01*
X102459114Y-47168172D01*
X102307189Y-47844112D01*
X102337229Y-48530794D01*
X102391461Y-48768560D01*
X102492811Y-49019700D01*
X102669974Y-49357106D01*
X102887304Y-49713721D01*
X102920482Y-49763709D01*
X103160197Y-50120859D01*
X103311929Y-50348655D01*
X103393507Y-50475014D01*
X103422758Y-50527852D01*
X103417510Y-50535085D01*
X103411278Y-50532238D01*
X103319656Y-50485216D01*
X103099363Y-50371867D01*
X102790228Y-50212690D01*
X102633039Y-50131722D01*
X102201058Y-49923859D01*
X101850964Y-49798295D01*
X101506963Y-49732129D01*
X101234533Y-49709192D01*
X100450854Y-49751146D01*
X99727965Y-49964146D01*
X99233818Y-50236336D01*
X99015653Y-50373752D01*
X98872110Y-50442368D01*
X98845432Y-50442537D01*
X98789476Y-50342972D01*
X98679339Y-50127848D01*
X98590837Y-49949426D01*
X98290876Y-49488714D01*
X97869784Y-49037854D01*
X97389504Y-48655820D01*
X97005190Y-48439778D01*
X96445982Y-48269300D01*
X95799312Y-48194557D01*
X95143714Y-48219769D01*
X94667492Y-48314185D01*
X94149453Y-48498577D01*
X93693409Y-48744976D01*
X93249961Y-49086404D01*
X92769710Y-49555884D01*
X92701895Y-49628156D01*
X92403475Y-49940435D01*
X92204886Y-50124105D01*
X92083948Y-50195622D01*
X92018481Y-50171443D01*
X92005193Y-50145066D01*
X92025430Y-49974373D01*
X92158614Y-49655136D01*
X92403511Y-49190114D01*
X92534215Y-48960901D01*
X92763242Y-48565831D01*
X92957252Y-48230654D01*
X93096647Y-47989266D01*
X93161827Y-47875562D01*
X93163093Y-47873280D01*
X93108145Y-47794201D01*
X92928136Y-47655474D01*
X92699241Y-47509786D01*
X92456220Y-47355000D01*
X92369288Y-47271998D01*
X92439308Y-47265920D01*
X93378008Y-47382138D01*
X94282202Y-47320904D01*
X95134562Y-47086540D01*
X95917761Y-46683362D01*
X96458966Y-46264076D01*
X96928479Y-45837251D01*
X97404517Y-46083321D01*
X97619376Y-46187040D01*
X97818077Y-46256509D01*
X98045838Y-46298286D01*
X98347879Y-46318929D01*
X98769416Y-46324996D01*
X99067466Y-46324501D01*
X99564929Y-46320484D01*
X99920070Y-46307536D01*
X100180119Y-46277091D01*
X100392305Y-46220584D01*
X100603859Y-46129447D01*
X100850932Y-46001034D01*
X101496747Y-45597126D01*
X102059006Y-45129890D01*
X102491380Y-44639208D01*
X102573209Y-44518402D01*
X102821777Y-44126450D01*
X103492235Y-45607025D01*
G37*
G36*
X26671432Y-71279740D02*
G01*
X26739306Y-70772547D01*
X26849648Y-70238368D01*
X27011451Y-69620443D01*
X27149170Y-69144660D01*
X27271902Y-68713185D01*
X27350992Y-68362623D01*
X27386226Y-68046196D01*
X27377388Y-67717128D01*
X27324266Y-67328640D01*
X27226645Y-66833956D01*
X27136706Y-66421927D01*
X27043100Y-65960870D01*
X26985640Y-65556070D01*
X26959234Y-65140756D01*
X26958788Y-64648158D01*
X26970462Y-64242077D01*
X27044151Y-63230563D01*
X27198026Y-62330946D01*
X27447642Y-61476931D01*
X27808554Y-60602221D01*
X27840423Y-60534188D01*
X28284310Y-59673602D01*
X28754629Y-58937900D01*
X29296271Y-58263314D01*
X29833809Y-57702524D01*
X30813661Y-56872843D01*
X31891745Y-56203421D01*
X32980419Y-55727772D01*
X33361877Y-55596934D01*
X33667216Y-55512509D01*
X33958024Y-55465767D01*
X34295894Y-55447980D01*
X34742415Y-55450418D01*
X34912659Y-55453919D01*
X35376003Y-55459588D01*
X35752416Y-55448249D01*
X36099310Y-55412340D01*
X36474096Y-55344302D01*
X36934187Y-55236574D01*
X37329450Y-55135653D01*
X37876514Y-54999024D01*
X38427666Y-54870510D01*
X38923526Y-54763399D01*
X39304712Y-54690976D01*
X39347829Y-54684004D01*
X40045757Y-54574913D01*
X40254528Y-53997577D01*
X40710800Y-53009196D01*
X41325252Y-52113711D01*
X42084519Y-51323374D01*
X42975239Y-50650438D01*
X43984050Y-50107154D01*
X44857737Y-49777053D01*
X45179147Y-49684636D01*
X45482617Y-49621284D01*
X45816766Y-49581772D01*
X46230213Y-49560874D01*
X46771575Y-49553364D01*
X46942811Y-49552957D01*
X47692898Y-49568231D01*
X48310126Y-49623061D01*
X48849082Y-49728805D01*
X49364352Y-49896826D01*
X49910519Y-50138483D01*
X50023035Y-50194033D01*
X50808365Y-50670119D01*
X51578737Y-51291950D01*
X52290581Y-52017893D01*
X52900329Y-52806312D01*
X53119750Y-53153271D01*
X53302138Y-53462495D01*
X53442749Y-53700178D01*
X53517954Y-53826399D01*
X53524231Y-53836565D01*
X53613862Y-53818774D01*
X53840895Y-53754124D01*
X54162673Y-53654996D01*
X54292026Y-53613727D01*
X54936764Y-53447003D01*
X55648518Y-53348255D01*
X56056593Y-53320208D01*
X57067016Y-53269390D01*
X57857339Y-52610203D01*
X59545455Y-51323955D01*
X61329314Y-50196722D01*
X63196644Y-49231754D01*
X65135173Y-48432300D01*
X66687902Y-47942031D01*
X82160353Y-47942031D01*
X82167394Y-48520703D01*
X82208737Y-49019798D01*
X82278295Y-49362226D01*
X82465382Y-49881410D01*
X82667465Y-50254314D01*
X82917210Y-50523382D01*
X83247287Y-50731062D01*
X83379935Y-50793594D01*
X83764048Y-50975537D01*
X84211908Y-51203477D01*
X84610486Y-51419188D01*
X84965864Y-51609727D01*
X85219855Y-51713709D01*
X85429763Y-51748244D01*
X85652896Y-51730437D01*
X85653023Y-51730418D01*
X86378722Y-51559403D01*
X87232885Y-51249848D01*
X87684681Y-51053809D01*
X88116209Y-50866233D01*
X88385275Y-50769555D01*
X88491635Y-50764582D01*
X88435045Y-50852118D01*
X88215264Y-51032968D01*
X87832047Y-51307937D01*
X87549703Y-51500811D01*
X87139968Y-51778844D01*
X86785427Y-52022310D01*
X86516388Y-52210179D01*
X86363155Y-52321421D01*
X86341754Y-52339069D01*
X86382907Y-52421003D01*
X86550891Y-52588937D01*
X86818666Y-52818175D01*
X87149295Y-53076590D01*
X87602240Y-53425931D01*
X88093241Y-53818858D01*
X88547505Y-54194968D01*
X88758556Y-54376245D01*
X89095017Y-54665542D01*
X89330623Y-54847483D01*
X89503901Y-54943181D01*
X89653374Y-54973745D01*
X89817566Y-54960287D01*
X89822844Y-54959467D01*
X90257694Y-54890673D01*
X90541253Y-54852803D01*
X90710333Y-54853374D01*
X90801741Y-54899899D01*
X90852291Y-54999894D01*
X90898790Y-55160875D01*
X90904540Y-55180301D01*
X91069950Y-55569983D01*
X91333629Y-56019009D01*
X91650844Y-56462303D01*
X91976861Y-56834792D01*
X92148236Y-56989499D01*
X92827285Y-57426080D01*
X93543384Y-57700421D01*
X94270593Y-57808300D01*
X94982969Y-57745494D01*
X95574164Y-57547007D01*
X96106635Y-57297956D01*
X96268182Y-57879009D01*
X96622690Y-58807115D01*
X97142532Y-59654216D01*
X97817311Y-60410365D01*
X98636633Y-61065610D01*
X99590099Y-61610004D01*
X100580099Y-62005464D01*
X101242798Y-62170899D01*
X101814182Y-62193603D01*
X102329156Y-62072259D01*
X102628341Y-61928183D01*
X103144673Y-61529943D01*
X103514821Y-61024416D01*
X103727207Y-60437772D01*
X103770256Y-59796184D01*
X103722809Y-59453990D01*
X103630279Y-59113861D01*
X103483728Y-58685835D01*
X103311883Y-58252550D01*
X103278722Y-58176405D01*
X103120887Y-57819832D01*
X102989716Y-57522907D01*
X102906319Y-57333434D01*
X102891621Y-57299726D01*
X102898113Y-57193567D01*
X102934360Y-57181256D01*
X103007377Y-57253610D01*
X103172177Y-57453297D01*
X103409188Y-57754252D01*
X103698840Y-58130411D01*
X104021561Y-58555710D01*
X104357781Y-59004085D01*
X104687930Y-59449471D01*
X104992435Y-59865805D01*
X105251726Y-60227022D01*
X105446233Y-60507059D01*
X105538997Y-60650066D01*
X105523823Y-60734198D01*
X105355450Y-60811716D01*
X105083107Y-60878532D01*
X104538680Y-61071220D01*
X104111844Y-61380208D01*
X103811523Y-61775716D01*
X103646640Y-62227963D01*
X103626118Y-62707168D01*
X103758881Y-63183551D01*
X104053851Y-63627332D01*
X104212729Y-63783338D01*
X104656776Y-64086575D01*
X105155185Y-64246665D01*
X105753738Y-64277411D01*
X105836558Y-64272932D01*
X106358970Y-64186786D01*
X106873384Y-64010084D01*
X107323529Y-63768460D01*
X107653138Y-63487547D01*
X107704635Y-63421971D01*
X107894166Y-63022710D01*
X107960345Y-62573832D01*
X107895632Y-62150911D01*
X107843623Y-62028675D01*
X107667504Y-61784614D01*
X107412409Y-61533405D01*
X107315240Y-61457106D01*
X106942977Y-61187441D01*
X107437111Y-61128082D01*
X108065519Y-61072369D01*
X108561734Y-61078981D01*
X108974095Y-61152463D01*
X109350939Y-61297354D01*
X109377443Y-61310391D01*
X109908482Y-61640832D01*
X110255084Y-62010591D01*
X110416781Y-62418839D01*
X110393109Y-62864747D01*
X110341722Y-63027511D01*
X110122704Y-63420384D01*
X109784285Y-63732810D01*
X109308106Y-63975425D01*
X108675804Y-64158864D01*
X108249738Y-64239211D01*
X107497963Y-64406182D01*
X106874068Y-64638710D01*
X106391738Y-64927801D01*
X106064658Y-65264459D01*
X105906514Y-65639691D01*
X105893557Y-65787800D01*
X105929042Y-66011262D01*
X106059691Y-66162302D01*
X106321797Y-66270412D01*
X106556990Y-66326882D01*
X106883674Y-66414387D01*
X107025889Y-66509033D01*
X106983976Y-66622573D01*
X106758277Y-66766758D01*
X106572363Y-66855947D01*
X106248444Y-67029457D01*
X105978843Y-67220636D01*
X105842677Y-67361717D01*
X105763963Y-67497373D01*
X105735438Y-67626406D01*
X105761849Y-67799962D01*
X105847945Y-68069188D01*
X105929349Y-68295516D01*
X106083306Y-68750222D01*
X106157934Y-69070777D01*
X106155540Y-69294101D01*
X106078431Y-69457116D01*
X106006663Y-69532951D01*
X105863503Y-69626716D01*
X105583012Y-69781954D01*
X105199851Y-69980461D01*
X104748682Y-70204034D01*
X104513939Y-70316907D01*
X104056826Y-70535357D01*
X103663851Y-70724816D01*
X103365197Y-70870601D01*
X103191045Y-70958031D01*
X103159254Y-70975934D01*
X103167013Y-71067571D01*
X103250953Y-71176436D01*
X103316502Y-71207595D01*
X103426422Y-71174968D01*
X103673881Y-71086969D01*
X104020070Y-70957739D01*
X104354429Y-70829358D01*
X105135545Y-70515296D01*
X105749350Y-70238143D01*
X106210591Y-69982051D01*
X106534019Y-69731173D01*
X106734383Y-69469658D01*
X106826434Y-69181659D01*
X106824920Y-68851327D01*
X106744591Y-68462813D01*
X106700180Y-68308819D01*
X106620153Y-68043567D01*
X106568525Y-67869673D01*
X106558016Y-67831988D01*
X106640398Y-67811368D01*
X106846748Y-67774320D01*
X106920830Y-67762227D01*
X107308085Y-67631014D01*
X107603673Y-67396542D01*
X107768213Y-67096095D01*
X107789080Y-66940192D01*
X107753760Y-66699393D01*
X107661524Y-66361862D01*
X107542980Y-66028657D01*
X107425773Y-65722100D01*
X107349178Y-65494897D01*
X107328697Y-65393326D01*
X107329734Y-65392137D01*
X107427009Y-65356480D01*
X107670263Y-65273874D01*
X108025160Y-65155814D01*
X108457360Y-65013794D01*
X108560393Y-64980155D01*
X109340854Y-64703861D01*
X109951315Y-64433181D01*
X110410161Y-64152723D01*
X110735778Y-63847094D01*
X110946549Y-63500904D01*
X111060860Y-63098758D01*
X111088182Y-62863834D01*
X111052597Y-62274945D01*
X110849536Y-61743849D01*
X110470013Y-61251009D01*
X110253234Y-61048486D01*
X109799601Y-60657735D01*
X110337021Y-60262108D01*
X111097762Y-59597229D01*
X111713145Y-58836291D01*
X112168473Y-58000080D01*
X112390211Y-57358352D01*
X112485165Y-56837454D01*
X112526614Y-56236092D01*
X112515751Y-55619987D01*
X112453765Y-55054860D01*
X112341848Y-54606430D01*
X112340258Y-54602162D01*
X112046442Y-54005188D01*
X111655835Y-53538723D01*
X111159913Y-53200221D01*
X110550151Y-52987136D01*
X109818022Y-52896922D01*
X108955002Y-52927034D01*
X107952567Y-53074925D01*
X107523307Y-53163685D01*
X107181470Y-53229201D01*
X106914280Y-53261687D01*
X106772520Y-53255325D01*
X106765098Y-53250546D01*
X106779460Y-53148139D01*
X106940036Y-52991431D01*
X107219076Y-52801401D01*
X107588834Y-52599030D01*
X107694304Y-52547973D01*
X107954462Y-52435595D01*
X108198385Y-52362822D01*
X108480122Y-52320926D01*
X108853725Y-52301179D01*
X109258110Y-52295443D01*
X109701781Y-52286309D01*
X110089376Y-52266721D01*
X110372798Y-52239785D01*
X110490199Y-52215833D01*
X110659748Y-52099579D01*
X110917215Y-51860387D01*
X111237148Y-51527233D01*
X111594097Y-51129093D01*
X111962609Y-50694941D01*
X112317233Y-50253752D01*
X112632518Y-49834502D01*
X112820925Y-49562418D01*
X113375091Y-48606230D01*
X113769520Y-47644600D01*
X114014235Y-46639997D01*
X114119261Y-45554889D01*
X114114658Y-44718196D01*
X114079329Y-44118955D01*
X114024732Y-43658670D01*
X113943244Y-43287101D01*
X113859215Y-43034637D01*
X113434193Y-42181325D01*
X112855166Y-41422009D01*
X112140958Y-40772831D01*
X111310392Y-40249935D01*
X110382289Y-39869464D01*
X110063707Y-39779401D01*
X109614449Y-39692500D01*
X109132121Y-39660016D01*
X108547289Y-39676401D01*
X107627979Y-39790788D01*
X106758248Y-40030936D01*
X105907061Y-40410177D01*
X105043384Y-40941840D01*
X104308770Y-41497084D01*
X103965953Y-41773030D01*
X103679813Y-41998872D01*
X103480395Y-42151205D01*
X103397849Y-42206629D01*
X103376442Y-42119066D01*
X103350415Y-41884809D01*
X103324085Y-41546504D01*
X103313217Y-41370438D01*
X103272572Y-40889684D01*
X103200996Y-40513459D01*
X103078021Y-40157029D01*
X102953115Y-39879622D01*
X102487792Y-39113420D01*
X101860754Y-38403745D01*
X101095378Y-37766238D01*
X100215042Y-37216544D01*
X99243122Y-36770306D01*
X98202995Y-36443168D01*
X97641355Y-36325042D01*
X97178992Y-36267377D01*
X96582162Y-36227283D01*
X95893916Y-36204389D01*
X95157305Y-36198324D01*
X94415377Y-36208716D01*
X93711184Y-36235195D01*
X93087774Y-36277389D01*
X92588200Y-36334927D01*
X92393925Y-36370288D01*
X91236679Y-36711180D01*
X90196149Y-37199590D01*
X89276619Y-37831962D01*
X88482372Y-38604736D01*
X87817692Y-39514355D01*
X87286863Y-40557260D01*
X87252265Y-40641495D01*
X87104447Y-40987096D01*
X86973630Y-41257174D01*
X86881078Y-41409120D01*
X86860240Y-41427063D01*
X86793920Y-41362237D01*
X86730558Y-41165345D01*
X86712699Y-41071267D01*
X86651217Y-40686785D01*
X86344589Y-40843990D01*
X85517939Y-41365189D01*
X84736019Y-42046789D01*
X84019161Y-42861218D01*
X83387695Y-43780901D01*
X82861953Y-44778265D01*
X82462266Y-45825736D01*
X82334885Y-46282002D01*
X82245116Y-46767335D01*
X82186600Y-47339127D01*
X82160353Y-47942031D01*
X66687902Y-47942031D01*
X67132629Y-47801610D01*
X69176739Y-47342934D01*
X71255231Y-47059522D01*
X73355834Y-46954623D01*
X75466274Y-47031487D01*
X77574281Y-47293363D01*
X77792438Y-47331271D01*
X78310447Y-47429355D01*
X78848495Y-47540504D01*
X79326156Y-47647726D01*
X79542183Y-47700989D01*
X79877509Y-47785439D01*
X80129615Y-47843952D01*
X80253563Y-47866236D01*
X80259191Y-47865217D01*
X80275661Y-47769286D01*
X80311385Y-47529246D01*
X80359937Y-47188796D01*
X80383664Y-47018762D01*
X80643759Y-45737099D01*
X81065035Y-44515157D01*
X81658471Y-43324486D01*
X82058745Y-42677897D01*
X82558153Y-42000451D01*
X83142543Y-41336671D01*
X83777232Y-40718056D01*
X84427536Y-40176105D01*
X85058771Y-39742317D01*
X85597860Y-39463758D01*
X85847083Y-39284055D01*
X86137558Y-38941628D01*
X86293608Y-38714174D01*
X87035181Y-37740038D01*
X87917106Y-36883661D01*
X88921385Y-36158619D01*
X90030017Y-35578486D01*
X90871543Y-35261708D01*
X91405922Y-35100488D01*
X91895981Y-34977725D01*
X92381559Y-34888642D01*
X92902492Y-34828466D01*
X93498618Y-34792420D01*
X94209774Y-34775731D01*
X94946916Y-34773226D01*
X95838215Y-34782475D01*
X96579400Y-34808630D01*
X97209510Y-34856271D01*
X97767583Y-34929978D01*
X98292655Y-35034330D01*
X98823766Y-35173909D01*
X99117065Y-35262487D01*
X100078455Y-35631163D01*
X101024199Y-36121287D01*
X101919508Y-36707507D01*
X102729594Y-37364473D01*
X103419668Y-38066831D01*
X103953543Y-38786965D01*
X104301519Y-39350730D01*
X104836904Y-39080275D01*
X105738639Y-38694115D01*
X106737170Y-38403970D01*
X107421060Y-38266456D01*
X108521221Y-38171238D01*
X109620225Y-38261245D01*
X110703393Y-38532634D01*
X111756046Y-38981560D01*
X112763506Y-39604179D01*
X112892554Y-39699303D01*
X113473487Y-40202345D01*
X114036078Y-40808168D01*
X114514245Y-41442914D01*
X114657590Y-41672103D01*
X115049703Y-42507966D01*
X115326625Y-43465175D01*
X115482450Y-44510202D01*
X115511273Y-45609519D01*
X115466692Y-46266375D01*
X115249251Y-47610634D01*
X114879084Y-48858460D01*
X114346380Y-50032657D01*
X113641327Y-51156027D01*
X113024418Y-51942709D01*
X112603338Y-52438117D01*
X112932815Y-52890470D01*
X113387000Y-53604269D01*
X113696179Y-54318238D01*
X113873077Y-55078043D01*
X113930420Y-55929346D01*
X113917229Y-56423047D01*
X113798985Y-57500796D01*
X113555827Y-58463444D01*
X113174175Y-59349301D01*
X112640447Y-60196679D01*
X112524636Y-60351395D01*
X112058836Y-60959125D01*
X112269596Y-61415900D01*
X112377200Y-61689650D01*
X112441933Y-61978289D01*
X112473179Y-62342220D01*
X112480427Y-62773047D01*
X112472923Y-63232911D01*
X112442961Y-63567061D01*
X112379498Y-63838992D01*
X112271486Y-64112198D01*
X112233125Y-64194689D01*
X111782000Y-64927769D01*
X111180455Y-65553686D01*
X110441876Y-66060663D01*
X109755684Y-66374802D01*
X109447546Y-66501017D01*
X109281580Y-66608882D01*
X109217345Y-66730879D01*
X109210722Y-66812548D01*
X109254917Y-67068161D01*
X109352139Y-67320857D01*
X109438641Y-67511811D01*
X109420647Y-67603162D01*
X109303141Y-67654765D01*
X109138439Y-67779295D01*
X108993687Y-68001102D01*
X108984027Y-68023218D01*
X108837660Y-68291052D01*
X108628622Y-68585347D01*
X108559145Y-68668571D01*
X108323818Y-69026130D01*
X108262960Y-69297862D01*
X108190899Y-69758383D01*
X107996701Y-70256567D01*
X107713346Y-70721134D01*
X107481964Y-70985900D01*
X107263598Y-71182267D01*
X107024625Y-71365357D01*
X106745103Y-71544712D01*
X106405089Y-71729878D01*
X105984640Y-71930397D01*
X105463814Y-72155814D01*
X104822669Y-72415673D01*
X104041261Y-72719517D01*
X103160974Y-73053784D01*
X102915981Y-73153284D01*
X102687087Y-73267049D01*
X102448450Y-73413849D01*
X102174227Y-73612452D01*
X101838576Y-73881628D01*
X101415656Y-74240146D01*
X100879623Y-74706775D01*
X100853251Y-74729895D01*
X100322529Y-75192443D01*
X99914215Y-75540384D01*
X99610598Y-75786770D01*
X99393967Y-75944651D01*
X99246611Y-76027078D01*
X99150819Y-76047102D01*
X99096337Y-76024501D01*
X99080501Y-76056426D01*
X99140556Y-76229410D01*
X99265362Y-76516121D01*
X99443780Y-76889228D01*
X99471387Y-76944766D01*
X99938156Y-77950776D01*
X100282954Y-78869650D01*
X100517889Y-79748239D01*
X100655069Y-80633393D01*
X100706604Y-81571963D01*
X100707708Y-81728271D01*
X100617406Y-82941223D01*
X100346140Y-84103829D01*
X99898119Y-85206258D01*
X99277553Y-86238677D01*
X98488650Y-87191255D01*
X98278367Y-87403358D01*
X98061808Y-87635455D01*
X97921667Y-87826479D01*
X97888723Y-87924626D01*
X97827019Y-88014594D01*
X97630200Y-88187102D01*
X97323928Y-88424283D01*
X96933863Y-88708270D01*
X96485664Y-89021196D01*
X96004992Y-89345193D01*
X95517509Y-89662395D01*
X95048873Y-89954934D01*
X94624745Y-90204942D01*
X94567811Y-90236967D01*
X93634393Y-90728124D01*
X92796077Y-91098891D01*
X92012285Y-91361248D01*
X91242441Y-91527172D01*
X90445968Y-91608642D01*
X89876393Y-91621942D01*
X89252817Y-91609551D01*
X88787002Y-91574739D01*
X88448151Y-91514493D01*
X88299815Y-91467540D01*
X87907938Y-91316774D01*
X86999853Y-91924027D01*
X85930156Y-92587866D01*
X84741066Y-93236321D01*
X83495900Y-93838682D01*
X82257974Y-94364236D01*
X81139154Y-94766712D01*
X80315720Y-95032182D01*
X80369892Y-95799802D01*
X80381135Y-96476883D01*
X80297388Y-97030195D01*
X80102322Y-97508429D01*
X79779604Y-97960277D01*
X79569040Y-98187703D01*
X78888317Y-98755030D01*
X78053291Y-99237981D01*
X77084783Y-99624718D01*
X76986841Y-99655945D01*
X76686241Y-99742820D01*
X76403584Y-99803926D01*
X76095175Y-99843617D01*
X75717316Y-99866248D01*
X75226312Y-99876173D01*
X74759602Y-99877898D01*
X74094824Y-99868355D01*
X73477469Y-99841606D01*
X72955012Y-99800470D01*
X72578014Y-99748368D01*
X72248863Y-99689106D01*
X72000063Y-99667571D01*
X71765349Y-99689475D01*
X71478457Y-99760531D01*
X71108984Y-99875016D01*
X69946468Y-100215195D01*
X68878202Y-100456879D01*
X67864265Y-100600990D01*
X66864736Y-100648453D01*
X65839692Y-100600190D01*
X64749211Y-100457126D01*
X63553373Y-100220184D01*
X62896195Y-100065005D01*
X61493569Y-99719216D01*
X61356034Y-99940721D01*
X61055750Y-100329822D01*
X60636475Y-100748875D01*
X60152621Y-101151271D01*
X59658599Y-101490402D01*
X59351399Y-101657886D01*
X58526724Y-101976248D01*
X57617292Y-102201974D01*
X56686090Y-102325178D01*
X55796104Y-102335974D01*
X55333884Y-102288425D01*
X54471756Y-102091344D01*
X53613811Y-101776445D01*
X52811082Y-101368103D01*
X52114600Y-100890694D01*
X51777246Y-100589572D01*
X51326570Y-100068922D01*
X50870774Y-99419242D01*
X50442528Y-98697247D01*
X50074499Y-97959656D01*
X49799356Y-97263184D01*
X49729657Y-97034614D01*
X49613591Y-96296724D01*
X49672433Y-95594939D01*
X49896548Y-94951265D01*
X50276300Y-94387704D01*
X50802053Y-93926261D01*
X51187413Y-93705726D01*
X51472219Y-93568491D01*
X51678981Y-93467218D01*
X51758063Y-93426508D01*
X51726731Y-93342581D01*
X51617335Y-93138908D01*
X51452157Y-92856554D01*
X51420212Y-92803815D01*
X51180370Y-92398545D01*
X50913518Y-91930773D01*
X50692842Y-91530122D01*
X50501124Y-91187643D01*
X50341841Y-90964979D01*
X50163330Y-90812068D01*
X49913929Y-90678852D01*
X49729351Y-90596504D01*
X49340144Y-90412007D01*
X48950557Y-90203577D01*
X48706419Y-90055664D01*
X48286517Y-89777533D01*
X47518059Y-90265414D01*
X46782016Y-90685877D01*
X46083275Y-90974663D01*
X45359857Y-91149649D01*
X44549783Y-91228711D01*
X44146916Y-91237729D01*
X43143019Y-91186656D01*
X42209892Y-91015809D01*
X41313836Y-90712819D01*
X40421151Y-90265316D01*
X39498138Y-89660931D01*
X39156408Y-89405998D01*
X38904707Y-89212789D01*
X38619918Y-89452423D01*
X38224225Y-89719095D01*
X37793512Y-89903771D01*
X37404211Y-89973782D01*
X37400056Y-89973793D01*
X37238252Y-89951513D01*
X36919462Y-89888939D01*
X36470408Y-89792473D01*
X35917815Y-89668518D01*
X35288406Y-89523475D01*
X34608905Y-89363745D01*
X33906037Y-89195730D01*
X33206524Y-89025833D01*
X32537091Y-88860454D01*
X31924462Y-88705995D01*
X31395359Y-88568858D01*
X30976508Y-88455445D01*
X30694631Y-88372157D01*
X30646064Y-88355872D01*
X29837563Y-87975256D01*
X29131839Y-87445693D01*
X28539657Y-86783961D01*
X28071786Y-86006836D01*
X27738991Y-85131095D01*
X27552040Y-84173516D01*
X27513707Y-83475000D01*
X27601034Y-82411459D01*
X27856047Y-81386656D01*
X28268292Y-80431452D01*
X28827314Y-79576709D01*
X28839331Y-79561589D01*
X29030893Y-79292582D01*
X29178088Y-79035847D01*
X29207564Y-78967993D01*
X29247256Y-78799608D01*
X29199050Y-78653388D01*
X29036769Y-78467548D01*
X28966633Y-78399337D01*
X28436728Y-77800710D01*
X27932635Y-77059694D01*
X27479927Y-76223452D01*
X27104176Y-75339149D01*
X26833986Y-74466239D01*
X26727598Y-73966418D01*
X26662703Y-73467710D01*
X26632074Y-72899340D01*
X26627128Y-72440211D01*
X26627483Y-72417845D01*
X27878554Y-72417845D01*
X27907235Y-73282705D01*
X28022226Y-74045962D01*
X28240597Y-74782279D01*
X28579421Y-75566317D01*
X28615102Y-75639134D01*
X28842745Y-76070381D01*
X29080452Y-76446043D01*
X29366438Y-76818375D01*
X29738920Y-77239634D01*
X29949904Y-77464310D01*
X30851551Y-78412579D01*
X30581471Y-79193746D01*
X30398382Y-79647524D01*
X30166867Y-80117364D01*
X29933781Y-80509090D01*
X29909915Y-80543569D01*
X29430217Y-81277770D01*
X29089561Y-81937847D01*
X28874697Y-82562535D01*
X28772377Y-83190573D01*
X28769353Y-83860697D01*
X28770270Y-83875689D01*
X28898254Y-84682544D01*
X29168428Y-85407520D01*
X29567376Y-86027768D01*
X30081679Y-86520439D01*
X30461951Y-86756601D01*
X30633090Y-86819562D01*
X30959999Y-86918130D01*
X31414827Y-87045343D01*
X31969724Y-87194244D01*
X32596839Y-87357871D01*
X33268323Y-87529266D01*
X33956324Y-87701469D01*
X34632993Y-87867520D01*
X35270479Y-88020460D01*
X35840932Y-88153330D01*
X36316501Y-88259169D01*
X36669336Y-88331019D01*
X36871587Y-88361919D01*
X36888743Y-88362599D01*
X37084281Y-88323538D01*
X37110116Y-88211648D01*
X36968028Y-88034863D01*
X36781682Y-87885445D01*
X36301263Y-87464521D01*
X35856788Y-86942475D01*
X35502318Y-86387802D01*
X35363085Y-86087972D01*
X35252297Y-85745318D01*
X35188124Y-85375775D01*
X35161034Y-84913123D01*
X35158409Y-84666330D01*
X35168908Y-84152525D01*
X35210039Y-83721633D01*
X35294358Y-83287520D01*
X35434417Y-82764046D01*
X35436931Y-82755337D01*
X35417370Y-82644751D01*
X35271307Y-82535350D01*
X34970091Y-82406021D01*
X34955400Y-82400505D01*
X34160773Y-82052370D01*
X33472653Y-81648156D01*
X32912744Y-81204575D01*
X32502751Y-80738336D01*
X32293840Y-80351338D01*
X32158610Y-79740796D01*
X32183389Y-79057609D01*
X32365214Y-78325937D01*
X32614193Y-77737042D01*
X32782005Y-77392789D01*
X32907975Y-77119543D01*
X32974624Y-76956016D01*
X32979934Y-76927085D01*
X32882548Y-76935512D01*
X32657398Y-76983743D01*
X32437658Y-77039219D01*
X32135529Y-77115284D01*
X31904002Y-77165724D01*
X31818979Y-77177892D01*
X31737725Y-77097565D01*
X31598761Y-76879553D01*
X31420320Y-76559846D01*
X31220636Y-76174431D01*
X31017942Y-75759297D01*
X30830472Y-75350434D01*
X30676460Y-74983830D01*
X30595375Y-74762792D01*
X30257237Y-73474165D01*
X30105961Y-72200507D01*
X30141152Y-70927357D01*
X30362420Y-69640256D01*
X30447319Y-69312599D01*
X30833873Y-68161510D01*
X31311810Y-67176234D01*
X31881042Y-66356866D01*
X32541480Y-65703499D01*
X33293035Y-65216228D01*
X34135619Y-64895147D01*
X34733760Y-64775376D01*
X35298474Y-64698147D01*
X35237135Y-64943992D01*
X35030676Y-65419305D01*
X34676891Y-65854180D01*
X34400117Y-66079909D01*
X33684687Y-66685737D01*
X33101754Y-67424136D01*
X32657542Y-68286309D01*
X32478999Y-68795378D01*
X32368419Y-69330586D01*
X32308648Y-69987573D01*
X32299062Y-70705678D01*
X32339038Y-71424241D01*
X32427954Y-72082599D01*
X32516716Y-72467265D01*
X32747138Y-73133512D01*
X33070663Y-73874832D01*
X33455560Y-74623654D01*
X33807216Y-75215484D01*
X34101833Y-75735013D01*
X34262790Y-76183534D01*
X34302638Y-76610665D01*
X34253647Y-76980224D01*
X34153258Y-77752795D01*
X34209593Y-78437172D01*
X34429893Y-79050056D01*
X34821398Y-79608143D01*
X35391349Y-80128132D01*
X35720166Y-80362278D01*
X36368543Y-80832751D01*
X36858174Y-81289151D01*
X37213091Y-81767627D01*
X37457327Y-82304324D01*
X37614913Y-82935390D01*
X37668038Y-83292077D01*
X37807277Y-84266521D01*
X37969182Y-85083242D01*
X38166713Y-85773821D01*
X38412830Y-86369838D01*
X38720495Y-86902874D01*
X39102666Y-87404510D01*
X39554409Y-87888570D01*
X40393288Y-88603719D01*
X41290418Y-89139594D01*
X42243397Y-89495161D01*
X43249820Y-89669383D01*
X43734104Y-89688340D01*
X44563057Y-89632566D01*
X45303293Y-89455720D01*
X46007222Y-89139713D01*
X46727255Y-88666461D01*
X46754340Y-88646112D01*
X46843759Y-88574309D01*
X46870564Y-88526684D01*
X46810298Y-88500167D01*
X46638505Y-88491688D01*
X46330729Y-88498177D01*
X45862515Y-88516564D01*
X45757498Y-88520977D01*
X44605646Y-88518684D01*
X43602266Y-88408975D01*
X42750727Y-88192334D01*
X42358454Y-88032588D01*
X41746556Y-87641640D01*
X41221299Y-87100732D01*
X40802962Y-86437463D01*
X40511825Y-85679430D01*
X40452620Y-85439062D01*
X40384169Y-85121868D01*
X41062721Y-85598396D01*
X41981165Y-86147112D01*
X42942326Y-86540978D01*
X43918289Y-86771963D01*
X44881135Y-86832035D01*
X45260159Y-86805996D01*
X45899522Y-86736398D01*
X45231215Y-85999849D01*
X44534981Y-85194871D01*
X43991280Y-84476925D01*
X43593504Y-83830067D01*
X43335046Y-83238351D01*
X43209299Y-82685831D01*
X43209656Y-82156562D01*
X43329510Y-81634599D01*
X43372851Y-81515024D01*
X43482819Y-81260198D01*
X43574606Y-81099562D01*
X43609792Y-81070235D01*
X43704075Y-81149179D01*
X43888770Y-81364327D01*
X44148750Y-81694428D01*
X44468891Y-82118232D01*
X44834065Y-82614489D01*
X45229148Y-83161948D01*
X45639013Y-83739359D01*
X46048535Y-84325471D01*
X46442588Y-84899034D01*
X46806045Y-85438797D01*
X47123782Y-85923510D01*
X47380671Y-86331922D01*
X47508625Y-86547754D01*
X48076915Y-87436283D01*
X48674079Y-88152517D01*
X49319294Y-88713462D01*
X50031732Y-89136128D01*
X50733856Y-89408539D01*
X50972921Y-89487402D01*
X51145059Y-89572340D01*
X51285708Y-89699512D01*
X51430304Y-89905079D01*
X51614285Y-90225199D01*
X51716733Y-90411457D01*
X52426775Y-91664260D01*
X53088935Y-92743639D01*
X53709370Y-93657855D01*
X54294238Y-94415171D01*
X54849693Y-95023850D01*
X55381893Y-95492153D01*
X55638170Y-95674270D01*
X55845282Y-95817043D01*
X55935219Y-95895074D01*
X55899154Y-95894775D01*
X55732139Y-95839749D01*
X55429333Y-95749042D01*
X55037907Y-95636535D01*
X54714453Y-95546169D01*
X53809960Y-95350435D01*
X53019949Y-95296230D01*
X52332691Y-95383663D01*
X51813639Y-95572838D01*
X51426246Y-95807911D01*
X51206070Y-96067998D01*
X51131698Y-96396787D01*
X51181718Y-96837969D01*
X51185244Y-96854960D01*
X51320170Y-97285211D01*
X51550859Y-97803933D01*
X51847803Y-98357347D01*
X52181489Y-98891669D01*
X52522407Y-99353118D01*
X52616656Y-99463650D01*
X53254361Y-100043351D01*
X54001014Y-100478704D01*
X54836955Y-100764613D01*
X55742526Y-100895978D01*
X56698068Y-100867704D01*
X57486517Y-100726412D01*
X58198320Y-100488896D01*
X58805023Y-100160045D01*
X59287992Y-99757259D01*
X59628591Y-99297938D01*
X59808184Y-98799481D01*
X59831780Y-98536708D01*
X59792436Y-98212659D01*
X59697535Y-97916444D01*
X59687920Y-97897192D01*
X59599880Y-97699954D01*
X59578442Y-97589693D01*
X59580622Y-97586480D01*
X59680065Y-97599392D01*
X59911685Y-97665826D01*
X60230283Y-97772468D01*
X60316832Y-97803347D01*
X61270502Y-98123303D01*
X62332268Y-98437796D01*
X63421454Y-98724154D01*
X64358214Y-98939026D01*
X65410807Y-99119818D01*
X66413625Y-99200345D01*
X67404645Y-99177271D01*
X68421845Y-99047260D01*
X69503203Y-98806974D01*
X70686698Y-98453077D01*
X70968557Y-98358269D01*
X71396188Y-98214629D01*
X71691216Y-98128093D01*
X71899623Y-98092225D01*
X72067393Y-98100590D01*
X72240509Y-98146753D01*
X72310380Y-98170478D01*
X73052087Y-98361719D01*
X73899265Y-98470807D01*
X74784986Y-98494382D01*
X75642321Y-98429087D01*
X76056578Y-98358503D01*
X76757470Y-98166000D01*
X77385776Y-97904708D01*
X77915971Y-97591327D01*
X78322534Y-97242557D01*
X78579940Y-96875098D01*
X78650607Y-96661208D01*
X78643531Y-96218075D01*
X78481218Y-95755093D01*
X78188428Y-95311835D01*
X77789923Y-94927876D01*
X77419799Y-94694086D01*
X77181581Y-94571270D01*
X77026107Y-94485966D01*
X76999110Y-94468379D01*
X77031513Y-94383239D01*
X77153229Y-94201290D01*
X77247371Y-94077231D01*
X77460685Y-93786879D01*
X77701592Y-93430941D01*
X77839338Y-93213772D01*
X78147924Y-92710094D01*
X77914347Y-92455563D01*
X77627938Y-92095312D01*
X77324963Y-91635187D01*
X77035598Y-91129786D01*
X76790018Y-90633708D01*
X76618400Y-90201552D01*
X76568440Y-90020381D01*
X76549364Y-89843892D01*
X76529873Y-89509764D01*
X76511185Y-89049904D01*
X76494518Y-88496220D01*
X76481089Y-87880617D01*
X76476845Y-87620665D01*
X76445735Y-85506077D01*
X76826395Y-84920346D01*
X77434248Y-83827067D01*
X77890925Y-82645205D01*
X78202191Y-81357963D01*
X78315480Y-80581799D01*
X78368942Y-79933860D01*
X78397024Y-79176853D01*
X78401262Y-78351470D01*
X78383190Y-77498405D01*
X78344341Y-76658350D01*
X78286251Y-75871998D01*
X78210454Y-75180043D01*
X78118485Y-74623176D01*
X78085325Y-74477898D01*
X77966710Y-74004017D01*
X77758670Y-74383121D01*
X77513262Y-74818663D01*
X77285899Y-75189799D01*
X77032170Y-75565139D01*
X76707663Y-76013298D01*
X76674246Y-76058498D01*
X76417211Y-76393241D01*
X76102456Y-76784636D01*
X75763030Y-77193583D01*
X75431986Y-77580983D01*
X75142372Y-77907737D01*
X74927240Y-78134744D01*
X74885881Y-78174166D01*
X74774844Y-78281276D01*
X74567559Y-78485610D01*
X74301553Y-78750099D01*
X74190255Y-78861293D01*
X73909065Y-79127494D01*
X73664612Y-79331700D01*
X73495749Y-79442505D01*
X73457474Y-79453644D01*
X73304334Y-79416442D01*
X73037506Y-79318866D01*
X72714475Y-79181956D01*
X72711331Y-79180538D01*
X71598888Y-78743660D01*
X70350356Y-78367437D01*
X69012092Y-78061105D01*
X67630450Y-77833900D01*
X66251789Y-77695058D01*
X65045631Y-77653284D01*
X64089253Y-77691190D01*
X63039433Y-77797377D01*
X61958471Y-77961585D01*
X60908667Y-78173554D01*
X59952321Y-78423026D01*
X59510957Y-78564750D01*
X59025734Y-78728260D01*
X58575359Y-78870837D01*
X58204613Y-78978923D01*
X57958280Y-79038963D01*
X57927461Y-79044072D01*
X57559058Y-79013702D01*
X57092347Y-78840284D01*
X56543446Y-78531887D01*
X55928473Y-78096580D01*
X55743838Y-77950795D01*
X55299936Y-77568290D01*
X54764549Y-77067573D01*
X54165718Y-76477548D01*
X53531484Y-75827123D01*
X52889887Y-75145202D01*
X52268966Y-74460692D01*
X51696763Y-73802498D01*
X51547475Y-73624913D01*
X50520464Y-72392823D01*
X50578467Y-70781629D01*
X50607235Y-70110356D01*
X50644818Y-69523102D01*
X50660198Y-69358901D01*
X78141044Y-69358901D01*
X78217985Y-70510799D01*
X78476840Y-71698061D01*
X78781176Y-72595678D01*
X78888313Y-72864376D01*
X78999772Y-73120630D01*
X79123261Y-73373351D01*
X79266491Y-73631450D01*
X79437171Y-73903836D01*
X79643011Y-74199421D01*
X79891720Y-74527113D01*
X80191008Y-74895825D01*
X80548585Y-75314466D01*
X80972160Y-75791946D01*
X81469444Y-76337176D01*
X82048146Y-76959066D01*
X82715976Y-77666527D01*
X83480643Y-78468469D01*
X84349857Y-79373802D01*
X85331327Y-80391437D01*
X86432765Y-81530284D01*
X87175194Y-82296927D01*
X87893221Y-83066425D01*
X88502660Y-83778453D01*
X88991542Y-84417719D01*
X89347898Y-84968934D01*
X89500358Y-85267240D01*
X89666124Y-85839375D01*
X89711305Y-86483133D01*
X89636748Y-87124589D01*
X89473273Y-87627354D01*
X89052868Y-88328730D01*
X88490529Y-88904691D01*
X88269028Y-89070766D01*
X88046888Y-89239701D01*
X87908706Y-89373643D01*
X87886095Y-89416429D01*
X87967564Y-89509831D01*
X88179215Y-89641259D01*
X88471913Y-89787297D01*
X88796521Y-89924527D01*
X89103904Y-90029533D01*
X89246611Y-90064827D01*
X89755753Y-90137241D01*
X90250856Y-90138502D01*
X90809600Y-90066480D01*
X91078158Y-90014647D01*
X92154841Y-89708799D01*
X93291334Y-89223852D01*
X94486671Y-88560253D01*
X95113842Y-88156397D01*
X95662374Y-87774268D01*
X96124535Y-87416460D01*
X96548646Y-87039746D01*
X96983024Y-86600897D01*
X97475988Y-86056683D01*
X97531776Y-85993196D01*
X98180548Y-85164835D01*
X98656927Y-84344285D01*
X98973754Y-83499119D01*
X99143867Y-82596910D01*
X99182966Y-81823047D01*
X99150833Y-81067077D01*
X99047830Y-80347831D01*
X98862539Y-79625944D01*
X98583542Y-78862050D01*
X98199425Y-78016787D01*
X97918536Y-77463345D01*
X97431206Y-76566902D01*
X96976738Y-75817308D01*
X96527009Y-75181943D01*
X96053892Y-74628183D01*
X95529263Y-74123406D01*
X94924997Y-73634990D01*
X94212969Y-73130311D01*
X94141319Y-73082091D01*
X93808889Y-72864094D01*
X93477505Y-72659008D01*
X93128181Y-72457674D01*
X92741934Y-72250932D01*
X92299780Y-72029626D01*
X91782735Y-71784596D01*
X91171817Y-71506683D01*
X90448040Y-71186729D01*
X89592421Y-70815576D01*
X88585977Y-70384064D01*
X88265199Y-70247186D01*
X86892156Y-69655566D01*
X85685055Y-69120971D01*
X84631514Y-68636163D01*
X83719148Y-68193906D01*
X82935574Y-67786961D01*
X82268407Y-67408092D01*
X81705265Y-67050061D01*
X81233762Y-66705631D01*
X80841517Y-66367565D01*
X80516144Y-66028625D01*
X80245260Y-65681574D01*
X80114453Y-65483719D01*
X79916677Y-65201822D01*
X79745742Y-65022180D01*
X79644997Y-64976437D01*
X79550507Y-65066593D01*
X79396425Y-65293285D01*
X79204453Y-65621813D01*
X79005678Y-65998764D01*
X78534494Y-67114547D01*
X78246415Y-68230705D01*
X78141044Y-69358901D01*
X50660198Y-69358901D01*
X50697188Y-68963974D01*
X50770316Y-68377082D01*
X50870172Y-67706535D01*
X50977218Y-67048866D01*
X51046504Y-66633268D01*
X49867601Y-67258673D01*
X48688698Y-67884077D01*
X48410377Y-67715730D01*
X48214857Y-67550768D01*
X47974282Y-67283092D01*
X47750680Y-66984655D01*
X47426640Y-66568504D01*
X47083831Y-66276051D01*
X46682093Y-66089190D01*
X46181263Y-65989819D01*
X45541181Y-65959835D01*
X45477370Y-65959912D01*
X44510554Y-66018341D01*
X43670443Y-66193092D01*
X42925338Y-66496382D01*
X42243537Y-66940429D01*
X41719358Y-67408235D01*
X41072210Y-68184722D01*
X40585457Y-69050109D01*
X40262832Y-69986586D01*
X40108065Y-70976348D01*
X40124887Y-72001585D01*
X40317029Y-73044491D01*
X40448128Y-73475343D01*
X40602201Y-73900729D01*
X40775993Y-74336891D01*
X40953164Y-74747783D01*
X41117368Y-75097360D01*
X41252264Y-75349574D01*
X41341506Y-75468382D01*
X41353898Y-75473047D01*
X41402487Y-75386794D01*
X41485866Y-75150898D01*
X41593038Y-74799656D01*
X41713004Y-74367365D01*
X41734050Y-74287628D01*
X41851653Y-73848226D01*
X41953142Y-73486803D01*
X42028843Y-73236534D01*
X42069078Y-73130591D01*
X42071865Y-73129464D01*
X42094580Y-73225494D01*
X42141849Y-73473082D01*
X42207604Y-73836724D01*
X42285777Y-74280916D01*
X42370302Y-74770154D01*
X42455110Y-75268933D01*
X42534134Y-75741749D01*
X42601307Y-76153097D01*
X42650561Y-76467474D01*
X42675830Y-76649376D01*
X42677886Y-76675643D01*
X42595797Y-76771135D01*
X42382042Y-76903082D01*
X42085388Y-77049855D01*
X41754603Y-77189825D01*
X41438452Y-77301361D01*
X41185704Y-77362834D01*
X41115583Y-77368569D01*
X40762462Y-77281137D01*
X40394935Y-77016233D01*
X40008454Y-76569946D01*
X39757618Y-76200911D01*
X39271426Y-75382784D01*
X38907600Y-74642897D01*
X38651154Y-73929140D01*
X38487102Y-73189402D01*
X38400458Y-72371573D01*
X38376236Y-71423542D01*
X38376301Y-71397674D01*
X38381314Y-70807677D01*
X38395773Y-70359405D01*
X38425036Y-70005073D01*
X38474462Y-69696897D01*
X38549410Y-69387094D01*
X38634463Y-69095721D01*
X39065356Y-67948407D01*
X39642105Y-66828090D01*
X39956875Y-66327151D01*
X40439064Y-65658078D01*
X40989742Y-64978724D01*
X41572761Y-64328493D01*
X42151973Y-63746788D01*
X42691227Y-63273011D01*
X42914826Y-63102943D01*
X43197447Y-62910484D01*
X43553795Y-62681717D01*
X43947890Y-62438035D01*
X44343754Y-62200832D01*
X44705406Y-61991503D01*
X44996866Y-61831441D01*
X45182154Y-61742041D01*
X45222949Y-61730510D01*
X45267623Y-61816893D01*
X45327240Y-62046091D01*
X45390620Y-62373174D01*
X45405748Y-62465006D01*
X45599798Y-63261963D01*
X45908304Y-63992318D01*
X46312203Y-64625324D01*
X46792434Y-65130235D01*
X47247943Y-65436516D01*
X47960849Y-65714200D01*
X48734283Y-65863608D01*
X49507816Y-65878154D01*
X50198001Y-65758077D01*
X50795314Y-65537350D01*
X51217630Y-65271830D01*
X51475873Y-64953636D01*
X51542300Y-64788349D01*
X51604570Y-64545947D01*
X51581810Y-64408778D01*
X51443520Y-64300538D01*
X51320215Y-64232718D01*
X50962745Y-63952227D01*
X50724036Y-63583166D01*
X50639434Y-63189988D01*
X50663014Y-62948244D01*
X50721944Y-62678025D01*
X50797769Y-62443850D01*
X50872033Y-62310235D01*
X50894273Y-62299166D01*
X51001442Y-62324804D01*
X51241023Y-62392496D01*
X51564302Y-62488415D01*
X51614544Y-62503636D01*
X51970770Y-62605020D01*
X52185564Y-62644928D01*
X52295460Y-62627133D01*
X52331204Y-62577644D01*
X52387409Y-62451439D01*
X52513974Y-62188747D01*
X52695019Y-61821878D01*
X52914662Y-61383140D01*
X53048961Y-61117391D01*
X53712357Y-59889899D01*
X53789804Y-59765115D01*
X80841744Y-59765115D01*
X81207216Y-59942883D01*
X81692723Y-60246704D01*
X82011533Y-60610781D01*
X82123548Y-60846429D01*
X82233347Y-61088762D01*
X82323979Y-61144932D01*
X82401762Y-61016606D01*
X82427563Y-60926651D01*
X82577724Y-60616144D01*
X82843425Y-60300219D01*
X83163435Y-60041879D01*
X83402126Y-59923857D01*
X83742265Y-59811601D01*
X83306403Y-59601534D01*
X82827973Y-59296801D01*
X82528676Y-58930101D01*
X82433608Y-58673980D01*
X82353298Y-58462141D01*
X82262083Y-58434828D01*
X82176304Y-58593566D01*
X82161045Y-58648547D01*
X82010546Y-58959665D01*
X81744203Y-59275843D01*
X81423154Y-59534271D01*
X81184182Y-59652100D01*
X80841744Y-59765115D01*
X53789804Y-59765115D01*
X54418383Y-58752331D01*
X55201763Y-57654636D01*
X55672409Y-57072348D01*
X82722900Y-57072348D01*
X83181746Y-57187886D01*
X83800841Y-57430677D01*
X84384301Y-57819689D01*
X84893517Y-58317293D01*
X85289878Y-58885860D01*
X85532504Y-59479023D01*
X85608506Y-59734734D01*
X85675305Y-59836351D01*
X85751103Y-59776512D01*
X85854099Y-59547855D01*
X85941177Y-59313718D01*
X85995967Y-59203008D01*
X92909229Y-59203008D01*
X92954317Y-59300507D01*
X93074887Y-59520807D01*
X93248896Y-59824168D01*
X93336957Y-59974139D01*
X94240720Y-61678084D01*
X95001647Y-63481340D01*
X95603772Y-65342386D01*
X95940316Y-66745062D01*
X96070583Y-67407786D01*
X96171801Y-67989832D01*
X96248662Y-68536538D01*
X96305859Y-69093245D01*
X96348083Y-69705293D01*
X96380026Y-70418023D01*
X96405375Y-71239084D01*
X96463334Y-73402508D01*
X97352355Y-72957233D01*
X98235846Y-72419562D01*
X99010047Y-71754315D01*
X99646658Y-70987696D01*
X99881194Y-70615771D01*
X100074633Y-70282667D01*
X100203177Y-70087757D01*
X100295154Y-70004191D01*
X100378896Y-70005120D01*
X100471366Y-70056471D01*
X100489208Y-70172291D01*
X100404544Y-70404822D01*
X100236114Y-70725073D01*
X100002659Y-71104054D01*
X99722922Y-71512774D01*
X99415644Y-71922243D01*
X99099565Y-72303470D01*
X98836974Y-72584656D01*
X98228883Y-73111108D01*
X97578615Y-73532261D01*
X96932642Y-73820322D01*
X96629192Y-73905025D01*
X96408949Y-73983923D01*
X96326824Y-74120828D01*
X96321169Y-74201100D01*
X96335929Y-74375792D01*
X96362909Y-74430510D01*
X96465769Y-74400610D01*
X96699754Y-74321533D01*
X97017968Y-74209210D01*
X97080096Y-74186862D01*
X98029731Y-73765169D01*
X98899035Y-73222733D01*
X99662316Y-72581665D01*
X100293882Y-71864075D01*
X100768043Y-71092075D01*
X100829967Y-70959659D01*
X101040090Y-70434133D01*
X101127481Y-70037088D01*
X101079606Y-69742776D01*
X100883929Y-69525448D01*
X100527915Y-69359356D01*
X99999031Y-69218752D01*
X99980473Y-69214683D01*
X99239108Y-69006703D01*
X98636941Y-68728638D01*
X98129820Y-68358493D01*
X97982911Y-68219515D01*
X97780236Y-67989732D01*
X97571702Y-67710607D01*
X97385270Y-67426203D01*
X97248906Y-67180585D01*
X97190573Y-67017817D01*
X97197942Y-66982593D01*
X97287247Y-67015729D01*
X97477616Y-67147165D01*
X97728744Y-67348928D01*
X97741850Y-67360084D01*
X98543884Y-67946016D01*
X99358722Y-68351677D01*
X100175493Y-68576999D01*
X100983325Y-68621916D01*
X101771346Y-68486361D01*
X102528683Y-68170267D01*
X103244465Y-67673567D01*
X103545502Y-67395729D01*
X103819858Y-67123351D01*
X103983596Y-66973348D01*
X104060102Y-66934032D01*
X104072763Y-66993718D01*
X104044967Y-67140719D01*
X104043658Y-67146792D01*
X103935945Y-67523781D01*
X103774521Y-67833728D01*
X103529650Y-68108842D01*
X103171593Y-68381332D01*
X102670613Y-68683406D01*
X102576393Y-68735978D01*
X102013890Y-69084099D01*
X101617378Y-69411722D01*
X101393980Y-69712052D01*
X101344304Y-69911530D01*
X101385675Y-70112790D01*
X101492492Y-70405901D01*
X101598351Y-70638172D01*
X101852397Y-71147978D01*
X100626895Y-72308289D01*
X100173444Y-72742792D01*
X99848095Y-73068262D01*
X99636710Y-73300955D01*
X99525147Y-73457126D01*
X99499268Y-73553032D01*
X99515933Y-73585476D01*
X99602693Y-73617202D01*
X99743606Y-73561542D01*
X99965856Y-73402679D01*
X100274142Y-73144321D01*
X100891206Y-72604916D01*
X101425001Y-72129331D01*
X101863225Y-71729006D01*
X102193573Y-71415383D01*
X102403743Y-71199900D01*
X102481431Y-71093997D01*
X102481617Y-71091758D01*
X102519081Y-70971282D01*
X102618782Y-70725670D01*
X102761685Y-70401028D01*
X102813563Y-70287692D01*
X103051713Y-69835346D01*
X103345500Y-69410919D01*
X103737737Y-68954957D01*
X103887478Y-68796386D01*
X104344595Y-68275586D01*
X104645146Y-67820759D01*
X104799956Y-67408941D01*
X104819850Y-67017162D01*
X104794854Y-66871237D01*
X104652502Y-66367614D01*
X104447783Y-65798293D01*
X104202998Y-65213275D01*
X103940453Y-64662560D01*
X103682448Y-64196150D01*
X103455942Y-63869570D01*
X103093964Y-63494312D01*
X102716247Y-63199794D01*
X102364349Y-63014340D01*
X102126556Y-62963519D01*
X101911021Y-62943659D01*
X101561620Y-62890506D01*
X101129383Y-62812518D01*
X100731306Y-62732245D01*
X99802916Y-62487958D01*
X99016979Y-62170908D01*
X98333936Y-61761261D01*
X97714226Y-61239183D01*
X97673345Y-61199053D01*
X97265890Y-60727396D01*
X96887766Y-60165851D01*
X96571376Y-59572427D01*
X96349125Y-59005131D01*
X96272804Y-58691887D01*
X96244739Y-58523292D01*
X96207413Y-58415988D01*
X96130219Y-58370446D01*
X95982550Y-58387136D01*
X95733802Y-58466527D01*
X95353368Y-58609089D01*
X95088811Y-58710066D01*
X94591273Y-58930487D01*
X94194472Y-59168524D01*
X93929904Y-59402950D01*
X93841031Y-59551149D01*
X93743036Y-59573726D01*
X93516741Y-59489119D01*
X93357569Y-59405931D01*
X93111466Y-59276256D01*
X92948619Y-59205545D01*
X92909229Y-59203008D01*
X85995967Y-59203008D01*
X86295075Y-58598623D01*
X86792250Y-58005990D01*
X87426690Y-57541488D01*
X88163629Y-57219970D01*
X88678103Y-57053606D01*
X88130785Y-56875903D01*
X87458328Y-56598637D01*
X86914079Y-56233755D01*
X86526452Y-55845772D01*
X86330831Y-55572203D01*
X86131742Y-55222113D01*
X85958017Y-54855569D01*
X85838489Y-54532639D01*
X85801020Y-54334417D01*
X85728790Y-54245821D01*
X85706244Y-54243196D01*
X85614195Y-54312716D01*
X85611468Y-54334417D01*
X85562261Y-54570919D01*
X85433862Y-54903114D01*
X85255101Y-55270932D01*
X85054811Y-55614308D01*
X84886036Y-55845772D01*
X84417999Y-56299042D01*
X83865546Y-56645179D01*
X83274730Y-56886051D01*
X82722900Y-57072348D01*
X55672409Y-57072348D01*
X56097222Y-56546765D01*
X56686425Y-55874474D01*
X56964744Y-55556783D01*
X57182894Y-55292175D01*
X57317087Y-55110589D01*
X57346883Y-55043288D01*
X57237190Y-55015382D01*
X56987057Y-54982210D01*
X56645251Y-54949941D01*
X56552795Y-54942855D01*
X55571937Y-54963704D01*
X54614348Y-55172046D01*
X53680056Y-55566975D01*
X52742218Y-56060437D01*
X51957437Y-56468252D01*
X51312506Y-56795800D01*
X50794217Y-57048460D01*
X50389361Y-57231612D01*
X50084729Y-57350634D01*
X49867115Y-57410907D01*
X49723309Y-57417809D01*
X49640104Y-57376719D01*
X49604290Y-57293017D01*
X49600017Y-57228644D01*
X49677648Y-57149319D01*
X49890736Y-56995317D01*
X50210217Y-56786105D01*
X50607028Y-56541149D01*
X50783268Y-56436118D01*
X51202728Y-56183953D01*
X51556730Y-55962192D01*
X51816309Y-55789682D01*
X51952499Y-55685271D01*
X51965946Y-55666533D01*
X51879157Y-55580408D01*
X51650740Y-55501834D01*
X51328611Y-55439449D01*
X50960692Y-55401889D01*
X50594900Y-55397793D01*
X50505592Y-55403312D01*
X49749024Y-55558146D01*
X48993670Y-55898925D01*
X48243707Y-56422067D01*
X47503312Y-57123986D01*
X46776660Y-58001100D01*
X46067931Y-59049824D01*
X45868534Y-59381808D01*
X45662144Y-59734227D01*
X44193709Y-58827939D01*
X43715358Y-58530401D01*
X43287763Y-58260086D01*
X42939377Y-58035329D01*
X42698652Y-57874462D01*
X42597470Y-57799369D01*
X42549564Y-57711877D01*
X42608688Y-57606903D01*
X42798677Y-57452399D01*
X42917693Y-57368836D01*
X43582838Y-57021025D01*
X44334491Y-56835225D01*
X45177764Y-56810745D01*
X46088921Y-56940652D01*
X46402043Y-57005001D01*
X46628801Y-57046364D01*
X46719443Y-57055793D01*
X46740558Y-56960941D01*
X46767736Y-56768226D01*
X46773793Y-56668158D01*
X46749001Y-56582783D01*
X46669870Y-56497307D01*
X46512905Y-56396939D01*
X46254616Y-56266886D01*
X45871509Y-56092356D01*
X45340093Y-55858558D01*
X45284229Y-55834121D01*
X44784777Y-55613352D01*
X44344696Y-55414432D01*
X43994013Y-55251286D01*
X43762753Y-55137839D01*
X43683302Y-55091672D01*
X43664827Y-54954124D01*
X43768387Y-54724489D01*
X43969039Y-54430379D01*
X43987298Y-54408227D01*
X82189700Y-54408227D01*
X82527788Y-54607703D01*
X82770066Y-54797396D01*
X82940847Y-55013755D01*
X82961101Y-55057643D01*
X83056327Y-55308105D01*
X83271204Y-54988897D01*
X83481064Y-54744846D01*
X83717317Y-54560201D01*
X83752445Y-54541605D01*
X84018808Y-54413522D01*
X83724346Y-54234449D01*
X83467816Y-54027562D01*
X83262617Y-53780321D01*
X83261683Y-53778791D01*
X83093482Y-53502207D01*
X82936376Y-53775947D01*
X82740887Y-54019869D01*
X82488575Y-54226454D01*
X82484486Y-54228957D01*
X82189700Y-54408227D01*
X43987298Y-54408227D01*
X44241839Y-54099407D01*
X44561846Y-53759184D01*
X44904115Y-53437322D01*
X45243705Y-53161433D01*
X45555673Y-52959130D01*
X45653072Y-52911105D01*
X46426136Y-52671986D01*
X47266413Y-52605677D01*
X48165903Y-52710993D01*
X49116608Y-52986754D01*
X50110529Y-53431774D01*
X50457396Y-53621720D01*
X50822226Y-53825220D01*
X51122611Y-53982690D01*
X51323481Y-54076387D01*
X51389361Y-54093164D01*
X51359953Y-54001738D01*
X51244928Y-53799962D01*
X51069174Y-53531490D01*
X51068895Y-53531085D01*
X50461600Y-52796188D01*
X49733775Y-52160813D01*
X48921174Y-51648059D01*
X48059551Y-51281021D01*
X47304420Y-51099192D01*
X46890414Y-51047771D01*
X46538850Y-51038864D01*
X46165136Y-51075139D01*
X45740614Y-51148491D01*
X44996931Y-51343998D01*
X44250196Y-51635607D01*
X43562173Y-51994829D01*
X42994628Y-52393170D01*
X42939399Y-52440620D01*
X42517878Y-52878544D01*
X42112865Y-53416526D01*
X41774703Y-53981482D01*
X41585018Y-54406862D01*
X41333272Y-55047671D01*
X41097390Y-55517315D01*
X40867836Y-55832474D01*
X40682995Y-55984191D01*
X40451661Y-56076847D01*
X40086111Y-56173345D01*
X39640897Y-56260292D01*
X39422954Y-56293588D01*
X38884914Y-56383179D01*
X38269260Y-56508393D01*
X37679072Y-56647591D01*
X37465199Y-56704568D01*
X36705057Y-56905571D01*
X36080111Y-57043615D01*
X35548995Y-57124693D01*
X35070339Y-57154799D01*
X34602774Y-57139924D01*
X34511383Y-57132473D01*
X34040276Y-57107285D01*
X33670500Y-57133394D01*
X33319179Y-57217407D01*
X33276699Y-57230922D01*
X32238462Y-57665531D01*
X31289204Y-58260839D01*
X30440384Y-59004569D01*
X29703466Y-59884443D01*
X29089909Y-60888182D01*
X28611177Y-62003508D01*
X28497978Y-62350083D01*
X28387318Y-62737518D01*
X28312754Y-63077099D01*
X28267223Y-63425906D01*
X28243660Y-63841020D01*
X28235003Y-64379524D01*
X28234536Y-64479017D01*
X28239176Y-65079950D01*
X28262018Y-65548791D01*
X28308782Y-65942587D01*
X28385187Y-66318386D01*
X28440395Y-66532494D01*
X28618197Y-67440951D01*
X28634036Y-68295021D01*
X28487558Y-69139377D01*
X28417834Y-69378789D01*
X28187007Y-70161846D01*
X28028566Y-70835351D01*
X27931726Y-71460086D01*
X27885702Y-72096828D01*
X27878554Y-72417845D01*
X26627483Y-72417845D01*
X26637037Y-71816708D01*
X26671432Y-71279740D01*
G37*
G36*
X92151020Y-47182375D02*
G01*
X92103632Y-47229763D01*
X92056244Y-47182375D01*
X92103632Y-47134987D01*
X92151020Y-47182375D01*
G37*
G36*
X49385757Y-77838838D02*
G01*
X49391421Y-77847493D01*
X49355296Y-77949580D01*
X49242017Y-78171598D01*
X49074670Y-78474323D01*
X48876338Y-78818531D01*
X48670107Y-79165001D01*
X48479060Y-79474507D01*
X48326283Y-79707828D01*
X48234860Y-79825740D01*
X48223014Y-79832748D01*
X48175464Y-79753700D01*
X48098735Y-79560733D01*
X48089396Y-79534277D01*
X48005714Y-79164305D01*
X47993260Y-78789336D01*
X48051120Y-78482529D01*
X48103819Y-78380655D01*
X48242405Y-78265762D01*
X48479317Y-78132425D01*
X48763332Y-78001854D01*
X49043226Y-77895259D01*
X49267775Y-77833850D01*
X49385757Y-77838838D01*
G37*
G36*
X37044939Y-59384737D02*
G01*
X37091864Y-59423741D01*
X37083765Y-59533290D01*
X37012362Y-59787358D01*
X36889256Y-60156340D01*
X36726048Y-60610631D01*
X36534341Y-61120627D01*
X36325735Y-61656723D01*
X36111832Y-62189313D01*
X35904235Y-62688793D01*
X35714544Y-63125559D01*
X35554361Y-63470005D01*
X35435288Y-63692526D01*
X35398633Y-63744502D01*
X35203274Y-63893405D01*
X35044112Y-63859334D01*
X34939744Y-63651829D01*
X34932692Y-63539336D01*
X34965537Y-63379103D01*
X35047263Y-63150072D01*
X35186858Y-62831186D01*
X35393307Y-62401388D01*
X35675597Y-61839620D01*
X35900322Y-61400896D01*
X36190291Y-60838549D01*
X36451364Y-60334224D01*
X36671104Y-59911787D01*
X36837072Y-59595104D01*
X36936829Y-59408041D01*
X36960132Y-59367425D01*
X37044939Y-59384737D01*
G37*
D13*
%TO.C,D2*%
X90627200Y-38608000D02*
X90627200Y-40640000D01*
D12*
X93176000Y-40424000D02*
X94276000Y-40424000D01*
X94326000Y-38824000D02*
X93126000Y-38824000D01*
%TO.C,D4*%
X98510000Y-55664000D02*
X99610000Y-55664000D01*
X99660000Y-54064000D02*
X98460000Y-54064000D01*
D13*
X95961200Y-53848000D02*
X95961200Y-55880000D01*
D12*
%TO.C,D7*%
X33366000Y-60414000D02*
X32166000Y-60414000D01*
D13*
X29667200Y-60198000D02*
X29667200Y-62230000D01*
D12*
X32216000Y-62014000D02*
X33316000Y-62014000D01*
%TO.C,D1*%
X108162000Y-44234000D02*
X109262000Y-44234000D01*
X109312000Y-42634000D02*
X108112000Y-42634000D01*
D13*
X105613200Y-42418000D02*
X105613200Y-44450000D01*
D12*
%TO.C,D10*%
X43265000Y-80429000D02*
X44365000Y-80429000D01*
D13*
X40716200Y-78613000D02*
X40716200Y-80645000D01*
D12*
X44415000Y-78829000D02*
X43215000Y-78829000D01*
%TD*%
M02*
